<?xml version="1.0" standalone="no"?>
 <!DOCTYPE svg PUBLIC "-//W3C//DTD SVG 1.1//EN" 
 "http://www.w3.org/Graphics/SVG/1.1/DTD/svg11.dtd"> 
<svg xmlns="http://www.w3.org/2000/svg" version="1.1" 
    width="29.7002cm" height="21.0007cm" viewBox="0 0 116930 82680 ">
<title>SVG Picture created as Single_transistor_AMP-F.SilkS.svg date 2017/05/25 09:32:30 </title>
  <desc>Picture generated by PCBNEW </desc>
<g style="fill:#000000; fill-opacity:1;stroke:#000000; stroke-opacity:1;
stroke-linecap:round; stroke-linejoin:round; "
 transform="translate(0 0) scale(1 1)">
</g>
<g style="fill:#000000; fill-opacity:0.0; 
stroke:#000000; stroke-width:-0.000393701; stroke-opacity:1; 
stroke-linecap:round; stroke-linejoin:round;">
</g>
<g style="fill:#000000; fill-opacity:0.0; 
stroke:#000000; stroke-width:39.3701; stroke-opacity:1; 
stroke-linecap:round; stroke-linejoin:round;">
</g>
<g style="fill:#000000; fill-opacity:0.0; 
stroke:#000000; stroke-width:59.0551; stroke-opacity:1; 
stroke-linecap:round; stroke-linejoin:round;">
<rect x="69685.9" y="65357.2" width="42519.7" height="12598.4" rx="0" />
</g>
<g style="fill:#000000; fill-opacity:0.0; 
stroke:#000000; stroke-width:39.3701; stroke-opacity:1; 
stroke-linecap:round; stroke-linejoin:round;">
</g>
<g style="fill:#000000; fill-opacity:0.0; 
stroke:#000000; stroke-width:59.0551; stroke-opacity:1; 
stroke-linecap:round; stroke-linejoin:round;">
<rect x="3937.01" y="3937.01" width="109056" height="74806" rx="0" />
</g>
<g style="fill:#000000; fill-opacity:0.0; 
stroke:#000000; stroke-width:39.3701; stroke-opacity:1; 
stroke-linecap:round; stroke-linejoin:round;">
</g>
<g style="fill:#000000; fill-opacity:0.0; 
stroke:#000000; stroke-width:59.0551; stroke-opacity:1; 
stroke-linecap:round; stroke-linejoin:round;">
<rect x="4724.41" y="4724.41" width="107481" height="73231.2" rx="0" />
</g>
<g style="fill:#000000; fill-opacity:0.0; 
stroke:#000000; stroke-width:39.3701; stroke-opacity:1; 
stroke-linecap:round; stroke-linejoin:round;">
</g>
<g style="fill:#000000; fill-opacity:0.0; 
stroke:#000000; stroke-width:59.0551; stroke-opacity:1; 
stroke-linecap:round; stroke-linejoin:round;">
<path d="M23622 4724
L23622 3937
" />
</g>
<g style="fill:#000000; fill-opacity:0.0; 
stroke:#000000; stroke-width:39.3701; stroke-opacity:1; 
stroke-linecap:round; stroke-linejoin:round;">
</g>
<g style="fill:#000000; fill-opacity:0.0; 
stroke:#000000; stroke-width:59.0551; stroke-opacity:1; 
stroke-linecap:round; stroke-linejoin:round;">
<path d="M43307 4724
L43307 3937
" />
</g>
<g style="fill:#000000; fill-opacity:0.0; 
stroke:#000000; stroke-width:39.3701; stroke-opacity:1; 
stroke-linecap:round; stroke-linejoin:round;">
</g>
<g style="fill:#000000; fill-opacity:0.0; 
stroke:#000000; stroke-width:59.0551; stroke-opacity:1; 
stroke-linecap:round; stroke-linejoin:round;">
<path d="M62992 4724
L62992 3937
" />
</g>
<g style="fill:#000000; fill-opacity:0.0; 
stroke:#000000; stroke-width:39.3701; stroke-opacity:1; 
stroke-linecap:round; stroke-linejoin:round;">
</g>
<g style="fill:#000000; fill-opacity:0.0; 
stroke:#000000; stroke-width:59.0551; stroke-opacity:1; 
stroke-linecap:round; stroke-linejoin:round;">
<path d="M82677 4724
L82677 3937
" />
</g>
<g style="fill:#000000; fill-opacity:0.0; 
stroke:#000000; stroke-width:39.3701; stroke-opacity:1; 
stroke-linecap:round; stroke-linejoin:round;">
</g>
<g style="fill:#000000; fill-opacity:0.0; 
stroke:#000000; stroke-width:59.0551; stroke-opacity:1; 
stroke-linecap:round; stroke-linejoin:round;">
<path d="M102362 4724
L102362 3937
" />
</g>
<g style="fill:#000000; fill-opacity:0.0; 
stroke:#000000; stroke-width:39.3701; stroke-opacity:1; 
stroke-linecap:round; stroke-linejoin:round;">
</g>
<g style="fill:#000000; fill-opacity:0.0; 
stroke:#000000; stroke-width:59.0551; stroke-opacity:1; 
stroke-linecap:round; stroke-linejoin:round;">
<path d="M14169 4562
L13877 4562
" />
<path d="M14023 4562
L14023 4050
L13974 4123
L13925 4172
L13877 4196
" />
</g>
<g style="fill:#000000; fill-opacity:0.0; 
stroke:#000000; stroke-width:39.3701; stroke-opacity:1; 
stroke-linecap:round; stroke-linejoin:round;">
</g>
<g style="fill:#000000; fill-opacity:0.0; 
stroke:#000000; stroke-width:59.0551; stroke-opacity:1; 
stroke-linecap:round; stroke-linejoin:round;">
<path d="M33562 4099
L33586 4074
L33635 4050
L33757 4050
L33805 4074
L33830 4099
L33854 4147
L33854 4196
L33830 4269
L33537 4562
L33854 4562
" />
</g>
<g style="fill:#000000; fill-opacity:0.0; 
stroke:#000000; stroke-width:39.3701; stroke-opacity:1; 
stroke-linecap:round; stroke-linejoin:round;">
</g>
<g style="fill:#000000; fill-opacity:0.0; 
stroke:#000000; stroke-width:59.0551; stroke-opacity:1; 
stroke-linecap:round; stroke-linejoin:round;">
<path d="M53222 4050
L53539 4050
L53368 4245
L53442 4245
L53490 4269
L53515 4294
L53539 4342
L53539 4464
L53515 4513
L53490 4537
L53442 4562
L53295 4562
L53247 4537
L53222 4513
" />
</g>
<g style="fill:#000000; fill-opacity:0.0; 
stroke:#000000; stroke-width:39.3701; stroke-opacity:1; 
stroke-linecap:round; stroke-linejoin:round;">
</g>
<g style="fill:#000000; fill-opacity:0.0; 
stroke:#000000; stroke-width:59.0551; stroke-opacity:1; 
stroke-linecap:round; stroke-linejoin:round;">
<path d="M73175 4221
L73175 4562
" />
<path d="M73053 4026
L72932 4391
L73248 4391
" />
</g>
<g style="fill:#000000; fill-opacity:0.0; 
stroke:#000000; stroke-width:39.3701; stroke-opacity:1; 
stroke-linecap:round; stroke-linejoin:round;">
</g>
<g style="fill:#000000; fill-opacity:0.0; 
stroke:#000000; stroke-width:59.0551; stroke-opacity:1; 
stroke-linecap:round; stroke-linejoin:round;">
<path d="M92885 4050
L92641 4050
L92617 4294
L92641 4269
L92690 4245
L92812 4245
L92860 4269
L92885 4294
L92909 4342
L92909 4464
L92885 4513
L92860 4537
L92812 4562
L92690 4562
L92641 4537
L92617 4513
" />
</g>
<g style="fill:#000000; fill-opacity:0.0; 
stroke:#000000; stroke-width:39.3701; stroke-opacity:1; 
stroke-linecap:round; stroke-linejoin:round;">
</g>
<g style="fill:#000000; fill-opacity:0.0; 
stroke:#000000; stroke-width:59.0551; stroke-opacity:1; 
stroke-linecap:round; stroke-linejoin:round;">
<path d="M112545 4050
L112448 4050
L112399 4074
L112375 4099
L112326 4172
L112302 4269
L112302 4464
L112326 4513
L112350 4537
L112399 4562
L112497 4562
L112545 4537
L112570 4513
L112594 4464
L112594 4342
L112570 4294
L112545 4269
L112497 4245
L112399 4245
L112350 4269
L112326 4294
L112302 4342
" />
</g>
<g style="fill:#000000; fill-opacity:0.0; 
stroke:#000000; stroke-width:39.3701; stroke-opacity:1; 
stroke-linecap:round; stroke-linejoin:round;">
</g>
<g style="fill:#000000; fill-opacity:0.0; 
stroke:#000000; stroke-width:59.0551; stroke-opacity:1; 
stroke-linecap:round; stroke-linejoin:round;">
<path d="M23622 77955
L23622 78742
" />
</g>
<g style="fill:#000000; fill-opacity:0.0; 
stroke:#000000; stroke-width:39.3701; stroke-opacity:1; 
stroke-linecap:round; stroke-linejoin:round;">
</g>
<g style="fill:#000000; fill-opacity:0.0; 
stroke:#000000; stroke-width:59.0551; stroke-opacity:1; 
stroke-linecap:round; stroke-linejoin:round;">
<path d="M43307 77955
L43307 78742
" />
</g>
<g style="fill:#000000; fill-opacity:0.0; 
stroke:#000000; stroke-width:39.3701; stroke-opacity:1; 
stroke-linecap:round; stroke-linejoin:round;">
</g>
<g style="fill:#000000; fill-opacity:0.0; 
stroke:#000000; stroke-width:59.0551; stroke-opacity:1; 
stroke-linecap:round; stroke-linejoin:round;">
<path d="M62992 77955
L62992 78742
" />
</g>
<g style="fill:#000000; fill-opacity:0.0; 
stroke:#000000; stroke-width:39.3701; stroke-opacity:1; 
stroke-linecap:round; stroke-linejoin:round;">
</g>
<g style="fill:#000000; fill-opacity:0.0; 
stroke:#000000; stroke-width:59.0551; stroke-opacity:1; 
stroke-linecap:round; stroke-linejoin:round;">
<path d="M82677 77955
L82677 78742
" />
</g>
<g style="fill:#000000; fill-opacity:0.0; 
stroke:#000000; stroke-width:39.3701; stroke-opacity:1; 
stroke-linecap:round; stroke-linejoin:round;">
</g>
<g style="fill:#000000; fill-opacity:0.0; 
stroke:#000000; stroke-width:59.0551; stroke-opacity:1; 
stroke-linecap:round; stroke-linejoin:round;">
<path d="M102362 77955
L102362 78742
" />
</g>
<g style="fill:#000000; fill-opacity:0.0; 
stroke:#000000; stroke-width:39.3701; stroke-opacity:1; 
stroke-linecap:round; stroke-linejoin:round;">
</g>
<g style="fill:#000000; fill-opacity:0.0; 
stroke:#000000; stroke-width:59.0551; stroke-opacity:1; 
stroke-linecap:round; stroke-linejoin:round;">
<path d="M14169 78580
L13877 78580
" />
<path d="M14023 78580
L14023 78069
L13974 78142
L13925 78190
L13877 78215
" />
</g>
<g style="fill:#000000; fill-opacity:0.0; 
stroke:#000000; stroke-width:39.3701; stroke-opacity:1; 
stroke-linecap:round; stroke-linejoin:round;">
</g>
<g style="fill:#000000; fill-opacity:0.0; 
stroke:#000000; stroke-width:59.0551; stroke-opacity:1; 
stroke-linecap:round; stroke-linejoin:round;">
<path d="M33562 78117
L33586 78093
L33635 78069
L33757 78069
L33805 78093
L33830 78117
L33854 78166
L33854 78215
L33830 78288
L33537 78580
L33854 78580
" />
</g>
<g style="fill:#000000; fill-opacity:0.0; 
stroke:#000000; stroke-width:39.3701; stroke-opacity:1; 
stroke-linecap:round; stroke-linejoin:round;">
</g>
<g style="fill:#000000; fill-opacity:0.0; 
stroke:#000000; stroke-width:59.0551; stroke-opacity:1; 
stroke-linecap:round; stroke-linejoin:round;">
<path d="M53222 78069
L53539 78069
L53368 78263
L53442 78263
L53490 78288
L53515 78312
L53539 78361
L53539 78483
L53515 78532
L53490 78556
L53442 78580
L53295 78580
L53247 78556
L53222 78532
" />
</g>
<g style="fill:#000000; fill-opacity:0.0; 
stroke:#000000; stroke-width:39.3701; stroke-opacity:1; 
stroke-linecap:round; stroke-linejoin:round;">
</g>
<g style="fill:#000000; fill-opacity:0.0; 
stroke:#000000; stroke-width:59.0551; stroke-opacity:1; 
stroke-linecap:round; stroke-linejoin:round;">
<path d="M73175 78239
L73175 78580
" />
<path d="M73053 78044
L72932 78410
L73248 78410
" />
</g>
<g style="fill:#000000; fill-opacity:0.0; 
stroke:#000000; stroke-width:39.3701; stroke-opacity:1; 
stroke-linecap:round; stroke-linejoin:round;">
</g>
<g style="fill:#000000; fill-opacity:0.0; 
stroke:#000000; stroke-width:59.0551; stroke-opacity:1; 
stroke-linecap:round; stroke-linejoin:round;">
<path d="M92885 78069
L92641 78069
L92617 78312
L92641 78288
L92690 78263
L92812 78263
L92860 78288
L92885 78312
L92909 78361
L92909 78483
L92885 78532
L92860 78556
L92812 78580
L92690 78580
L92641 78556
L92617 78532
" />
</g>
<g style="fill:#000000; fill-opacity:0.0; 
stroke:#000000; stroke-width:39.3701; stroke-opacity:1; 
stroke-linecap:round; stroke-linejoin:round;">
</g>
<g style="fill:#000000; fill-opacity:0.0; 
stroke:#000000; stroke-width:59.0551; stroke-opacity:1; 
stroke-linecap:round; stroke-linejoin:round;">
<path d="M112545 78069
L112448 78069
L112399 78093
L112375 78117
L112326 78190
L112302 78288
L112302 78483
L112326 78532
L112350 78556
L112399 78580
L112497 78580
L112545 78556
L112570 78532
L112594 78483
L112594 78361
L112570 78312
L112545 78288
L112497 78263
L112399 78263
L112350 78288
L112326 78312
L112302 78361
" />
</g>
<g style="fill:#000000; fill-opacity:0.0; 
stroke:#000000; stroke-width:39.3701; stroke-opacity:1; 
stroke-linecap:round; stroke-linejoin:round;">
</g>
<g style="fill:#000000; fill-opacity:0.0; 
stroke:#000000; stroke-width:59.0551; stroke-opacity:1; 
stroke-linecap:round; stroke-linejoin:round;">
<path d="M3937 23622
L4724 23622
" />
</g>
<g style="fill:#000000; fill-opacity:0.0; 
stroke:#000000; stroke-width:39.3701; stroke-opacity:1; 
stroke-linecap:round; stroke-linejoin:round;">
</g>
<g style="fill:#000000; fill-opacity:0.0; 
stroke:#000000; stroke-width:59.0551; stroke-opacity:1; 
stroke-linecap:round; stroke-linejoin:round;">
<path d="M3937 43307
L4724 43307
" />
</g>
<g style="fill:#000000; fill-opacity:0.0; 
stroke:#000000; stroke-width:39.3701; stroke-opacity:1; 
stroke-linecap:round; stroke-linejoin:round;">
</g>
<g style="fill:#000000; fill-opacity:0.0; 
stroke:#000000; stroke-width:59.0551; stroke-opacity:1; 
stroke-linecap:round; stroke-linejoin:round;">
<path d="M3937 62992
L4724 62992
" />
</g>
<g style="fill:#000000; fill-opacity:0.0; 
stroke:#000000; stroke-width:39.3701; stroke-opacity:1; 
stroke-linecap:round; stroke-linejoin:round;">
</g>
<g style="fill:#000000; fill-opacity:0.0; 
stroke:#000000; stroke-width:59.0551; stroke-opacity:1; 
stroke-linecap:round; stroke-linejoin:round;">
<path d="M4208 13864
L4452 13864
" />
<path d="M4160 14011
L4330 13499
L4501 14011
" />
</g>
<g style="fill:#000000; fill-opacity:0.0; 
stroke:#000000; stroke-width:39.3701; stroke-opacity:1; 
stroke-linecap:round; stroke-linejoin:round;">
</g>
<g style="fill:#000000; fill-opacity:0.0; 
stroke:#000000; stroke-width:59.0551; stroke-opacity:1; 
stroke-linecap:round; stroke-linejoin:round;">
<path d="M4367 33428
L4440 33452
L4464 33476
L4489 33525
L4489 33598
L4464 33647
L4440 33671
L4391 33696
L4196 33696
L4196 33184
L4367 33184
L4416 33208
L4440 33233
L4464 33281
L4464 33330
L4440 33379
L4416 33403
L4367 33428
L4196 33428
" />
</g>
<g style="fill:#000000; fill-opacity:0.0; 
stroke:#000000; stroke-width:39.3701; stroke-opacity:1; 
stroke-linecap:round; stroke-linejoin:round;">
</g>
<g style="fill:#000000; fill-opacity:0.0; 
stroke:#000000; stroke-width:59.0551; stroke-opacity:1; 
stroke-linecap:round; stroke-linejoin:round;">
<path d="M4489 53332
L4464 53356
L4391 53381
L4342 53381
L4269 53356
L4221 53308
L4196 53259
L4172 53161
L4172 53088
L4196 52991
L4221 52942
L4269 52893
L4342 52869
L4391 52869
L4464 52893
L4489 52918
" />
</g>
<g style="fill:#000000; fill-opacity:0.0; 
stroke:#000000; stroke-width:39.3701; stroke-opacity:1; 
stroke-linecap:round; stroke-linejoin:round;">
</g>
<g style="fill:#000000; fill-opacity:0.0; 
stroke:#000000; stroke-width:59.0551; stroke-opacity:1; 
stroke-linecap:round; stroke-linejoin:round;">
<path d="M4196 73066
L4196 72554
L4318 72554
L4391 72578
L4440 72627
L4464 72676
L4489 72773
L4489 72846
L4464 72944
L4440 72993
L4391 73041
L4318 73066
L4196 73066
" />
</g>
<g style="fill:#000000; fill-opacity:0.0; 
stroke:#000000; stroke-width:39.3701; stroke-opacity:1; 
stroke-linecap:round; stroke-linejoin:round;">
</g>
<g style="fill:#000000; fill-opacity:0.0; 
stroke:#000000; stroke-width:59.0551; stroke-opacity:1; 
stroke-linecap:round; stroke-linejoin:round;">
<path d="M112992 23622
L112205 23622
" />
</g>
<g style="fill:#000000; fill-opacity:0.0; 
stroke:#000000; stroke-width:39.3701; stroke-opacity:1; 
stroke-linecap:round; stroke-linejoin:round;">
</g>
<g style="fill:#000000; fill-opacity:0.0; 
stroke:#000000; stroke-width:59.0551; stroke-opacity:1; 
stroke-linecap:round; stroke-linejoin:round;">
<path d="M112992 43307
L112205 43307
" />
</g>
<g style="fill:#000000; fill-opacity:0.0; 
stroke:#000000; stroke-width:39.3701; stroke-opacity:1; 
stroke-linecap:round; stroke-linejoin:round;">
</g>
<g style="fill:#000000; fill-opacity:0.0; 
stroke:#000000; stroke-width:59.0551; stroke-opacity:1; 
stroke-linecap:round; stroke-linejoin:round;">
<path d="M112992 62992
L112205 62992
" />
</g>
<g style="fill:#000000; fill-opacity:0.0; 
stroke:#000000; stroke-width:39.3701; stroke-opacity:1; 
stroke-linecap:round; stroke-linejoin:round;">
</g>
<g style="fill:#000000; fill-opacity:0.0; 
stroke:#000000; stroke-width:59.0551; stroke-opacity:1; 
stroke-linecap:round; stroke-linejoin:round;">
<path d="M112477 13864
L112721 13864
" />
<path d="M112428 14011
L112599 13499
L112769 14011
" />
</g>
<g style="fill:#000000; fill-opacity:0.0; 
stroke:#000000; stroke-width:39.3701; stroke-opacity:1; 
stroke-linecap:round; stroke-linejoin:round;">
</g>
<g style="fill:#000000; fill-opacity:0.0; 
stroke:#000000; stroke-width:59.0551; stroke-opacity:1; 
stroke-linecap:round; stroke-linejoin:round;">
<path d="M112635 33428
L112708 33452
L112733 33476
L112757 33525
L112757 33598
L112733 33647
L112708 33671
L112660 33696
L112465 33696
L112465 33184
L112635 33184
L112684 33208
L112708 33233
L112733 33281
L112733 33330
L112708 33379
L112684 33403
L112635 33428
L112465 33428
" />
</g>
<g style="fill:#000000; fill-opacity:0.0; 
stroke:#000000; stroke-width:39.3701; stroke-opacity:1; 
stroke-linecap:round; stroke-linejoin:round;">
</g>
<g style="fill:#000000; fill-opacity:0.0; 
stroke:#000000; stroke-width:59.0551; stroke-opacity:1; 
stroke-linecap:round; stroke-linejoin:round;">
<path d="M112757 53332
L112733 53356
L112660 53381
L112611 53381
L112538 53356
L112489 53308
L112465 53259
L112440 53161
L112440 53088
L112465 52991
L112489 52942
L112538 52893
L112611 52869
L112660 52869
L112733 52893
L112757 52918
" />
</g>
<g style="fill:#000000; fill-opacity:0.0; 
stroke:#000000; stroke-width:39.3701; stroke-opacity:1; 
stroke-linecap:round; stroke-linejoin:round;">
</g>
<g style="fill:#000000; fill-opacity:0.0; 
stroke:#000000; stroke-width:59.0551; stroke-opacity:1; 
stroke-linecap:round; stroke-linejoin:round;">
<path d="M112465 73066
L112465 72554
L112587 72554
L112660 72578
L112708 72627
L112733 72676
L112757 72773
L112757 72846
L112733 72944
L112708 72993
L112660 73041
L112587 73066
L112465 73066
" />
</g>
<g style="fill:#000000; fill-opacity:0.0; 
stroke:#000000; stroke-width:39.3701; stroke-opacity:1; 
stroke-linecap:round; stroke-linejoin:round;">
</g>
<g style="fill:#000000; fill-opacity:0.0; 
stroke:#000000; stroke-width:59.0551; stroke-opacity:1; 
stroke-linecap:round; stroke-linejoin:round;">
<path d="M78881 76293
L78881 75703
L79022 75703
L79106 75731
L79162 75787
L79190 75843
L79219 75956
L79219 76040
L79190 76153
L79162 76209
L79106 76265
L79022 76293
L78881 76293
" />
<path d="M79725 76293
L79725 75984
L79697 75928
L79640 75899
L79528 75899
L79472 75928
" />
<path d="M79725 76265
L79669 76293
L79528 76293
L79472 76265
L79444 76209
L79444 76153
L79472 76096
L79528 76068
L79669 76068
L79725 76040
" />
<path d="M79922 75899
L80147 75899
" />
<path d="M80006 75703
L80006 76209
L80034 76265
L80090 76293
L80147 76293
" />
<path d="M80568 76265
L80512 76293
L80400 76293
L80343 76265
L80315 76209
L80315 75984
L80343 75928
L80400 75899
L80512 75899
L80568 75928
L80597 75984
L80597 76040
L80315 76096
" />
<path d="M80850 76237
L80878 76265
L80850 76293
L80822 76265
L80850 76237
L80850 76293
" />
<path d="M80850 75928
L80878 75956
L80850 75984
L80822 75956
L80850 75928
L80850 75984
" />
<path d="M81553 75759
L81581 75731
L81637 75703
L81778 75703
L81834 75731
L81862 75759
L81890 75815
L81890 75871
L81862 75956
L81525 76293
L81890 76293
" />
<path d="M82256 75703
L82312 75703
L82368 75731
L82396 75759
L82424 75815
L82453 75928
L82453 76068
L82424 76181
L82396 76237
L82368 76265
L82312 76293
L82256 76293
L82199 76265
L82171 76237
L82143 76181
L82115 76068
L82115 75928
L82143 75815
L82171 75759
L82199 75731
L82256 75703
" />
<path d="M83015 76293
L82678 76293
" />
<path d="M82846 76293
L82846 75703
L82790 75787
L82734 75843
L82678 75871
" />
<path d="M83212 75703
L83606 75703
L83352 76293
" />
<path d="M83831 76068
L84280 76068
" />
<path d="M84674 75703
L84730 75703
L84787 75731
L84815 75759
L84843 75815
L84871 75928
L84871 76068
L84843 76181
L84815 76237
L84787 76265
L84730 76293
L84674 76293
L84618 76265
L84590 76237
L84562 76181
L84534 76068
L84534 75928
L84562 75815
L84590 75759
L84618 75731
L84674 75703
" />
<path d="M85405 75703
L85124 75703
L85096 75984
L85124 75956
L85180 75928
L85321 75928
L85377 75956
L85405 75984
L85433 76040
L85433 76181
L85405 76237
L85377 76265
L85321 76293
L85180 76293
L85124 76265
L85096 76237
" />
<path d="M85687 76068
L86136 76068
" />
<path d="M86727 76293
L86390 76293
" />
<path d="M86558 76293
L86558 75703
L86502 75787
L86446 75843
L86390 75871
" />
<path d="M87289 76293
L86952 76293
" />
<path d="M87121 76293
L87121 75703
L87064 75787
L87008 75843
L86952 75871
" />
</g>
<g style="fill:#000000; fill-opacity:0.0; 
stroke:#000000; stroke-width:39.3701; stroke-opacity:1; 
stroke-linecap:round; stroke-linejoin:round;">
</g>
<g style="fill:#000000; fill-opacity:0.0; 
stroke:#000000; stroke-width:59.0551; stroke-opacity:1; 
stroke-linecap:round; stroke-linejoin:round;">
<path d="M69685 76577
L112205 76577
" />
</g>
<g style="fill:#000000; fill-opacity:0.0; 
stroke:#000000; stroke-width:39.3701; stroke-opacity:1; 
stroke-linecap:round; stroke-linejoin:round;">
</g>
<g style="fill:#000000; fill-opacity:0.0; 
stroke:#000000; stroke-width:59.0551; stroke-opacity:1; 
stroke-linecap:round; stroke-linejoin:round;">
<path d="M70220 77395
L70220 76805
" />
<path d="M70557 77395
L70304 77058
" />
<path d="M70557 76805
L70220 77142
" />
<path d="M70810 77395
L70810 77002
" />
<path d="M70810 76805
L70782 76833
L70810 76861
L70838 76833
L70810 76805
L70810 76861
" />
<path d="M71429 77339
L71401 77367
L71316 77395
L71260 77395
L71176 77367
L71120 77311
L71091 77255
L71063 77142
L71063 77058
L71091 76946
L71120 76889
L71176 76833
L71260 76805
L71316 76805
L71401 76833
L71429 76861
" />
<path d="M71935 77395
L71935 77086
L71907 77030
L71851 77002
L71738 77002
L71682 77030
" />
<path d="M71935 77367
L71879 77395
L71738 77395
L71682 77367
L71654 77311
L71654 77255
L71682 77199
L71738 77171
L71879 77171
L71935 77142
" />
<path d="M72469 77395
L72469 76805
" />
<path d="M72469 77367
L72413 77395
L72301 77395
L72244 77367
L72216 77339
L72188 77283
L72188 77114
L72216 77058
L72244 77030
L72301 77002
L72413 77002
L72469 77030
" />
<path d="M73201 77086
L73397 77086
" />
<path d="M73482 77395
L73201 77395
L73201 76805
L73482 76805
" />
<path d="M73735 77339
L73763 77367
L73735 77395
L73707 77367
L73735 77339
L73735 77395
" />
<path d="M74016 77395
L74016 76805
L74157 76805
L74241 76833
L74297 76889
L74325 76946
L74354 77058
L74354 77142
L74325 77255
L74297 77311
L74241 77367
L74157 77395
L74016 77395
" />
<path d="M74607 77339
L74635 77367
L74607 77395
L74579 77367
L74607 77339
L74607 77395
" />
<path d="M74860 77227
L75141 77227
" />
<path d="M74804 77395
L75000 76805
L75197 77395
" />
<path d="M75394 77339
L75422 77367
L75394 77395
L75366 77367
L75394 77339
L75394 77395
" />
<path d="M76575 77395
L76575 76805
" />
<path d="M76631 77171
L76800 77395
" />
<path d="M76800 77002
L76575 77227
" />
<path d="M77053 77395
L77053 77002
" />
<path d="M77053 76805
L77025 76833
L77053 76861
L77081 76833
L77053 76805
L77053 76861
" />
<path d="M77588 77367
L77531 77395
L77419 77395
L77363 77367
L77334 77339
L77306 77283
L77306 77114
L77334 77058
L77363 77030
L77419 77002
L77531 77002
L77588 77030
" />
<path d="M78094 77395
L78094 77086
L78066 77030
L78009 77002
L77897 77002
L77841 77030
" />
<path d="M78094 77367
L78037 77395
L77897 77395
L77841 77367
L77813 77311
L77813 77255
L77841 77199
L77897 77171
L78037 77171
L78094 77142
" />
<path d="M78628 77395
L78628 76805
" />
<path d="M78628 77367
L78572 77395
L78459 77395
L78403 77367
L78375 77339
L78347 77283
L78347 77114
L78375 77058
L78403 77030
L78459 77002
L78572 77002
L78628 77030
" />
<path d="M79612 77002
L79612 77395
" />
<path d="M79472 76777
L79331 77199
L79697 77199
" />
<path d="M79922 77339
L79950 77367
L79922 77395
L79894 77367
L79922 77339
L79922 77395
" />
<path d="M80315 76805
L80372 76805
L80428 76833
L80456 76861
L80484 76917
L80512 77030
L80512 77171
L80484 77283
L80456 77339
L80428 77367
L80372 77395
L80315 77395
L80259 77367
L80231 77339
L80203 77283
L80175 77171
L80175 77030
L80203 76917
L80231 76861
L80259 76833
L80315 76805
" />
<path d="M80765 77339
L80793 77367
L80765 77395
L80737 77367
L80765 77339
L80765 77395
" />
<path d="M81328 76805
L81046 76805
L81018 77086
L81046 77058
L81103 77030
L81243 77030
L81300 77058
L81328 77086
L81356 77142
L81356 77283
L81328 77339
L81300 77367
L81243 77395
L81103 77395
L81046 77367
L81018 77339
" />
</g>
<g style="fill:#000000; fill-opacity:0.0; 
stroke:#000000; stroke-width:39.3701; stroke-opacity:1; 
stroke-linecap:round; stroke-linejoin:round;">
</g>
<g style="fill:#000000; fill-opacity:0.0; 
stroke:#000000; stroke-width:59.0551; stroke-opacity:1; 
stroke-linecap:round; stroke-linejoin:round;">
<path d="M69685 75396
L112205 75396
" />
</g>
<g style="fill:#000000; fill-opacity:0.0; 
stroke:#000000; stroke-width:39.3701; stroke-opacity:1; 
stroke-linecap:round; stroke-linejoin:round;">
</g>
<g style="fill:#000000; fill-opacity:0.0; 
stroke:#000000; stroke-width:118.11; stroke-opacity:1; 
stroke-linecap:round; stroke-linejoin:round;">
<path d="M104022 76293
L103825 76012
" />
<path d="M103684 76293
L103684 75703
L103909 75703
L103965 75731
L103994 75759
L104022 75815
L104022 75899
L103994 75956
L103965 75984
L103909 76012
L103684 76012
" />
<path d="M104500 76265
L104444 76293
L104331 76293
L104275 76265
L104247 76209
L104247 75984
L104275 75928
L104331 75899
L104444 75899
L104500 75928
L104528 75984
L104528 76040
L104247 76096
" />
<path d="M104725 75899
L104865 76293
L105006 75899
" />
<path d="M105231 76237
L105259 76265
L105231 76293
L105203 76265
L105231 76237
L105231 76293
" />
<path d="M105231 75928
L105259 75956
L105231 75984
L105203 75956
L105231 75928
L105231 75984
" />
<path d="M105878 75703
L106075 76293
L106271 75703
" />
<path d="M106778 76293
L106440 76293
" />
<path d="M106609 76293
L106609 75703
L106553 75787
L106496 75843
L106440 75871
" />
<path d="M107031 76237
L107059 76265
L107031 76293
L107003 76265
L107031 76237
L107031 76293
" />
<path d="M107424 75703
L107481 75703
L107537 75731
L107565 75759
L107593 75815
L107621 75928
L107621 76068
L107593 76181
L107565 76237
L107537 76265
L107481 76293
L107424 76293
L107368 76265
L107340 76237
L107312 76181
L107284 76068
L107284 75928
L107312 75815
L107340 75759
L107368 75731
L107424 75703
" />
</g>
<g style="fill:#000000; fill-opacity:0.0; 
stroke:#000000; stroke-width:39.3701; stroke-opacity:1; 
stroke-linecap:round; stroke-linejoin:round;">
</g>
<g style="fill:#000000; fill-opacity:0.0; 
stroke:#000000; stroke-width:59.0551; stroke-opacity:1; 
stroke-linecap:round; stroke-linejoin:round;">
<path d="M70192 76265
L70276 76293
L70417 76293
L70473 76265
L70501 76237
L70529 76181
L70529 76124
L70501 76068
L70473 76040
L70417 76012
L70304 75984
L70248 75956
L70220 75928
L70192 75871
L70192 75815
L70220 75759
L70248 75731
L70304 75703
L70445 75703
L70529 75731
" />
<path d="M70782 76293
L70782 75899
" />
<path d="M70782 75703
L70754 75731
L70782 75759
L70810 75731
L70782 75703
L70782 75759
" />
<path d="M71007 75899
L71316 75899
L71007 76293
L71316 76293
" />
<path d="M71766 76265
L71710 76293
L71598 76293
L71541 76265
L71513 76209
L71513 75984
L71541 75928
L71598 75899
L71710 75899
L71766 75928
L71795 75984
L71795 76040
L71513 76096
" />
<path d="M72048 76237
L72076 76265
L72048 76293
L72019 76265
L72048 76237
L72048 76293
" />
<path d="M72048 75928
L72076 75956
L72048 75984
L72019 75956
L72048 75928
L72048 75984
" />
<path d="M72751 76124
L73032 76124
" />
<path d="M72694 76293
L72891 75703
L73088 76293
" />
<path d="M73538 75899
L73538 76293
" />
<path d="M73397 75674
L73257 76096
L73622 76096
" />
</g>
<g style="fill:#000000; fill-opacity:0.0; 
stroke:#000000; stroke-width:39.3701; stroke-opacity:1; 
stroke-linecap:round; stroke-linejoin:round;">
</g>
<g style="fill:#000000; fill-opacity:0.0; 
stroke:#000000; stroke-width:59.0551; stroke-opacity:1; 
stroke-linecap:round; stroke-linejoin:round;">
<path d="M103684 77395
L103684 76805
" />
<path d="M104219 77395
L104219 76805
" />
<path d="M104219 77367
L104162 77395
L104050 77395
L103994 77367
L103965 77339
L103937 77283
L103937 77114
L103965 77058
L103994 77030
L104050 77002
L104162 77002
L104219 77030
" />
<path d="M104500 77339
L104528 77367
L104500 77395
L104472 77367
L104500 77339
L104500 77395
" />
<path d="M104500 77030
L104528 77058
L104500 77086
L104472 77058
L104500 77030
L104500 77086
" />
<path d="M105540 77395
L105203 77395
" />
<path d="M105372 77395
L105372 76805
L105315 76889
L105259 76946
L105203 76974
" />
<path d="M106215 76777
L105709 77536
" />
<path d="M106721 77395
L106384 77395
" />
<path d="M106553 77395
L106553 76805
L106496 76889
L106440 76946
L106384 76974
" />
</g>
<g style="fill:#000000; fill-opacity:0.0; 
stroke:#000000; stroke-width:39.3701; stroke-opacity:1; 
stroke-linecap:round; stroke-linejoin:round;">
</g>
<g style="fill:#000000; fill-opacity:0.0; 
stroke:#000000; stroke-width:59.0551; stroke-opacity:1; 
stroke-linecap:round; stroke-linejoin:round;">
<path d="M69685 73821
L112205 73821
" />
</g>
<g style="fill:#000000; fill-opacity:0.0; 
stroke:#000000; stroke-width:39.3701; stroke-opacity:1; 
stroke-linecap:round; stroke-linejoin:round;">
</g>
<g style="fill:#000000; fill-opacity:0.0; 
stroke:#000000; stroke-width:157.48; stroke-opacity:1; 
stroke-linecap:round; stroke-linejoin:round;">
<path d="M70257 74099
L70707 74099
" />
<path d="M70384 74886
L70482 74099
" />
<path d="M70871 74886
L70937 74361
" />
<path d="M70970 74099
L70927 74136
L70960 74174
L71002 74136
L70970 74099
L70960 74174
" />
<path d="M71199 74361
L71499 74361
" />
<path d="M71345 74099
L71260 74774
L71288 74849
L71359 74886
L71434 74886
" />
<path d="M71809 74886
L71738 74849
L71710 74774
L71795 74099
" />
<path d="M72413 74849
L72334 74886
L72184 74886
L72113 74849
L72085 74774
L72123 74474
L72169 74399
L72249 74361
L72399 74361
L72469 74399
L72498 74474
L72488 74549
L72104 74624
" />
<path d="M72793 74811
L72826 74849
L72783 74886
L72751 74849
L72793 74811
L72783 74886
" />
<path d="M72844 74399
L72877 74436
L72835 74474
L72802 74436
L72844 74399
L72835 74474
" />
<path d="M73726 74849
L73833 74886
L74021 74886
L74100 74849
L74143 74811
L74190 74736
L74199 74661
L74171 74586
L74138 74549
L74068 74511
L73922 74474
L73852 74436
L73819 74399
L73791 74324
L73801 74249
L73847 74174
L73890 74136
L73969 74099
L74157 74099
L74265 74136
" />
<path d="M74508 74886
L74574 74361
" />
<path d="M74607 74099
L74564 74136
L74597 74174
L74639 74136
L74607 74099
L74597 74174
" />
<path d="M74949 74361
L74883 74886
" />
<path d="M74939 74436
L74982 74399
L75061 74361
L75174 74361
L75244 74399
L75272 74474
L75221 74886
" />
<path d="M75999 74361
L75919 74999
L75872 75074
L75830 75111
L75750 75149
L75638 75149
L75567 75111
" />
<path d="M75938 74849
L75858 74886
L75708 74886
L75638 74849
L75605 74811
L75577 74736
L75605 74511
L75652 74436
L75694 74399
L75774 74361
L75924 74361
L75994 74399
" />
<path d="M76421 74886
L76350 74849
L76322 74774
L76406 74099
" />
<path d="M77025 74849
L76945 74886
L76795 74886
L76725 74849
L76697 74774
L76735 74474
L76781 74399
L76861 74361
L77011 74361
L77081 74399
L77109 74474
L77100 74549
L76716 74624
" />
<path d="M77199 74961
L77798 74961
" />
<path d="M77981 74099
L78431 74099
" />
<path d="M78108 74886
L78206 74099
" />
<path d="M78595 74886
L78661 74361
" />
<path d="M78642 74511
L78689 74436
L78731 74399
L78811 74361
L78886 74361
" />
<path d="M79420 74886
L79472 74474
L79444 74399
L79373 74361
L79223 74361
L79144 74399
" />
<path d="M79425 74849
L79345 74886
L79158 74886
L79087 74849
L79059 74774
L79069 74699
L79115 74624
L79195 74586
L79383 74586
L79462 74549
" />
<path d="M79861 74361
L79795 74886
" />
<path d="M79851 74436
L79894 74399
L79973 74361
L80086 74361
L80156 74399
L80184 74474
L80133 74886
" />
<path d="M80475 74849
L80545 74886
L80695 74886
L80775 74849
L80822 74774
L80826 74736
L80798 74661
L80728 74624
L80615 74624
L80545 74586
L80517 74511
L80522 74474
L80568 74399
L80648 74361
L80761 74361
L80831 74399
" />
<path d="M81145 74886
L81211 74361
" />
<path d="M81243 74099
L81201 74136
L81234 74174
L81276 74136
L81243 74099
L81234 74174
" />
<path d="M81487 74849
L81557 74886
L81707 74886
L81787 74849
L81834 74774
L81839 74736
L81810 74661
L81740 74624
L81628 74624
L81557 74586
L81529 74511
L81534 74474
L81581 74399
L81660 74361
L81773 74361
L81843 74399
" />
<path d="M82110 74361
L82410 74361
" />
<path d="M82256 74099
L82171 74774
L82199 74849
L82270 74886
L82345 74886
" />
<path d="M82720 74886
L82649 74849
L82617 74811
L82588 74736
L82617 74511
L82663 74436
L82706 74399
L82785 74361
L82898 74361
L82968 74399
L83001 74436
L83029 74511
L83001 74736
L82954 74811
L82912 74849
L82832 74886
L82720 74886
" />
<path d="M83320 74886
L83385 74361
" />
<path d="M83367 74511
L83413 74436
L83456 74399
L83535 74361
L83610 74361
" />
<path d="M83610 74961
L84210 74961
" />
<path d="M84398 74661
L84773 74661
" />
<path d="M84295 74886
L84655 74099
L84819 74886
" />
<path d="M85082 74886
L85180 74099
L85373 74661
L85705 74099
L85607 74886
" />
<path d="M85982 74886
L86080 74099
L86380 74099
L86450 74136
L86483 74174
L86511 74249
L86497 74361
L86450 74436
L86408 74474
L86329 74511
L86029 74511
" />
</g>
<g style="fill:#000000; fill-opacity:0.0; 
stroke:#000000; stroke-width:39.3701; stroke-opacity:1; 
stroke-linecap:round; stroke-linejoin:round;">
</g>
<g style="fill:#000000; fill-opacity:0.0; 
stroke:#000000; stroke-width:59.0551; stroke-opacity:1; 
stroke-linecap:round; stroke-linejoin:round;">
<path d="M70417 73070
L70220 73070
" />
<path d="M70220 73380
L70220 72789
L70501 72789
" />
<path d="M70726 73380
L70726 72986
" />
<path d="M70726 72789
L70698 72817
L70726 72845
L70754 72817
L70726 72789
L70726 72845
" />
<path d="M71091 73380
L71035 73352
L71007 73295
L71007 72789
" />
<path d="M71541 73352
L71485 73380
L71373 73380
L71316 73352
L71288 73295
L71288 73070
L71316 73014
L71373 72986
L71485 72986
L71541 73014
L71570 73070
L71570 73127
L71288 73183
" />
<path d="M71823 73323
L71851 73352
L71823 73380
L71795 73352
L71823 73323
L71823 73380
" />
<path d="M71823 73014
L71851 73042
L71823 73070
L71795 73042
L71823 73014
L71823 73070
" />
<path d="M72526 73352
L72610 73380
L72751 73380
L72807 73352
L72835 73323
L72863 73267
L72863 73211
L72835 73155
L72807 73127
L72751 73099
L72638 73070
L72582 73042
L72554 73014
L72526 72958
L72526 72902
L72554 72845
L72582 72817
L72638 72789
L72779 72789
L72863 72817
" />
<path d="M73116 73380
L73116 72986
" />
<path d="M73116 72789
L73088 72817
L73116 72845
L73144 72817
L73116 72789
L73116 72845
" />
<path d="M73397 72986
L73397 73380
" />
<path d="M73397 73042
L73426 73014
L73482 72986
L73566 72986
L73622 73014
L73651 73070
L73651 73380
" />
<path d="M74185 72986
L74185 73464
L74157 73520
L74129 73548
L74072 73577
L73988 73577
L73932 73548
" />
<path d="M74185 73352
L74129 73380
L74016 73380
L73960 73352
L73932 73323
L73904 73267
L73904 73099
L73932 73042
L73960 73014
L74016 72986
L74129 72986
L74185 73014
" />
<path d="M74550 73380
L74494 73352
L74466 73295
L74466 72789
" />
<path d="M75000 73352
L74944 73380
L74832 73380
L74775 73352
L74747 73295
L74747 73070
L74775 73014
L74832 72986
L74944 72986
L75000 73014
L75028 73070
L75028 73127
L74747 73183
" />
<path d="M75141 73436
L75591 73436
" />
<path d="M75647 72986
L75872 72986
" />
<path d="M75732 72789
L75732 73295
L75760 73352
L75816 73380
L75872 73380
" />
<path d="M76069 73380
L76069 72986
" />
<path d="M76069 73099
L76097 73042
L76125 73014
L76181 72986
L76238 72986
" />
<path d="M76688 73380
L76688 73070
L76660 73014
L76603 72986
L76491 72986
L76435 73014
" />
<path d="M76688 73352
L76631 73380
L76491 73380
L76435 73352
L76406 73295
L76406 73239
L76435 73183
L76491 73155
L76631 73155
L76688 73127
" />
<path d="M76969 72986
L76969 73380
" />
<path d="M76969 73042
L76997 73014
L77053 72986
L77138 72986
L77194 73014
L77222 73070
L77222 73380
" />
<path d="M77475 73352
L77531 73380
L77644 73380
L77700 73352
L77728 73295
L77728 73267
L77700 73211
L77644 73183
L77559 73183
L77503 73155
L77475 73099
L77475 73070
L77503 73014
L77559 72986
L77644 72986
L77700 73014
" />
<path d="M77981 73380
L77981 72986
" />
<path d="M77981 72789
L77953 72817
L77981 72845
L78009 72817
L77981 72789
L77981 72845
" />
<path d="M78234 73352
L78291 73380
L78403 73380
L78459 73352
L78487 73295
L78487 73267
L78459 73211
L78403 73183
L78319 73183
L78262 73155
L78234 73099
L78234 73070
L78262 73014
L78319 72986
L78403 72986
L78459 73014
" />
<path d="M78656 72986
L78881 72986
" />
<path d="M78741 72789
L78741 73295
L78769 73352
L78825 73380
L78881 73380
" />
<path d="M79162 73380
L79106 73352
L79078 73323
L79050 73267
L79050 73099
L79078 73042
L79106 73014
L79162 72986
L79247 72986
L79303 73014
L79331 73042
L79359 73099
L79359 73267
L79331 73323
L79303 73352
L79247 73380
L79162 73380
" />
<path d="M79612 73380
L79612 72986
" />
<path d="M79612 73099
L79640 73042
L79669 73014
L79725 72986
L79781 72986
" />
<path d="M79837 73436
L80287 73436
" />
<path d="M80400 73211
L80681 73211
" />
<path d="M80343 73380
L80540 72789
L80737 73380
" />
<path d="M80934 73380
L80934 72789
L81131 73211
L81328 72789
L81328 73380
" />
<path d="M81609 73380
L81609 72789
L81834 72789
L81890 72817
L81918 72845
L81946 72902
L81946 72986
L81918 73042
L81890 73070
L81834 73099
L81609 73099
" />
<path d="M82199 73323
L82228 73352
L82199 73380
L82171 73352
L82199 73323
L82199 73380
" />
<path d="M82481 73380
L82481 72789
" />
<path d="M82537 73155
L82706 73380
" />
<path d="M82706 72986
L82481 73211
" />
<path d="M82959 73380
L82959 72986
" />
<path d="M82959 72789
L82931 72817
L82959 72845
L82987 72817
L82959 72789
L82959 72845
" />
<path d="M83493 73352
L83437 73380
L83324 73380
L83268 73352
L83240 73323
L83212 73267
L83212 73099
L83240 73042
L83268 73014
L83324 72986
L83437 72986
L83493 73014
" />
<path d="M83999 73380
L83999 73070
L83971 73014
L83915 72986
L83802 72986
L83746 73014
" />
<path d="M83999 73352
L83943 73380
L83802 73380
L83746 73352
L83718 73295
L83718 73239
L83746 73183
L83802 73155
L83943 73155
L83999 73127
" />
<path d="M84534 73380
L84534 72789
" />
<path d="M84534 73352
L84477 73380
L84365 73380
L84309 73352
L84280 73323
L84252 73267
L84252 73099
L84280 73042
L84309 73014
L84365 72986
L84477 72986
L84534 73014
" />
<path d="M84674 73436
L85124 73436
" />
<path d="M85265 72986
L85265 73577
" />
<path d="M85265 73014
L85321 72986
L85433 72986
L85490 73014
L85518 73042
L85546 73099
L85546 73267
L85518 73323
L85490 73352
L85433 73380
L85321 73380
L85265 73352
" />
<path d="M86052 73352
L85996 73380
L85883 73380
L85827 73352
L85799 73323
L85771 73267
L85771 73099
L85799 73042
L85827 73014
L85883 72986
L85996 72986
L86052 73014
" />
<path d="M86305 73380
L86305 72789
" />
<path d="M86305 73014
L86361 72986
L86474 72986
L86530 73014
L86558 73042
L86586 73099
L86586 73267
L86558 73323
L86530 73352
L86474 73380
L86361 73380
L86305 73352
" />
</g>
<g style="fill:#000000; fill-opacity:0.0; 
stroke:#000000; stroke-width:39.3701; stroke-opacity:1; 
stroke-linecap:round; stroke-linejoin:round;">
</g>
<g style="fill:#000000; fill-opacity:0.0; 
stroke:#000000; stroke-width:59.0551; stroke-opacity:1; 
stroke-linecap:round; stroke-linejoin:round;">
<path d="M69685 71459
L112205 71459
" />
</g>
<g style="fill:#000000; fill-opacity:0.0; 
stroke:#000000; stroke-width:39.3701; stroke-opacity:1; 
stroke-linecap:round; stroke-linejoin:round;">
</g>
<g style="fill:#000000; fill-opacity:0.0; 
stroke:#000000; stroke-width:59.0551; stroke-opacity:1; 
stroke-linecap:round; stroke-linejoin:round;">
<path d="M70192 72289
L70276 72317
L70417 72317
L70473 72289
L70501 72260
L70529 72204
L70529 72148
L70501 72092
L70473 72064
L70417 72036
L70304 72007
L70248 71979
L70220 71951
L70192 71895
L70192 71839
L70220 71782
L70248 71754
L70304 71726
L70445 71726
L70529 71754
" />
<path d="M70782 72317
L70782 71726
" />
<path d="M71035 72317
L71035 72007
L71007 71951
L70951 71923
L70867 71923
L70810 71951
L70782 71979
" />
<path d="M71541 72289
L71485 72317
L71373 72317
L71316 72289
L71288 72232
L71288 72007
L71316 71951
L71373 71923
L71485 71923
L71541 71951
L71570 72007
L71570 72064
L71288 72120
" />
<path d="M72048 72289
L71991 72317
L71879 72317
L71823 72289
L71795 72232
L71795 72007
L71823 71951
L71879 71923
L71991 71923
L72048 71951
L72076 72007
L72076 72064
L71795 72120
" />
<path d="M72244 71923
L72469 71923
" />
<path d="M72329 71726
L72329 72232
L72357 72289
L72413 72317
L72469 72317
" />
<path d="M72666 72260
L72694 72289
L72666 72317
L72638 72289
L72666 72260
L72666 72317
" />
<path d="M72666 71951
L72694 71979
L72666 72007
L72638 71979
L72666 71951
L72666 72007
" />
</g>
<g style="fill:#000000; fill-opacity:0.0; 
stroke:#000000; stroke-width:39.3701; stroke-opacity:1; 
stroke-linecap:round; stroke-linejoin:round;">
</g>
<g style="fill:#000000; fill-opacity:0.0; 
stroke:#000000; stroke-width:118.11; stroke-opacity:1; 
stroke-linecap:round; stroke-linejoin:round;">
<path d="M70135 70545
L70332 71136
L70529 70545
" />
<path d="M70951 71108
L70895 71136
L70782 71136
L70726 71108
L70698 71051
L70698 70826
L70726 70770
L70782 70742
L70895 70742
L70951 70770
L70979 70826
L70979 70883
L70698 70939
" />
<path d="M71232 70742
L71232 71136
" />
<path d="M71232 70798
L71260 70770
L71316 70742
L71401 70742
L71457 70770
L71485 70826
L71485 71136
" />
<path d="M71682 70742
L71907 70742
" />
<path d="M71766 70545
L71766 71051
L71795 71108
L71851 71136
L71907 71136
" />
<path d="M72076 71108
L72132 71136
L72244 71136
L72301 71108
L72329 71051
L72329 71023
L72301 70967
L72244 70939
L72160 70939
L72104 70911
L72076 70854
L72076 70826
L72104 70770
L72160 70742
L72244 70742
L72301 70770
" />
<path d="M72582 70742
L72582 71332
" />
<path d="M72582 70770
L72638 70742
L72751 70742
L72807 70770
L72835 70798
L72863 70854
L72863 71023
L72835 71079
L72807 71108
L72751 71136
L72638 71136
L72582 71108
" />
<path d="M73116 71136
L73116 70742
" />
<path d="M73116 70545
L73088 70573
L73116 70601
L73144 70573
L73116 70545
L73116 70601
" />
<path d="M73482 71136
L73426 71108
L73397 71051
L73397 70545
" />
<path d="M73679 71108
L73735 71136
L73847 71136
L73904 71108
L73932 71051
L73932 71023
L73904 70967
L73847 70939
L73763 70939
L73707 70911
L73679 70854
L73679 70826
L73707 70770
L73763 70742
L73847 70742
L73904 70770
" />
<path d="M74607 70967
L74888 70967
" />
<path d="M74550 71136
L74747 70545
L74944 71136
" />
<path d="M75394 70742
L75394 71136
" />
<path d="M75141 70742
L75141 71051
L75169 71108
L75225 71136
L75310 71136
L75366 71108
L75394 71079
" />
<path d="M75928 70742
L75928 71220
L75900 71276
L75872 71304
L75816 71332
L75732 71332
L75675 71304
" />
<path d="M75928 71108
L75872 71136
L75760 71136
L75703 71108
L75675 71079
L75647 71023
L75647 70854
L75675 70798
L75703 70770
L75760 70742
L75872 70742
L75928 70770
" />
<path d="M76181 71108
L76238 71136
L76350 71136
L76406 71108
L76435 71051
L76435 71023
L76406 70967
L76350 70939
L76266 70939
L76210 70911
L76181 70854
L76181 70826
L76210 70770
L76266 70742
L76350 70742
L76406 70770
" />
<path d="M76603 70742
L76828 70742
" />
<path d="M76688 70545
L76688 71051
L76716 71108
L76772 71136
L76828 71136
" />
<path d="M76997 71108
L77053 71136
L77166 71136
L77222 71108
L77250 71051
L77250 71023
L77222 70967
L77166 70939
L77081 70939
L77025 70911
L76997 70854
L76997 70826
L77025 70770
L77081 70742
L77166 70742
L77222 70770
" />
<path d="M77503 71136
L77503 70545
" />
<path d="M77559 70911
L77728 71136
" />
<path d="M77728 70742
L77503 70967
" />
<path d="M78066 71136
L78009 71108
L77981 71079
L77953 71023
L77953 70854
L77981 70798
L78009 70770
L78066 70742
L78150 70742
L78206 70770
L78234 70798
L78262 70854
L78262 71023
L78234 71079
L78206 71108
L78150 71136
L78066 71136
" />
<path d="M78600 71136
L78544 71108
L78516 71051
L78516 70545
" />
<path d="M79078 71136
L79078 70826
L79050 70770
L78994 70742
L78881 70742
L78825 70770
" />
<path d="M79078 71108
L79022 71136
L78881 71136
L78825 71108
L78797 71051
L78797 70995
L78825 70939
L78881 70911
L79022 70911
L79078 70883
" />
</g>
<g style="fill:#000000; fill-opacity:0.0; 
stroke:#000000; stroke-width:39.3701; stroke-opacity:1; 
stroke-linecap:round; stroke-linejoin:round;">
</g>
<g style="fill:#000000; fill-opacity:0.0; 
stroke:#000000; stroke-width:59.0551; stroke-opacity:1; 
stroke-linecap:round; stroke-linejoin:round;">
<path d="M70192 69786
L70473 69786
" />
<path d="M70135 69955
L70332 69364
L70529 69955
" />
<path d="M70979 69561
L70979 69955
" />
<path d="M70726 69561
L70726 69870
L70754 69926
L70810 69955
L70895 69955
L70951 69926
L70979 69898
" />
<path d="M71176 69561
L71401 69561
" />
<path d="M71260 69364
L71260 69870
L71288 69926
L71345 69955
L71401 69955
" />
<path d="M71682 69955
L71626 69926
L71598 69898
L71570 69842
L71570 69673
L71598 69617
L71626 69589
L71682 69561
L71766 69561
L71823 69589
L71851 69617
L71879 69673
L71879 69842
L71851 69898
L71823 69926
L71766 69955
L71682 69955
" />
<path d="M72132 69955
L72132 69561
" />
<path d="M72132 69673
L72160 69617
L72188 69589
L72244 69561
L72301 69561
" />
<path d="M72469 69926
L72526 69955
L72638 69955
L72694 69926
L72723 69870
L72723 69842
L72694 69786
L72638 69758
L72554 69758
L72498 69730
L72469 69673
L72469 69645
L72498 69589
L72554 69561
L72638 69561
L72694 69589
" />
</g>
<g style="fill:#000000; fill-opacity:0.0; 
stroke:#000000; stroke-width:39.3701; stroke-opacity:1; 
stroke-linecap:round; stroke-linejoin:round;">
</g>
<g style="fill:#000000; fill-opacity:0.0; 
stroke:#000000; stroke-width:59.0551; stroke-opacity:1; 
stroke-linecap:round; stroke-linejoin:round;">
<path d="M70220 68773
L70220 68183
" />
<path d="M70557 68773
L70304 68436
" />
<path d="M70557 68183
L70220 68520
" />
<path d="M70810 68773
L70810 68380
" />
<path d="M70810 68492
L70838 68436
L70867 68408
L70923 68380
L70979 68380
" />
<path d="M71176 68773
L71176 68380
" />
<path d="M71176 68183
L71148 68211
L71176 68239
L71204 68211
L71176 68183
L71176 68239
" />
<path d="M71429 68745
L71485 68773
L71598 68773
L71654 68745
L71682 68689
L71682 68661
L71654 68605
L71598 68577
L71513 68577
L71457 68548
L71429 68492
L71429 68464
L71457 68408
L71513 68380
L71598 68380
L71654 68408
" />
<path d="M71851 68380
L72076 68380
" />
<path d="M71935 68183
L71935 68689
L71963 68745
L72019 68773
L72076 68773
" />
<path d="M72526 68773
L72526 68464
L72498 68408
L72441 68380
L72329 68380
L72273 68408
" />
<path d="M72526 68745
L72469 68773
L72329 68773
L72273 68745
L72244 68689
L72244 68633
L72273 68577
L72329 68548
L72469 68548
L72526 68520
" />
<path d="M72807 68380
L72807 68970
" />
<path d="M72807 68408
L72863 68380
L72976 68380
L73032 68408
L73060 68436
L73088 68492
L73088 68661
L73060 68717
L73032 68745
L72976 68773
L72863 68773
L72807 68745
" />
<path d="M73313 68745
L73369 68773
L73482 68773
L73538 68745
L73566 68689
L73566 68661
L73538 68605
L73482 68577
L73397 68577
L73341 68548
L73313 68492
L73313 68464
L73341 68408
L73397 68380
L73482 68380
L73538 68408
" />
<path d="M74269 68773
L74269 68183
" />
<path d="M74607 68773
L74354 68436
" />
<path d="M74607 68183
L74269 68520
" />
<path d="M75113 68773
L75113 68464
L75085 68408
L75028 68380
L74916 68380
L74860 68408
" />
<path d="M75113 68745
L75057 68773
L74916 68773
L74860 68745
L74832 68689
L74832 68633
L74860 68577
L74916 68548
L75057 68548
L75113 68520
" />
<path d="M75478 68773
L75422 68745
L75394 68689
L75394 68183
" />
<path d="M75703 68380
L75703 68773
" />
<path d="M75703 68436
L75732 68408
L75788 68380
L75872 68380
L75928 68408
L75956 68464
L75956 68773
" />
<path d="M76238 68773
L76238 68380
" />
<path d="M76238 68183
L76210 68211
L76238 68239
L76266 68211
L76238 68183
L76238 68239
" />
<path d="M76519 68380
L76519 68773
" />
<path d="M76519 68436
L76547 68408
L76603 68380
L76688 68380
L76744 68408
L76772 68464
L76772 68773
" />
<path d="M76631 68802
L76688 68830
L76716 68886
L76688 68942
L76631 68970
L76547 68970
" />
<path d="M77025 68745
L77081 68773
L77194 68773
L77250 68745
L77278 68689
L77278 68661
L77250 68605
L77194 68577
L77109 68577
L77053 68548
L77025 68492
L77025 68464
L77053 68408
L77109 68380
L77194 68380
L77250 68408
" />
<path d="M77025 68155
L77138 68239
L77250 68155
" />
</g>
<g style="fill:#000000; fill-opacity:0.0; 
stroke:#000000; stroke-width:39.3701; stroke-opacity:1; 
stroke-linecap:round; stroke-linejoin:round;">
</g>
<g style="fill:#000000; fill-opacity:0.0; 
stroke:#000000; stroke-width:59.0551; stroke-opacity:1; 
stroke-linecap:round; stroke-linejoin:round;">
<path d="M77559 75396
L77559 76577
" />
</g>
<g style="fill:#000000; fill-opacity:0.0; 
stroke:#000000; stroke-width:39.3701; stroke-opacity:1; 
stroke-linecap:round; stroke-linejoin:round;">
</g>
<g style="fill:#000000; fill-opacity:0.0; 
stroke:#000000; stroke-width:59.0551; stroke-opacity:1; 
stroke-linecap:round; stroke-linejoin:round;">
<path d="M102756 75396
L102756 77955
" />
</g>
<g style="fill:#C2C200; fill-opacity:0.0; 
stroke:#C2C200; stroke-width:59.0551; stroke-opacity:1; 
stroke-linecap:round; stroke-linejoin:round;">
<path d="M52500 52500
L72500 52500
" />
<path d="M47500 47250
L47500 32500
" />
<path d="M72750 27500
L52500 27500
" />
<path d="M77500 32500
L77500 47500
" />
<path d="M72500 52500 A5000 5000 0.0 0 0 77500 47500 " />
<path d="M52500 27500 A5000 5000 0.0 0 0 47500 32500 " />
<path d="M47506.2 47250.3 A5000 5000 0.0 0 0 52500 52500 " />
<path d="M77500 32500 A5000 5000 0.0 0 0 72500 27500 " />
<path d="M51442 34026
L51423 34045
L51367 34063
L51329 34063
L51273 34045
L51236 34007
L51217 33970
L51198 33895
L51198 33838
L51217 33763
L51236 33726
L51273 33688
L51329 33670
L51367 33670
L51423 33688
L51442 33707
" />
<path d="M51817 34063
L51592 34063
" />
<path d="M51704 34063
L51704 33670
L51667 33726
L51629 33763
L51592 33782
" />
<path d="M59026 38557
L59045 38576
L59063 38632
L59063 38670
L59045 38726
L59007 38763
L58970 38782
L58895 38801
L58838 38801
L58763 38782
L58726 38763
L58688 38726
L58670 38670
L58670 38632
L58688 38576
L58707 38557
" />
<path d="M58707 38407
L58688 38389
L58670 38351
L58670 38257
L58688 38220
L58707 38201
L58745 38182
L58782 38182
L58838 38201
L59063 38426
L59063 38182
" />
<path d="M67442 33026
L67423 33045
L67367 33063
L67329 33063
L67273 33045
L67236 33007
L67217 32970
L67198 32895
L67198 32838
L67217 32763
L67236 32726
L67273 32688
L67329 32670
L67367 32670
L67423 32688
L67442 32707
" />
<path d="M67573 32670
L67817 32670
L67685 32820
L67742 32820
L67779 32838
L67798 32857
L67817 32895
L67817 32988
L67798 33026
L67779 33045
L67742 33063
L67629 33063
L67592 33045
L67573 33026
" />
<path d="M48426 40046
L48032 40046
L48032 39896
L48051 39859
L48069 39840
L48107 39821
L48163 39821
L48201 39840
L48219 39859
L48238 39896
L48238 40046
" />
<path d="M48426 39446
L48426 39671
" />
<path d="M48426 39559
L48032 39559
L48088 39596
L48126 39634
L48144 39671
" />
<path d="M76430 37034
L76036 37034
L76036 36884
L76055 36847
L76073 36828
L76111 36809
L76167 36809
L76205 36828
L76223 36847
L76242 36884
L76242 37034
" />
<path d="M76073 36659
L76055 36640
L76036 36603
L76036 36509
L76055 36472
L76073 36453
L76111 36434
L76148 36434
L76205 36453
L76430 36678
L76430 36434
" />
<path d="M63630 38565
L63443 38696
" />
<path d="M63630 38790
L63237 38790
L63237 38640
L63255 38603
L63274 38584
L63312 38565
L63368 38565
L63405 38584
L63424 38603
L63443 38640
L63443 38790
" />
<path d="M63274 38415
L63255 38396
L63237 38359
L63237 38265
L63255 38228
L63274 38209
L63312 38190
L63349 38190
L63405 38209
L63630 38434
L63630 38190
" />
<path d="M68225 38565
L68037 38696
" />
<path d="M68225 38790
L67831 38790
L67831 38640
L67850 38603
L67869 38584
L67906 38565
L67962 38565
L68000 38584
L68019 38603
L68037 38640
L68037 38790
" />
<path d="M67831 38434
L67831 38190
L67981 38321
L67981 38265
L68000 38228
L68019 38209
L68056 38190
L68150 38190
L68187 38209
L68206 38228
L68225 38265
L68225 38378
L68206 38415
L68187 38434
" />
<path d="M59130 38565
L58943 38696
" />
<path d="M59130 38790
L58737 38790
L58737 38640
L58755 38603
L58774 38584
L58812 38565
L58868 38565
L58905 38584
L58924 38603
L58943 38640
L58943 38790
" />
<path d="M58868 38228
L59130 38228
" />
<path d="M58718 38321
L58999 38415
L58999 38171
" />
<path d="M61453 43926
L61453 43532
L61603 43532
L61640 43551
L61659 43569
L61678 43607
L61678 43663
L61659 43701
L61640 43719
L61603 43738
L61453 43738
" />
<path d="M61809 43532
L62053 43532
L61922 43682
L61978 43682
L62015 43701
L62034 43719
L62053 43757
L62053 43851
L62034 43888
L62015 43907
L61978 43926
L61865 43926
L61828 43907
L61809 43888
" />
<path d="M58117 31537
L58098 31574
L58060 31612
L58004 31668
L57985 31706
L57985 31743
" />
<path d="M58079 31724
L58060 31762
L58023 31799
L57948 31818
L57817 31818
L57742 31799
L57704 31762
L57685 31724
L57685 31649
L57704 31612
L57742 31574
L57817 31556
L57948 31556
L58023 31574
L58060 31612
L58079 31649
L58079 31724
" />
<path d="M58079 31181
L58079 31406
" />
<path d="M58079 31293
L57685 31293
L57742 31331
L57779 31368
L57798 31406
" />
<path d="M63725 38565
L63537 38696
" />
<path d="M63725 38790
L63331 38790
L63331 38640
L63350 38603
L63369 38584
L63406 38565
L63462 38565
L63500 38584
L63519 38603
L63537 38640
L63537 38790
" />
<path d="M63725 38190
L63725 38415
" />
<path d="M63725 38303
L63331 38303
L63387 38340
L63425 38378
L63444 38415
" />
</g>
<g style="fill:#008484; fill-opacity:0.0; 
stroke:#008484; stroke-width:59.0551; stroke-opacity:1; 
stroke-linecap:round; stroke-linejoin:round;">
</g>
<g style="fill:#008484; fill-opacity:0.0; 
stroke:#008484; stroke-width:47.2441; stroke-opacity:1; 
stroke-linecap:round; stroke-linejoin:round;">
<circle cx="51507.9" cy="31500" r="2003.94" /> 
<path d="M51507 33488
L51507 29511
" />
<path d="M51492 33488
L51492 29511
" />
<path d="M51476 33488
L51476 29511
" />
<path d="M51460 33487
L51460 29512
" />
<path d="M51444 33487
L51444 29512
" />
<path d="M51429 33487
L51429 29512
" />
<path d="M51413 33486
L51413 29513
" />
<path d="M51397 33485
L51397 31885
" />
<path d="M51397 31114
L51397 29514
" />
<path d="M51381 33484
L51381 31885
" />
<path d="M51381 31114
L51381 29515
" />
<path d="M51366 33483
L51366 31885
" />
<path d="M51366 31114
L51366 29516
" />
<path d="M51350 33482
L51350 31885
" />
<path d="M51350 31114
L51350 29517
" />
<path d="M51334 33480
L51334 31885
" />
<path d="M51334 31114
L51334 29519
" />
<path d="M51318 33479
L51318 31885
" />
<path d="M51318 31114
L51318 29520
" />
<path d="M51303 33477
L51303 31885
" />
<path d="M51303 31114
L51303 29522
" />
<path d="M51287 33476
L51287 31885
" />
<path d="M51287 31114
L51287 29523
" />
<path d="M51271 33474
L51271 31885
" />
<path d="M51271 31114
L51271 29525
" />
<path d="M51255 33472
L51255 31885
" />
<path d="M51255 31114
L51255 29527
" />
<path d="M51240 33470
L51240 31885
" />
<path d="M51240 31114
L51240 29529
" />
<path d="M51224 33468
L51224 31885
" />
<path d="M51224 31114
L51224 29531
" />
<path d="M51208 33465
L51208 31885
" />
<path d="M51208 31114
L51208 29534
" />
<path d="M51192 33463
L51192 31885
" />
<path d="M51192 31114
L51192 29536
" />
<path d="M51176 33461
L51176 31885
" />
<path d="M51176 31114
L51176 29538
" />
<path d="M51161 33458
L51161 31885
" />
<path d="M51161 31114
L51161 29541
" />
<path d="M51145 33455
L51145 31885
" />
<path d="M51145 31114
L51145 29544
" />
<path d="M51129 33452
L51129 31885
" />
<path d="M51129 31114
L51129 29547
" />
<path d="M51113 33449
L51113 31885
" />
<path d="M51113 31114
L51113 29550
" />
<path d="M51098 33446
L51098 31885
" />
<path d="M51098 31114
L51098 29553
" />
<path d="M51082 33442
L51082 31885
" />
<path d="M51082 31114
L51082 29557
" />
<path d="M51066 33439
L51066 31885
" />
<path d="M51066 31114
L51066 29560
" />
<path d="M51050 33435
L51050 31885
" />
<path d="M51050 31114
L51050 29564
" />
<path d="M51035 33431
L51035 31885
" />
<path d="M51035 31114
L51035 29568
" />
<path d="M51019 33427
L51019 31885
" />
<path d="M51019 31114
L51019 29572
" />
<path d="M51003 33424
L51003 31885
" />
<path d="M51003 31114
L51003 29575
" />
<path d="M50987 33419
L50987 31885
" />
<path d="M50987 31114
L50987 29580
" />
<path d="M50972 33415
L50972 31885
" />
<path d="M50972 31114
L50972 29584
" />
<path d="M50956 33411
L50956 31885
" />
<path d="M50956 31114
L50956 29588
" />
<path d="M50940 33406
L50940 31885
" />
<path d="M50940 31114
L50940 29593
" />
<path d="M50924 33401
L50924 31885
" />
<path d="M50924 31114
L50924 29598
" />
<path d="M50909 33396
L50909 31885
" />
<path d="M50909 31114
L50909 29603
" />
<path d="M50893 33392
L50893 31885
" />
<path d="M50893 31114
L50893 29607
" />
<path d="M50877 33386
L50877 31885
" />
<path d="M50877 31114
L50877 29613
" />
<path d="M50861 33381
L50861 31885
" />
<path d="M50861 31114
L50861 29618
" />
<path d="M50846 33375
L50846 31885
" />
<path d="M50846 31114
L50846 29624
" />
<path d="M50830 33370
L50830 31885
" />
<path d="M50830 31114
L50830 29629
" />
<path d="M50814 33364
L50814 31885
" />
<path d="M50814 31114
L50814 29635
" />
<path d="M50798 33359
L50798 31885
" />
<path d="M50798 31114
L50798 29640
" />
<path d="M50783 33352
L50783 31885
" />
<path d="M50783 31114
L50783 29647
" />
<path d="M50767 33346
L50767 31885
" />
<path d="M50767 31114
L50767 29653
" />
<path d="M50751 33340
L50751 31885
" />
<path d="M50751 31114
L50751 29659
" />
<path d="M50735 33333
L50735 31885
" />
<path d="M50735 31114
L50735 29666
" />
<path d="M50720 33327
L50720 31885
" />
<path d="M50720 31114
L50720 29672
" />
<path d="M50704 33320
L50704 31885
" />
<path d="M50704 31114
L50704 29679
" />
<path d="M50688 33313
L50688 31885
" />
<path d="M50688 31114
L50688 29686
" />
<path d="M50672 33306
L50672 31885
" />
<path d="M50672 31114
L50672 29693
" />
<path d="M50657 33298
L50657 31885
" />
<path d="M50657 31114
L50657 29701
" />
<path d="M50641 33291
L50641 31885
" />
<path d="M50641 31114
L50641 29708
" />
<path d="M50625 33283
L50625 29716
" />
<path d="M50609 33275
L50609 29724
" />
<path d="M50594 33268
L50594 29731
" />
<path d="M50578 33259
L50578 29740
" />
<path d="M50562 33251
L50562 29748
" />
<path d="M50546 33243
L50546 29756
" />
<path d="M50531 33234
L50531 29765
" />
<path d="M50515 33225
L50515 29774
" />
<path d="M50499 33216
L50499 29783
" />
<path d="M50483 33207
L50483 29792
" />
<path d="M50468 33197
L50468 29802
" />
<path d="M50452 33188
L50452 29811
" />
<path d="M50436 33178
L50436 29821
" />
<path d="M50420 33168
L50420 29831
" />
<path d="M50405 33157
L50405 29842
" />
<path d="M50389 33147
L50389 29852
" />
<path d="M50373 33136
L50373 29863
" />
<path d="M50357 33125
L50357 29874
" />
<path d="M50342 33114
L50342 29885
" />
<path d="M50326 33103
L50326 29896
" />
<path d="M50310 33091
L50310 29908
" />
<path d="M50294 33079
L50294 29920
" />
<path d="M50279 33067
L50279 29932
" />
<path d="M50263 33055
L50263 29944
" />
<path d="M50247 33042
L50247 29957
" />
<path d="M50231 33029
L50231 29970
" />
<path d="M50216 33016
L50216 29983
" />
<path d="M50200 33003
L50200 29996
" />
<path d="M50184 32989
L50184 30010
" />
<path d="M50168 32975
L50168 30024
" />
<path d="M50153 32961
L50153 30038
" />
<path d="M50137 32946
L50137 30053
" />
<path d="M50121 32931
L50121 30068
" />
<path d="M50105 32916
L50105 30083
" />
<path d="M50090 32901
L50090 30098
" />
<path d="M50074 32885
L50074 30114
" />
<path d="M50058 32868
L50058 30131
" />
<path d="M50042 32852
L50042 30147
" />
<path d="M50027 32835
L50027 30164
" />
<path d="M50011 32817
L50011 30182
" />
<path d="M49995 32800
L49995 30200
" />
<path d="M49979 32781
L49979 30218
" />
<path d="M49964 32762
L49964 30237
" />
<path d="M49948 32743
L49948 30256
" />
<path d="M49932 32723
L49932 30276
" />
<path d="M49916 32703
L49916 30296
" />
<path d="M49901 32682
L49901 30317
" />
<path d="M49885 32661
L49885 30338
" />
<path d="M49869 32639
L49869 30360
" />
<path d="M49853 32616
L49853 30383
" />
<path d="M49838 32593
L49838 30406
" />
<path d="M49822 32568
L49822 30431
" />
<path d="M49806 32544
L49806 30455
" />
<path d="M49790 32518
L49790 30481
" />
<path d="M49775 32491
L49775 30508
" />
<path d="M49759 32464
L49759 30535
" />
<path d="M49743 32435
L49743 30564
" />
<path d="M49727 32405
L49727 30594
" />
<path d="M49712 32374
L49712 30625
" />
<path d="M49696 32342
L49696 30657
" />
<path d="M49680 32308
L49680 30691
" />
<path d="M49664 32272
L49664 30727
" />
<path d="M49649 32234
L49649 30765
" />
<path d="M49633 32194
L49633 30805
" />
<path d="M49617 32151
L49617 30848
" />
<path d="M49601 32104
L49601 30895
" />
<path d="M49586 32053
L49586 30946
" />
<path d="M49570 31998
L49570 31001
" />
<path d="M49554 31934
L49554 31065
" />
<path d="M49538 31859
L49538 31140
" />
<path d="M49523 31764
L49523 31235
" />
<path d="M49507 31609
L49507 31390
" />
<path d="M52866 31500
L52393 31500
" />
<path d="M52629 31755
L52629 31244
" />
<circle cx="56500" cy="38492.1" r="2003.94" /> 
<path d="M58488 38492
L54511 38492
" />
<path d="M58488 38507
L54511 38507
" />
<path d="M58488 38523
L54511 38523
" />
<path d="M58487 38539
L54512 38539
" />
<path d="M58487 38555
L54512 38555
" />
<path d="M58487 38570
L54512 38570
" />
<path d="M58486 38586
L54513 38586
" />
<path d="M58485 38602
L56885 38602
" />
<path d="M56114 38602
L54514 38602
" />
<path d="M58484 38618
L56885 38618
" />
<path d="M56114 38618
L54515 38618
" />
<path d="M58483 38633
L56885 38633
" />
<path d="M56114 38633
L54516 38633
" />
<path d="M58482 38649
L56885 38649
" />
<path d="M56114 38649
L54517 38649
" />
<path d="M58480 38665
L56885 38665
" />
<path d="M56114 38665
L54519 38665
" />
<path d="M58479 38681
L56885 38681
" />
<path d="M56114 38681
L54520 38681
" />
<path d="M58477 38696
L56885 38696
" />
<path d="M56114 38696
L54522 38696
" />
<path d="M58476 38712
L56885 38712
" />
<path d="M56114 38712
L54523 38712
" />
<path d="M58474 38728
L56885 38728
" />
<path d="M56114 38728
L54525 38728
" />
<path d="M58472 38744
L56885 38744
" />
<path d="M56114 38744
L54527 38744
" />
<path d="M58470 38759
L56885 38759
" />
<path d="M56114 38759
L54529 38759
" />
<path d="M58468 38775
L56885 38775
" />
<path d="M56114 38775
L54531 38775
" />
<path d="M58465 38791
L56885 38791
" />
<path d="M56114 38791
L54534 38791
" />
<path d="M58463 38807
L56885 38807
" />
<path d="M56114 38807
L54536 38807
" />
<path d="M58461 38823
L56885 38823
" />
<path d="M56114 38823
L54538 38823
" />
<path d="M58458 38838
L56885 38838
" />
<path d="M56114 38838
L54541 38838
" />
<path d="M58455 38854
L56885 38854
" />
<path d="M56114 38854
L54544 38854
" />
<path d="M58452 38870
L56885 38870
" />
<path d="M56114 38870
L54547 38870
" />
<path d="M58449 38886
L56885 38886
" />
<path d="M56114 38886
L54550 38886
" />
<path d="M58446 38901
L56885 38901
" />
<path d="M56114 38901
L54553 38901
" />
<path d="M58442 38917
L56885 38917
" />
<path d="M56114 38917
L54557 38917
" />
<path d="M58439 38933
L56885 38933
" />
<path d="M56114 38933
L54560 38933
" />
<path d="M58435 38949
L56885 38949
" />
<path d="M56114 38949
L54564 38949
" />
<path d="M58431 38964
L56885 38964
" />
<path d="M56114 38964
L54568 38964
" />
<path d="M58427 38980
L56885 38980
" />
<path d="M56114 38980
L54572 38980
" />
<path d="M58424 38996
L56885 38996
" />
<path d="M56114 38996
L54575 38996
" />
<path d="M58419 39012
L56885 39012
" />
<path d="M56114 39012
L54580 39012
" />
<path d="M58415 39027
L56885 39027
" />
<path d="M56114 39027
L54584 39027
" />
<path d="M58411 39043
L56885 39043
" />
<path d="M56114 39043
L54588 39043
" />
<path d="M58406 39059
L56885 39059
" />
<path d="M56114 39059
L54593 39059
" />
<path d="M58401 39075
L56885 39075
" />
<path d="M56114 39075
L54598 39075
" />
<path d="M58396 39090
L56885 39090
" />
<path d="M56114 39090
L54603 39090
" />
<path d="M58392 39106
L56885 39106
" />
<path d="M56114 39106
L54607 39106
" />
<path d="M58386 39122
L56885 39122
" />
<path d="M56114 39122
L54613 39122
" />
<path d="M58381 39138
L56885 39138
" />
<path d="M56114 39138
L54618 39138
" />
<path d="M58375 39153
L56885 39153
" />
<path d="M56114 39153
L54624 39153
" />
<path d="M58370 39169
L56885 39169
" />
<path d="M56114 39169
L54629 39169
" />
<path d="M58364 39185
L56885 39185
" />
<path d="M56114 39185
L54635 39185
" />
<path d="M58359 39201
L56885 39201
" />
<path d="M56114 39201
L54640 39201
" />
<path d="M58352 39216
L56885 39216
" />
<path d="M56114 39216
L54647 39216
" />
<path d="M58346 39232
L56885 39232
" />
<path d="M56114 39232
L54653 39232
" />
<path d="M58340 39248
L56885 39248
" />
<path d="M56114 39248
L54659 39248
" />
<path d="M58333 39264
L56885 39264
" />
<path d="M56114 39264
L54666 39264
" />
<path d="M58327 39279
L56885 39279
" />
<path d="M56114 39279
L54672 39279
" />
<path d="M58320 39295
L56885 39295
" />
<path d="M56114 39295
L54679 39295
" />
<path d="M58313 39311
L56885 39311
" />
<path d="M56114 39311
L54686 39311
" />
<path d="M58306 39327
L56885 39327
" />
<path d="M56114 39327
L54693 39327
" />
<path d="M58298 39342
L56885 39342
" />
<path d="M56114 39342
L54701 39342
" />
<path d="M58291 39358
L56885 39358
" />
<path d="M56114 39358
L54708 39358
" />
<path d="M58283 39374
L54716 39374
" />
<path d="M58275 39390
L54724 39390
" />
<path d="M58268 39405
L54731 39405
" />
<path d="M58259 39421
L54740 39421
" />
<path d="M58251 39437
L54748 39437
" />
<path d="M58243 39453
L54756 39453
" />
<path d="M58234 39468
L54765 39468
" />
<path d="M58225 39484
L54774 39484
" />
<path d="M58216 39500
L54783 39500
" />
<path d="M58207 39516
L54792 39516
" />
<path d="M58197 39531
L54802 39531
" />
<path d="M58188 39547
L54811 39547
" />
<path d="M58178 39563
L54821 39563
" />
<path d="M58168 39579
L54831 39579
" />
<path d="M58157 39594
L54842 39594
" />
<path d="M58147 39610
L54852 39610
" />
<path d="M58136 39626
L54863 39626
" />
<path d="M58125 39642
L54874 39642
" />
<path d="M58114 39657
L54885 39657
" />
<path d="M58103 39673
L54896 39673
" />
<path d="M58091 39689
L54908 39689
" />
<path d="M58079 39705
L54920 39705
" />
<path d="M58067 39720
L54932 39720
" />
<path d="M58055 39736
L54944 39736
" />
<path d="M58042 39752
L54957 39752
" />
<path d="M58029 39768
L54970 39768
" />
<path d="M58016 39783
L54983 39783
" />
<path d="M58003 39799
L54996 39799
" />
<path d="M57989 39815
L55010 39815
" />
<path d="M57975 39831
L55024 39831
" />
<path d="M57961 39846
L55038 39846
" />
<path d="M57946 39862
L55053 39862
" />
<path d="M57931 39878
L55068 39878
" />
<path d="M57916 39894
L55083 39894
" />
<path d="M57901 39909
L55098 39909
" />
<path d="M57885 39925
L55114 39925
" />
<path d="M57868 39941
L55131 39941
" />
<path d="M57852 39957
L55147 39957
" />
<path d="M57835 39972
L55164 39972
" />
<path d="M57817 39988
L55182 39988
" />
<path d="M57800 40004
L55200 40004
" />
<path d="M57781 40020
L55218 40020
" />
<path d="M57762 40035
L55237 40035
" />
<path d="M57743 40051
L55256 40051
" />
<path d="M57723 40067
L55276 40067
" />
<path d="M57703 40083
L55296 40083
" />
<path d="M57682 40098
L55317 40098
" />
<path d="M57661 40114
L55338 40114
" />
<path d="M57639 40130
L55360 40130
" />
<path d="M57616 40146
L55383 40146
" />
<path d="M57593 40161
L55406 40161
" />
<path d="M57568 40177
L55431 40177
" />
<path d="M57544 40193
L55455 40193
" />
<path d="M57518 40209
L55481 40209
" />
<path d="M57491 40224
L55508 40224
" />
<path d="M57464 40240
L55535 40240
" />
<path d="M57435 40256
L55564 40256
" />
<path d="M57405 40272
L55594 40272
" />
<path d="M57374 40287
L55625 40287
" />
<path d="M57342 40303
L55657 40303
" />
<path d="M57308 40319
L55691 40319
" />
<path d="M57272 40335
L55727 40335
" />
<path d="M57234 40350
L55765 40350
" />
<path d="M57194 40366
L55805 40366
" />
<path d="M57151 40382
L55848 40382
" />
<path d="M57104 40398
L55895 40398
" />
<path d="M57053 40413
L55946 40413
" />
<path d="M56998 40429
L56001 40429
" />
<path d="M56934 40445
L56065 40445
" />
<path d="M56859 40461
L56140 40461
" />
<path d="M56764 40476
L56235 40476
" />
<path d="M56609 40492
L56390 40492
" />
<path d="M56500 37133
L56500 37606
" />
<path d="M56755 37370
L56244 37370
" />
<circle cx="67507.9" cy="30500" r="2003.94" /> 
<path d="M67507 32488
L67507 28511
" />
<path d="M67492 32488
L67492 28511
" />
<path d="M67476 32488
L67476 28511
" />
<path d="M67460 32487
L67460 28512
" />
<path d="M67444 32487
L67444 28512
" />
<path d="M67429 32487
L67429 28512
" />
<path d="M67413 32486
L67413 28513
" />
<path d="M67397 32485
L67397 30885
" />
<path d="M67397 30114
L67397 28514
" />
<path d="M67381 32484
L67381 30885
" />
<path d="M67381 30114
L67381 28515
" />
<path d="M67366 32483
L67366 30885
" />
<path d="M67366 30114
L67366 28516
" />
<path d="M67350 32482
L67350 30885
" />
<path d="M67350 30114
L67350 28517
" />
<path d="M67334 32480
L67334 30885
" />
<path d="M67334 30114
L67334 28519
" />
<path d="M67318 32479
L67318 30885
" />
<path d="M67318 30114
L67318 28520
" />
<path d="M67303 32477
L67303 30885
" />
<path d="M67303 30114
L67303 28522
" />
<path d="M67287 32476
L67287 30885
" />
<path d="M67287 30114
L67287 28523
" />
<path d="M67271 32474
L67271 30885
" />
<path d="M67271 30114
L67271 28525
" />
<path d="M67255 32472
L67255 30885
" />
<path d="M67255 30114
L67255 28527
" />
<path d="M67240 32470
L67240 30885
" />
<path d="M67240 30114
L67240 28529
" />
<path d="M67224 32468
L67224 30885
" />
<path d="M67224 30114
L67224 28531
" />
<path d="M67208 32465
L67208 30885
" />
<path d="M67208 30114
L67208 28534
" />
<path d="M67192 32463
L67192 30885
" />
<path d="M67192 30114
L67192 28536
" />
<path d="M67176 32461
L67176 30885
" />
<path d="M67176 30114
L67176 28538
" />
<path d="M67161 32458
L67161 30885
" />
<path d="M67161 30114
L67161 28541
" />
<path d="M67145 32455
L67145 30885
" />
<path d="M67145 30114
L67145 28544
" />
<path d="M67129 32452
L67129 30885
" />
<path d="M67129 30114
L67129 28547
" />
<path d="M67113 32449
L67113 30885
" />
<path d="M67113 30114
L67113 28550
" />
<path d="M67098 32446
L67098 30885
" />
<path d="M67098 30114
L67098 28553
" />
<path d="M67082 32442
L67082 30885
" />
<path d="M67082 30114
L67082 28557
" />
<path d="M67066 32439
L67066 30885
" />
<path d="M67066 30114
L67066 28560
" />
<path d="M67050 32435
L67050 30885
" />
<path d="M67050 30114
L67050 28564
" />
<path d="M67035 32431
L67035 30885
" />
<path d="M67035 30114
L67035 28568
" />
<path d="M67019 32427
L67019 30885
" />
<path d="M67019 30114
L67019 28572
" />
<path d="M67003 32424
L67003 30885
" />
<path d="M67003 30114
L67003 28575
" />
<path d="M66987 32419
L66987 30885
" />
<path d="M66987 30114
L66987 28580
" />
<path d="M66972 32415
L66972 30885
" />
<path d="M66972 30114
L66972 28584
" />
<path d="M66956 32411
L66956 30885
" />
<path d="M66956 30114
L66956 28588
" />
<path d="M66940 32406
L66940 30885
" />
<path d="M66940 30114
L66940 28593
" />
<path d="M66924 32401
L66924 30885
" />
<path d="M66924 30114
L66924 28598
" />
<path d="M66909 32396
L66909 30885
" />
<path d="M66909 30114
L66909 28603
" />
<path d="M66893 32392
L66893 30885
" />
<path d="M66893 30114
L66893 28607
" />
<path d="M66877 32386
L66877 30885
" />
<path d="M66877 30114
L66877 28613
" />
<path d="M66861 32381
L66861 30885
" />
<path d="M66861 30114
L66861 28618
" />
<path d="M66846 32375
L66846 30885
" />
<path d="M66846 30114
L66846 28624
" />
<path d="M66830 32370
L66830 30885
" />
<path d="M66830 30114
L66830 28629
" />
<path d="M66814 32364
L66814 30885
" />
<path d="M66814 30114
L66814 28635
" />
<path d="M66798 32359
L66798 30885
" />
<path d="M66798 30114
L66798 28640
" />
<path d="M66783 32352
L66783 30885
" />
<path d="M66783 30114
L66783 28647
" />
<path d="M66767 32346
L66767 30885
" />
<path d="M66767 30114
L66767 28653
" />
<path d="M66751 32340
L66751 30885
" />
<path d="M66751 30114
L66751 28659
" />
<path d="M66735 32333
L66735 30885
" />
<path d="M66735 30114
L66735 28666
" />
<path d="M66720 32327
L66720 30885
" />
<path d="M66720 30114
L66720 28672
" />
<path d="M66704 32320
L66704 30885
" />
<path d="M66704 30114
L66704 28679
" />
<path d="M66688 32313
L66688 30885
" />
<path d="M66688 30114
L66688 28686
" />
<path d="M66672 32306
L66672 30885
" />
<path d="M66672 30114
L66672 28693
" />
<path d="M66657 32298
L66657 30885
" />
<path d="M66657 30114
L66657 28701
" />
<path d="M66641 32291
L66641 30885
" />
<path d="M66641 30114
L66641 28708
" />
<path d="M66625 32283
L66625 28716
" />
<path d="M66609 32275
L66609 28724
" />
<path d="M66594 32268
L66594 28731
" />
<path d="M66578 32259
L66578 28740
" />
<path d="M66562 32251
L66562 28748
" />
<path d="M66546 32243
L66546 28756
" />
<path d="M66531 32234
L66531 28765
" />
<path d="M66515 32225
L66515 28774
" />
<path d="M66499 32216
L66499 28783
" />
<path d="M66483 32207
L66483 28792
" />
<path d="M66468 32197
L66468 28802
" />
<path d="M66452 32188
L66452 28811
" />
<path d="M66436 32178
L66436 28821
" />
<path d="M66420 32168
L66420 28831
" />
<path d="M66405 32157
L66405 28842
" />
<path d="M66389 32147
L66389 28852
" />
<path d="M66373 32136
L66373 28863
" />
<path d="M66357 32125
L66357 28874
" />
<path d="M66342 32114
L66342 28885
" />
<path d="M66326 32103
L66326 28896
" />
<path d="M66310 32091
L66310 28908
" />
<path d="M66294 32079
L66294 28920
" />
<path d="M66279 32067
L66279 28932
" />
<path d="M66263 32055
L66263 28944
" />
<path d="M66247 32042
L66247 28957
" />
<path d="M66231 32029
L66231 28970
" />
<path d="M66216 32016
L66216 28983
" />
<path d="M66200 32003
L66200 28996
" />
<path d="M66184 31989
L66184 29010
" />
<path d="M66168 31975
L66168 29024
" />
<path d="M66153 31961
L66153 29038
" />
<path d="M66137 31946
L66137 29053
" />
<path d="M66121 31931
L66121 29068
" />
<path d="M66105 31916
L66105 29083
" />
<path d="M66090 31901
L66090 29098
" />
<path d="M66074 31885
L66074 29114
" />
<path d="M66058 31868
L66058 29131
" />
<path d="M66042 31852
L66042 29147
" />
<path d="M66027 31835
L66027 29164
" />
<path d="M66011 31817
L66011 29182
" />
<path d="M65995 31800
L65995 29200
" />
<path d="M65979 31781
L65979 29218
" />
<path d="M65964 31762
L65964 29237
" />
<path d="M65948 31743
L65948 29256
" />
<path d="M65932 31723
L65932 29276
" />
<path d="M65916 31703
L65916 29296
" />
<path d="M65901 31682
L65901 29317
" />
<path d="M65885 31661
L65885 29338
" />
<path d="M65869 31639
L65869 29360
" />
<path d="M65853 31616
L65853 29383
" />
<path d="M65838 31593
L65838 29406
" />
<path d="M65822 31568
L65822 29431
" />
<path d="M65806 31544
L65806 29455
" />
<path d="M65790 31518
L65790 29481
" />
<path d="M65775 31491
L65775 29508
" />
<path d="M65759 31464
L65759 29535
" />
<path d="M65743 31435
L65743 29564
" />
<path d="M65727 31405
L65727 29594
" />
<path d="M65712 31374
L65712 29625
" />
<path d="M65696 31342
L65696 29657
" />
<path d="M65680 31308
L65680 29691
" />
<path d="M65664 31272
L65664 29727
" />
<path d="M65649 31234
L65649 29765
" />
<path d="M65633 31194
L65633 29805
" />
<path d="M65617 31151
L65617 29848
" />
<path d="M65601 31104
L65601 29895
" />
<path d="M65586 31053
L65586 29946
" />
<path d="M65570 30998
L65570 30001
" />
<path d="M65554 30934
L65554 30065
" />
<path d="M65538 30859
L65538 30140
" />
<path d="M65523 30764
L65523 30235
" />
<path d="M65507 30609
L65507 30390
" />
<path d="M68866 30500
L68393 30500
" />
<path d="M68629 30755
L68629 30244
" />
<path d="M48519 40043
L53480 40043
" />
<path d="M53480 40043
L53480 35968
" />
<path d="M53480 35968
L53106 35968
" />
<path d="M53106 35968
L53204 35771
" />
<path d="M53204 35771
L52456 35771
" />
<path d="M52456 35771
L52437 35771
" />
<path d="M52437 35771
L52535 35968
" />
<path d="M52535 35968
L50409 35968
" />
<path d="M50409 35968
L50527 35771
" />
<path d="M50527 35771
L48519 35771
" />
<path d="M48519 35771
L48519 40043
" />
<path d="M75980 36456
L71019 36456
" />
<path d="M71019 36456
L71019 40531
" />
<path d="M71019 40531
L71393 40531
" />
<path d="M71393 40531
L71295 40728
" />
<path d="M71295 40728
L72043 40728
" />
<path d="M72043 40728
L72062 40728
" />
<path d="M72062 40728
L71964 40531
" />
<path d="M71964 40531
L74090 40531
" />
<path d="M74090 40531
L73972 40728
" />
<path d="M73972 40728
L75980 40728
" />
<path d="M75980 40728
L75980 36456
" />
<path d="M63846 40295
L65153 40295
" />
<path d="M65153 40295
L65153 36704
" />
<path d="M65153 36704
L63846 36704
" />
<path d="M63846 36704
L63846 40295
" />
<path d="M64500 41114
L64500 40295
" />
<path d="M64500 35885
L64500 36704
" />
<path d="M67653 36704
L66346 36704
" />
<path d="M66346 36704
L66346 40295
" />
<path d="M66346 40295
L67653 40295
" />
<path d="M67653 40295
L67653 36704
" />
<path d="M67000 35885
L67000 36704
" />
<path d="M67000 41114
L67000 40295
" />
<path d="M59346 40295
L60653 40295
" />
<path d="M60653 40295
L60653 36704
" />
<path d="M60653 36704
L59346 36704
" />
<path d="M59346 36704
L59346 40295
" />
<path d="M60000 41114
L60000 40295
" />
<path d="M60000 35885
L60000 36704
" />
<path d="M61456 44019
L61456 48980
" />
<path d="M61456 48980
L65531 48980
" />
<path d="M65531 48980
L65531 48606
" />
<path d="M65531 48606
L65728 48704
" />
<path d="M65728 48704
L65728 47956
" />
<path d="M65728 47956
L65728 47937
" />
<path d="M65728 47937
L65531 48035
" />
<path d="M65531 48035
L65531 45909
" />
<path d="M65531 45909
L65728 46027
" />
<path d="M65728 46027
L65728 44019
" />
<path d="M65728 44019
L61456 44019
" />
<path d="M55771 30791
L55771 32208
" />
<path d="M56058 30585 A1016.21 1016.21 0.0 0 0 55771.7 30791.3 " />
<path d="M57523.6 31500 A1023.62 1023.62 0.0 0 0 56932.6 30572.3 " />
<path d="M56932.6 32427.7 A1023.62 1023.62 0.0 0 0 57523.6 31500 " />
<path d="M55771.7 32208.7 A1016.21 1016.21 0.0 0 0 56058 32415 " />
<path d="M63153 36704
L61846 36704
" />
<path d="M61846 36704
L61846 40295
" />
<path d="M61846 40295
L63153 40295
" />
<path d="M63153 40295
L63153 36704
" />
<path d="M62500 35885
L62500 36704
" />
<path d="M62500 41114
L62500 40295
" />
</g> 
</svg>
