G04 #@! TF.FileFunction,Legend,Top*
%FSLAX46Y46*%
G04 Gerber Fmt 4.6, Leading zero omitted, Abs format (unit mm)*
G04 Created by KiCad (PCBNEW 4.0.5) date 05/30/17 12:07:32*
%MOMM*%
%LPD*%
G01*
G04 APERTURE LIST*
%ADD10C,0.100000*%
%ADD11C,0.120000*%
%ADD12C,0.010000*%
%ADD13C,0.150000*%
G04 APERTURE END LIST*
D10*
D11*
X135920000Y-80010000D02*
G75*
G03X135920000Y-80010000I-5090000J0D01*
G01*
X130830000Y-85060000D02*
X130830000Y-74960000D01*
X130790000Y-85060000D02*
X130790000Y-74960000D01*
X130750000Y-85060000D02*
X130750000Y-74960000D01*
X130710000Y-85059000D02*
X130710000Y-74961000D01*
X130670000Y-85058000D02*
X130670000Y-74962000D01*
X130630000Y-85057000D02*
X130630000Y-74963000D01*
X130590000Y-85055000D02*
X130590000Y-74965000D01*
X130550000Y-85053000D02*
X130550000Y-80990000D01*
X130550000Y-79030000D02*
X130550000Y-74967000D01*
X130510000Y-85050000D02*
X130510000Y-80990000D01*
X130510000Y-79030000D02*
X130510000Y-74970000D01*
X130470000Y-85048000D02*
X130470000Y-80990000D01*
X130470000Y-79030000D02*
X130470000Y-74972000D01*
X130430000Y-85045000D02*
X130430000Y-80990000D01*
X130430000Y-79030000D02*
X130430000Y-74975000D01*
X130390000Y-85041000D02*
X130390000Y-80990000D01*
X130390000Y-79030000D02*
X130390000Y-74979000D01*
X130350000Y-85038000D02*
X130350000Y-80990000D01*
X130350000Y-79030000D02*
X130350000Y-74982000D01*
X130310000Y-85034000D02*
X130310000Y-80990000D01*
X130310000Y-79030000D02*
X130310000Y-74986000D01*
X130270000Y-85030000D02*
X130270000Y-80990000D01*
X130270000Y-79030000D02*
X130270000Y-74990000D01*
X130230000Y-85025000D02*
X130230000Y-80990000D01*
X130230000Y-79030000D02*
X130230000Y-74995000D01*
X130190000Y-85020000D02*
X130190000Y-80990000D01*
X130190000Y-79030000D02*
X130190000Y-75000000D01*
X130150000Y-85015000D02*
X130150000Y-80990000D01*
X130150000Y-79030000D02*
X130150000Y-75005000D01*
X130109000Y-85009000D02*
X130109000Y-80990000D01*
X130109000Y-79030000D02*
X130109000Y-75011000D01*
X130069000Y-85003000D02*
X130069000Y-80990000D01*
X130069000Y-79030000D02*
X130069000Y-75017000D01*
X130029000Y-84997000D02*
X130029000Y-80990000D01*
X130029000Y-79030000D02*
X130029000Y-75023000D01*
X129989000Y-84991000D02*
X129989000Y-80990000D01*
X129989000Y-79030000D02*
X129989000Y-75029000D01*
X129949000Y-84984000D02*
X129949000Y-80990000D01*
X129949000Y-79030000D02*
X129949000Y-75036000D01*
X129909000Y-84977000D02*
X129909000Y-80990000D01*
X129909000Y-79030000D02*
X129909000Y-75043000D01*
X129869000Y-84969000D02*
X129869000Y-80990000D01*
X129869000Y-79030000D02*
X129869000Y-75051000D01*
X129829000Y-84961000D02*
X129829000Y-80990000D01*
X129829000Y-79030000D02*
X129829000Y-75059000D01*
X129789000Y-84953000D02*
X129789000Y-80990000D01*
X129789000Y-79030000D02*
X129789000Y-75067000D01*
X129749000Y-84945000D02*
X129749000Y-80990000D01*
X129749000Y-79030000D02*
X129749000Y-75075000D01*
X129709000Y-84936000D02*
X129709000Y-80990000D01*
X129709000Y-79030000D02*
X129709000Y-75084000D01*
X129669000Y-84927000D02*
X129669000Y-80990000D01*
X129669000Y-79030000D02*
X129669000Y-75093000D01*
X129629000Y-84917000D02*
X129629000Y-80990000D01*
X129629000Y-79030000D02*
X129629000Y-75103000D01*
X129589000Y-84907000D02*
X129589000Y-80990000D01*
X129589000Y-79030000D02*
X129589000Y-75113000D01*
X129549000Y-84897000D02*
X129549000Y-80990000D01*
X129549000Y-79030000D02*
X129549000Y-75123000D01*
X129509000Y-84886000D02*
X129509000Y-80990000D01*
X129509000Y-79030000D02*
X129509000Y-75134000D01*
X129469000Y-84875000D02*
X129469000Y-80990000D01*
X129469000Y-79030000D02*
X129469000Y-75145000D01*
X129429000Y-84864000D02*
X129429000Y-80990000D01*
X129429000Y-79030000D02*
X129429000Y-75156000D01*
X129389000Y-84853000D02*
X129389000Y-80990000D01*
X129389000Y-79030000D02*
X129389000Y-75167000D01*
X129349000Y-84841000D02*
X129349000Y-80990000D01*
X129349000Y-79030000D02*
X129349000Y-75179000D01*
X129309000Y-84828000D02*
X129309000Y-80990000D01*
X129309000Y-79030000D02*
X129309000Y-75192000D01*
X129269000Y-84816000D02*
X129269000Y-80990000D01*
X129269000Y-79030000D02*
X129269000Y-75204000D01*
X129229000Y-84802000D02*
X129229000Y-80990000D01*
X129229000Y-79030000D02*
X129229000Y-75218000D01*
X129189000Y-84789000D02*
X129189000Y-80990000D01*
X129189000Y-79030000D02*
X129189000Y-75231000D01*
X129149000Y-84775000D02*
X129149000Y-80990000D01*
X129149000Y-79030000D02*
X129149000Y-75245000D01*
X129109000Y-84761000D02*
X129109000Y-80990000D01*
X129109000Y-79030000D02*
X129109000Y-75259000D01*
X129069000Y-84747000D02*
X129069000Y-80990000D01*
X129069000Y-79030000D02*
X129069000Y-75273000D01*
X129029000Y-84732000D02*
X129029000Y-80990000D01*
X129029000Y-79030000D02*
X129029000Y-75288000D01*
X128989000Y-84716000D02*
X128989000Y-80990000D01*
X128989000Y-79030000D02*
X128989000Y-75304000D01*
X128949000Y-84701000D02*
X128949000Y-80990000D01*
X128949000Y-79030000D02*
X128949000Y-75319000D01*
X128909000Y-84684000D02*
X128909000Y-80990000D01*
X128909000Y-79030000D02*
X128909000Y-75336000D01*
X128869000Y-84668000D02*
X128869000Y-80990000D01*
X128869000Y-79030000D02*
X128869000Y-75352000D01*
X128829000Y-84651000D02*
X128829000Y-80990000D01*
X128829000Y-79030000D02*
X128829000Y-75369000D01*
X128789000Y-84634000D02*
X128789000Y-80990000D01*
X128789000Y-79030000D02*
X128789000Y-75386000D01*
X128749000Y-84616000D02*
X128749000Y-80990000D01*
X128749000Y-79030000D02*
X128749000Y-75404000D01*
X128709000Y-84598000D02*
X128709000Y-80990000D01*
X128709000Y-79030000D02*
X128709000Y-75422000D01*
X128669000Y-84579000D02*
X128669000Y-80990000D01*
X128669000Y-79030000D02*
X128669000Y-75441000D01*
X128629000Y-84560000D02*
X128629000Y-80990000D01*
X128629000Y-79030000D02*
X128629000Y-75460000D01*
X128589000Y-84541000D02*
X128589000Y-75479000D01*
X128549000Y-84521000D02*
X128549000Y-75499000D01*
X128509000Y-84501000D02*
X128509000Y-75519000D01*
X128469000Y-84480000D02*
X128469000Y-75540000D01*
X128429000Y-84459000D02*
X128429000Y-75561000D01*
X128389000Y-84438000D02*
X128389000Y-75582000D01*
X128349000Y-84415000D02*
X128349000Y-75605000D01*
X128309000Y-84393000D02*
X128309000Y-75627000D01*
X128269000Y-84370000D02*
X128269000Y-75650000D01*
X128229000Y-84346000D02*
X128229000Y-75674000D01*
X128189000Y-84322000D02*
X128189000Y-75698000D01*
X128149000Y-84298000D02*
X128149000Y-75722000D01*
X128109000Y-84273000D02*
X128109000Y-75747000D01*
X128069000Y-84247000D02*
X128069000Y-75773000D01*
X128029000Y-84221000D02*
X128029000Y-75799000D01*
X127989000Y-84195000D02*
X127989000Y-75825000D01*
X127949000Y-84167000D02*
X127949000Y-75853000D01*
X127909000Y-84140000D02*
X127909000Y-75880000D01*
X127869000Y-84111000D02*
X127869000Y-75909000D01*
X127829000Y-84082000D02*
X127829000Y-75938000D01*
X127789000Y-84053000D02*
X127789000Y-75967000D01*
X127749000Y-84023000D02*
X127749000Y-75997000D01*
X127709000Y-83992000D02*
X127709000Y-76028000D01*
X127669000Y-83961000D02*
X127669000Y-76059000D01*
X127629000Y-83929000D02*
X127629000Y-76091000D01*
X127589000Y-83896000D02*
X127589000Y-76124000D01*
X127549000Y-83863000D02*
X127549000Y-76157000D01*
X127509000Y-83829000D02*
X127509000Y-76191000D01*
X127469000Y-83794000D02*
X127469000Y-76226000D01*
X127429000Y-83758000D02*
X127429000Y-76262000D01*
X127389000Y-83722000D02*
X127389000Y-76298000D01*
X127349000Y-83685000D02*
X127349000Y-76335000D01*
X127309000Y-83647000D02*
X127309000Y-76373000D01*
X127269000Y-83608000D02*
X127269000Y-76412000D01*
X127229000Y-83569000D02*
X127229000Y-76451000D01*
X127189000Y-83528000D02*
X127189000Y-76492000D01*
X127149000Y-83487000D02*
X127149000Y-76533000D01*
X127109000Y-83445000D02*
X127109000Y-76575000D01*
X127069000Y-83401000D02*
X127069000Y-76619000D01*
X127029000Y-83357000D02*
X127029000Y-76663000D01*
X126989000Y-83312000D02*
X126989000Y-76708000D01*
X126949000Y-83265000D02*
X126949000Y-76755000D01*
X126909000Y-83217000D02*
X126909000Y-76803000D01*
X126869000Y-83168000D02*
X126869000Y-76852000D01*
X126829000Y-83118000D02*
X126829000Y-76902000D01*
X126789000Y-83067000D02*
X126789000Y-76953000D01*
X126749000Y-83014000D02*
X126749000Y-77006000D01*
X126709000Y-82959000D02*
X126709000Y-77061000D01*
X126669000Y-82904000D02*
X126669000Y-77116000D01*
X126629000Y-82846000D02*
X126629000Y-77174000D01*
X126589000Y-82787000D02*
X126589000Y-77233000D01*
X126549000Y-82725000D02*
X126549000Y-77295000D01*
X126509000Y-82662000D02*
X126509000Y-77358000D01*
X126469000Y-82597000D02*
X126469000Y-77423000D01*
X126429000Y-82529000D02*
X126429000Y-77491000D01*
X126389000Y-82459000D02*
X126389000Y-77561000D01*
X126349000Y-82387000D02*
X126349000Y-77633000D01*
X126309000Y-82311000D02*
X126309000Y-77709000D01*
X126269000Y-82232000D02*
X126269000Y-77788000D01*
X126229000Y-82150000D02*
X126229000Y-77870000D01*
X126189000Y-82063000D02*
X126189000Y-77957000D01*
X126149000Y-81972000D02*
X126149000Y-78048000D01*
X126109000Y-81876000D02*
X126109000Y-78144000D01*
X126069000Y-81773000D02*
X126069000Y-78247000D01*
X126029000Y-81664000D02*
X126029000Y-78356000D01*
X125989000Y-81546000D02*
X125989000Y-78474000D01*
X125949000Y-81417000D02*
X125949000Y-78603000D01*
X125909000Y-81275000D02*
X125909000Y-78745000D01*
X125869000Y-81114000D02*
X125869000Y-78906000D01*
X125829000Y-80923000D02*
X125829000Y-79097000D01*
X125789000Y-80682000D02*
X125789000Y-79338000D01*
X125749000Y-80289000D02*
X125749000Y-79731000D01*
X134280000Y-80010000D02*
X133080000Y-80010000D01*
X133680000Y-80660000D02*
X133680000Y-79360000D01*
X148600000Y-97770000D02*
G75*
G03X148600000Y-97770000I-5090000J0D01*
G01*
X148560000Y-97770000D02*
X138460000Y-97770000D01*
X148560000Y-97810000D02*
X138460000Y-97810000D01*
X148560000Y-97850000D02*
X138460000Y-97850000D01*
X148559000Y-97890000D02*
X138461000Y-97890000D01*
X148558000Y-97930000D02*
X138462000Y-97930000D01*
X148557000Y-97970000D02*
X138463000Y-97970000D01*
X148555000Y-98010000D02*
X138465000Y-98010000D01*
X148553000Y-98050000D02*
X144490000Y-98050000D01*
X142530000Y-98050000D02*
X138467000Y-98050000D01*
X148550000Y-98090000D02*
X144490000Y-98090000D01*
X142530000Y-98090000D02*
X138470000Y-98090000D01*
X148548000Y-98130000D02*
X144490000Y-98130000D01*
X142530000Y-98130000D02*
X138472000Y-98130000D01*
X148545000Y-98170000D02*
X144490000Y-98170000D01*
X142530000Y-98170000D02*
X138475000Y-98170000D01*
X148541000Y-98210000D02*
X144490000Y-98210000D01*
X142530000Y-98210000D02*
X138479000Y-98210000D01*
X148538000Y-98250000D02*
X144490000Y-98250000D01*
X142530000Y-98250000D02*
X138482000Y-98250000D01*
X148534000Y-98290000D02*
X144490000Y-98290000D01*
X142530000Y-98290000D02*
X138486000Y-98290000D01*
X148530000Y-98330000D02*
X144490000Y-98330000D01*
X142530000Y-98330000D02*
X138490000Y-98330000D01*
X148525000Y-98370000D02*
X144490000Y-98370000D01*
X142530000Y-98370000D02*
X138495000Y-98370000D01*
X148520000Y-98410000D02*
X144490000Y-98410000D01*
X142530000Y-98410000D02*
X138500000Y-98410000D01*
X148515000Y-98450000D02*
X144490000Y-98450000D01*
X142530000Y-98450000D02*
X138505000Y-98450000D01*
X148509000Y-98491000D02*
X144490000Y-98491000D01*
X142530000Y-98491000D02*
X138511000Y-98491000D01*
X148503000Y-98531000D02*
X144490000Y-98531000D01*
X142530000Y-98531000D02*
X138517000Y-98531000D01*
X148497000Y-98571000D02*
X144490000Y-98571000D01*
X142530000Y-98571000D02*
X138523000Y-98571000D01*
X148491000Y-98611000D02*
X144490000Y-98611000D01*
X142530000Y-98611000D02*
X138529000Y-98611000D01*
X148484000Y-98651000D02*
X144490000Y-98651000D01*
X142530000Y-98651000D02*
X138536000Y-98651000D01*
X148477000Y-98691000D02*
X144490000Y-98691000D01*
X142530000Y-98691000D02*
X138543000Y-98691000D01*
X148469000Y-98731000D02*
X144490000Y-98731000D01*
X142530000Y-98731000D02*
X138551000Y-98731000D01*
X148461000Y-98771000D02*
X144490000Y-98771000D01*
X142530000Y-98771000D02*
X138559000Y-98771000D01*
X148453000Y-98811000D02*
X144490000Y-98811000D01*
X142530000Y-98811000D02*
X138567000Y-98811000D01*
X148445000Y-98851000D02*
X144490000Y-98851000D01*
X142530000Y-98851000D02*
X138575000Y-98851000D01*
X148436000Y-98891000D02*
X144490000Y-98891000D01*
X142530000Y-98891000D02*
X138584000Y-98891000D01*
X148427000Y-98931000D02*
X144490000Y-98931000D01*
X142530000Y-98931000D02*
X138593000Y-98931000D01*
X148417000Y-98971000D02*
X144490000Y-98971000D01*
X142530000Y-98971000D02*
X138603000Y-98971000D01*
X148407000Y-99011000D02*
X144490000Y-99011000D01*
X142530000Y-99011000D02*
X138613000Y-99011000D01*
X148397000Y-99051000D02*
X144490000Y-99051000D01*
X142530000Y-99051000D02*
X138623000Y-99051000D01*
X148386000Y-99091000D02*
X144490000Y-99091000D01*
X142530000Y-99091000D02*
X138634000Y-99091000D01*
X148375000Y-99131000D02*
X144490000Y-99131000D01*
X142530000Y-99131000D02*
X138645000Y-99131000D01*
X148364000Y-99171000D02*
X144490000Y-99171000D01*
X142530000Y-99171000D02*
X138656000Y-99171000D01*
X148353000Y-99211000D02*
X144490000Y-99211000D01*
X142530000Y-99211000D02*
X138667000Y-99211000D01*
X148341000Y-99251000D02*
X144490000Y-99251000D01*
X142530000Y-99251000D02*
X138679000Y-99251000D01*
X148328000Y-99291000D02*
X144490000Y-99291000D01*
X142530000Y-99291000D02*
X138692000Y-99291000D01*
X148316000Y-99331000D02*
X144490000Y-99331000D01*
X142530000Y-99331000D02*
X138704000Y-99331000D01*
X148302000Y-99371000D02*
X144490000Y-99371000D01*
X142530000Y-99371000D02*
X138718000Y-99371000D01*
X148289000Y-99411000D02*
X144490000Y-99411000D01*
X142530000Y-99411000D02*
X138731000Y-99411000D01*
X148275000Y-99451000D02*
X144490000Y-99451000D01*
X142530000Y-99451000D02*
X138745000Y-99451000D01*
X148261000Y-99491000D02*
X144490000Y-99491000D01*
X142530000Y-99491000D02*
X138759000Y-99491000D01*
X148247000Y-99531000D02*
X144490000Y-99531000D01*
X142530000Y-99531000D02*
X138773000Y-99531000D01*
X148232000Y-99571000D02*
X144490000Y-99571000D01*
X142530000Y-99571000D02*
X138788000Y-99571000D01*
X148216000Y-99611000D02*
X144490000Y-99611000D01*
X142530000Y-99611000D02*
X138804000Y-99611000D01*
X148201000Y-99651000D02*
X144490000Y-99651000D01*
X142530000Y-99651000D02*
X138819000Y-99651000D01*
X148184000Y-99691000D02*
X144490000Y-99691000D01*
X142530000Y-99691000D02*
X138836000Y-99691000D01*
X148168000Y-99731000D02*
X144490000Y-99731000D01*
X142530000Y-99731000D02*
X138852000Y-99731000D01*
X148151000Y-99771000D02*
X144490000Y-99771000D01*
X142530000Y-99771000D02*
X138869000Y-99771000D01*
X148134000Y-99811000D02*
X144490000Y-99811000D01*
X142530000Y-99811000D02*
X138886000Y-99811000D01*
X148116000Y-99851000D02*
X144490000Y-99851000D01*
X142530000Y-99851000D02*
X138904000Y-99851000D01*
X148098000Y-99891000D02*
X144490000Y-99891000D01*
X142530000Y-99891000D02*
X138922000Y-99891000D01*
X148079000Y-99931000D02*
X144490000Y-99931000D01*
X142530000Y-99931000D02*
X138941000Y-99931000D01*
X148060000Y-99971000D02*
X144490000Y-99971000D01*
X142530000Y-99971000D02*
X138960000Y-99971000D01*
X148041000Y-100011000D02*
X138979000Y-100011000D01*
X148021000Y-100051000D02*
X138999000Y-100051000D01*
X148001000Y-100091000D02*
X139019000Y-100091000D01*
X147980000Y-100131000D02*
X139040000Y-100131000D01*
X147959000Y-100171000D02*
X139061000Y-100171000D01*
X147938000Y-100211000D02*
X139082000Y-100211000D01*
X147915000Y-100251000D02*
X139105000Y-100251000D01*
X147893000Y-100291000D02*
X139127000Y-100291000D01*
X147870000Y-100331000D02*
X139150000Y-100331000D01*
X147846000Y-100371000D02*
X139174000Y-100371000D01*
X147822000Y-100411000D02*
X139198000Y-100411000D01*
X147798000Y-100451000D02*
X139222000Y-100451000D01*
X147773000Y-100491000D02*
X139247000Y-100491000D01*
X147747000Y-100531000D02*
X139273000Y-100531000D01*
X147721000Y-100571000D02*
X139299000Y-100571000D01*
X147695000Y-100611000D02*
X139325000Y-100611000D01*
X147667000Y-100651000D02*
X139353000Y-100651000D01*
X147640000Y-100691000D02*
X139380000Y-100691000D01*
X147611000Y-100731000D02*
X139409000Y-100731000D01*
X147582000Y-100771000D02*
X139438000Y-100771000D01*
X147553000Y-100811000D02*
X139467000Y-100811000D01*
X147523000Y-100851000D02*
X139497000Y-100851000D01*
X147492000Y-100891000D02*
X139528000Y-100891000D01*
X147461000Y-100931000D02*
X139559000Y-100931000D01*
X147429000Y-100971000D02*
X139591000Y-100971000D01*
X147396000Y-101011000D02*
X139624000Y-101011000D01*
X147363000Y-101051000D02*
X139657000Y-101051000D01*
X147329000Y-101091000D02*
X139691000Y-101091000D01*
X147294000Y-101131000D02*
X139726000Y-101131000D01*
X147258000Y-101171000D02*
X139762000Y-101171000D01*
X147222000Y-101211000D02*
X139798000Y-101211000D01*
X147185000Y-101251000D02*
X139835000Y-101251000D01*
X147147000Y-101291000D02*
X139873000Y-101291000D01*
X147108000Y-101331000D02*
X139912000Y-101331000D01*
X147069000Y-101371000D02*
X139951000Y-101371000D01*
X147028000Y-101411000D02*
X139992000Y-101411000D01*
X146987000Y-101451000D02*
X140033000Y-101451000D01*
X146945000Y-101491000D02*
X140075000Y-101491000D01*
X146901000Y-101531000D02*
X140119000Y-101531000D01*
X146857000Y-101571000D02*
X140163000Y-101571000D01*
X146812000Y-101611000D02*
X140208000Y-101611000D01*
X146765000Y-101651000D02*
X140255000Y-101651000D01*
X146717000Y-101691000D02*
X140303000Y-101691000D01*
X146668000Y-101731000D02*
X140352000Y-101731000D01*
X146618000Y-101771000D02*
X140402000Y-101771000D01*
X146567000Y-101811000D02*
X140453000Y-101811000D01*
X146514000Y-101851000D02*
X140506000Y-101851000D01*
X146459000Y-101891000D02*
X140561000Y-101891000D01*
X146404000Y-101931000D02*
X140616000Y-101931000D01*
X146346000Y-101971000D02*
X140674000Y-101971000D01*
X146287000Y-102011000D02*
X140733000Y-102011000D01*
X146225000Y-102051000D02*
X140795000Y-102051000D01*
X146162000Y-102091000D02*
X140858000Y-102091000D01*
X146097000Y-102131000D02*
X140923000Y-102131000D01*
X146029000Y-102171000D02*
X140991000Y-102171000D01*
X145959000Y-102211000D02*
X141061000Y-102211000D01*
X145887000Y-102251000D02*
X141133000Y-102251000D01*
X145811000Y-102291000D02*
X141209000Y-102291000D01*
X145732000Y-102331000D02*
X141288000Y-102331000D01*
X145650000Y-102371000D02*
X141370000Y-102371000D01*
X145563000Y-102411000D02*
X141457000Y-102411000D01*
X145472000Y-102451000D02*
X141548000Y-102451000D01*
X145376000Y-102491000D02*
X141644000Y-102491000D01*
X145273000Y-102531000D02*
X141747000Y-102531000D01*
X145164000Y-102571000D02*
X141856000Y-102571000D01*
X145046000Y-102611000D02*
X141974000Y-102611000D01*
X144917000Y-102651000D02*
X142103000Y-102651000D01*
X144775000Y-102691000D02*
X142245000Y-102691000D01*
X144614000Y-102731000D02*
X142406000Y-102731000D01*
X144423000Y-102771000D02*
X142597000Y-102771000D01*
X144182000Y-102811000D02*
X142838000Y-102811000D01*
X143789000Y-102851000D02*
X143231000Y-102851000D01*
X143510000Y-94320000D02*
X143510000Y-95520000D01*
X144160000Y-94920000D02*
X142860000Y-94920000D01*
X176560000Y-77470000D02*
G75*
G03X176560000Y-77470000I-5090000J0D01*
G01*
X171470000Y-82520000D02*
X171470000Y-72420000D01*
X171430000Y-82520000D02*
X171430000Y-72420000D01*
X171390000Y-82520000D02*
X171390000Y-72420000D01*
X171350000Y-82519000D02*
X171350000Y-72421000D01*
X171310000Y-82518000D02*
X171310000Y-72422000D01*
X171270000Y-82517000D02*
X171270000Y-72423000D01*
X171230000Y-82515000D02*
X171230000Y-72425000D01*
X171190000Y-82513000D02*
X171190000Y-78450000D01*
X171190000Y-76490000D02*
X171190000Y-72427000D01*
X171150000Y-82510000D02*
X171150000Y-78450000D01*
X171150000Y-76490000D02*
X171150000Y-72430000D01*
X171110000Y-82508000D02*
X171110000Y-78450000D01*
X171110000Y-76490000D02*
X171110000Y-72432000D01*
X171070000Y-82505000D02*
X171070000Y-78450000D01*
X171070000Y-76490000D02*
X171070000Y-72435000D01*
X171030000Y-82501000D02*
X171030000Y-78450000D01*
X171030000Y-76490000D02*
X171030000Y-72439000D01*
X170990000Y-82498000D02*
X170990000Y-78450000D01*
X170990000Y-76490000D02*
X170990000Y-72442000D01*
X170950000Y-82494000D02*
X170950000Y-78450000D01*
X170950000Y-76490000D02*
X170950000Y-72446000D01*
X170910000Y-82490000D02*
X170910000Y-78450000D01*
X170910000Y-76490000D02*
X170910000Y-72450000D01*
X170870000Y-82485000D02*
X170870000Y-78450000D01*
X170870000Y-76490000D02*
X170870000Y-72455000D01*
X170830000Y-82480000D02*
X170830000Y-78450000D01*
X170830000Y-76490000D02*
X170830000Y-72460000D01*
X170790000Y-82475000D02*
X170790000Y-78450000D01*
X170790000Y-76490000D02*
X170790000Y-72465000D01*
X170749000Y-82469000D02*
X170749000Y-78450000D01*
X170749000Y-76490000D02*
X170749000Y-72471000D01*
X170709000Y-82463000D02*
X170709000Y-78450000D01*
X170709000Y-76490000D02*
X170709000Y-72477000D01*
X170669000Y-82457000D02*
X170669000Y-78450000D01*
X170669000Y-76490000D02*
X170669000Y-72483000D01*
X170629000Y-82451000D02*
X170629000Y-78450000D01*
X170629000Y-76490000D02*
X170629000Y-72489000D01*
X170589000Y-82444000D02*
X170589000Y-78450000D01*
X170589000Y-76490000D02*
X170589000Y-72496000D01*
X170549000Y-82437000D02*
X170549000Y-78450000D01*
X170549000Y-76490000D02*
X170549000Y-72503000D01*
X170509000Y-82429000D02*
X170509000Y-78450000D01*
X170509000Y-76490000D02*
X170509000Y-72511000D01*
X170469000Y-82421000D02*
X170469000Y-78450000D01*
X170469000Y-76490000D02*
X170469000Y-72519000D01*
X170429000Y-82413000D02*
X170429000Y-78450000D01*
X170429000Y-76490000D02*
X170429000Y-72527000D01*
X170389000Y-82405000D02*
X170389000Y-78450000D01*
X170389000Y-76490000D02*
X170389000Y-72535000D01*
X170349000Y-82396000D02*
X170349000Y-78450000D01*
X170349000Y-76490000D02*
X170349000Y-72544000D01*
X170309000Y-82387000D02*
X170309000Y-78450000D01*
X170309000Y-76490000D02*
X170309000Y-72553000D01*
X170269000Y-82377000D02*
X170269000Y-78450000D01*
X170269000Y-76490000D02*
X170269000Y-72563000D01*
X170229000Y-82367000D02*
X170229000Y-78450000D01*
X170229000Y-76490000D02*
X170229000Y-72573000D01*
X170189000Y-82357000D02*
X170189000Y-78450000D01*
X170189000Y-76490000D02*
X170189000Y-72583000D01*
X170149000Y-82346000D02*
X170149000Y-78450000D01*
X170149000Y-76490000D02*
X170149000Y-72594000D01*
X170109000Y-82335000D02*
X170109000Y-78450000D01*
X170109000Y-76490000D02*
X170109000Y-72605000D01*
X170069000Y-82324000D02*
X170069000Y-78450000D01*
X170069000Y-76490000D02*
X170069000Y-72616000D01*
X170029000Y-82313000D02*
X170029000Y-78450000D01*
X170029000Y-76490000D02*
X170029000Y-72627000D01*
X169989000Y-82301000D02*
X169989000Y-78450000D01*
X169989000Y-76490000D02*
X169989000Y-72639000D01*
X169949000Y-82288000D02*
X169949000Y-78450000D01*
X169949000Y-76490000D02*
X169949000Y-72652000D01*
X169909000Y-82276000D02*
X169909000Y-78450000D01*
X169909000Y-76490000D02*
X169909000Y-72664000D01*
X169869000Y-82262000D02*
X169869000Y-78450000D01*
X169869000Y-76490000D02*
X169869000Y-72678000D01*
X169829000Y-82249000D02*
X169829000Y-78450000D01*
X169829000Y-76490000D02*
X169829000Y-72691000D01*
X169789000Y-82235000D02*
X169789000Y-78450000D01*
X169789000Y-76490000D02*
X169789000Y-72705000D01*
X169749000Y-82221000D02*
X169749000Y-78450000D01*
X169749000Y-76490000D02*
X169749000Y-72719000D01*
X169709000Y-82207000D02*
X169709000Y-78450000D01*
X169709000Y-76490000D02*
X169709000Y-72733000D01*
X169669000Y-82192000D02*
X169669000Y-78450000D01*
X169669000Y-76490000D02*
X169669000Y-72748000D01*
X169629000Y-82176000D02*
X169629000Y-78450000D01*
X169629000Y-76490000D02*
X169629000Y-72764000D01*
X169589000Y-82161000D02*
X169589000Y-78450000D01*
X169589000Y-76490000D02*
X169589000Y-72779000D01*
X169549000Y-82144000D02*
X169549000Y-78450000D01*
X169549000Y-76490000D02*
X169549000Y-72796000D01*
X169509000Y-82128000D02*
X169509000Y-78450000D01*
X169509000Y-76490000D02*
X169509000Y-72812000D01*
X169469000Y-82111000D02*
X169469000Y-78450000D01*
X169469000Y-76490000D02*
X169469000Y-72829000D01*
X169429000Y-82094000D02*
X169429000Y-78450000D01*
X169429000Y-76490000D02*
X169429000Y-72846000D01*
X169389000Y-82076000D02*
X169389000Y-78450000D01*
X169389000Y-76490000D02*
X169389000Y-72864000D01*
X169349000Y-82058000D02*
X169349000Y-78450000D01*
X169349000Y-76490000D02*
X169349000Y-72882000D01*
X169309000Y-82039000D02*
X169309000Y-78450000D01*
X169309000Y-76490000D02*
X169309000Y-72901000D01*
X169269000Y-82020000D02*
X169269000Y-78450000D01*
X169269000Y-76490000D02*
X169269000Y-72920000D01*
X169229000Y-82001000D02*
X169229000Y-72939000D01*
X169189000Y-81981000D02*
X169189000Y-72959000D01*
X169149000Y-81961000D02*
X169149000Y-72979000D01*
X169109000Y-81940000D02*
X169109000Y-73000000D01*
X169069000Y-81919000D02*
X169069000Y-73021000D01*
X169029000Y-81898000D02*
X169029000Y-73042000D01*
X168989000Y-81875000D02*
X168989000Y-73065000D01*
X168949000Y-81853000D02*
X168949000Y-73087000D01*
X168909000Y-81830000D02*
X168909000Y-73110000D01*
X168869000Y-81806000D02*
X168869000Y-73134000D01*
X168829000Y-81782000D02*
X168829000Y-73158000D01*
X168789000Y-81758000D02*
X168789000Y-73182000D01*
X168749000Y-81733000D02*
X168749000Y-73207000D01*
X168709000Y-81707000D02*
X168709000Y-73233000D01*
X168669000Y-81681000D02*
X168669000Y-73259000D01*
X168629000Y-81655000D02*
X168629000Y-73285000D01*
X168589000Y-81627000D02*
X168589000Y-73313000D01*
X168549000Y-81600000D02*
X168549000Y-73340000D01*
X168509000Y-81571000D02*
X168509000Y-73369000D01*
X168469000Y-81542000D02*
X168469000Y-73398000D01*
X168429000Y-81513000D02*
X168429000Y-73427000D01*
X168389000Y-81483000D02*
X168389000Y-73457000D01*
X168349000Y-81452000D02*
X168349000Y-73488000D01*
X168309000Y-81421000D02*
X168309000Y-73519000D01*
X168269000Y-81389000D02*
X168269000Y-73551000D01*
X168229000Y-81356000D02*
X168229000Y-73584000D01*
X168189000Y-81323000D02*
X168189000Y-73617000D01*
X168149000Y-81289000D02*
X168149000Y-73651000D01*
X168109000Y-81254000D02*
X168109000Y-73686000D01*
X168069000Y-81218000D02*
X168069000Y-73722000D01*
X168029000Y-81182000D02*
X168029000Y-73758000D01*
X167989000Y-81145000D02*
X167989000Y-73795000D01*
X167949000Y-81107000D02*
X167949000Y-73833000D01*
X167909000Y-81068000D02*
X167909000Y-73872000D01*
X167869000Y-81029000D02*
X167869000Y-73911000D01*
X167829000Y-80988000D02*
X167829000Y-73952000D01*
X167789000Y-80947000D02*
X167789000Y-73993000D01*
X167749000Y-80905000D02*
X167749000Y-74035000D01*
X167709000Y-80861000D02*
X167709000Y-74079000D01*
X167669000Y-80817000D02*
X167669000Y-74123000D01*
X167629000Y-80772000D02*
X167629000Y-74168000D01*
X167589000Y-80725000D02*
X167589000Y-74215000D01*
X167549000Y-80677000D02*
X167549000Y-74263000D01*
X167509000Y-80628000D02*
X167509000Y-74312000D01*
X167469000Y-80578000D02*
X167469000Y-74362000D01*
X167429000Y-80527000D02*
X167429000Y-74413000D01*
X167389000Y-80474000D02*
X167389000Y-74466000D01*
X167349000Y-80419000D02*
X167349000Y-74521000D01*
X167309000Y-80364000D02*
X167309000Y-74576000D01*
X167269000Y-80306000D02*
X167269000Y-74634000D01*
X167229000Y-80247000D02*
X167229000Y-74693000D01*
X167189000Y-80185000D02*
X167189000Y-74755000D01*
X167149000Y-80122000D02*
X167149000Y-74818000D01*
X167109000Y-80057000D02*
X167109000Y-74883000D01*
X167069000Y-79989000D02*
X167069000Y-74951000D01*
X167029000Y-79919000D02*
X167029000Y-75021000D01*
X166989000Y-79847000D02*
X166989000Y-75093000D01*
X166949000Y-79771000D02*
X166949000Y-75169000D01*
X166909000Y-79692000D02*
X166909000Y-75248000D01*
X166869000Y-79610000D02*
X166869000Y-75330000D01*
X166829000Y-79523000D02*
X166829000Y-75417000D01*
X166789000Y-79432000D02*
X166789000Y-75508000D01*
X166749000Y-79336000D02*
X166749000Y-75604000D01*
X166709000Y-79233000D02*
X166709000Y-75707000D01*
X166669000Y-79124000D02*
X166669000Y-75816000D01*
X166629000Y-79006000D02*
X166629000Y-75934000D01*
X166589000Y-78877000D02*
X166589000Y-76063000D01*
X166549000Y-78735000D02*
X166549000Y-76205000D01*
X166509000Y-78574000D02*
X166509000Y-76366000D01*
X166469000Y-78383000D02*
X166469000Y-76557000D01*
X166429000Y-78142000D02*
X166429000Y-76798000D01*
X166389000Y-77749000D02*
X166389000Y-77191000D01*
X174920000Y-77470000D02*
X173720000Y-77470000D01*
X174320000Y-78120000D02*
X174320000Y-76820000D01*
X123240000Y-101710000D02*
X135840000Y-101710000D01*
X135840000Y-101710000D02*
X135840000Y-91360000D01*
X135840000Y-91360000D02*
X134890000Y-91360000D01*
X134890000Y-91360000D02*
X135140000Y-90860000D01*
X135140000Y-90860000D02*
X133240000Y-90860000D01*
X133240000Y-90860000D02*
X133190000Y-90860000D01*
X133190000Y-90860000D02*
X133440000Y-91360000D01*
X133440000Y-91360000D02*
X128040000Y-91360000D01*
X128040000Y-91360000D02*
X128340000Y-90860000D01*
X128340000Y-90860000D02*
X123240000Y-90860000D01*
X123240000Y-90860000D02*
X123240000Y-101710000D01*
X192990000Y-92600000D02*
X180390000Y-92600000D01*
X180390000Y-92600000D02*
X180390000Y-102950000D01*
X180390000Y-102950000D02*
X181340000Y-102950000D01*
X181340000Y-102950000D02*
X181090000Y-103450000D01*
X181090000Y-103450000D02*
X182990000Y-103450000D01*
X182990000Y-103450000D02*
X183040000Y-103450000D01*
X183040000Y-103450000D02*
X182790000Y-102950000D01*
X182790000Y-102950000D02*
X188190000Y-102950000D01*
X188190000Y-102950000D02*
X187890000Y-103450000D01*
X187890000Y-103450000D02*
X192990000Y-103450000D01*
X192990000Y-103450000D02*
X192990000Y-92600000D01*
X162170000Y-102350000D02*
X165490000Y-102350000D01*
X165490000Y-102350000D02*
X165490000Y-93230000D01*
X165490000Y-93230000D02*
X162170000Y-93230000D01*
X162170000Y-93230000D02*
X162170000Y-102350000D01*
X163830000Y-104430000D02*
X163830000Y-102350000D01*
X163830000Y-91150000D02*
X163830000Y-93230000D01*
X171840000Y-93230000D02*
X168520000Y-93230000D01*
X168520000Y-93230000D02*
X168520000Y-102350000D01*
X168520000Y-102350000D02*
X171840000Y-102350000D01*
X171840000Y-102350000D02*
X171840000Y-93230000D01*
X170180000Y-91150000D02*
X170180000Y-93230000D01*
X170180000Y-104430000D02*
X170180000Y-102350000D01*
X150740000Y-102350000D02*
X154060000Y-102350000D01*
X154060000Y-102350000D02*
X154060000Y-93230000D01*
X154060000Y-93230000D02*
X150740000Y-93230000D01*
X150740000Y-93230000D02*
X150740000Y-102350000D01*
X152400000Y-104430000D02*
X152400000Y-102350000D01*
X152400000Y-91150000D02*
X152400000Y-93230000D01*
X156100000Y-111810000D02*
X156100000Y-124410000D01*
X156100000Y-124410000D02*
X166450000Y-124410000D01*
X166450000Y-124410000D02*
X166450000Y-123460000D01*
X166450000Y-123460000D02*
X166950000Y-123710000D01*
X166950000Y-123710000D02*
X166950000Y-121810000D01*
X166950000Y-121810000D02*
X166950000Y-121760000D01*
X166950000Y-121760000D02*
X166450000Y-122010000D01*
X166450000Y-122010000D02*
X166450000Y-116610000D01*
X166450000Y-116610000D02*
X166950000Y-116910000D01*
X166950000Y-116910000D02*
X166950000Y-111810000D01*
X166950000Y-111810000D02*
X156100000Y-111810000D01*
X141660000Y-78210000D02*
X141660000Y-81810000D01*
X142387205Y-77685816D02*
G75*
G03X141660000Y-78210000I1122795J-2324184D01*
G01*
X144608807Y-77653600D02*
G75*
G02X146110000Y-80010000I-1098807J-2356400D01*
G01*
X144608807Y-82366400D02*
G75*
G03X146110000Y-80010000I-1098807J2356400D01*
G01*
X142387205Y-82334184D02*
G75*
G02X141660000Y-81810000I1122795J2324184D01*
G01*
X160410000Y-93230000D02*
X157090000Y-93230000D01*
X157090000Y-93230000D02*
X157090000Y-102350000D01*
X157090000Y-102350000D02*
X160410000Y-102350000D01*
X160410000Y-102350000D02*
X160410000Y-93230000D01*
X158750000Y-91150000D02*
X158750000Y-93230000D01*
X158750000Y-104430000D02*
X158750000Y-102350000D01*
D12*
G36*
X132220106Y-118484448D02*
X132251810Y-118591467D01*
X132318391Y-118842625D01*
X132405795Y-119184838D01*
X132410949Y-119205335D01*
X132549534Y-119692215D01*
X132725096Y-120224128D01*
X132849254Y-120557176D01*
X132998466Y-120971870D01*
X133120600Y-121385706D01*
X133181429Y-121666029D01*
X133248400Y-122111976D01*
X133756400Y-121784372D01*
X134036806Y-121583939D01*
X134237888Y-121403542D01*
X134304852Y-121307383D01*
X134335858Y-121069436D01*
X134333948Y-120769020D01*
X134305172Y-120478113D01*
X134255578Y-120268691D01*
X134212571Y-120209390D01*
X134095276Y-120101605D01*
X133963175Y-119894913D01*
X133880624Y-119706371D01*
X133912392Y-119593552D01*
X134090084Y-119486286D01*
X134163054Y-119451139D01*
X134391088Y-119353735D01*
X134534598Y-119361519D01*
X134682064Y-119495611D01*
X134766971Y-119595277D01*
X134954160Y-119860438D01*
X135077162Y-120111539D01*
X135086935Y-120144615D01*
X135110865Y-120390106D01*
X135106018Y-120762407D01*
X135076024Y-121187727D01*
X135024509Y-121592276D01*
X135012329Y-121662107D01*
X135051324Y-121842529D01*
X135178800Y-121902570D01*
X135523939Y-122065907D01*
X135845435Y-122382457D01*
X136111147Y-122802410D01*
X136288928Y-123275957D01*
X136347200Y-123713118D01*
X136331406Y-123880137D01*
X136245376Y-123937891D01*
X136031132Y-123915341D01*
X135966200Y-123903445D01*
X135720572Y-123854059D01*
X135586180Y-123820254D01*
X135578122Y-123815938D01*
X135548582Y-123718068D01*
X135482437Y-123490585D01*
X135448403Y-123372338D01*
X135294070Y-122965647D01*
X135100924Y-122737268D01*
X134839689Y-122662536D01*
X134629768Y-122682717D01*
X134353635Y-122753968D01*
X134160298Y-122838183D01*
X134146445Y-122848425D01*
X134006882Y-122883580D01*
X133962649Y-122839333D01*
X133803521Y-122741624D01*
X133564654Y-122827029D01*
X133433716Y-122924179D01*
X133316311Y-123033779D01*
X133264989Y-123147853D01*
X133275225Y-123324990D01*
X133342492Y-123623777D01*
X133370911Y-123737137D01*
X133445194Y-124069137D01*
X133482879Y-124315574D01*
X133477583Y-124417083D01*
X133351489Y-124466565D01*
X133111019Y-124519573D01*
X133074762Y-124525683D01*
X132723547Y-124582678D01*
X132550591Y-123782189D01*
X132466678Y-123300077D01*
X132411389Y-122798115D01*
X132396399Y-122383061D01*
X132396644Y-122374650D01*
X132391072Y-122075230D01*
X132348384Y-121758067D01*
X132258326Y-121378305D01*
X132110642Y-120891089D01*
X131943026Y-120390643D01*
X131731445Y-119766360D01*
X131586806Y-119306376D01*
X131507569Y-118983677D01*
X131492192Y-118771248D01*
X131539136Y-118642078D01*
X131646858Y-118569153D01*
X131813818Y-118525458D01*
X131836381Y-118521155D01*
X132078980Y-118484201D01*
X132212688Y-118480257D01*
X132220106Y-118484448D01*
X132220106Y-118484448D01*
G37*
X132220106Y-118484448D02*
X132251810Y-118591467D01*
X132318391Y-118842625D01*
X132405795Y-119184838D01*
X132410949Y-119205335D01*
X132549534Y-119692215D01*
X132725096Y-120224128D01*
X132849254Y-120557176D01*
X132998466Y-120971870D01*
X133120600Y-121385706D01*
X133181429Y-121666029D01*
X133248400Y-122111976D01*
X133756400Y-121784372D01*
X134036806Y-121583939D01*
X134237888Y-121403542D01*
X134304852Y-121307383D01*
X134335858Y-121069436D01*
X134333948Y-120769020D01*
X134305172Y-120478113D01*
X134255578Y-120268691D01*
X134212571Y-120209390D01*
X134095276Y-120101605D01*
X133963175Y-119894913D01*
X133880624Y-119706371D01*
X133912392Y-119593552D01*
X134090084Y-119486286D01*
X134163054Y-119451139D01*
X134391088Y-119353735D01*
X134534598Y-119361519D01*
X134682064Y-119495611D01*
X134766971Y-119595277D01*
X134954160Y-119860438D01*
X135077162Y-120111539D01*
X135086935Y-120144615D01*
X135110865Y-120390106D01*
X135106018Y-120762407D01*
X135076024Y-121187727D01*
X135024509Y-121592276D01*
X135012329Y-121662107D01*
X135051324Y-121842529D01*
X135178800Y-121902570D01*
X135523939Y-122065907D01*
X135845435Y-122382457D01*
X136111147Y-122802410D01*
X136288928Y-123275957D01*
X136347200Y-123713118D01*
X136331406Y-123880137D01*
X136245376Y-123937891D01*
X136031132Y-123915341D01*
X135966200Y-123903445D01*
X135720572Y-123854059D01*
X135586180Y-123820254D01*
X135578122Y-123815938D01*
X135548582Y-123718068D01*
X135482437Y-123490585D01*
X135448403Y-123372338D01*
X135294070Y-122965647D01*
X135100924Y-122737268D01*
X134839689Y-122662536D01*
X134629768Y-122682717D01*
X134353635Y-122753968D01*
X134160298Y-122838183D01*
X134146445Y-122848425D01*
X134006882Y-122883580D01*
X133962649Y-122839333D01*
X133803521Y-122741624D01*
X133564654Y-122827029D01*
X133433716Y-122924179D01*
X133316311Y-123033779D01*
X133264989Y-123147853D01*
X133275225Y-123324990D01*
X133342492Y-123623777D01*
X133370911Y-123737137D01*
X133445194Y-124069137D01*
X133482879Y-124315574D01*
X133477583Y-124417083D01*
X133351489Y-124466565D01*
X133111019Y-124519573D01*
X133074762Y-124525683D01*
X132723547Y-124582678D01*
X132550591Y-123782189D01*
X132466678Y-123300077D01*
X132411389Y-122798115D01*
X132396399Y-122383061D01*
X132396644Y-122374650D01*
X132391072Y-122075230D01*
X132348384Y-121758067D01*
X132258326Y-121378305D01*
X132110642Y-120891089D01*
X131943026Y-120390643D01*
X131731445Y-119766360D01*
X131586806Y-119306376D01*
X131507569Y-118983677D01*
X131492192Y-118771248D01*
X131539136Y-118642078D01*
X131646858Y-118569153D01*
X131813818Y-118525458D01*
X131836381Y-118521155D01*
X132078980Y-118484201D01*
X132212688Y-118480257D01*
X132220106Y-118484448D01*
G36*
X137000104Y-118296790D02*
X137211007Y-118364078D01*
X137401944Y-118480104D01*
X137422404Y-118641055D01*
X137417192Y-118658742D01*
X137431811Y-118811422D01*
X137506875Y-119104648D01*
X137625799Y-119490932D01*
X137771999Y-119922785D01*
X137928891Y-120352720D01*
X138079890Y-120733249D01*
X138208411Y-121016883D01*
X138284855Y-121143231D01*
X138413837Y-121152064D01*
X138655769Y-121068513D01*
X138960331Y-120921154D01*
X139277201Y-120738570D01*
X139556058Y-120549337D01*
X139746580Y-120382037D01*
X139801600Y-120281815D01*
X139840587Y-120156120D01*
X139991575Y-120100845D01*
X140208000Y-120091200D01*
X140469476Y-120104647D01*
X140585713Y-120169840D01*
X140614154Y-120324055D01*
X140614400Y-120354915D01*
X140524853Y-120704271D01*
X140290765Y-121036517D01*
X139963968Y-121282307D01*
X139898963Y-121312154D01*
X139584654Y-121442345D01*
X140175727Y-121758579D01*
X140851449Y-122137748D01*
X141358509Y-122470454D01*
X141718697Y-122781071D01*
X141953805Y-123093973D01*
X142085622Y-123433537D01*
X142135939Y-123824138D01*
X142138400Y-123954056D01*
X142138400Y-124358400D01*
X141721129Y-124358400D01*
X141451929Y-124340590D01*
X141351382Y-124278891D01*
X141357758Y-124217943D01*
X141368715Y-124034434D01*
X141328380Y-123755260D01*
X141311022Y-123681016D01*
X141206031Y-123406065D01*
X141019581Y-123194914D01*
X140734593Y-123003162D01*
X140389773Y-122796938D01*
X140057996Y-122594901D01*
X139932783Y-122517179D01*
X139639294Y-122387909D01*
X139254741Y-122286504D01*
X139043474Y-122254444D01*
X138480181Y-122196307D01*
X138542144Y-122540753D01*
X138608618Y-122851776D01*
X138703697Y-123232840D01*
X138745308Y-123385078D01*
X138820923Y-123672851D01*
X138860709Y-123865122D01*
X138861454Y-123909417D01*
X138755437Y-123942035D01*
X138524852Y-123991790D01*
X138462026Y-124003802D01*
X138218844Y-124037234D01*
X138093320Y-123984903D01*
X138015889Y-123800087D01*
X137983879Y-123682664D01*
X137917067Y-123416897D01*
X137858975Y-123144620D01*
X137797372Y-122802644D01*
X137720027Y-122327779D01*
X137712803Y-122282220D01*
X137647174Y-121996005D01*
X137530105Y-121596645D01*
X137384279Y-121160195D01*
X137349224Y-121063020D01*
X137172851Y-120581629D01*
X136988026Y-120077037D01*
X136832037Y-119651047D01*
X136819211Y-119616011D01*
X136694543Y-119188655D01*
X136636915Y-118798518D01*
X136646651Y-118487990D01*
X136724073Y-118299459D01*
X136808901Y-118262399D01*
X137000104Y-118296790D01*
X137000104Y-118296790D01*
G37*
X137000104Y-118296790D02*
X137211007Y-118364078D01*
X137401944Y-118480104D01*
X137422404Y-118641055D01*
X137417192Y-118658742D01*
X137431811Y-118811422D01*
X137506875Y-119104648D01*
X137625799Y-119490932D01*
X137771999Y-119922785D01*
X137928891Y-120352720D01*
X138079890Y-120733249D01*
X138208411Y-121016883D01*
X138284855Y-121143231D01*
X138413837Y-121152064D01*
X138655769Y-121068513D01*
X138960331Y-120921154D01*
X139277201Y-120738570D01*
X139556058Y-120549337D01*
X139746580Y-120382037D01*
X139801600Y-120281815D01*
X139840587Y-120156120D01*
X139991575Y-120100845D01*
X140208000Y-120091200D01*
X140469476Y-120104647D01*
X140585713Y-120169840D01*
X140614154Y-120324055D01*
X140614400Y-120354915D01*
X140524853Y-120704271D01*
X140290765Y-121036517D01*
X139963968Y-121282307D01*
X139898963Y-121312154D01*
X139584654Y-121442345D01*
X140175727Y-121758579D01*
X140851449Y-122137748D01*
X141358509Y-122470454D01*
X141718697Y-122781071D01*
X141953805Y-123093973D01*
X142085622Y-123433537D01*
X142135939Y-123824138D01*
X142138400Y-123954056D01*
X142138400Y-124358400D01*
X141721129Y-124358400D01*
X141451929Y-124340590D01*
X141351382Y-124278891D01*
X141357758Y-124217943D01*
X141368715Y-124034434D01*
X141328380Y-123755260D01*
X141311022Y-123681016D01*
X141206031Y-123406065D01*
X141019581Y-123194914D01*
X140734593Y-123003162D01*
X140389773Y-122796938D01*
X140057996Y-122594901D01*
X139932783Y-122517179D01*
X139639294Y-122387909D01*
X139254741Y-122286504D01*
X139043474Y-122254444D01*
X138480181Y-122196307D01*
X138542144Y-122540753D01*
X138608618Y-122851776D01*
X138703697Y-123232840D01*
X138745308Y-123385078D01*
X138820923Y-123672851D01*
X138860709Y-123865122D01*
X138861454Y-123909417D01*
X138755437Y-123942035D01*
X138524852Y-123991790D01*
X138462026Y-124003802D01*
X138218844Y-124037234D01*
X138093320Y-123984903D01*
X138015889Y-123800087D01*
X137983879Y-123682664D01*
X137917067Y-123416897D01*
X137858975Y-123144620D01*
X137797372Y-122802644D01*
X137720027Y-122327779D01*
X137712803Y-122282220D01*
X137647174Y-121996005D01*
X137530105Y-121596645D01*
X137384279Y-121160195D01*
X137349224Y-121063020D01*
X137172851Y-120581629D01*
X136988026Y-120077037D01*
X136832037Y-119651047D01*
X136819211Y-119616011D01*
X136694543Y-119188655D01*
X136636915Y-118798518D01*
X136646651Y-118487990D01*
X136724073Y-118299459D01*
X136808901Y-118262399D01*
X137000104Y-118296790D01*
D13*
X130663334Y-86427143D02*
X130615715Y-86474762D01*
X130472858Y-86522381D01*
X130377620Y-86522381D01*
X130234762Y-86474762D01*
X130139524Y-86379524D01*
X130091905Y-86284286D01*
X130044286Y-86093810D01*
X130044286Y-85950952D01*
X130091905Y-85760476D01*
X130139524Y-85665238D01*
X130234762Y-85570000D01*
X130377620Y-85522381D01*
X130472858Y-85522381D01*
X130615715Y-85570000D01*
X130663334Y-85617619D01*
X131615715Y-86522381D02*
X131044286Y-86522381D01*
X131330000Y-86522381D02*
X131330000Y-85522381D01*
X131234762Y-85665238D01*
X131139524Y-85760476D01*
X131044286Y-85808095D01*
X149927143Y-97936666D02*
X149974762Y-97984285D01*
X150022381Y-98127142D01*
X150022381Y-98222380D01*
X149974762Y-98365238D01*
X149879524Y-98460476D01*
X149784286Y-98508095D01*
X149593810Y-98555714D01*
X149450952Y-98555714D01*
X149260476Y-98508095D01*
X149165238Y-98460476D01*
X149070000Y-98365238D01*
X149022381Y-98222380D01*
X149022381Y-98127142D01*
X149070000Y-97984285D01*
X149117619Y-97936666D01*
X149117619Y-97555714D02*
X149070000Y-97508095D01*
X149022381Y-97412857D01*
X149022381Y-97174761D01*
X149070000Y-97079523D01*
X149117619Y-97031904D01*
X149212857Y-96984285D01*
X149308095Y-96984285D01*
X149450952Y-97031904D01*
X150022381Y-97603333D01*
X150022381Y-96984285D01*
X171303334Y-83887143D02*
X171255715Y-83934762D01*
X171112858Y-83982381D01*
X171017620Y-83982381D01*
X170874762Y-83934762D01*
X170779524Y-83839524D01*
X170731905Y-83744286D01*
X170684286Y-83553810D01*
X170684286Y-83410952D01*
X170731905Y-83220476D01*
X170779524Y-83125238D01*
X170874762Y-83030000D01*
X171017620Y-82982381D01*
X171112858Y-82982381D01*
X171255715Y-83030000D01*
X171303334Y-83077619D01*
X171636667Y-82982381D02*
X172255715Y-82982381D01*
X171922381Y-83363333D01*
X172065239Y-83363333D01*
X172160477Y-83410952D01*
X172208096Y-83458571D01*
X172255715Y-83553810D01*
X172255715Y-83791905D01*
X172208096Y-83887143D01*
X172160477Y-83934762D01*
X172065239Y-83982381D01*
X171779524Y-83982381D01*
X171684286Y-83934762D01*
X171636667Y-83887143D01*
X123002381Y-101718095D02*
X122002381Y-101718095D01*
X122002381Y-101337142D01*
X122050000Y-101241904D01*
X122097619Y-101194285D01*
X122192857Y-101146666D01*
X122335714Y-101146666D01*
X122430952Y-101194285D01*
X122478571Y-101241904D01*
X122526190Y-101337142D01*
X122526190Y-101718095D01*
X123002381Y-100194285D02*
X123002381Y-100765714D01*
X123002381Y-100480000D02*
X122002381Y-100480000D01*
X122145238Y-100575238D01*
X122240476Y-100670476D01*
X122288095Y-100765714D01*
X194132381Y-94068095D02*
X193132381Y-94068095D01*
X193132381Y-93687142D01*
X193180000Y-93591904D01*
X193227619Y-93544285D01*
X193322857Y-93496666D01*
X193465714Y-93496666D01*
X193560952Y-93544285D01*
X193608571Y-93591904D01*
X193656190Y-93687142D01*
X193656190Y-94068095D01*
X193227619Y-93115714D02*
X193180000Y-93068095D01*
X193132381Y-92972857D01*
X193132381Y-92734761D01*
X193180000Y-92639523D01*
X193227619Y-92591904D01*
X193322857Y-92544285D01*
X193418095Y-92544285D01*
X193560952Y-92591904D01*
X194132381Y-93163333D01*
X194132381Y-92544285D01*
X161622381Y-97956666D02*
X161146190Y-98290000D01*
X161622381Y-98528095D02*
X160622381Y-98528095D01*
X160622381Y-98147142D01*
X160670000Y-98051904D01*
X160717619Y-98004285D01*
X160812857Y-97956666D01*
X160955714Y-97956666D01*
X161050952Y-98004285D01*
X161098571Y-98051904D01*
X161146190Y-98147142D01*
X161146190Y-98528095D01*
X160717619Y-97575714D02*
X160670000Y-97528095D01*
X160622381Y-97432857D01*
X160622381Y-97194761D01*
X160670000Y-97099523D01*
X160717619Y-97051904D01*
X160812857Y-97004285D01*
X160908095Y-97004285D01*
X161050952Y-97051904D01*
X161622381Y-97623333D01*
X161622381Y-97004285D01*
X173292381Y-97956666D02*
X172816190Y-98290000D01*
X173292381Y-98528095D02*
X172292381Y-98528095D01*
X172292381Y-98147142D01*
X172340000Y-98051904D01*
X172387619Y-98004285D01*
X172482857Y-97956666D01*
X172625714Y-97956666D01*
X172720952Y-98004285D01*
X172768571Y-98051904D01*
X172816190Y-98147142D01*
X172816190Y-98528095D01*
X172292381Y-97623333D02*
X172292381Y-97004285D01*
X172673333Y-97337619D01*
X172673333Y-97194761D01*
X172720952Y-97099523D01*
X172768571Y-97051904D01*
X172863810Y-97004285D01*
X173101905Y-97004285D01*
X173197143Y-97051904D01*
X173244762Y-97099523D01*
X173292381Y-97194761D01*
X173292381Y-97480476D01*
X173244762Y-97575714D01*
X173197143Y-97623333D01*
X150192381Y-97956666D02*
X149716190Y-98290000D01*
X150192381Y-98528095D02*
X149192381Y-98528095D01*
X149192381Y-98147142D01*
X149240000Y-98051904D01*
X149287619Y-98004285D01*
X149382857Y-97956666D01*
X149525714Y-97956666D01*
X149620952Y-98004285D01*
X149668571Y-98051904D01*
X149716190Y-98147142D01*
X149716190Y-98528095D01*
X149525714Y-97099523D02*
X150192381Y-97099523D01*
X149144762Y-97337619D02*
X149859048Y-97575714D01*
X149859048Y-96956666D01*
X156091905Y-111572381D02*
X156091905Y-110572381D01*
X156472858Y-110572381D01*
X156568096Y-110620000D01*
X156615715Y-110667619D01*
X156663334Y-110762857D01*
X156663334Y-110905714D01*
X156615715Y-111000952D01*
X156568096Y-111048571D01*
X156472858Y-111096190D01*
X156091905Y-111096190D01*
X156996667Y-110572381D02*
X157615715Y-110572381D01*
X157282381Y-110953333D01*
X157425239Y-110953333D01*
X157520477Y-111000952D01*
X157568096Y-111048571D01*
X157615715Y-111143810D01*
X157615715Y-111381905D01*
X157568096Y-111477143D01*
X157520477Y-111524762D01*
X157425239Y-111572381D01*
X157139524Y-111572381D01*
X157044286Y-111524762D01*
X156996667Y-111477143D01*
X147617619Y-80105238D02*
X147570000Y-80200476D01*
X147474762Y-80295714D01*
X147331905Y-80438571D01*
X147284286Y-80533810D01*
X147284286Y-80629048D01*
X147522381Y-80581429D02*
X147474762Y-80676667D01*
X147379524Y-80771905D01*
X147189048Y-80819524D01*
X146855714Y-80819524D01*
X146665238Y-80771905D01*
X146570000Y-80676667D01*
X146522381Y-80581429D01*
X146522381Y-80390952D01*
X146570000Y-80295714D01*
X146665238Y-80200476D01*
X146855714Y-80152857D01*
X147189048Y-80152857D01*
X147379524Y-80200476D01*
X147474762Y-80295714D01*
X147522381Y-80390952D01*
X147522381Y-80581429D01*
X147522381Y-79200476D02*
X147522381Y-79771905D01*
X147522381Y-79486191D02*
X146522381Y-79486191D01*
X146665238Y-79581429D01*
X146760476Y-79676667D01*
X146808095Y-79771905D01*
X161862381Y-97956666D02*
X161386190Y-98290000D01*
X161862381Y-98528095D02*
X160862381Y-98528095D01*
X160862381Y-98147142D01*
X160910000Y-98051904D01*
X160957619Y-98004285D01*
X161052857Y-97956666D01*
X161195714Y-97956666D01*
X161290952Y-98004285D01*
X161338571Y-98051904D01*
X161386190Y-98147142D01*
X161386190Y-98528095D01*
X161862381Y-97004285D02*
X161862381Y-97575714D01*
X161862381Y-97290000D02*
X160862381Y-97290000D01*
X161005238Y-97385238D01*
X161100476Y-97480476D01*
X161148095Y-97575714D01*
M02*
