M48
;DRILL file {KiCad 4.0.5} date 05/18/17 10:58:52
;FORMAT={-:-/ absolute / metric / decimal}
FMAT,2
METRIC,TZ
T1C0.800
T2C1.320
%
G90
G05
M71
T1
X129.58Y-80.01
X132.08Y-80.01
X143.51Y-77.47
X143.51Y-80.01
X143.51Y-82.55
X143.51Y-96.52
X143.51Y-99.02
X152.4Y-90.17
X152.4Y-105.41
X158.75Y-90.17
X158.75Y-105.41
X163.83Y-90.17
X163.83Y-105.41
X170.18Y-90.17
X170.18Y-105.41
X170.22Y-77.47
X172.72Y-77.47
T2
X129.54Y-94.06
X129.54Y-99.06
X158.75Y-118.11
X163.75Y-118.11
X186.69Y-95.25
X186.69Y-100.25
T0
M30
