G04 #@! TF.FileFunction,Copper,L1,Top,Signal*
%FSLAX46Y46*%
G04 Gerber Fmt 4.6, Leading zero omitted, Abs format (unit mm)*
G04 Created by KiCad (PCBNEW 4.0.5) date 05/30/17 12:36:44*
%MOMM*%
%LPD*%
G01*
G04 APERTURE LIST*
%ADD10C,0.100000*%
%ADD11R,2.400000X2.400000*%
%ADD12C,2.400000*%
%ADD13R,1.800000X1.800000*%
%ADD14O,1.800000X1.800000*%
%ADD15C,1.600000*%
%ADD16O,1.600000X1.600000*%
%ADD17R,1.600000X1.600000*%
%ADD18R,1.980000X3.960000*%
%ADD19O,1.980000X3.960000*%
%ADD20O,2.400000X2.400000*%
%ADD21C,1.400000*%
%ADD22O,1.400000X1.400000*%
%ADD23R,1.200000X1.200000*%
%ADD24C,1.200000*%
%ADD25C,0.250000*%
%ADD26C,0.300000*%
%ADD27C,0.254000*%
G04 APERTURE END LIST*
D10*
D11*
X145288000Y-121412000D03*
D12*
X152788000Y-121412000D03*
D13*
X108360000Y-58410000D03*
D14*
X110060000Y-54610000D03*
X111760000Y-58410000D03*
X113460000Y-54610000D03*
X115160000Y-58410000D03*
D13*
X123698000Y-49680000D03*
D14*
X126238000Y-49680000D03*
X128778000Y-49680000D03*
X131318000Y-49680000D03*
D15*
X109728000Y-98044000D03*
D16*
X109728000Y-78044000D03*
D17*
X74168000Y-90384000D03*
D15*
X74168000Y-87884000D03*
X137668000Y-99248000D03*
D16*
X137668000Y-79248000D03*
D15*
X111760000Y-65532000D03*
D16*
X131760000Y-65532000D03*
D15*
X148336000Y-99568000D03*
D16*
X148336000Y-79568000D03*
D11*
X163576000Y-98044000D03*
D12*
X163576000Y-105544000D03*
D13*
X145288000Y-58420000D03*
D14*
X155448000Y-58420000D03*
D13*
X154432000Y-51308000D03*
D14*
X144272000Y-51308000D03*
D18*
X99060000Y-114300000D03*
D19*
X94060000Y-114300000D03*
D18*
X114300000Y-118872000D03*
D19*
X109300000Y-118872000D03*
D18*
X130476000Y-114808000D03*
D19*
X125476000Y-114808000D03*
D13*
X92710000Y-49680000D03*
D14*
X95250000Y-49680000D03*
X97790000Y-49680000D03*
X100330000Y-49680000D03*
D12*
X128270000Y-74930000D03*
D20*
X128270000Y-100330000D03*
D12*
X82804000Y-99060000D03*
D20*
X82804000Y-78740000D03*
D12*
X90424000Y-99060000D03*
D20*
X90424000Y-78740000D03*
D21*
X145288000Y-62992000D03*
D22*
X137668000Y-62992000D03*
D21*
X91440000Y-60452000D03*
D22*
X99060000Y-60452000D03*
D21*
X156464000Y-89916000D03*
D22*
X156464000Y-82296000D03*
D12*
X119888000Y-100076000D03*
D20*
X119888000Y-74676000D03*
D12*
X99060000Y-75692000D03*
D20*
X99060000Y-101092000D03*
D23*
X67564000Y-85852000D03*
D24*
X67564000Y-87852000D03*
D25*
X108204000Y-104140000D02*
X109728000Y-102616000D01*
X109728000Y-102616000D02*
X109728000Y-98044000D01*
X94488000Y-104140000D02*
X108204000Y-104140000D01*
X94060000Y-104568000D02*
X94488000Y-104140000D01*
X94060000Y-114300000D02*
X94060000Y-104568000D01*
X105339999Y-74492001D02*
X108360000Y-71472000D01*
X108360000Y-71472000D02*
X108360000Y-58410000D01*
X99060000Y-75692000D02*
X100259999Y-74492001D01*
X100259999Y-74492001D02*
X105339999Y-74492001D01*
X109728000Y-78044000D02*
X101412000Y-78044000D01*
X101412000Y-78044000D02*
X99060000Y-75692000D01*
X115316000Y-93980000D02*
X115316000Y-99060000D01*
X119888000Y-100076000D02*
X116332000Y-100076000D01*
X116332000Y-100076000D02*
X115316000Y-99060000D01*
X103124000Y-101092000D02*
X104140000Y-100076000D01*
X104140000Y-100076000D02*
X104140000Y-93472000D01*
X99060000Y-101092000D02*
X103124000Y-101092000D01*
X111760000Y-90424000D02*
X115316000Y-93980000D01*
X107188000Y-90424000D02*
X111760000Y-90424000D01*
X104140000Y-93472000D02*
X107188000Y-90424000D01*
X75184000Y-101092000D02*
X99060000Y-101092000D01*
X74168000Y-100076000D02*
X75184000Y-101092000D01*
X74168000Y-90384000D02*
X74168000Y-100076000D01*
X128270000Y-100330000D02*
X120142000Y-100330000D01*
X120142000Y-100330000D02*
X119888000Y-100076000D01*
D26*
X138684000Y-51308000D02*
X144272000Y-51308000D01*
D25*
X143764000Y-99568000D02*
X143444000Y-99248000D01*
X143444000Y-99248000D02*
X137668000Y-99248000D01*
X152788000Y-131692000D02*
X150876000Y-133604000D01*
X150876000Y-133604000D02*
X145288000Y-133604000D01*
X152788000Y-121412000D02*
X152788000Y-131692000D01*
X125476000Y-114808000D02*
X126716000Y-114808000D01*
X126716000Y-114808000D02*
X128016000Y-116108000D01*
X128016000Y-121920000D02*
X130048000Y-123952000D01*
X128016000Y-116108000D02*
X128016000Y-121920000D01*
X130048000Y-123952000D02*
X132872000Y-123952000D01*
X125476000Y-114808000D02*
X125476000Y-115798000D01*
X125476000Y-114808000D02*
X125476000Y-108204000D01*
X125476000Y-108204000D02*
X131572000Y-102108000D01*
X131572000Y-102108000D02*
X137668000Y-102108000D01*
X111134000Y-114808000D02*
X125476000Y-114808000D01*
X109300000Y-118872000D02*
X109300000Y-116642000D01*
X109300000Y-116642000D02*
X111134000Y-114808000D01*
X109300000Y-118872000D02*
X104140000Y-118872000D01*
X103124000Y-114300000D02*
X99060000Y-114300000D01*
X104140000Y-118872000D02*
X103632000Y-118364000D01*
X103632000Y-118364000D02*
X103632000Y-114808000D01*
X103632000Y-114808000D02*
X103124000Y-114300000D01*
X137668000Y-102108000D02*
X137668000Y-99248000D01*
X143764000Y-99568000D02*
X148336000Y-99568000D01*
X119888000Y-74676000D02*
X123444000Y-78232000D01*
X123444000Y-80772000D02*
X129032000Y-86360000D01*
X123444000Y-78232000D02*
X123444000Y-80772000D01*
X129032000Y-86360000D02*
X133096000Y-86360000D01*
X133096000Y-86360000D02*
X137668000Y-90932000D01*
X137668000Y-90932000D02*
X137668000Y-99248000D01*
X67564000Y-87852000D02*
X74136000Y-87852000D01*
X74136000Y-87852000D02*
X74168000Y-87884000D01*
X74168000Y-87884000D02*
X74168000Y-83820000D01*
X93472000Y-79248000D02*
X93472000Y-74168000D01*
X74168000Y-83820000D02*
X76200000Y-81788000D01*
X76200000Y-81788000D02*
X90932000Y-81788000D01*
X90932000Y-81788000D02*
X93472000Y-79248000D01*
X93472000Y-74168000D02*
X98044000Y-69596000D01*
X98044000Y-69596000D02*
X99060000Y-69596000D01*
X99060000Y-69596000D02*
X99060000Y-65532000D01*
X99060000Y-65532000D02*
X99060000Y-60452000D01*
X111252000Y-56388000D02*
X111435000Y-56205000D01*
X111435000Y-56205000D02*
X111435001Y-51999001D01*
X111435001Y-51999001D02*
X110236000Y-50800000D01*
X110236000Y-50800000D02*
X107696000Y-50800000D01*
X107696000Y-50800000D02*
X107590999Y-50905001D01*
X110209999Y-57430001D02*
X111252000Y-56388000D01*
X111252000Y-56388000D02*
X111309990Y-56388000D01*
X110209999Y-57821999D02*
X110209999Y-57430001D01*
D26*
X109728000Y-69088000D02*
X113284000Y-69088000D01*
X113310001Y-69061999D02*
X113284000Y-69088000D01*
X114808000Y-55880000D02*
X113310001Y-57377999D01*
X113310001Y-57377999D02*
X113310001Y-69061999D01*
X116840000Y-55880000D02*
X114808000Y-55880000D01*
X116840000Y-53848000D02*
X116840000Y-55880000D01*
X137668000Y-50292000D02*
X137668000Y-45720000D01*
X137668000Y-45720000D02*
X136652000Y-44704000D01*
X136652000Y-44704000D02*
X121412000Y-44704000D01*
X121412000Y-44704000D02*
X119380000Y-46736000D01*
X119380000Y-46736000D02*
X119380000Y-51308000D01*
X116840000Y-53848000D02*
X116840000Y-53967000D01*
X119380000Y-51308000D02*
X116840000Y-53848000D01*
X119888000Y-74676000D02*
X115316000Y-74676000D01*
X115316000Y-74676000D02*
X109728000Y-69088000D01*
X109728000Y-69088000D02*
X109728000Y-60960000D01*
X109728000Y-60960000D02*
X110209999Y-60478001D01*
X110209999Y-60478001D02*
X110209999Y-59154001D01*
X110209999Y-59154001D02*
X110209999Y-57821999D01*
D25*
X145288000Y-133604000D02*
X145004000Y-133604000D01*
D26*
X137160000Y-132588000D02*
X138176000Y-133604000D01*
X138176000Y-133604000D02*
X145288000Y-133604000D01*
X137160000Y-125710000D02*
X137160000Y-132588000D01*
X134112000Y-123952000D02*
X135402000Y-123952000D01*
X135402000Y-123952000D02*
X137160000Y-125710000D01*
X105431998Y-53064002D02*
X107590999Y-50905001D01*
X99060000Y-53064002D02*
X105431998Y-53064002D01*
D25*
X138684000Y-51308000D02*
X137668000Y-50292000D01*
X99060000Y-53340000D02*
X99060000Y-60452000D01*
X99060000Y-53064002D02*
X99060000Y-53340000D01*
X98689999Y-52694001D02*
X99060000Y-53064002D01*
X97790000Y-49680000D02*
X98689999Y-50579999D01*
X98689999Y-50579999D02*
X98689999Y-52694001D01*
X134112000Y-123952000D02*
X132872000Y-123952000D01*
X67564000Y-85852000D02*
X67564000Y-80772000D01*
X67564000Y-80772000D02*
X69596000Y-78740000D01*
X69596000Y-78740000D02*
X82804000Y-78740000D01*
D26*
X143510000Y-74930000D02*
X145288000Y-73152000D01*
X145288000Y-73152000D02*
X145288000Y-65913000D01*
X143002000Y-74930000D02*
X143510000Y-74930000D01*
X145288000Y-58420000D02*
X145288000Y-62992000D01*
X145288000Y-65913000D02*
X145288000Y-62992000D01*
D25*
X135636000Y-113284000D02*
X135128000Y-113792000D01*
X135636000Y-108712000D02*
X135636000Y-113284000D01*
X137160000Y-107188000D02*
X135636000Y-108712000D01*
X142748000Y-107188000D02*
X137160000Y-107188000D01*
X135128000Y-120396000D02*
X135636000Y-120904000D01*
X135128000Y-119888000D02*
X135128000Y-120396000D01*
X135128000Y-115824000D02*
X135128000Y-119888000D01*
X134112000Y-114808000D02*
X135128000Y-115824000D01*
X134112000Y-114808000D02*
X135128000Y-113792000D01*
X131716000Y-114808000D02*
X134112000Y-114808000D01*
X130476000Y-114808000D02*
X131716000Y-114808000D01*
X145288000Y-121412000D02*
X136144000Y-121412000D01*
X136144000Y-121412000D02*
X135636000Y-120904000D01*
X137668000Y-79248000D02*
X142748000Y-79248000D01*
X142748000Y-79248000D02*
X143764000Y-80264000D01*
X143764000Y-80264000D02*
X143764000Y-85344000D01*
X152908000Y-94488000D02*
X152908000Y-101092000D01*
X143764000Y-85344000D02*
X152908000Y-94488000D01*
X147828000Y-102108000D02*
X142748000Y-107188000D01*
X152908000Y-101092000D02*
X151892000Y-102108000D01*
X151892000Y-102108000D02*
X147828000Y-102108000D01*
X136144000Y-74930000D02*
X138684000Y-74930000D01*
X138684000Y-74930000D02*
X143002000Y-74930000D01*
X137668000Y-79248000D02*
X137668000Y-78116630D01*
X137668000Y-78116630D02*
X138684000Y-77100630D01*
X138684000Y-77100630D02*
X138684000Y-74930000D01*
X136525000Y-74930000D02*
X136144000Y-74930000D01*
X126238000Y-49680000D02*
X134978000Y-58420000D01*
X134978000Y-58420000D02*
X145288000Y-58420000D01*
X145415000Y-58547000D02*
X145288000Y-58420000D01*
X136144000Y-74930000D02*
X128270000Y-74930000D01*
X111760000Y-58410000D02*
X112035010Y-58134990D01*
X112035010Y-58134990D02*
X112035010Y-49551010D01*
X112035010Y-49551010D02*
X109220000Y-46736000D01*
X109220000Y-46736000D02*
X92964000Y-46736000D01*
X92964000Y-46736000D02*
X92710000Y-46990000D01*
X92710000Y-46990000D02*
X92710000Y-49680000D01*
X111760000Y-58410000D02*
X112234999Y-57935001D01*
X111760000Y-58410000D02*
X112102037Y-58067963D01*
X92710000Y-49680000D02*
X92710000Y-59182000D01*
X92710000Y-59182000D02*
X91440000Y-60452000D01*
X111760000Y-65532000D02*
X111760000Y-58410000D01*
X137668000Y-62992000D02*
X135316000Y-60640000D01*
X135316000Y-60640000D02*
X131760000Y-60640000D01*
X132268000Y-66040000D02*
X131760000Y-65532000D01*
X131572000Y-60452000D02*
X131760000Y-60640000D01*
X129530000Y-58410000D02*
X131572000Y-60452000D01*
X123434000Y-58410000D02*
X129530000Y-58410000D01*
X131760000Y-60640000D02*
X131760000Y-65532000D01*
X123434000Y-58410000D02*
X123698000Y-58146000D01*
X123698000Y-58146000D02*
X123698000Y-49680000D01*
X115160000Y-58410000D02*
X123434000Y-58410000D01*
X156464000Y-82296000D02*
X156464000Y-80264000D01*
X156464000Y-80264000D02*
X155768000Y-79568000D01*
X155768000Y-79568000D02*
X148336000Y-79568000D01*
X155448000Y-58420000D02*
X155448000Y-71628000D01*
X155448000Y-71628000D02*
X155956000Y-72136000D01*
X155956000Y-72136000D02*
X157988000Y-72136000D01*
X157988000Y-72136000D02*
X160020000Y-74168000D01*
X160020000Y-74168000D02*
X160020000Y-89916000D01*
X113460000Y-45259590D02*
X113460000Y-45036000D01*
X113460000Y-45036000D02*
X114808000Y-43688000D01*
X154432000Y-43688000D02*
X155448000Y-44704000D01*
X114808000Y-43688000D02*
X154432000Y-43688000D01*
X155448000Y-44704000D02*
X155448000Y-45212000D01*
X155448000Y-45212000D02*
X155448000Y-51308000D01*
X160020000Y-89916000D02*
X162560000Y-89916000D01*
X162560000Y-89916000D02*
X163576000Y-90932000D01*
X163576000Y-90932000D02*
X163576000Y-98044000D01*
X160020000Y-89916000D02*
X156464000Y-89916000D01*
X155448000Y-51308000D02*
X154298000Y-51308000D01*
X154298000Y-51308000D02*
X154298000Y-52458000D01*
X154298000Y-52458000D02*
X152400000Y-54356000D01*
X152400000Y-54356000D02*
X133454000Y-54356000D01*
X133454000Y-54356000D02*
X128778000Y-49680000D01*
X113460000Y-45259590D02*
X113412410Y-45212000D01*
X113412410Y-45212000D02*
X111946400Y-43745990D01*
X95250000Y-49680000D02*
X95250000Y-65278000D01*
X95250000Y-65278000D02*
X94996000Y-65532000D01*
X94996000Y-65532000D02*
X95504000Y-66040000D01*
X95504000Y-66040000D02*
X95504000Y-70612000D01*
X95504000Y-70612000D02*
X91623999Y-74492001D01*
X91623999Y-74492001D02*
X91623999Y-77540001D01*
X91623999Y-77540001D02*
X90424000Y-78740000D01*
X90414999Y-60950999D02*
X94996000Y-65532000D01*
X90414999Y-46108591D02*
X90414999Y-60950999D01*
X113460000Y-54610000D02*
X113460000Y-45259590D01*
X111946400Y-43745990D02*
X92777599Y-43745991D01*
X92777599Y-43745991D02*
X90414999Y-46108591D01*
X155448000Y-51308000D02*
X155448000Y-52458000D01*
X155448000Y-52458000D02*
X155448000Y-58420000D01*
X114300000Y-118872000D02*
X117348000Y-118872000D01*
X163576000Y-130048000D02*
X163576000Y-105544000D01*
X117348000Y-118872000D02*
X133096000Y-134620000D01*
X133096000Y-134620000D02*
X159004000Y-134620000D01*
X159004000Y-134620000D02*
X163576000Y-130048000D01*
X82804000Y-99060000D02*
X88726944Y-99060000D01*
X99568000Y-70612000D02*
X102108000Y-70612000D01*
X102108000Y-70612000D02*
X102616000Y-70104000D01*
X95504000Y-74676000D02*
X99568000Y-70612000D01*
X95504000Y-82296000D02*
X95504000Y-74676000D01*
X93472000Y-84328000D02*
X95504000Y-82296000D01*
X90424000Y-84328000D02*
X93472000Y-84328000D01*
X90424000Y-99060000D02*
X90424000Y-84328000D01*
X102616000Y-70104000D02*
X102616000Y-56896000D01*
X102616000Y-56896000D02*
X104902000Y-54610000D01*
X104902000Y-54610000D02*
X110060000Y-54610000D01*
X90424000Y-99060000D02*
X88726944Y-99060000D01*
D27*
G36*
X165023083Y-28946227D02*
X170556478Y-32643522D01*
X174253772Y-38176918D01*
X175566000Y-44773931D01*
X175566000Y-120834069D01*
X174331110Y-127042278D01*
X170854057Y-132246057D01*
X165650277Y-135723111D01*
X159442069Y-136958000D01*
X76777931Y-136958000D01*
X70569722Y-135723110D01*
X65365943Y-132246057D01*
X61888889Y-127042277D01*
X60654000Y-120834069D01*
X60654000Y-118999000D01*
X107675000Y-118999000D01*
X107675000Y-119989000D01*
X107847297Y-120601193D01*
X108240754Y-121100851D01*
X108795472Y-121411905D01*
X108921135Y-121442218D01*
X109173000Y-121322740D01*
X109173000Y-118999000D01*
X109427000Y-118999000D01*
X109427000Y-121322740D01*
X109678865Y-121442218D01*
X109804528Y-121411905D01*
X110359246Y-121100851D01*
X110752703Y-120601193D01*
X110925000Y-119989000D01*
X110925000Y-118999000D01*
X109427000Y-118999000D01*
X109173000Y-118999000D01*
X107675000Y-118999000D01*
X60654000Y-118999000D01*
X60654000Y-117755000D01*
X107675000Y-117755000D01*
X107675000Y-118745000D01*
X109173000Y-118745000D01*
X109173000Y-116421260D01*
X109427000Y-116421260D01*
X109427000Y-118745000D01*
X110925000Y-118745000D01*
X110925000Y-117755000D01*
X110752703Y-117142807D01*
X110555205Y-116892000D01*
X112662560Y-116892000D01*
X112662560Y-120852000D01*
X112706838Y-121087317D01*
X112845910Y-121303441D01*
X113058110Y-121448431D01*
X113310000Y-121499440D01*
X115290000Y-121499440D01*
X115525317Y-121455162D01*
X115741441Y-121316090D01*
X115886431Y-121103890D01*
X115937440Y-120852000D01*
X115937440Y-119632000D01*
X117033198Y-119632000D01*
X132558599Y-135157401D01*
X132805160Y-135322148D01*
X133096000Y-135380000D01*
X159004000Y-135380000D01*
X159294839Y-135322148D01*
X159541401Y-135157401D01*
X164113401Y-130585401D01*
X164278148Y-130338840D01*
X164287746Y-130290586D01*
X164336000Y-130048000D01*
X164336000Y-107215448D01*
X164614086Y-107100545D01*
X165130730Y-106584801D01*
X165410681Y-105910605D01*
X165411318Y-105180597D01*
X165132545Y-104505914D01*
X164616801Y-103989270D01*
X163942605Y-103709319D01*
X163212597Y-103708682D01*
X162537914Y-103987455D01*
X162021270Y-104503199D01*
X161741319Y-105177395D01*
X161740682Y-105907403D01*
X162019455Y-106582086D01*
X162535199Y-107098730D01*
X162816000Y-107215329D01*
X162816000Y-129733198D01*
X158689198Y-133860000D01*
X133410802Y-133860000D01*
X117885401Y-118334599D01*
X117638839Y-118169852D01*
X117348000Y-118112000D01*
X115937440Y-118112000D01*
X115937440Y-116892000D01*
X115893162Y-116656683D01*
X115754090Y-116440559D01*
X115541890Y-116295569D01*
X115290000Y-116244560D01*
X113310000Y-116244560D01*
X113074683Y-116288838D01*
X112858559Y-116427910D01*
X112713569Y-116640110D01*
X112662560Y-116892000D01*
X110555205Y-116892000D01*
X110359246Y-116643149D01*
X109804528Y-116332095D01*
X109678865Y-116301782D01*
X109427000Y-116421260D01*
X109173000Y-116421260D01*
X108921135Y-116301782D01*
X108795472Y-116332095D01*
X108240754Y-116643149D01*
X107847297Y-117142807D01*
X107675000Y-117755000D01*
X60654000Y-117755000D01*
X60654000Y-113258769D01*
X92435000Y-113258769D01*
X92435000Y-115341231D01*
X92558696Y-115963092D01*
X92910951Y-116490280D01*
X93438139Y-116842535D01*
X94060000Y-116966231D01*
X94681861Y-116842535D01*
X95209049Y-116490280D01*
X95561304Y-115963092D01*
X95685000Y-115341231D01*
X95685000Y-114585750D01*
X97435000Y-114585750D01*
X97435000Y-116406310D01*
X97531673Y-116639699D01*
X97710302Y-116818327D01*
X97943691Y-116915000D01*
X98774250Y-116915000D01*
X98933000Y-116756250D01*
X98933000Y-114427000D01*
X99187000Y-114427000D01*
X99187000Y-116756250D01*
X99345750Y-116915000D01*
X100176309Y-116915000D01*
X100409698Y-116818327D01*
X100588327Y-116639699D01*
X100685000Y-116406310D01*
X100685000Y-114935000D01*
X123851000Y-114935000D01*
X123851000Y-115925000D01*
X124023297Y-116537193D01*
X124416754Y-117036851D01*
X124971472Y-117347905D01*
X125097135Y-117378218D01*
X125349000Y-117258740D01*
X125349000Y-114935000D01*
X125603000Y-114935000D01*
X125603000Y-117258740D01*
X125854865Y-117378218D01*
X125980528Y-117347905D01*
X126535246Y-117036851D01*
X126928703Y-116537193D01*
X127101000Y-115925000D01*
X127101000Y-114935000D01*
X125603000Y-114935000D01*
X125349000Y-114935000D01*
X123851000Y-114935000D01*
X100685000Y-114935000D01*
X100685000Y-114585750D01*
X100526250Y-114427000D01*
X99187000Y-114427000D01*
X98933000Y-114427000D01*
X97593750Y-114427000D01*
X97435000Y-114585750D01*
X95685000Y-114585750D01*
X95685000Y-113258769D01*
X95561304Y-112636908D01*
X95265156Y-112193690D01*
X97435000Y-112193690D01*
X97435000Y-114014250D01*
X97593750Y-114173000D01*
X98933000Y-114173000D01*
X98933000Y-111843750D01*
X99187000Y-111843750D01*
X99187000Y-114173000D01*
X100526250Y-114173000D01*
X100685000Y-114014250D01*
X100685000Y-113691000D01*
X123851000Y-113691000D01*
X123851000Y-114681000D01*
X125349000Y-114681000D01*
X125349000Y-112357260D01*
X125603000Y-112357260D01*
X125603000Y-114681000D01*
X127101000Y-114681000D01*
X127101000Y-113691000D01*
X126928703Y-113078807D01*
X126535246Y-112579149D01*
X125980528Y-112268095D01*
X125854865Y-112237782D01*
X125603000Y-112357260D01*
X125349000Y-112357260D01*
X125097135Y-112237782D01*
X124971472Y-112268095D01*
X124416754Y-112579149D01*
X124023297Y-113078807D01*
X123851000Y-113691000D01*
X100685000Y-113691000D01*
X100685000Y-112193690D01*
X100588327Y-111960301D01*
X100409698Y-111781673D01*
X100176309Y-111685000D01*
X99345750Y-111685000D01*
X99187000Y-111843750D01*
X98933000Y-111843750D01*
X98774250Y-111685000D01*
X97943691Y-111685000D01*
X97710302Y-111781673D01*
X97531673Y-111960301D01*
X97435000Y-112193690D01*
X95265156Y-112193690D01*
X95209049Y-112109720D01*
X94820000Y-111849766D01*
X94820000Y-104900000D01*
X108204000Y-104900000D01*
X108494839Y-104842148D01*
X108741401Y-104677401D01*
X110265401Y-103153401D01*
X110430148Y-102906840D01*
X110449381Y-102810148D01*
X110488000Y-102616000D01*
X110488000Y-99282646D01*
X110539800Y-99261243D01*
X110943824Y-98857923D01*
X111162750Y-98330691D01*
X111163248Y-97759813D01*
X110945243Y-97232200D01*
X110541923Y-96828176D01*
X110014691Y-96609250D01*
X109443813Y-96608752D01*
X108916200Y-96826757D01*
X108512176Y-97230077D01*
X108293250Y-97757309D01*
X108292752Y-98328187D01*
X108510757Y-98855800D01*
X108914077Y-99259824D01*
X108968000Y-99282215D01*
X108968000Y-102301198D01*
X107889198Y-103380000D01*
X94488000Y-103380000D01*
X94245414Y-103428254D01*
X94197160Y-103437852D01*
X93950599Y-103602599D01*
X93522599Y-104030599D01*
X93357852Y-104277161D01*
X93300000Y-104568000D01*
X93300000Y-111849766D01*
X92910951Y-112109720D01*
X92558696Y-112636908D01*
X92435000Y-113258769D01*
X60654000Y-113258769D01*
X60654000Y-89584000D01*
X72720560Y-89584000D01*
X72720560Y-91184000D01*
X72764838Y-91419317D01*
X72903910Y-91635441D01*
X73116110Y-91780431D01*
X73368000Y-91831440D01*
X73408000Y-91831440D01*
X73408000Y-100076000D01*
X73465852Y-100366839D01*
X73630599Y-100613401D01*
X74646599Y-101629401D01*
X74893161Y-101794148D01*
X75184000Y-101852000D01*
X97379265Y-101852000D01*
X97762459Y-102425491D01*
X98357776Y-102823269D01*
X99060000Y-102962950D01*
X99762224Y-102823269D01*
X100357541Y-102425491D01*
X100740735Y-101852000D01*
X103124000Y-101852000D01*
X103414839Y-101794148D01*
X103661401Y-101629401D01*
X104677401Y-100613401D01*
X104842148Y-100366839D01*
X104900000Y-100076000D01*
X104900000Y-93786802D01*
X107502802Y-91184000D01*
X111445198Y-91184000D01*
X114556000Y-94294802D01*
X114556000Y-99060000D01*
X114613852Y-99350839D01*
X114778599Y-99597401D01*
X115794599Y-100613401D01*
X116041161Y-100778148D01*
X116332000Y-100836000D01*
X118216552Y-100836000D01*
X118331455Y-101114086D01*
X118847199Y-101630730D01*
X119521395Y-101910681D01*
X120251403Y-101911318D01*
X120926086Y-101632545D01*
X121442730Y-101116801D01*
X121453859Y-101090000D01*
X126589265Y-101090000D01*
X126972459Y-101663491D01*
X127567776Y-102061269D01*
X128270000Y-102200950D01*
X128972224Y-102061269D01*
X129567541Y-101663491D01*
X129965319Y-101068174D01*
X130105000Y-100365950D01*
X130105000Y-100294050D01*
X130097381Y-100255745D01*
X136839861Y-100255745D01*
X136913995Y-100501864D01*
X137451223Y-100694965D01*
X138021454Y-100667778D01*
X138243640Y-100575745D01*
X147507861Y-100575745D01*
X147581995Y-100821864D01*
X148119223Y-101014965D01*
X148689454Y-100987778D01*
X149090005Y-100821864D01*
X149164139Y-100575745D01*
X148336000Y-99747605D01*
X147507861Y-100575745D01*
X138243640Y-100575745D01*
X138422005Y-100501864D01*
X138496139Y-100255745D01*
X137668000Y-99427605D01*
X136839861Y-100255745D01*
X130097381Y-100255745D01*
X129965319Y-99591826D01*
X129590737Y-99031223D01*
X136221035Y-99031223D01*
X136248222Y-99601454D01*
X136414136Y-100002005D01*
X136660255Y-100076139D01*
X137488395Y-99248000D01*
X137847605Y-99248000D01*
X138675745Y-100076139D01*
X138921864Y-100002005D01*
X139114965Y-99464777D01*
X139109552Y-99351223D01*
X146889035Y-99351223D01*
X146916222Y-99921454D01*
X147082136Y-100322005D01*
X147328255Y-100396139D01*
X148156395Y-99568000D01*
X148515605Y-99568000D01*
X149343745Y-100396139D01*
X149589864Y-100322005D01*
X149782965Y-99784777D01*
X149755778Y-99214546D01*
X149589864Y-98813995D01*
X149343745Y-98739861D01*
X148515605Y-99568000D01*
X148156395Y-99568000D01*
X147328255Y-98739861D01*
X147082136Y-98813995D01*
X146889035Y-99351223D01*
X139109552Y-99351223D01*
X139087778Y-98894546D01*
X138949310Y-98560255D01*
X147507861Y-98560255D01*
X148336000Y-99388395D01*
X149164139Y-98560255D01*
X149090005Y-98314136D01*
X148552777Y-98121035D01*
X147982546Y-98148222D01*
X147581995Y-98314136D01*
X147507861Y-98560255D01*
X138949310Y-98560255D01*
X138921864Y-98493995D01*
X138675745Y-98419861D01*
X137847605Y-99248000D01*
X137488395Y-99248000D01*
X136660255Y-98419861D01*
X136414136Y-98493995D01*
X136221035Y-99031223D01*
X129590737Y-99031223D01*
X129567541Y-98996509D01*
X128972224Y-98598731D01*
X128270000Y-98459050D01*
X127567776Y-98598731D01*
X126972459Y-98996509D01*
X126589265Y-99570000D01*
X121664398Y-99570000D01*
X121444545Y-99037914D01*
X120928801Y-98521270D01*
X120254605Y-98241319D01*
X119524597Y-98240682D01*
X118849914Y-98519455D01*
X118333270Y-99035199D01*
X118216671Y-99316000D01*
X116646802Y-99316000D01*
X116076000Y-98745198D01*
X116076000Y-98240255D01*
X136839861Y-98240255D01*
X137668000Y-99068395D01*
X138496139Y-98240255D01*
X138422005Y-97994136D01*
X137884777Y-97801035D01*
X137314546Y-97828222D01*
X136913995Y-97994136D01*
X136839861Y-98240255D01*
X116076000Y-98240255D01*
X116076000Y-93980000D01*
X116018148Y-93689161D01*
X116018148Y-93689160D01*
X115853401Y-93442599D01*
X112297401Y-89886599D01*
X112050839Y-89721852D01*
X111760000Y-89664000D01*
X107188000Y-89664000D01*
X106897161Y-89721852D01*
X106650599Y-89886599D01*
X103602599Y-92934599D01*
X103437852Y-93181161D01*
X103380000Y-93472000D01*
X103380000Y-99761198D01*
X102809198Y-100332000D01*
X100740735Y-100332000D01*
X100357541Y-99758509D01*
X99762224Y-99360731D01*
X99060000Y-99221050D01*
X98357776Y-99360731D01*
X97762459Y-99758509D01*
X97379265Y-100332000D01*
X91747128Y-100332000D01*
X91978730Y-100100801D01*
X92258681Y-99426605D01*
X92259318Y-98696597D01*
X91980545Y-98021914D01*
X91464801Y-97505270D01*
X91184000Y-97388671D01*
X91184000Y-85088000D01*
X93472000Y-85088000D01*
X93762839Y-85030148D01*
X94009401Y-84865401D01*
X96041401Y-82833401D01*
X96206148Y-82586839D01*
X96264000Y-82296000D01*
X96264000Y-76055403D01*
X97224682Y-76055403D01*
X97503455Y-76730086D01*
X98019199Y-77246730D01*
X98693395Y-77526681D01*
X99423403Y-77527318D01*
X99704407Y-77411209D01*
X100874599Y-78581401D01*
X101121160Y-78746148D01*
X101412000Y-78804000D01*
X108524333Y-78804000D01*
X108713302Y-79086811D01*
X109178849Y-79397880D01*
X109728000Y-79507113D01*
X110277151Y-79397880D01*
X110742698Y-79086811D01*
X111053767Y-78621264D01*
X111163000Y-78072113D01*
X111163000Y-78015887D01*
X111053767Y-77466736D01*
X110742698Y-77001189D01*
X110277151Y-76690120D01*
X109728000Y-76580887D01*
X109178849Y-76690120D01*
X108713302Y-77001189D01*
X108524333Y-77284000D01*
X101726802Y-77284000D01*
X100779293Y-76336491D01*
X100894681Y-76058605D01*
X100895318Y-75328597D01*
X100863669Y-75252001D01*
X105339999Y-75252001D01*
X105630838Y-75194149D01*
X105789990Y-75087807D01*
X118099797Y-75087807D01*
X118393508Y-75740776D01*
X118914742Y-76231642D01*
X119476195Y-76464195D01*
X119761000Y-76347432D01*
X119761000Y-74803000D01*
X120015000Y-74803000D01*
X120015000Y-76347432D01*
X120299805Y-76464195D01*
X120861258Y-76231642D01*
X121382492Y-75740776D01*
X121676203Y-75087807D01*
X121559858Y-74803000D01*
X120015000Y-74803000D01*
X119761000Y-74803000D01*
X118216142Y-74803000D01*
X118099797Y-75087807D01*
X105789990Y-75087807D01*
X105877400Y-75029402D01*
X106642609Y-74264193D01*
X118099797Y-74264193D01*
X118216142Y-74549000D01*
X119761000Y-74549000D01*
X119761000Y-73004568D01*
X120015000Y-73004568D01*
X120015000Y-74549000D01*
X121559858Y-74549000D01*
X121676203Y-74264193D01*
X121382492Y-73611224D01*
X120861258Y-73120358D01*
X120299805Y-72887805D01*
X120015000Y-73004568D01*
X119761000Y-73004568D01*
X119476195Y-72887805D01*
X118914742Y-73120358D01*
X118393508Y-73611224D01*
X118099797Y-74264193D01*
X106642609Y-74264193D01*
X108897401Y-72009401D01*
X109062148Y-71762840D01*
X109120000Y-71472000D01*
X109120000Y-59957440D01*
X109260000Y-59957440D01*
X109495317Y-59913162D01*
X109711441Y-59774090D01*
X109856431Y-59561890D01*
X109907440Y-59310000D01*
X109907440Y-57510000D01*
X109863162Y-57274683D01*
X109724090Y-57058559D01*
X109511890Y-56913569D01*
X109260000Y-56862560D01*
X107460000Y-56862560D01*
X107224683Y-56906838D01*
X107008559Y-57045910D01*
X106863569Y-57258110D01*
X106812560Y-57510000D01*
X106812560Y-59310000D01*
X106856838Y-59545317D01*
X106995910Y-59761441D01*
X107208110Y-59906431D01*
X107460000Y-59957440D01*
X107600000Y-59957440D01*
X107600000Y-71157198D01*
X105025197Y-73732001D01*
X100259999Y-73732001D01*
X99969160Y-73789853D01*
X99722598Y-73954600D01*
X99704491Y-73972707D01*
X99426605Y-73857319D01*
X98696597Y-73856682D01*
X98021914Y-74135455D01*
X97505270Y-74651199D01*
X97225319Y-75325395D01*
X97224682Y-76055403D01*
X96264000Y-76055403D01*
X96264000Y-74990802D01*
X99882802Y-71372000D01*
X102108000Y-71372000D01*
X102398839Y-71314148D01*
X102645401Y-71149401D01*
X103153401Y-70641401D01*
X103318147Y-70394840D01*
X103318148Y-70394839D01*
X103376000Y-70104000D01*
X103376000Y-57210802D01*
X105216802Y-55370000D01*
X108727088Y-55370000D01*
X108944519Y-55695409D01*
X109442509Y-56028155D01*
X110029928Y-56145000D01*
X110090072Y-56145000D01*
X110677491Y-56028155D01*
X111175481Y-55695409D01*
X111275010Y-55546453D01*
X111275010Y-56965489D01*
X111142509Y-56991845D01*
X110644519Y-57324591D01*
X110311773Y-57822581D01*
X110194928Y-58410000D01*
X110311773Y-58997419D01*
X110644519Y-59495409D01*
X111000000Y-59732934D01*
X111000000Y-64293354D01*
X110948200Y-64314757D01*
X110544176Y-64718077D01*
X110325250Y-65245309D01*
X110324752Y-65816187D01*
X110542757Y-66343800D01*
X110946077Y-66747824D01*
X111473309Y-66966750D01*
X112044187Y-66967248D01*
X112571800Y-66749243D01*
X112975824Y-66345923D01*
X113194750Y-65818691D01*
X113195248Y-65247813D01*
X112977243Y-64720200D01*
X112573923Y-64316176D01*
X112520000Y-64293785D01*
X112520000Y-59732934D01*
X112875481Y-59495409D01*
X113208227Y-58997419D01*
X113325072Y-58410000D01*
X113208227Y-57822581D01*
X112875481Y-57324591D01*
X112795010Y-57270822D01*
X112795010Y-55996417D01*
X112842509Y-56028155D01*
X113429928Y-56145000D01*
X113490072Y-56145000D01*
X114077491Y-56028155D01*
X114575481Y-55695409D01*
X114908227Y-55197419D01*
X115025072Y-54610000D01*
X114908227Y-54022581D01*
X114575481Y-53524591D01*
X114220000Y-53287066D01*
X114220000Y-45350802D01*
X115122802Y-44448000D01*
X154117198Y-44448000D01*
X154688000Y-45018802D01*
X154688000Y-49760560D01*
X153532000Y-49760560D01*
X153296683Y-49804838D01*
X153080559Y-49943910D01*
X152935569Y-50156110D01*
X152884560Y-50408000D01*
X152884560Y-52208000D01*
X152928838Y-52443317D01*
X153049839Y-52631359D01*
X152085198Y-53596000D01*
X133768802Y-53596000D01*
X131845542Y-51672740D01*
X142780964Y-51672740D01*
X142959760Y-52104417D01*
X143364424Y-52545966D01*
X143907258Y-52799046D01*
X144145000Y-52678997D01*
X144145000Y-51435000D01*
X144399000Y-51435000D01*
X144399000Y-52678997D01*
X144636742Y-52799046D01*
X145179576Y-52545966D01*
X145584240Y-52104417D01*
X145763036Y-51672740D01*
X145642378Y-51435000D01*
X144399000Y-51435000D01*
X144145000Y-51435000D01*
X142901622Y-51435000D01*
X142780964Y-51672740D01*
X131845542Y-51672740D01*
X131381210Y-51208408D01*
X131935491Y-51098155D01*
X132167307Y-50943260D01*
X142780964Y-50943260D01*
X142901622Y-51181000D01*
X144145000Y-51181000D01*
X144145000Y-49937003D01*
X144399000Y-49937003D01*
X144399000Y-51181000D01*
X145642378Y-51181000D01*
X145763036Y-50943260D01*
X145584240Y-50511583D01*
X145179576Y-50070034D01*
X144636742Y-49816954D01*
X144399000Y-49937003D01*
X144145000Y-49937003D01*
X143907258Y-49816954D01*
X143364424Y-50070034D01*
X142959760Y-50511583D01*
X142780964Y-50943260D01*
X132167307Y-50943260D01*
X132433481Y-50765409D01*
X132766227Y-50267419D01*
X132883072Y-49680000D01*
X132766227Y-49092581D01*
X132433481Y-48594591D01*
X131935491Y-48261845D01*
X131348072Y-48145000D01*
X131287928Y-48145000D01*
X130700509Y-48261845D01*
X130202519Y-48594591D01*
X130048000Y-48825845D01*
X129893481Y-48594591D01*
X129395491Y-48261845D01*
X128808072Y-48145000D01*
X128747928Y-48145000D01*
X128160509Y-48261845D01*
X127662519Y-48594591D01*
X127508000Y-48825845D01*
X127353481Y-48594591D01*
X126855491Y-48261845D01*
X126268072Y-48145000D01*
X126207928Y-48145000D01*
X125620509Y-48261845D01*
X125199974Y-48542837D01*
X125062090Y-48328559D01*
X124849890Y-48183569D01*
X124598000Y-48132560D01*
X122798000Y-48132560D01*
X122562683Y-48176838D01*
X122346559Y-48315910D01*
X122201569Y-48528110D01*
X122150560Y-48780000D01*
X122150560Y-50580000D01*
X122194838Y-50815317D01*
X122333910Y-51031441D01*
X122546110Y-51176431D01*
X122798000Y-51227440D01*
X122938000Y-51227440D01*
X122938000Y-57650000D01*
X116492912Y-57650000D01*
X116275481Y-57324591D01*
X115777491Y-56991845D01*
X115190072Y-56875000D01*
X115129928Y-56875000D01*
X114542509Y-56991845D01*
X114044519Y-57324591D01*
X113711773Y-57822581D01*
X113594928Y-58410000D01*
X113711773Y-58997419D01*
X114044519Y-59495409D01*
X114542509Y-59828155D01*
X115129928Y-59945000D01*
X115190072Y-59945000D01*
X115777491Y-59828155D01*
X116275481Y-59495409D01*
X116492912Y-59170000D01*
X129215198Y-59170000D01*
X131000000Y-60954802D01*
X131000000Y-64328333D01*
X130717189Y-64517302D01*
X130406120Y-64982849D01*
X130296887Y-65532000D01*
X130406120Y-66081151D01*
X130717189Y-66546698D01*
X131182736Y-66857767D01*
X131731887Y-66967000D01*
X131788113Y-66967000D01*
X132337264Y-66857767D01*
X132489727Y-66755894D01*
X132558839Y-66742147D01*
X132805401Y-66577401D01*
X132970147Y-66330839D01*
X132979940Y-66281606D01*
X133113880Y-66081151D01*
X133223113Y-65532000D01*
X133113880Y-64982849D01*
X132802811Y-64517302D01*
X132520000Y-64328333D01*
X132520000Y-61400000D01*
X135001198Y-61400000D01*
X136354355Y-62753157D01*
X136306846Y-62992000D01*
X136408467Y-63502882D01*
X136697858Y-63935988D01*
X137130964Y-64225379D01*
X137641846Y-64327000D01*
X137694154Y-64327000D01*
X138205036Y-64225379D01*
X138638142Y-63935988D01*
X138927533Y-63502882D01*
X139029154Y-62992000D01*
X138927533Y-62481118D01*
X138638142Y-62048012D01*
X138205036Y-61758621D01*
X137694154Y-61657000D01*
X137641846Y-61657000D01*
X137446632Y-61695830D01*
X135853401Y-60102599D01*
X135606839Y-59937852D01*
X135316000Y-59880000D01*
X132074802Y-59880000D01*
X130067401Y-57872599D01*
X129820839Y-57707852D01*
X129530000Y-57650000D01*
X124458000Y-57650000D01*
X124458000Y-51227440D01*
X124598000Y-51227440D01*
X124833317Y-51183162D01*
X125049441Y-51044090D01*
X125194431Y-50831890D01*
X125197719Y-50815656D01*
X125620509Y-51098155D01*
X126207928Y-51215000D01*
X126268072Y-51215000D01*
X126626835Y-51143637D01*
X134440599Y-58957401D01*
X134687161Y-59122148D01*
X134978000Y-59180000D01*
X143740560Y-59180000D01*
X143740560Y-59320000D01*
X143784838Y-59555317D01*
X143923910Y-59771441D01*
X144136110Y-59916431D01*
X144388000Y-59967440D01*
X144503000Y-59967440D01*
X144503000Y-61889301D01*
X144156902Y-62234796D01*
X143953232Y-62725287D01*
X143952769Y-63256383D01*
X144155582Y-63747229D01*
X144503000Y-64095253D01*
X144503000Y-72826842D01*
X143184842Y-74145000D01*
X143002000Y-74145000D01*
X142876318Y-74170000D01*
X129941448Y-74170000D01*
X129826545Y-73891914D01*
X129310801Y-73375270D01*
X128636605Y-73095319D01*
X127906597Y-73094682D01*
X127231914Y-73373455D01*
X126715270Y-73889199D01*
X126435319Y-74563395D01*
X126434682Y-75293403D01*
X126713455Y-75968086D01*
X127229199Y-76484730D01*
X127903395Y-76764681D01*
X128633403Y-76765318D01*
X129308086Y-76486545D01*
X129824730Y-75970801D01*
X129941329Y-75690000D01*
X137924000Y-75690000D01*
X137924000Y-76785828D01*
X137130599Y-77579229D01*
X136965852Y-77825791D01*
X136926725Y-78022493D01*
X136653302Y-78205189D01*
X136342233Y-78670736D01*
X136233000Y-79219887D01*
X136233000Y-79276113D01*
X136342233Y-79825264D01*
X136653302Y-80290811D01*
X137118849Y-80601880D01*
X137668000Y-80711113D01*
X138217151Y-80601880D01*
X138682698Y-80290811D01*
X138871667Y-80008000D01*
X142433198Y-80008000D01*
X143004000Y-80578802D01*
X143004000Y-85344000D01*
X143061852Y-85634839D01*
X143226599Y-85881401D01*
X152148000Y-94802802D01*
X152148000Y-100777198D01*
X151577198Y-101348000D01*
X147828000Y-101348000D01*
X147537161Y-101405852D01*
X147290599Y-101570599D01*
X142433198Y-106428000D01*
X137160000Y-106428000D01*
X136917414Y-106476254D01*
X136869160Y-106485852D01*
X136622599Y-106650599D01*
X135098599Y-108174599D01*
X134933852Y-108421161D01*
X134876000Y-108712000D01*
X134876000Y-112969198D01*
X133797198Y-114048000D01*
X132113440Y-114048000D01*
X132113440Y-112828000D01*
X132069162Y-112592683D01*
X131930090Y-112376559D01*
X131717890Y-112231569D01*
X131466000Y-112180560D01*
X129486000Y-112180560D01*
X129250683Y-112224838D01*
X129034559Y-112363910D01*
X128889569Y-112576110D01*
X128838560Y-112828000D01*
X128838560Y-116788000D01*
X128882838Y-117023317D01*
X129021910Y-117239441D01*
X129234110Y-117384431D01*
X129486000Y-117435440D01*
X131466000Y-117435440D01*
X131701317Y-117391162D01*
X131917441Y-117252090D01*
X132062431Y-117039890D01*
X132113440Y-116788000D01*
X132113440Y-115568000D01*
X133797198Y-115568000D01*
X134368000Y-116138802D01*
X134368000Y-120396000D01*
X134425852Y-120686839D01*
X134590599Y-120933401D01*
X135606599Y-121949401D01*
X135853161Y-122114148D01*
X136144000Y-122172000D01*
X143440560Y-122172000D01*
X143440560Y-122612000D01*
X143484838Y-122847317D01*
X143623910Y-123063441D01*
X143836110Y-123208431D01*
X144088000Y-123259440D01*
X146488000Y-123259440D01*
X146723317Y-123215162D01*
X146939441Y-123076090D01*
X147084431Y-122863890D01*
X147115761Y-122709175D01*
X151670430Y-122709175D01*
X151793565Y-122996788D01*
X152475734Y-123256707D01*
X153205443Y-123235786D01*
X153782435Y-122996788D01*
X153905570Y-122709175D01*
X152788000Y-121591605D01*
X151670430Y-122709175D01*
X147115761Y-122709175D01*
X147135440Y-122612000D01*
X147135440Y-121099734D01*
X150943293Y-121099734D01*
X150964214Y-121829443D01*
X151203212Y-122406435D01*
X151490825Y-122529570D01*
X152608395Y-121412000D01*
X152967605Y-121412000D01*
X154085175Y-122529570D01*
X154372788Y-122406435D01*
X154632707Y-121724266D01*
X154611786Y-120994557D01*
X154372788Y-120417565D01*
X154085175Y-120294430D01*
X152967605Y-121412000D01*
X152608395Y-121412000D01*
X151490825Y-120294430D01*
X151203212Y-120417565D01*
X150943293Y-121099734D01*
X147135440Y-121099734D01*
X147135440Y-120212000D01*
X147117156Y-120114825D01*
X151670430Y-120114825D01*
X152788000Y-121232395D01*
X153905570Y-120114825D01*
X153782435Y-119827212D01*
X153100266Y-119567293D01*
X152370557Y-119588214D01*
X151793565Y-119827212D01*
X151670430Y-120114825D01*
X147117156Y-120114825D01*
X147091162Y-119976683D01*
X146952090Y-119760559D01*
X146739890Y-119615569D01*
X146488000Y-119564560D01*
X144088000Y-119564560D01*
X143852683Y-119608838D01*
X143636559Y-119747910D01*
X143491569Y-119960110D01*
X143440560Y-120212000D01*
X143440560Y-120652000D01*
X136458802Y-120652000D01*
X135888000Y-120081198D01*
X135888000Y-115824000D01*
X135830148Y-115533161D01*
X135665401Y-115286599D01*
X135186802Y-114808000D01*
X136173401Y-113821401D01*
X136338147Y-113574840D01*
X136338148Y-113574839D01*
X136396000Y-113284000D01*
X136396000Y-109026802D01*
X137474802Y-107948000D01*
X142748000Y-107948000D01*
X143038839Y-107890148D01*
X143285401Y-107725401D01*
X148142802Y-102868000D01*
X151892000Y-102868000D01*
X152182839Y-102810148D01*
X152429401Y-102645401D01*
X153445401Y-101629401D01*
X153610148Y-101382839D01*
X153668000Y-101092000D01*
X153668000Y-94488000D01*
X153610148Y-94197161D01*
X153445401Y-93950599D01*
X144524000Y-85029198D01*
X144524000Y-80264000D01*
X144466148Y-79973161D01*
X144301401Y-79726599D01*
X144114689Y-79539887D01*
X146901000Y-79539887D01*
X146901000Y-79596113D01*
X147010233Y-80145264D01*
X147321302Y-80610811D01*
X147786849Y-80921880D01*
X148336000Y-81031113D01*
X148885151Y-80921880D01*
X149350698Y-80610811D01*
X149539667Y-80328000D01*
X155453198Y-80328000D01*
X155704000Y-80578802D01*
X155704000Y-81202922D01*
X155520012Y-81325858D01*
X155230621Y-81758964D01*
X155129000Y-82269846D01*
X155129000Y-82322154D01*
X155230621Y-82833036D01*
X155520012Y-83266142D01*
X155953118Y-83555533D01*
X156464000Y-83657154D01*
X156974882Y-83555533D01*
X157407988Y-83266142D01*
X157697379Y-82833036D01*
X157799000Y-82322154D01*
X157799000Y-82269846D01*
X157697379Y-81758964D01*
X157407988Y-81325858D01*
X157224000Y-81202922D01*
X157224000Y-80264000D01*
X157166148Y-79973161D01*
X157001401Y-79726599D01*
X156305401Y-79030599D01*
X156058839Y-78865852D01*
X155768000Y-78808000D01*
X149539667Y-78808000D01*
X149350698Y-78525189D01*
X148885151Y-78214120D01*
X148336000Y-78104887D01*
X147786849Y-78214120D01*
X147321302Y-78525189D01*
X147010233Y-78990736D01*
X146901000Y-79539887D01*
X144114689Y-79539887D01*
X143285401Y-78710599D01*
X143038839Y-78545852D01*
X142748000Y-78488000D01*
X138871667Y-78488000D01*
X138682698Y-78205189D01*
X138665640Y-78193792D01*
X139221401Y-77638031D01*
X139386148Y-77391469D01*
X139444000Y-77100630D01*
X139444000Y-75690000D01*
X142876318Y-75690000D01*
X143002000Y-75715000D01*
X143510000Y-75715000D01*
X143810407Y-75655245D01*
X144065079Y-75485079D01*
X145843079Y-73707079D01*
X146013245Y-73452406D01*
X146073000Y-73152000D01*
X146073000Y-64094699D01*
X146419098Y-63749204D01*
X146622768Y-63258713D01*
X146623231Y-62727617D01*
X146420418Y-62236771D01*
X146073000Y-61888747D01*
X146073000Y-59967440D01*
X146188000Y-59967440D01*
X146423317Y-59923162D01*
X146639441Y-59784090D01*
X146784431Y-59571890D01*
X146835440Y-59320000D01*
X146835440Y-57520000D01*
X146791162Y-57284683D01*
X146652090Y-57068559D01*
X146439890Y-56923569D01*
X146188000Y-56872560D01*
X144388000Y-56872560D01*
X144152683Y-56916838D01*
X143936559Y-57055910D01*
X143791569Y-57268110D01*
X143740560Y-57520000D01*
X143740560Y-57660000D01*
X135292802Y-57660000D01*
X128841210Y-51208408D01*
X129166835Y-51143637D01*
X132916599Y-54893401D01*
X133163161Y-55058148D01*
X133454000Y-55116000D01*
X152400000Y-55116000D01*
X152690839Y-55058148D01*
X152937401Y-54893401D01*
X154688000Y-53142802D01*
X154688000Y-57097066D01*
X154332519Y-57334591D01*
X153999773Y-57832581D01*
X153882928Y-58420000D01*
X153999773Y-59007419D01*
X154332519Y-59505409D01*
X154688000Y-59742934D01*
X154688000Y-71628000D01*
X154745852Y-71918839D01*
X154910599Y-72165401D01*
X155418599Y-72673401D01*
X155665161Y-72838148D01*
X155956000Y-72896000D01*
X157673198Y-72896000D01*
X159260000Y-74482802D01*
X159260000Y-89156000D01*
X157591655Y-89156000D01*
X157221204Y-88784902D01*
X156730713Y-88581232D01*
X156199617Y-88580769D01*
X155708771Y-88783582D01*
X155332902Y-89158796D01*
X155129232Y-89649287D01*
X155128769Y-90180383D01*
X155331582Y-90671229D01*
X155706796Y-91047098D01*
X156197287Y-91250768D01*
X156728383Y-91251231D01*
X157219229Y-91048418D01*
X157592297Y-90676000D01*
X162245198Y-90676000D01*
X162816000Y-91246802D01*
X162816000Y-96196560D01*
X162376000Y-96196560D01*
X162140683Y-96240838D01*
X161924559Y-96379910D01*
X161779569Y-96592110D01*
X161728560Y-96844000D01*
X161728560Y-99244000D01*
X161772838Y-99479317D01*
X161911910Y-99695441D01*
X162124110Y-99840431D01*
X162376000Y-99891440D01*
X164776000Y-99891440D01*
X165011317Y-99847162D01*
X165227441Y-99708090D01*
X165372431Y-99495890D01*
X165423440Y-99244000D01*
X165423440Y-96844000D01*
X165379162Y-96608683D01*
X165240090Y-96392559D01*
X165027890Y-96247569D01*
X164776000Y-96196560D01*
X164336000Y-96196560D01*
X164336000Y-90932000D01*
X164278148Y-90641161D01*
X164113401Y-90394599D01*
X163097401Y-89378599D01*
X162850839Y-89213852D01*
X162560000Y-89156000D01*
X160780000Y-89156000D01*
X160780000Y-74168000D01*
X160722148Y-73877161D01*
X160557401Y-73630599D01*
X158525401Y-71598599D01*
X158278839Y-71433852D01*
X157988000Y-71376000D01*
X156270802Y-71376000D01*
X156208000Y-71313198D01*
X156208000Y-59742934D01*
X156563481Y-59505409D01*
X156896227Y-59007419D01*
X157013072Y-58420000D01*
X156896227Y-57832581D01*
X156563481Y-57334591D01*
X156208000Y-57097066D01*
X156208000Y-44704000D01*
X156150148Y-44413161D01*
X155985401Y-44166599D01*
X154969401Y-43150599D01*
X154722839Y-42985852D01*
X154432000Y-42928000D01*
X114808000Y-42928000D01*
X114517161Y-42985852D01*
X114270599Y-43150599D01*
X113348205Y-44072993D01*
X112483801Y-43208589D01*
X112237239Y-43043842D01*
X111946400Y-42985990D01*
X92777599Y-42985991D01*
X92486760Y-43043843D01*
X92240198Y-43208590D01*
X89877598Y-45571190D01*
X89712851Y-45817752D01*
X89654999Y-46108591D01*
X89654999Y-60950999D01*
X89712851Y-61241838D01*
X89877598Y-61488400D01*
X94744000Y-66354802D01*
X94744000Y-70297198D01*
X91086598Y-73954600D01*
X90921851Y-74201162D01*
X90863999Y-74492001D01*
X90863999Y-76956571D01*
X90424000Y-76869050D01*
X89721776Y-77008731D01*
X89126459Y-77406509D01*
X88728681Y-78001826D01*
X88589000Y-78704050D01*
X88589000Y-78775950D01*
X88728681Y-79478174D01*
X89126459Y-80073491D01*
X89721776Y-80471269D01*
X90424000Y-80610950D01*
X91126224Y-80471269D01*
X91721541Y-80073491D01*
X92119319Y-79478174D01*
X92259000Y-78775950D01*
X92259000Y-78704050D01*
X92138840Y-78099962D01*
X92161400Y-78077402D01*
X92326147Y-77830840D01*
X92383999Y-77540001D01*
X92383999Y-74806803D01*
X96041401Y-71149401D01*
X96206148Y-70902839D01*
X96264000Y-70612000D01*
X96264000Y-66040000D01*
X96206148Y-65749161D01*
X96041401Y-65502599D01*
X95977946Y-65439144D01*
X96010000Y-65278000D01*
X96010000Y-60785329D01*
X97767284Y-60785329D01*
X97910203Y-61130396D01*
X98257337Y-61518764D01*
X98726669Y-61744727D01*
X98933000Y-61622206D01*
X98933000Y-60579000D01*
X99187000Y-60579000D01*
X99187000Y-61622206D01*
X99393331Y-61744727D01*
X99862663Y-61518764D01*
X100209797Y-61130396D01*
X100352716Y-60785329D01*
X100229374Y-60579000D01*
X99187000Y-60579000D01*
X98933000Y-60579000D01*
X97890626Y-60579000D01*
X97767284Y-60785329D01*
X96010000Y-60785329D01*
X96010000Y-60118671D01*
X97767284Y-60118671D01*
X97890626Y-60325000D01*
X98933000Y-60325000D01*
X98933000Y-59281794D01*
X99187000Y-59281794D01*
X99187000Y-60325000D01*
X100229374Y-60325000D01*
X100352716Y-60118671D01*
X100209797Y-59773604D01*
X99862663Y-59385236D01*
X99393331Y-59159273D01*
X99187000Y-59281794D01*
X98933000Y-59281794D01*
X98726669Y-59159273D01*
X98257337Y-59385236D01*
X97910203Y-59773604D01*
X97767284Y-60118671D01*
X96010000Y-60118671D01*
X96010000Y-51002934D01*
X96365481Y-50765409D01*
X96524501Y-50527418D01*
X96882424Y-50917966D01*
X97425258Y-51171046D01*
X97663000Y-51050997D01*
X97663000Y-49807000D01*
X97643000Y-49807000D01*
X97643000Y-49553000D01*
X97663000Y-49553000D01*
X97663000Y-48309003D01*
X97917000Y-48309003D01*
X97917000Y-49553000D01*
X97937000Y-49553000D01*
X97937000Y-49807000D01*
X97917000Y-49807000D01*
X97917000Y-51050997D01*
X98154742Y-51171046D01*
X98697576Y-50917966D01*
X99055499Y-50527418D01*
X99214519Y-50765409D01*
X99712509Y-51098155D01*
X100299928Y-51215000D01*
X100360072Y-51215000D01*
X100947491Y-51098155D01*
X101445481Y-50765409D01*
X101778227Y-50267419D01*
X101895072Y-49680000D01*
X101778227Y-49092581D01*
X101445481Y-48594591D01*
X100947491Y-48261845D01*
X100360072Y-48145000D01*
X100299928Y-48145000D01*
X99712509Y-48261845D01*
X99214519Y-48594591D01*
X99055499Y-48832582D01*
X98697576Y-48442034D01*
X98154742Y-48188954D01*
X97917000Y-48309003D01*
X97663000Y-48309003D01*
X97425258Y-48188954D01*
X96882424Y-48442034D01*
X96524501Y-48832582D01*
X96365481Y-48594591D01*
X95867491Y-48261845D01*
X95280072Y-48145000D01*
X95219928Y-48145000D01*
X94632509Y-48261845D01*
X94211974Y-48542837D01*
X94074090Y-48328559D01*
X93861890Y-48183569D01*
X93610000Y-48132560D01*
X93470000Y-48132560D01*
X93470000Y-47496000D01*
X108905198Y-47496000D01*
X111275010Y-49865812D01*
X111275010Y-53673547D01*
X111175481Y-53524591D01*
X110677491Y-53191845D01*
X110090072Y-53075000D01*
X110029928Y-53075000D01*
X109442509Y-53191845D01*
X108944519Y-53524591D01*
X108727088Y-53850000D01*
X104902000Y-53850000D01*
X104611160Y-53907852D01*
X104364599Y-54072599D01*
X102078599Y-56358599D01*
X101913852Y-56605161D01*
X101856000Y-56896000D01*
X101856000Y-69789198D01*
X101793198Y-69852000D01*
X99568000Y-69852000D01*
X99277161Y-69909852D01*
X99030599Y-70074599D01*
X94966599Y-74138599D01*
X94801852Y-74385161D01*
X94744000Y-74676000D01*
X94744000Y-81981198D01*
X93157198Y-83568000D01*
X90424000Y-83568000D01*
X90133161Y-83625852D01*
X89886599Y-83790599D01*
X89721852Y-84037161D01*
X89664000Y-84328000D01*
X89664000Y-97388552D01*
X89385914Y-97503455D01*
X88869270Y-98019199D01*
X88752671Y-98300000D01*
X84475448Y-98300000D01*
X84360545Y-98021914D01*
X83844801Y-97505270D01*
X83170605Y-97225319D01*
X82440597Y-97224682D01*
X81765914Y-97503455D01*
X81249270Y-98019199D01*
X80969319Y-98693395D01*
X80968682Y-99423403D01*
X81247455Y-100098086D01*
X81480962Y-100332000D01*
X75498802Y-100332000D01*
X74928000Y-99761198D01*
X74928000Y-91831440D01*
X74968000Y-91831440D01*
X75203317Y-91787162D01*
X75419441Y-91648090D01*
X75564431Y-91435890D01*
X75615440Y-91184000D01*
X75615440Y-89584000D01*
X75571162Y-89348683D01*
X75432090Y-89132559D01*
X75219890Y-88987569D01*
X74981799Y-88939354D01*
X74996139Y-88891745D01*
X74168000Y-88063605D01*
X73339861Y-88891745D01*
X73354145Y-88939167D01*
X73132683Y-88980838D01*
X72916559Y-89119910D01*
X72771569Y-89332110D01*
X72720560Y-89584000D01*
X60654000Y-89584000D01*
X60654000Y-88714735D01*
X66880870Y-88714735D01*
X66930383Y-88940164D01*
X67395036Y-89099807D01*
X67885413Y-89069482D01*
X68197617Y-88940164D01*
X68247130Y-88714735D01*
X67564000Y-88031605D01*
X66880870Y-88714735D01*
X60654000Y-88714735D01*
X60654000Y-87683036D01*
X66316193Y-87683036D01*
X66346518Y-88173413D01*
X66475836Y-88485617D01*
X66701265Y-88535130D01*
X67384395Y-87852000D01*
X67370253Y-87837858D01*
X67549858Y-87658253D01*
X67564000Y-87672395D01*
X67578143Y-87658253D01*
X67757748Y-87837858D01*
X67743605Y-87852000D01*
X68426735Y-88535130D01*
X68652164Y-88485617D01*
X68811807Y-88020964D01*
X68789932Y-87667223D01*
X72721035Y-87667223D01*
X72748222Y-88237454D01*
X72914136Y-88638005D01*
X73160255Y-88712139D01*
X73988395Y-87884000D01*
X74347605Y-87884000D01*
X75175745Y-88712139D01*
X75421864Y-88638005D01*
X75614965Y-88100777D01*
X75587778Y-87530546D01*
X75421864Y-87129995D01*
X75175745Y-87055861D01*
X74347605Y-87884000D01*
X73988395Y-87884000D01*
X73160255Y-87055861D01*
X72914136Y-87129995D01*
X72721035Y-87667223D01*
X68789932Y-87667223D01*
X68781482Y-87530587D01*
X68652164Y-87218383D01*
X68426737Y-87168871D01*
X68542430Y-87053178D01*
X68487603Y-86998351D01*
X68615441Y-86916090D01*
X68642659Y-86876255D01*
X73339861Y-86876255D01*
X74168000Y-87704395D01*
X74996139Y-86876255D01*
X74922005Y-86630136D01*
X74384777Y-86437035D01*
X73814546Y-86464222D01*
X73413995Y-86630136D01*
X73339861Y-86876255D01*
X68642659Y-86876255D01*
X68760431Y-86703890D01*
X68811440Y-86452000D01*
X68811440Y-85252000D01*
X68767162Y-85016683D01*
X68628090Y-84800559D01*
X68415890Y-84655569D01*
X68324000Y-84636961D01*
X68324000Y-81086802D01*
X69910802Y-79500000D01*
X81123265Y-79500000D01*
X81506459Y-80073491D01*
X82101776Y-80471269D01*
X82804000Y-80610950D01*
X83506224Y-80471269D01*
X84101541Y-80073491D01*
X84499319Y-79478174D01*
X84639000Y-78775950D01*
X84639000Y-78704050D01*
X84499319Y-78001826D01*
X84101541Y-77406509D01*
X83506224Y-77008731D01*
X82804000Y-76869050D01*
X82101776Y-77008731D01*
X81506459Y-77406509D01*
X81123265Y-77980000D01*
X69596000Y-77980000D01*
X69305161Y-78037852D01*
X69058599Y-78202599D01*
X67026599Y-80234599D01*
X66861852Y-80481161D01*
X66804000Y-80772000D01*
X66804000Y-84634666D01*
X66728683Y-84648838D01*
X66512559Y-84787910D01*
X66367569Y-85000110D01*
X66316560Y-85252000D01*
X66316560Y-86452000D01*
X66360838Y-86687317D01*
X66499910Y-86903441D01*
X66639755Y-86998993D01*
X66585570Y-87053178D01*
X66701263Y-87168871D01*
X66475836Y-87218383D01*
X66316193Y-87683036D01*
X60654000Y-87683036D01*
X60654000Y-43757931D01*
X61713791Y-38430000D01*
X109328275Y-38430000D01*
X109509822Y-39342700D01*
X110026825Y-40116450D01*
X110800575Y-40633453D01*
X111713275Y-40815000D01*
X111806725Y-40815000D01*
X112719425Y-40633453D01*
X113493175Y-40116450D01*
X114010178Y-39342700D01*
X114191725Y-38430000D01*
X114010178Y-37517300D01*
X113493175Y-36743550D01*
X112719425Y-36226547D01*
X111806725Y-36045000D01*
X111713275Y-36045000D01*
X110800575Y-36226547D01*
X110026825Y-36743550D01*
X109509822Y-37517300D01*
X109328275Y-38430000D01*
X61713791Y-38430000D01*
X61888889Y-37549723D01*
X64915552Y-33020000D01*
X94088275Y-33020000D01*
X94269822Y-33932700D01*
X94786825Y-34706450D01*
X95560575Y-35223453D01*
X96473275Y-35405000D01*
X96566725Y-35405000D01*
X97479425Y-35223453D01*
X98253175Y-34706450D01*
X98770178Y-33932700D01*
X98951725Y-33020000D01*
X125076275Y-33020000D01*
X125257822Y-33932700D01*
X125774825Y-34706450D01*
X126548575Y-35223453D01*
X127461275Y-35405000D01*
X127554725Y-35405000D01*
X128467425Y-35223453D01*
X129241175Y-34706450D01*
X129758178Y-33932700D01*
X129939725Y-33020000D01*
X129758178Y-32107300D01*
X129241175Y-31333550D01*
X128467425Y-30816547D01*
X127554725Y-30635000D01*
X127461275Y-30635000D01*
X126548575Y-30816547D01*
X125774825Y-31333550D01*
X125257822Y-32107300D01*
X125076275Y-33020000D01*
X98951725Y-33020000D01*
X98770178Y-32107300D01*
X98253175Y-31333550D01*
X97479425Y-30816547D01*
X96566725Y-30635000D01*
X96473275Y-30635000D01*
X95560575Y-30816547D01*
X94786825Y-31333550D01*
X94269822Y-32107300D01*
X94088275Y-33020000D01*
X64915552Y-33020000D01*
X65365943Y-32345943D01*
X70569722Y-28868890D01*
X76777931Y-27634000D01*
X158426069Y-27634000D01*
X165023083Y-28946227D01*
X165023083Y-28946227D01*
G37*
X165023083Y-28946227D02*
X170556478Y-32643522D01*
X174253772Y-38176918D01*
X175566000Y-44773931D01*
X175566000Y-120834069D01*
X174331110Y-127042278D01*
X170854057Y-132246057D01*
X165650277Y-135723111D01*
X159442069Y-136958000D01*
X76777931Y-136958000D01*
X70569722Y-135723110D01*
X65365943Y-132246057D01*
X61888889Y-127042277D01*
X60654000Y-120834069D01*
X60654000Y-118999000D01*
X107675000Y-118999000D01*
X107675000Y-119989000D01*
X107847297Y-120601193D01*
X108240754Y-121100851D01*
X108795472Y-121411905D01*
X108921135Y-121442218D01*
X109173000Y-121322740D01*
X109173000Y-118999000D01*
X109427000Y-118999000D01*
X109427000Y-121322740D01*
X109678865Y-121442218D01*
X109804528Y-121411905D01*
X110359246Y-121100851D01*
X110752703Y-120601193D01*
X110925000Y-119989000D01*
X110925000Y-118999000D01*
X109427000Y-118999000D01*
X109173000Y-118999000D01*
X107675000Y-118999000D01*
X60654000Y-118999000D01*
X60654000Y-117755000D01*
X107675000Y-117755000D01*
X107675000Y-118745000D01*
X109173000Y-118745000D01*
X109173000Y-116421260D01*
X109427000Y-116421260D01*
X109427000Y-118745000D01*
X110925000Y-118745000D01*
X110925000Y-117755000D01*
X110752703Y-117142807D01*
X110555205Y-116892000D01*
X112662560Y-116892000D01*
X112662560Y-120852000D01*
X112706838Y-121087317D01*
X112845910Y-121303441D01*
X113058110Y-121448431D01*
X113310000Y-121499440D01*
X115290000Y-121499440D01*
X115525317Y-121455162D01*
X115741441Y-121316090D01*
X115886431Y-121103890D01*
X115937440Y-120852000D01*
X115937440Y-119632000D01*
X117033198Y-119632000D01*
X132558599Y-135157401D01*
X132805160Y-135322148D01*
X133096000Y-135380000D01*
X159004000Y-135380000D01*
X159294839Y-135322148D01*
X159541401Y-135157401D01*
X164113401Y-130585401D01*
X164278148Y-130338840D01*
X164287746Y-130290586D01*
X164336000Y-130048000D01*
X164336000Y-107215448D01*
X164614086Y-107100545D01*
X165130730Y-106584801D01*
X165410681Y-105910605D01*
X165411318Y-105180597D01*
X165132545Y-104505914D01*
X164616801Y-103989270D01*
X163942605Y-103709319D01*
X163212597Y-103708682D01*
X162537914Y-103987455D01*
X162021270Y-104503199D01*
X161741319Y-105177395D01*
X161740682Y-105907403D01*
X162019455Y-106582086D01*
X162535199Y-107098730D01*
X162816000Y-107215329D01*
X162816000Y-129733198D01*
X158689198Y-133860000D01*
X133410802Y-133860000D01*
X117885401Y-118334599D01*
X117638839Y-118169852D01*
X117348000Y-118112000D01*
X115937440Y-118112000D01*
X115937440Y-116892000D01*
X115893162Y-116656683D01*
X115754090Y-116440559D01*
X115541890Y-116295569D01*
X115290000Y-116244560D01*
X113310000Y-116244560D01*
X113074683Y-116288838D01*
X112858559Y-116427910D01*
X112713569Y-116640110D01*
X112662560Y-116892000D01*
X110555205Y-116892000D01*
X110359246Y-116643149D01*
X109804528Y-116332095D01*
X109678865Y-116301782D01*
X109427000Y-116421260D01*
X109173000Y-116421260D01*
X108921135Y-116301782D01*
X108795472Y-116332095D01*
X108240754Y-116643149D01*
X107847297Y-117142807D01*
X107675000Y-117755000D01*
X60654000Y-117755000D01*
X60654000Y-113258769D01*
X92435000Y-113258769D01*
X92435000Y-115341231D01*
X92558696Y-115963092D01*
X92910951Y-116490280D01*
X93438139Y-116842535D01*
X94060000Y-116966231D01*
X94681861Y-116842535D01*
X95209049Y-116490280D01*
X95561304Y-115963092D01*
X95685000Y-115341231D01*
X95685000Y-114585750D01*
X97435000Y-114585750D01*
X97435000Y-116406310D01*
X97531673Y-116639699D01*
X97710302Y-116818327D01*
X97943691Y-116915000D01*
X98774250Y-116915000D01*
X98933000Y-116756250D01*
X98933000Y-114427000D01*
X99187000Y-114427000D01*
X99187000Y-116756250D01*
X99345750Y-116915000D01*
X100176309Y-116915000D01*
X100409698Y-116818327D01*
X100588327Y-116639699D01*
X100685000Y-116406310D01*
X100685000Y-114935000D01*
X123851000Y-114935000D01*
X123851000Y-115925000D01*
X124023297Y-116537193D01*
X124416754Y-117036851D01*
X124971472Y-117347905D01*
X125097135Y-117378218D01*
X125349000Y-117258740D01*
X125349000Y-114935000D01*
X125603000Y-114935000D01*
X125603000Y-117258740D01*
X125854865Y-117378218D01*
X125980528Y-117347905D01*
X126535246Y-117036851D01*
X126928703Y-116537193D01*
X127101000Y-115925000D01*
X127101000Y-114935000D01*
X125603000Y-114935000D01*
X125349000Y-114935000D01*
X123851000Y-114935000D01*
X100685000Y-114935000D01*
X100685000Y-114585750D01*
X100526250Y-114427000D01*
X99187000Y-114427000D01*
X98933000Y-114427000D01*
X97593750Y-114427000D01*
X97435000Y-114585750D01*
X95685000Y-114585750D01*
X95685000Y-113258769D01*
X95561304Y-112636908D01*
X95265156Y-112193690D01*
X97435000Y-112193690D01*
X97435000Y-114014250D01*
X97593750Y-114173000D01*
X98933000Y-114173000D01*
X98933000Y-111843750D01*
X99187000Y-111843750D01*
X99187000Y-114173000D01*
X100526250Y-114173000D01*
X100685000Y-114014250D01*
X100685000Y-113691000D01*
X123851000Y-113691000D01*
X123851000Y-114681000D01*
X125349000Y-114681000D01*
X125349000Y-112357260D01*
X125603000Y-112357260D01*
X125603000Y-114681000D01*
X127101000Y-114681000D01*
X127101000Y-113691000D01*
X126928703Y-113078807D01*
X126535246Y-112579149D01*
X125980528Y-112268095D01*
X125854865Y-112237782D01*
X125603000Y-112357260D01*
X125349000Y-112357260D01*
X125097135Y-112237782D01*
X124971472Y-112268095D01*
X124416754Y-112579149D01*
X124023297Y-113078807D01*
X123851000Y-113691000D01*
X100685000Y-113691000D01*
X100685000Y-112193690D01*
X100588327Y-111960301D01*
X100409698Y-111781673D01*
X100176309Y-111685000D01*
X99345750Y-111685000D01*
X99187000Y-111843750D01*
X98933000Y-111843750D01*
X98774250Y-111685000D01*
X97943691Y-111685000D01*
X97710302Y-111781673D01*
X97531673Y-111960301D01*
X97435000Y-112193690D01*
X95265156Y-112193690D01*
X95209049Y-112109720D01*
X94820000Y-111849766D01*
X94820000Y-104900000D01*
X108204000Y-104900000D01*
X108494839Y-104842148D01*
X108741401Y-104677401D01*
X110265401Y-103153401D01*
X110430148Y-102906840D01*
X110449381Y-102810148D01*
X110488000Y-102616000D01*
X110488000Y-99282646D01*
X110539800Y-99261243D01*
X110943824Y-98857923D01*
X111162750Y-98330691D01*
X111163248Y-97759813D01*
X110945243Y-97232200D01*
X110541923Y-96828176D01*
X110014691Y-96609250D01*
X109443813Y-96608752D01*
X108916200Y-96826757D01*
X108512176Y-97230077D01*
X108293250Y-97757309D01*
X108292752Y-98328187D01*
X108510757Y-98855800D01*
X108914077Y-99259824D01*
X108968000Y-99282215D01*
X108968000Y-102301198D01*
X107889198Y-103380000D01*
X94488000Y-103380000D01*
X94245414Y-103428254D01*
X94197160Y-103437852D01*
X93950599Y-103602599D01*
X93522599Y-104030599D01*
X93357852Y-104277161D01*
X93300000Y-104568000D01*
X93300000Y-111849766D01*
X92910951Y-112109720D01*
X92558696Y-112636908D01*
X92435000Y-113258769D01*
X60654000Y-113258769D01*
X60654000Y-89584000D01*
X72720560Y-89584000D01*
X72720560Y-91184000D01*
X72764838Y-91419317D01*
X72903910Y-91635441D01*
X73116110Y-91780431D01*
X73368000Y-91831440D01*
X73408000Y-91831440D01*
X73408000Y-100076000D01*
X73465852Y-100366839D01*
X73630599Y-100613401D01*
X74646599Y-101629401D01*
X74893161Y-101794148D01*
X75184000Y-101852000D01*
X97379265Y-101852000D01*
X97762459Y-102425491D01*
X98357776Y-102823269D01*
X99060000Y-102962950D01*
X99762224Y-102823269D01*
X100357541Y-102425491D01*
X100740735Y-101852000D01*
X103124000Y-101852000D01*
X103414839Y-101794148D01*
X103661401Y-101629401D01*
X104677401Y-100613401D01*
X104842148Y-100366839D01*
X104900000Y-100076000D01*
X104900000Y-93786802D01*
X107502802Y-91184000D01*
X111445198Y-91184000D01*
X114556000Y-94294802D01*
X114556000Y-99060000D01*
X114613852Y-99350839D01*
X114778599Y-99597401D01*
X115794599Y-100613401D01*
X116041161Y-100778148D01*
X116332000Y-100836000D01*
X118216552Y-100836000D01*
X118331455Y-101114086D01*
X118847199Y-101630730D01*
X119521395Y-101910681D01*
X120251403Y-101911318D01*
X120926086Y-101632545D01*
X121442730Y-101116801D01*
X121453859Y-101090000D01*
X126589265Y-101090000D01*
X126972459Y-101663491D01*
X127567776Y-102061269D01*
X128270000Y-102200950D01*
X128972224Y-102061269D01*
X129567541Y-101663491D01*
X129965319Y-101068174D01*
X130105000Y-100365950D01*
X130105000Y-100294050D01*
X130097381Y-100255745D01*
X136839861Y-100255745D01*
X136913995Y-100501864D01*
X137451223Y-100694965D01*
X138021454Y-100667778D01*
X138243640Y-100575745D01*
X147507861Y-100575745D01*
X147581995Y-100821864D01*
X148119223Y-101014965D01*
X148689454Y-100987778D01*
X149090005Y-100821864D01*
X149164139Y-100575745D01*
X148336000Y-99747605D01*
X147507861Y-100575745D01*
X138243640Y-100575745D01*
X138422005Y-100501864D01*
X138496139Y-100255745D01*
X137668000Y-99427605D01*
X136839861Y-100255745D01*
X130097381Y-100255745D01*
X129965319Y-99591826D01*
X129590737Y-99031223D01*
X136221035Y-99031223D01*
X136248222Y-99601454D01*
X136414136Y-100002005D01*
X136660255Y-100076139D01*
X137488395Y-99248000D01*
X137847605Y-99248000D01*
X138675745Y-100076139D01*
X138921864Y-100002005D01*
X139114965Y-99464777D01*
X139109552Y-99351223D01*
X146889035Y-99351223D01*
X146916222Y-99921454D01*
X147082136Y-100322005D01*
X147328255Y-100396139D01*
X148156395Y-99568000D01*
X148515605Y-99568000D01*
X149343745Y-100396139D01*
X149589864Y-100322005D01*
X149782965Y-99784777D01*
X149755778Y-99214546D01*
X149589864Y-98813995D01*
X149343745Y-98739861D01*
X148515605Y-99568000D01*
X148156395Y-99568000D01*
X147328255Y-98739861D01*
X147082136Y-98813995D01*
X146889035Y-99351223D01*
X139109552Y-99351223D01*
X139087778Y-98894546D01*
X138949310Y-98560255D01*
X147507861Y-98560255D01*
X148336000Y-99388395D01*
X149164139Y-98560255D01*
X149090005Y-98314136D01*
X148552777Y-98121035D01*
X147982546Y-98148222D01*
X147581995Y-98314136D01*
X147507861Y-98560255D01*
X138949310Y-98560255D01*
X138921864Y-98493995D01*
X138675745Y-98419861D01*
X137847605Y-99248000D01*
X137488395Y-99248000D01*
X136660255Y-98419861D01*
X136414136Y-98493995D01*
X136221035Y-99031223D01*
X129590737Y-99031223D01*
X129567541Y-98996509D01*
X128972224Y-98598731D01*
X128270000Y-98459050D01*
X127567776Y-98598731D01*
X126972459Y-98996509D01*
X126589265Y-99570000D01*
X121664398Y-99570000D01*
X121444545Y-99037914D01*
X120928801Y-98521270D01*
X120254605Y-98241319D01*
X119524597Y-98240682D01*
X118849914Y-98519455D01*
X118333270Y-99035199D01*
X118216671Y-99316000D01*
X116646802Y-99316000D01*
X116076000Y-98745198D01*
X116076000Y-98240255D01*
X136839861Y-98240255D01*
X137668000Y-99068395D01*
X138496139Y-98240255D01*
X138422005Y-97994136D01*
X137884777Y-97801035D01*
X137314546Y-97828222D01*
X136913995Y-97994136D01*
X136839861Y-98240255D01*
X116076000Y-98240255D01*
X116076000Y-93980000D01*
X116018148Y-93689161D01*
X116018148Y-93689160D01*
X115853401Y-93442599D01*
X112297401Y-89886599D01*
X112050839Y-89721852D01*
X111760000Y-89664000D01*
X107188000Y-89664000D01*
X106897161Y-89721852D01*
X106650599Y-89886599D01*
X103602599Y-92934599D01*
X103437852Y-93181161D01*
X103380000Y-93472000D01*
X103380000Y-99761198D01*
X102809198Y-100332000D01*
X100740735Y-100332000D01*
X100357541Y-99758509D01*
X99762224Y-99360731D01*
X99060000Y-99221050D01*
X98357776Y-99360731D01*
X97762459Y-99758509D01*
X97379265Y-100332000D01*
X91747128Y-100332000D01*
X91978730Y-100100801D01*
X92258681Y-99426605D01*
X92259318Y-98696597D01*
X91980545Y-98021914D01*
X91464801Y-97505270D01*
X91184000Y-97388671D01*
X91184000Y-85088000D01*
X93472000Y-85088000D01*
X93762839Y-85030148D01*
X94009401Y-84865401D01*
X96041401Y-82833401D01*
X96206148Y-82586839D01*
X96264000Y-82296000D01*
X96264000Y-76055403D01*
X97224682Y-76055403D01*
X97503455Y-76730086D01*
X98019199Y-77246730D01*
X98693395Y-77526681D01*
X99423403Y-77527318D01*
X99704407Y-77411209D01*
X100874599Y-78581401D01*
X101121160Y-78746148D01*
X101412000Y-78804000D01*
X108524333Y-78804000D01*
X108713302Y-79086811D01*
X109178849Y-79397880D01*
X109728000Y-79507113D01*
X110277151Y-79397880D01*
X110742698Y-79086811D01*
X111053767Y-78621264D01*
X111163000Y-78072113D01*
X111163000Y-78015887D01*
X111053767Y-77466736D01*
X110742698Y-77001189D01*
X110277151Y-76690120D01*
X109728000Y-76580887D01*
X109178849Y-76690120D01*
X108713302Y-77001189D01*
X108524333Y-77284000D01*
X101726802Y-77284000D01*
X100779293Y-76336491D01*
X100894681Y-76058605D01*
X100895318Y-75328597D01*
X100863669Y-75252001D01*
X105339999Y-75252001D01*
X105630838Y-75194149D01*
X105789990Y-75087807D01*
X118099797Y-75087807D01*
X118393508Y-75740776D01*
X118914742Y-76231642D01*
X119476195Y-76464195D01*
X119761000Y-76347432D01*
X119761000Y-74803000D01*
X120015000Y-74803000D01*
X120015000Y-76347432D01*
X120299805Y-76464195D01*
X120861258Y-76231642D01*
X121382492Y-75740776D01*
X121676203Y-75087807D01*
X121559858Y-74803000D01*
X120015000Y-74803000D01*
X119761000Y-74803000D01*
X118216142Y-74803000D01*
X118099797Y-75087807D01*
X105789990Y-75087807D01*
X105877400Y-75029402D01*
X106642609Y-74264193D01*
X118099797Y-74264193D01*
X118216142Y-74549000D01*
X119761000Y-74549000D01*
X119761000Y-73004568D01*
X120015000Y-73004568D01*
X120015000Y-74549000D01*
X121559858Y-74549000D01*
X121676203Y-74264193D01*
X121382492Y-73611224D01*
X120861258Y-73120358D01*
X120299805Y-72887805D01*
X120015000Y-73004568D01*
X119761000Y-73004568D01*
X119476195Y-72887805D01*
X118914742Y-73120358D01*
X118393508Y-73611224D01*
X118099797Y-74264193D01*
X106642609Y-74264193D01*
X108897401Y-72009401D01*
X109062148Y-71762840D01*
X109120000Y-71472000D01*
X109120000Y-59957440D01*
X109260000Y-59957440D01*
X109495317Y-59913162D01*
X109711441Y-59774090D01*
X109856431Y-59561890D01*
X109907440Y-59310000D01*
X109907440Y-57510000D01*
X109863162Y-57274683D01*
X109724090Y-57058559D01*
X109511890Y-56913569D01*
X109260000Y-56862560D01*
X107460000Y-56862560D01*
X107224683Y-56906838D01*
X107008559Y-57045910D01*
X106863569Y-57258110D01*
X106812560Y-57510000D01*
X106812560Y-59310000D01*
X106856838Y-59545317D01*
X106995910Y-59761441D01*
X107208110Y-59906431D01*
X107460000Y-59957440D01*
X107600000Y-59957440D01*
X107600000Y-71157198D01*
X105025197Y-73732001D01*
X100259999Y-73732001D01*
X99969160Y-73789853D01*
X99722598Y-73954600D01*
X99704491Y-73972707D01*
X99426605Y-73857319D01*
X98696597Y-73856682D01*
X98021914Y-74135455D01*
X97505270Y-74651199D01*
X97225319Y-75325395D01*
X97224682Y-76055403D01*
X96264000Y-76055403D01*
X96264000Y-74990802D01*
X99882802Y-71372000D01*
X102108000Y-71372000D01*
X102398839Y-71314148D01*
X102645401Y-71149401D01*
X103153401Y-70641401D01*
X103318147Y-70394840D01*
X103318148Y-70394839D01*
X103376000Y-70104000D01*
X103376000Y-57210802D01*
X105216802Y-55370000D01*
X108727088Y-55370000D01*
X108944519Y-55695409D01*
X109442509Y-56028155D01*
X110029928Y-56145000D01*
X110090072Y-56145000D01*
X110677491Y-56028155D01*
X111175481Y-55695409D01*
X111275010Y-55546453D01*
X111275010Y-56965489D01*
X111142509Y-56991845D01*
X110644519Y-57324591D01*
X110311773Y-57822581D01*
X110194928Y-58410000D01*
X110311773Y-58997419D01*
X110644519Y-59495409D01*
X111000000Y-59732934D01*
X111000000Y-64293354D01*
X110948200Y-64314757D01*
X110544176Y-64718077D01*
X110325250Y-65245309D01*
X110324752Y-65816187D01*
X110542757Y-66343800D01*
X110946077Y-66747824D01*
X111473309Y-66966750D01*
X112044187Y-66967248D01*
X112571800Y-66749243D01*
X112975824Y-66345923D01*
X113194750Y-65818691D01*
X113195248Y-65247813D01*
X112977243Y-64720200D01*
X112573923Y-64316176D01*
X112520000Y-64293785D01*
X112520000Y-59732934D01*
X112875481Y-59495409D01*
X113208227Y-58997419D01*
X113325072Y-58410000D01*
X113208227Y-57822581D01*
X112875481Y-57324591D01*
X112795010Y-57270822D01*
X112795010Y-55996417D01*
X112842509Y-56028155D01*
X113429928Y-56145000D01*
X113490072Y-56145000D01*
X114077491Y-56028155D01*
X114575481Y-55695409D01*
X114908227Y-55197419D01*
X115025072Y-54610000D01*
X114908227Y-54022581D01*
X114575481Y-53524591D01*
X114220000Y-53287066D01*
X114220000Y-45350802D01*
X115122802Y-44448000D01*
X154117198Y-44448000D01*
X154688000Y-45018802D01*
X154688000Y-49760560D01*
X153532000Y-49760560D01*
X153296683Y-49804838D01*
X153080559Y-49943910D01*
X152935569Y-50156110D01*
X152884560Y-50408000D01*
X152884560Y-52208000D01*
X152928838Y-52443317D01*
X153049839Y-52631359D01*
X152085198Y-53596000D01*
X133768802Y-53596000D01*
X131845542Y-51672740D01*
X142780964Y-51672740D01*
X142959760Y-52104417D01*
X143364424Y-52545966D01*
X143907258Y-52799046D01*
X144145000Y-52678997D01*
X144145000Y-51435000D01*
X144399000Y-51435000D01*
X144399000Y-52678997D01*
X144636742Y-52799046D01*
X145179576Y-52545966D01*
X145584240Y-52104417D01*
X145763036Y-51672740D01*
X145642378Y-51435000D01*
X144399000Y-51435000D01*
X144145000Y-51435000D01*
X142901622Y-51435000D01*
X142780964Y-51672740D01*
X131845542Y-51672740D01*
X131381210Y-51208408D01*
X131935491Y-51098155D01*
X132167307Y-50943260D01*
X142780964Y-50943260D01*
X142901622Y-51181000D01*
X144145000Y-51181000D01*
X144145000Y-49937003D01*
X144399000Y-49937003D01*
X144399000Y-51181000D01*
X145642378Y-51181000D01*
X145763036Y-50943260D01*
X145584240Y-50511583D01*
X145179576Y-50070034D01*
X144636742Y-49816954D01*
X144399000Y-49937003D01*
X144145000Y-49937003D01*
X143907258Y-49816954D01*
X143364424Y-50070034D01*
X142959760Y-50511583D01*
X142780964Y-50943260D01*
X132167307Y-50943260D01*
X132433481Y-50765409D01*
X132766227Y-50267419D01*
X132883072Y-49680000D01*
X132766227Y-49092581D01*
X132433481Y-48594591D01*
X131935491Y-48261845D01*
X131348072Y-48145000D01*
X131287928Y-48145000D01*
X130700509Y-48261845D01*
X130202519Y-48594591D01*
X130048000Y-48825845D01*
X129893481Y-48594591D01*
X129395491Y-48261845D01*
X128808072Y-48145000D01*
X128747928Y-48145000D01*
X128160509Y-48261845D01*
X127662519Y-48594591D01*
X127508000Y-48825845D01*
X127353481Y-48594591D01*
X126855491Y-48261845D01*
X126268072Y-48145000D01*
X126207928Y-48145000D01*
X125620509Y-48261845D01*
X125199974Y-48542837D01*
X125062090Y-48328559D01*
X124849890Y-48183569D01*
X124598000Y-48132560D01*
X122798000Y-48132560D01*
X122562683Y-48176838D01*
X122346559Y-48315910D01*
X122201569Y-48528110D01*
X122150560Y-48780000D01*
X122150560Y-50580000D01*
X122194838Y-50815317D01*
X122333910Y-51031441D01*
X122546110Y-51176431D01*
X122798000Y-51227440D01*
X122938000Y-51227440D01*
X122938000Y-57650000D01*
X116492912Y-57650000D01*
X116275481Y-57324591D01*
X115777491Y-56991845D01*
X115190072Y-56875000D01*
X115129928Y-56875000D01*
X114542509Y-56991845D01*
X114044519Y-57324591D01*
X113711773Y-57822581D01*
X113594928Y-58410000D01*
X113711773Y-58997419D01*
X114044519Y-59495409D01*
X114542509Y-59828155D01*
X115129928Y-59945000D01*
X115190072Y-59945000D01*
X115777491Y-59828155D01*
X116275481Y-59495409D01*
X116492912Y-59170000D01*
X129215198Y-59170000D01*
X131000000Y-60954802D01*
X131000000Y-64328333D01*
X130717189Y-64517302D01*
X130406120Y-64982849D01*
X130296887Y-65532000D01*
X130406120Y-66081151D01*
X130717189Y-66546698D01*
X131182736Y-66857767D01*
X131731887Y-66967000D01*
X131788113Y-66967000D01*
X132337264Y-66857767D01*
X132489727Y-66755894D01*
X132558839Y-66742147D01*
X132805401Y-66577401D01*
X132970147Y-66330839D01*
X132979940Y-66281606D01*
X133113880Y-66081151D01*
X133223113Y-65532000D01*
X133113880Y-64982849D01*
X132802811Y-64517302D01*
X132520000Y-64328333D01*
X132520000Y-61400000D01*
X135001198Y-61400000D01*
X136354355Y-62753157D01*
X136306846Y-62992000D01*
X136408467Y-63502882D01*
X136697858Y-63935988D01*
X137130964Y-64225379D01*
X137641846Y-64327000D01*
X137694154Y-64327000D01*
X138205036Y-64225379D01*
X138638142Y-63935988D01*
X138927533Y-63502882D01*
X139029154Y-62992000D01*
X138927533Y-62481118D01*
X138638142Y-62048012D01*
X138205036Y-61758621D01*
X137694154Y-61657000D01*
X137641846Y-61657000D01*
X137446632Y-61695830D01*
X135853401Y-60102599D01*
X135606839Y-59937852D01*
X135316000Y-59880000D01*
X132074802Y-59880000D01*
X130067401Y-57872599D01*
X129820839Y-57707852D01*
X129530000Y-57650000D01*
X124458000Y-57650000D01*
X124458000Y-51227440D01*
X124598000Y-51227440D01*
X124833317Y-51183162D01*
X125049441Y-51044090D01*
X125194431Y-50831890D01*
X125197719Y-50815656D01*
X125620509Y-51098155D01*
X126207928Y-51215000D01*
X126268072Y-51215000D01*
X126626835Y-51143637D01*
X134440599Y-58957401D01*
X134687161Y-59122148D01*
X134978000Y-59180000D01*
X143740560Y-59180000D01*
X143740560Y-59320000D01*
X143784838Y-59555317D01*
X143923910Y-59771441D01*
X144136110Y-59916431D01*
X144388000Y-59967440D01*
X144503000Y-59967440D01*
X144503000Y-61889301D01*
X144156902Y-62234796D01*
X143953232Y-62725287D01*
X143952769Y-63256383D01*
X144155582Y-63747229D01*
X144503000Y-64095253D01*
X144503000Y-72826842D01*
X143184842Y-74145000D01*
X143002000Y-74145000D01*
X142876318Y-74170000D01*
X129941448Y-74170000D01*
X129826545Y-73891914D01*
X129310801Y-73375270D01*
X128636605Y-73095319D01*
X127906597Y-73094682D01*
X127231914Y-73373455D01*
X126715270Y-73889199D01*
X126435319Y-74563395D01*
X126434682Y-75293403D01*
X126713455Y-75968086D01*
X127229199Y-76484730D01*
X127903395Y-76764681D01*
X128633403Y-76765318D01*
X129308086Y-76486545D01*
X129824730Y-75970801D01*
X129941329Y-75690000D01*
X137924000Y-75690000D01*
X137924000Y-76785828D01*
X137130599Y-77579229D01*
X136965852Y-77825791D01*
X136926725Y-78022493D01*
X136653302Y-78205189D01*
X136342233Y-78670736D01*
X136233000Y-79219887D01*
X136233000Y-79276113D01*
X136342233Y-79825264D01*
X136653302Y-80290811D01*
X137118849Y-80601880D01*
X137668000Y-80711113D01*
X138217151Y-80601880D01*
X138682698Y-80290811D01*
X138871667Y-80008000D01*
X142433198Y-80008000D01*
X143004000Y-80578802D01*
X143004000Y-85344000D01*
X143061852Y-85634839D01*
X143226599Y-85881401D01*
X152148000Y-94802802D01*
X152148000Y-100777198D01*
X151577198Y-101348000D01*
X147828000Y-101348000D01*
X147537161Y-101405852D01*
X147290599Y-101570599D01*
X142433198Y-106428000D01*
X137160000Y-106428000D01*
X136917414Y-106476254D01*
X136869160Y-106485852D01*
X136622599Y-106650599D01*
X135098599Y-108174599D01*
X134933852Y-108421161D01*
X134876000Y-108712000D01*
X134876000Y-112969198D01*
X133797198Y-114048000D01*
X132113440Y-114048000D01*
X132113440Y-112828000D01*
X132069162Y-112592683D01*
X131930090Y-112376559D01*
X131717890Y-112231569D01*
X131466000Y-112180560D01*
X129486000Y-112180560D01*
X129250683Y-112224838D01*
X129034559Y-112363910D01*
X128889569Y-112576110D01*
X128838560Y-112828000D01*
X128838560Y-116788000D01*
X128882838Y-117023317D01*
X129021910Y-117239441D01*
X129234110Y-117384431D01*
X129486000Y-117435440D01*
X131466000Y-117435440D01*
X131701317Y-117391162D01*
X131917441Y-117252090D01*
X132062431Y-117039890D01*
X132113440Y-116788000D01*
X132113440Y-115568000D01*
X133797198Y-115568000D01*
X134368000Y-116138802D01*
X134368000Y-120396000D01*
X134425852Y-120686839D01*
X134590599Y-120933401D01*
X135606599Y-121949401D01*
X135853161Y-122114148D01*
X136144000Y-122172000D01*
X143440560Y-122172000D01*
X143440560Y-122612000D01*
X143484838Y-122847317D01*
X143623910Y-123063441D01*
X143836110Y-123208431D01*
X144088000Y-123259440D01*
X146488000Y-123259440D01*
X146723317Y-123215162D01*
X146939441Y-123076090D01*
X147084431Y-122863890D01*
X147115761Y-122709175D01*
X151670430Y-122709175D01*
X151793565Y-122996788D01*
X152475734Y-123256707D01*
X153205443Y-123235786D01*
X153782435Y-122996788D01*
X153905570Y-122709175D01*
X152788000Y-121591605D01*
X151670430Y-122709175D01*
X147115761Y-122709175D01*
X147135440Y-122612000D01*
X147135440Y-121099734D01*
X150943293Y-121099734D01*
X150964214Y-121829443D01*
X151203212Y-122406435D01*
X151490825Y-122529570D01*
X152608395Y-121412000D01*
X152967605Y-121412000D01*
X154085175Y-122529570D01*
X154372788Y-122406435D01*
X154632707Y-121724266D01*
X154611786Y-120994557D01*
X154372788Y-120417565D01*
X154085175Y-120294430D01*
X152967605Y-121412000D01*
X152608395Y-121412000D01*
X151490825Y-120294430D01*
X151203212Y-120417565D01*
X150943293Y-121099734D01*
X147135440Y-121099734D01*
X147135440Y-120212000D01*
X147117156Y-120114825D01*
X151670430Y-120114825D01*
X152788000Y-121232395D01*
X153905570Y-120114825D01*
X153782435Y-119827212D01*
X153100266Y-119567293D01*
X152370557Y-119588214D01*
X151793565Y-119827212D01*
X151670430Y-120114825D01*
X147117156Y-120114825D01*
X147091162Y-119976683D01*
X146952090Y-119760559D01*
X146739890Y-119615569D01*
X146488000Y-119564560D01*
X144088000Y-119564560D01*
X143852683Y-119608838D01*
X143636559Y-119747910D01*
X143491569Y-119960110D01*
X143440560Y-120212000D01*
X143440560Y-120652000D01*
X136458802Y-120652000D01*
X135888000Y-120081198D01*
X135888000Y-115824000D01*
X135830148Y-115533161D01*
X135665401Y-115286599D01*
X135186802Y-114808000D01*
X136173401Y-113821401D01*
X136338147Y-113574840D01*
X136338148Y-113574839D01*
X136396000Y-113284000D01*
X136396000Y-109026802D01*
X137474802Y-107948000D01*
X142748000Y-107948000D01*
X143038839Y-107890148D01*
X143285401Y-107725401D01*
X148142802Y-102868000D01*
X151892000Y-102868000D01*
X152182839Y-102810148D01*
X152429401Y-102645401D01*
X153445401Y-101629401D01*
X153610148Y-101382839D01*
X153668000Y-101092000D01*
X153668000Y-94488000D01*
X153610148Y-94197161D01*
X153445401Y-93950599D01*
X144524000Y-85029198D01*
X144524000Y-80264000D01*
X144466148Y-79973161D01*
X144301401Y-79726599D01*
X144114689Y-79539887D01*
X146901000Y-79539887D01*
X146901000Y-79596113D01*
X147010233Y-80145264D01*
X147321302Y-80610811D01*
X147786849Y-80921880D01*
X148336000Y-81031113D01*
X148885151Y-80921880D01*
X149350698Y-80610811D01*
X149539667Y-80328000D01*
X155453198Y-80328000D01*
X155704000Y-80578802D01*
X155704000Y-81202922D01*
X155520012Y-81325858D01*
X155230621Y-81758964D01*
X155129000Y-82269846D01*
X155129000Y-82322154D01*
X155230621Y-82833036D01*
X155520012Y-83266142D01*
X155953118Y-83555533D01*
X156464000Y-83657154D01*
X156974882Y-83555533D01*
X157407988Y-83266142D01*
X157697379Y-82833036D01*
X157799000Y-82322154D01*
X157799000Y-82269846D01*
X157697379Y-81758964D01*
X157407988Y-81325858D01*
X157224000Y-81202922D01*
X157224000Y-80264000D01*
X157166148Y-79973161D01*
X157001401Y-79726599D01*
X156305401Y-79030599D01*
X156058839Y-78865852D01*
X155768000Y-78808000D01*
X149539667Y-78808000D01*
X149350698Y-78525189D01*
X148885151Y-78214120D01*
X148336000Y-78104887D01*
X147786849Y-78214120D01*
X147321302Y-78525189D01*
X147010233Y-78990736D01*
X146901000Y-79539887D01*
X144114689Y-79539887D01*
X143285401Y-78710599D01*
X143038839Y-78545852D01*
X142748000Y-78488000D01*
X138871667Y-78488000D01*
X138682698Y-78205189D01*
X138665640Y-78193792D01*
X139221401Y-77638031D01*
X139386148Y-77391469D01*
X139444000Y-77100630D01*
X139444000Y-75690000D01*
X142876318Y-75690000D01*
X143002000Y-75715000D01*
X143510000Y-75715000D01*
X143810407Y-75655245D01*
X144065079Y-75485079D01*
X145843079Y-73707079D01*
X146013245Y-73452406D01*
X146073000Y-73152000D01*
X146073000Y-64094699D01*
X146419098Y-63749204D01*
X146622768Y-63258713D01*
X146623231Y-62727617D01*
X146420418Y-62236771D01*
X146073000Y-61888747D01*
X146073000Y-59967440D01*
X146188000Y-59967440D01*
X146423317Y-59923162D01*
X146639441Y-59784090D01*
X146784431Y-59571890D01*
X146835440Y-59320000D01*
X146835440Y-57520000D01*
X146791162Y-57284683D01*
X146652090Y-57068559D01*
X146439890Y-56923569D01*
X146188000Y-56872560D01*
X144388000Y-56872560D01*
X144152683Y-56916838D01*
X143936559Y-57055910D01*
X143791569Y-57268110D01*
X143740560Y-57520000D01*
X143740560Y-57660000D01*
X135292802Y-57660000D01*
X128841210Y-51208408D01*
X129166835Y-51143637D01*
X132916599Y-54893401D01*
X133163161Y-55058148D01*
X133454000Y-55116000D01*
X152400000Y-55116000D01*
X152690839Y-55058148D01*
X152937401Y-54893401D01*
X154688000Y-53142802D01*
X154688000Y-57097066D01*
X154332519Y-57334591D01*
X153999773Y-57832581D01*
X153882928Y-58420000D01*
X153999773Y-59007419D01*
X154332519Y-59505409D01*
X154688000Y-59742934D01*
X154688000Y-71628000D01*
X154745852Y-71918839D01*
X154910599Y-72165401D01*
X155418599Y-72673401D01*
X155665161Y-72838148D01*
X155956000Y-72896000D01*
X157673198Y-72896000D01*
X159260000Y-74482802D01*
X159260000Y-89156000D01*
X157591655Y-89156000D01*
X157221204Y-88784902D01*
X156730713Y-88581232D01*
X156199617Y-88580769D01*
X155708771Y-88783582D01*
X155332902Y-89158796D01*
X155129232Y-89649287D01*
X155128769Y-90180383D01*
X155331582Y-90671229D01*
X155706796Y-91047098D01*
X156197287Y-91250768D01*
X156728383Y-91251231D01*
X157219229Y-91048418D01*
X157592297Y-90676000D01*
X162245198Y-90676000D01*
X162816000Y-91246802D01*
X162816000Y-96196560D01*
X162376000Y-96196560D01*
X162140683Y-96240838D01*
X161924559Y-96379910D01*
X161779569Y-96592110D01*
X161728560Y-96844000D01*
X161728560Y-99244000D01*
X161772838Y-99479317D01*
X161911910Y-99695441D01*
X162124110Y-99840431D01*
X162376000Y-99891440D01*
X164776000Y-99891440D01*
X165011317Y-99847162D01*
X165227441Y-99708090D01*
X165372431Y-99495890D01*
X165423440Y-99244000D01*
X165423440Y-96844000D01*
X165379162Y-96608683D01*
X165240090Y-96392559D01*
X165027890Y-96247569D01*
X164776000Y-96196560D01*
X164336000Y-96196560D01*
X164336000Y-90932000D01*
X164278148Y-90641161D01*
X164113401Y-90394599D01*
X163097401Y-89378599D01*
X162850839Y-89213852D01*
X162560000Y-89156000D01*
X160780000Y-89156000D01*
X160780000Y-74168000D01*
X160722148Y-73877161D01*
X160557401Y-73630599D01*
X158525401Y-71598599D01*
X158278839Y-71433852D01*
X157988000Y-71376000D01*
X156270802Y-71376000D01*
X156208000Y-71313198D01*
X156208000Y-59742934D01*
X156563481Y-59505409D01*
X156896227Y-59007419D01*
X157013072Y-58420000D01*
X156896227Y-57832581D01*
X156563481Y-57334591D01*
X156208000Y-57097066D01*
X156208000Y-44704000D01*
X156150148Y-44413161D01*
X155985401Y-44166599D01*
X154969401Y-43150599D01*
X154722839Y-42985852D01*
X154432000Y-42928000D01*
X114808000Y-42928000D01*
X114517161Y-42985852D01*
X114270599Y-43150599D01*
X113348205Y-44072993D01*
X112483801Y-43208589D01*
X112237239Y-43043842D01*
X111946400Y-42985990D01*
X92777599Y-42985991D01*
X92486760Y-43043843D01*
X92240198Y-43208590D01*
X89877598Y-45571190D01*
X89712851Y-45817752D01*
X89654999Y-46108591D01*
X89654999Y-60950999D01*
X89712851Y-61241838D01*
X89877598Y-61488400D01*
X94744000Y-66354802D01*
X94744000Y-70297198D01*
X91086598Y-73954600D01*
X90921851Y-74201162D01*
X90863999Y-74492001D01*
X90863999Y-76956571D01*
X90424000Y-76869050D01*
X89721776Y-77008731D01*
X89126459Y-77406509D01*
X88728681Y-78001826D01*
X88589000Y-78704050D01*
X88589000Y-78775950D01*
X88728681Y-79478174D01*
X89126459Y-80073491D01*
X89721776Y-80471269D01*
X90424000Y-80610950D01*
X91126224Y-80471269D01*
X91721541Y-80073491D01*
X92119319Y-79478174D01*
X92259000Y-78775950D01*
X92259000Y-78704050D01*
X92138840Y-78099962D01*
X92161400Y-78077402D01*
X92326147Y-77830840D01*
X92383999Y-77540001D01*
X92383999Y-74806803D01*
X96041401Y-71149401D01*
X96206148Y-70902839D01*
X96264000Y-70612000D01*
X96264000Y-66040000D01*
X96206148Y-65749161D01*
X96041401Y-65502599D01*
X95977946Y-65439144D01*
X96010000Y-65278000D01*
X96010000Y-60785329D01*
X97767284Y-60785329D01*
X97910203Y-61130396D01*
X98257337Y-61518764D01*
X98726669Y-61744727D01*
X98933000Y-61622206D01*
X98933000Y-60579000D01*
X99187000Y-60579000D01*
X99187000Y-61622206D01*
X99393331Y-61744727D01*
X99862663Y-61518764D01*
X100209797Y-61130396D01*
X100352716Y-60785329D01*
X100229374Y-60579000D01*
X99187000Y-60579000D01*
X98933000Y-60579000D01*
X97890626Y-60579000D01*
X97767284Y-60785329D01*
X96010000Y-60785329D01*
X96010000Y-60118671D01*
X97767284Y-60118671D01*
X97890626Y-60325000D01*
X98933000Y-60325000D01*
X98933000Y-59281794D01*
X99187000Y-59281794D01*
X99187000Y-60325000D01*
X100229374Y-60325000D01*
X100352716Y-60118671D01*
X100209797Y-59773604D01*
X99862663Y-59385236D01*
X99393331Y-59159273D01*
X99187000Y-59281794D01*
X98933000Y-59281794D01*
X98726669Y-59159273D01*
X98257337Y-59385236D01*
X97910203Y-59773604D01*
X97767284Y-60118671D01*
X96010000Y-60118671D01*
X96010000Y-51002934D01*
X96365481Y-50765409D01*
X96524501Y-50527418D01*
X96882424Y-50917966D01*
X97425258Y-51171046D01*
X97663000Y-51050997D01*
X97663000Y-49807000D01*
X97643000Y-49807000D01*
X97643000Y-49553000D01*
X97663000Y-49553000D01*
X97663000Y-48309003D01*
X97917000Y-48309003D01*
X97917000Y-49553000D01*
X97937000Y-49553000D01*
X97937000Y-49807000D01*
X97917000Y-49807000D01*
X97917000Y-51050997D01*
X98154742Y-51171046D01*
X98697576Y-50917966D01*
X99055499Y-50527418D01*
X99214519Y-50765409D01*
X99712509Y-51098155D01*
X100299928Y-51215000D01*
X100360072Y-51215000D01*
X100947491Y-51098155D01*
X101445481Y-50765409D01*
X101778227Y-50267419D01*
X101895072Y-49680000D01*
X101778227Y-49092581D01*
X101445481Y-48594591D01*
X100947491Y-48261845D01*
X100360072Y-48145000D01*
X100299928Y-48145000D01*
X99712509Y-48261845D01*
X99214519Y-48594591D01*
X99055499Y-48832582D01*
X98697576Y-48442034D01*
X98154742Y-48188954D01*
X97917000Y-48309003D01*
X97663000Y-48309003D01*
X97425258Y-48188954D01*
X96882424Y-48442034D01*
X96524501Y-48832582D01*
X96365481Y-48594591D01*
X95867491Y-48261845D01*
X95280072Y-48145000D01*
X95219928Y-48145000D01*
X94632509Y-48261845D01*
X94211974Y-48542837D01*
X94074090Y-48328559D01*
X93861890Y-48183569D01*
X93610000Y-48132560D01*
X93470000Y-48132560D01*
X93470000Y-47496000D01*
X108905198Y-47496000D01*
X111275010Y-49865812D01*
X111275010Y-53673547D01*
X111175481Y-53524591D01*
X110677491Y-53191845D01*
X110090072Y-53075000D01*
X110029928Y-53075000D01*
X109442509Y-53191845D01*
X108944519Y-53524591D01*
X108727088Y-53850000D01*
X104902000Y-53850000D01*
X104611160Y-53907852D01*
X104364599Y-54072599D01*
X102078599Y-56358599D01*
X101913852Y-56605161D01*
X101856000Y-56896000D01*
X101856000Y-69789198D01*
X101793198Y-69852000D01*
X99568000Y-69852000D01*
X99277161Y-69909852D01*
X99030599Y-70074599D01*
X94966599Y-74138599D01*
X94801852Y-74385161D01*
X94744000Y-74676000D01*
X94744000Y-81981198D01*
X93157198Y-83568000D01*
X90424000Y-83568000D01*
X90133161Y-83625852D01*
X89886599Y-83790599D01*
X89721852Y-84037161D01*
X89664000Y-84328000D01*
X89664000Y-97388552D01*
X89385914Y-97503455D01*
X88869270Y-98019199D01*
X88752671Y-98300000D01*
X84475448Y-98300000D01*
X84360545Y-98021914D01*
X83844801Y-97505270D01*
X83170605Y-97225319D01*
X82440597Y-97224682D01*
X81765914Y-97503455D01*
X81249270Y-98019199D01*
X80969319Y-98693395D01*
X80968682Y-99423403D01*
X81247455Y-100098086D01*
X81480962Y-100332000D01*
X75498802Y-100332000D01*
X74928000Y-99761198D01*
X74928000Y-91831440D01*
X74968000Y-91831440D01*
X75203317Y-91787162D01*
X75419441Y-91648090D01*
X75564431Y-91435890D01*
X75615440Y-91184000D01*
X75615440Y-89584000D01*
X75571162Y-89348683D01*
X75432090Y-89132559D01*
X75219890Y-88987569D01*
X74981799Y-88939354D01*
X74996139Y-88891745D01*
X74168000Y-88063605D01*
X73339861Y-88891745D01*
X73354145Y-88939167D01*
X73132683Y-88980838D01*
X72916559Y-89119910D01*
X72771569Y-89332110D01*
X72720560Y-89584000D01*
X60654000Y-89584000D01*
X60654000Y-88714735D01*
X66880870Y-88714735D01*
X66930383Y-88940164D01*
X67395036Y-89099807D01*
X67885413Y-89069482D01*
X68197617Y-88940164D01*
X68247130Y-88714735D01*
X67564000Y-88031605D01*
X66880870Y-88714735D01*
X60654000Y-88714735D01*
X60654000Y-87683036D01*
X66316193Y-87683036D01*
X66346518Y-88173413D01*
X66475836Y-88485617D01*
X66701265Y-88535130D01*
X67384395Y-87852000D01*
X67370253Y-87837858D01*
X67549858Y-87658253D01*
X67564000Y-87672395D01*
X67578143Y-87658253D01*
X67757748Y-87837858D01*
X67743605Y-87852000D01*
X68426735Y-88535130D01*
X68652164Y-88485617D01*
X68811807Y-88020964D01*
X68789932Y-87667223D01*
X72721035Y-87667223D01*
X72748222Y-88237454D01*
X72914136Y-88638005D01*
X73160255Y-88712139D01*
X73988395Y-87884000D01*
X74347605Y-87884000D01*
X75175745Y-88712139D01*
X75421864Y-88638005D01*
X75614965Y-88100777D01*
X75587778Y-87530546D01*
X75421864Y-87129995D01*
X75175745Y-87055861D01*
X74347605Y-87884000D01*
X73988395Y-87884000D01*
X73160255Y-87055861D01*
X72914136Y-87129995D01*
X72721035Y-87667223D01*
X68789932Y-87667223D01*
X68781482Y-87530587D01*
X68652164Y-87218383D01*
X68426737Y-87168871D01*
X68542430Y-87053178D01*
X68487603Y-86998351D01*
X68615441Y-86916090D01*
X68642659Y-86876255D01*
X73339861Y-86876255D01*
X74168000Y-87704395D01*
X74996139Y-86876255D01*
X74922005Y-86630136D01*
X74384777Y-86437035D01*
X73814546Y-86464222D01*
X73413995Y-86630136D01*
X73339861Y-86876255D01*
X68642659Y-86876255D01*
X68760431Y-86703890D01*
X68811440Y-86452000D01*
X68811440Y-85252000D01*
X68767162Y-85016683D01*
X68628090Y-84800559D01*
X68415890Y-84655569D01*
X68324000Y-84636961D01*
X68324000Y-81086802D01*
X69910802Y-79500000D01*
X81123265Y-79500000D01*
X81506459Y-80073491D01*
X82101776Y-80471269D01*
X82804000Y-80610950D01*
X83506224Y-80471269D01*
X84101541Y-80073491D01*
X84499319Y-79478174D01*
X84639000Y-78775950D01*
X84639000Y-78704050D01*
X84499319Y-78001826D01*
X84101541Y-77406509D01*
X83506224Y-77008731D01*
X82804000Y-76869050D01*
X82101776Y-77008731D01*
X81506459Y-77406509D01*
X81123265Y-77980000D01*
X69596000Y-77980000D01*
X69305161Y-78037852D01*
X69058599Y-78202599D01*
X67026599Y-80234599D01*
X66861852Y-80481161D01*
X66804000Y-80772000D01*
X66804000Y-84634666D01*
X66728683Y-84648838D01*
X66512559Y-84787910D01*
X66367569Y-85000110D01*
X66316560Y-85252000D01*
X66316560Y-86452000D01*
X66360838Y-86687317D01*
X66499910Y-86903441D01*
X66639755Y-86998993D01*
X66585570Y-87053178D01*
X66701263Y-87168871D01*
X66475836Y-87218383D01*
X66316193Y-87683036D01*
X60654000Y-87683036D01*
X60654000Y-43757931D01*
X61713791Y-38430000D01*
X109328275Y-38430000D01*
X109509822Y-39342700D01*
X110026825Y-40116450D01*
X110800575Y-40633453D01*
X111713275Y-40815000D01*
X111806725Y-40815000D01*
X112719425Y-40633453D01*
X113493175Y-40116450D01*
X114010178Y-39342700D01*
X114191725Y-38430000D01*
X114010178Y-37517300D01*
X113493175Y-36743550D01*
X112719425Y-36226547D01*
X111806725Y-36045000D01*
X111713275Y-36045000D01*
X110800575Y-36226547D01*
X110026825Y-36743550D01*
X109509822Y-37517300D01*
X109328275Y-38430000D01*
X61713791Y-38430000D01*
X61888889Y-37549723D01*
X64915552Y-33020000D01*
X94088275Y-33020000D01*
X94269822Y-33932700D01*
X94786825Y-34706450D01*
X95560575Y-35223453D01*
X96473275Y-35405000D01*
X96566725Y-35405000D01*
X97479425Y-35223453D01*
X98253175Y-34706450D01*
X98770178Y-33932700D01*
X98951725Y-33020000D01*
X125076275Y-33020000D01*
X125257822Y-33932700D01*
X125774825Y-34706450D01*
X126548575Y-35223453D01*
X127461275Y-35405000D01*
X127554725Y-35405000D01*
X128467425Y-35223453D01*
X129241175Y-34706450D01*
X129758178Y-33932700D01*
X129939725Y-33020000D01*
X129758178Y-32107300D01*
X129241175Y-31333550D01*
X128467425Y-30816547D01*
X127554725Y-30635000D01*
X127461275Y-30635000D01*
X126548575Y-30816547D01*
X125774825Y-31333550D01*
X125257822Y-32107300D01*
X125076275Y-33020000D01*
X98951725Y-33020000D01*
X98770178Y-32107300D01*
X98253175Y-31333550D01*
X97479425Y-30816547D01*
X96566725Y-30635000D01*
X96473275Y-30635000D01*
X95560575Y-30816547D01*
X94786825Y-31333550D01*
X94269822Y-32107300D01*
X94088275Y-33020000D01*
X64915552Y-33020000D01*
X65365943Y-32345943D01*
X70569722Y-28868890D01*
X76777931Y-27634000D01*
X158426069Y-27634000D01*
X165023083Y-28946227D01*
G36*
X165023083Y-28946227D02*
X170556478Y-32643522D01*
X174253772Y-38176918D01*
X175566000Y-44773931D01*
X175566000Y-120834069D01*
X174331110Y-127042278D01*
X170854057Y-132246057D01*
X165650277Y-135723111D01*
X159442069Y-136958000D01*
X76777931Y-136958000D01*
X71602747Y-135928592D01*
X69949271Y-135308538D01*
X66928596Y-133290188D01*
X64321812Y-130683404D01*
X62242504Y-127571500D01*
X61748498Y-126336484D01*
X60654000Y-120834069D01*
X60654000Y-118999000D01*
X107675000Y-118999000D01*
X107675000Y-119989000D01*
X107847297Y-120601193D01*
X108240754Y-121100851D01*
X108795472Y-121411905D01*
X108921135Y-121442218D01*
X109173000Y-121322740D01*
X109173000Y-118999000D01*
X109427000Y-118999000D01*
X109427000Y-121322740D01*
X109678865Y-121442218D01*
X109804528Y-121411905D01*
X110359246Y-121100851D01*
X110752703Y-120601193D01*
X110925000Y-119989000D01*
X110925000Y-118999000D01*
X109427000Y-118999000D01*
X109173000Y-118999000D01*
X107675000Y-118999000D01*
X60654000Y-118999000D01*
X60654000Y-117755000D01*
X107675000Y-117755000D01*
X107675000Y-118745000D01*
X109173000Y-118745000D01*
X109173000Y-116421260D01*
X109427000Y-116421260D01*
X109427000Y-118745000D01*
X110925000Y-118745000D01*
X110925000Y-117755000D01*
X110752703Y-117142807D01*
X110555205Y-116892000D01*
X112662560Y-116892000D01*
X112662560Y-120852000D01*
X112706838Y-121087317D01*
X112845910Y-121303441D01*
X113058110Y-121448431D01*
X113310000Y-121499440D01*
X115290000Y-121499440D01*
X115525317Y-121455162D01*
X115741441Y-121316090D01*
X115886431Y-121103890D01*
X115937440Y-120852000D01*
X115937440Y-119632000D01*
X117033198Y-119632000D01*
X132558599Y-135157401D01*
X132805160Y-135322148D01*
X133096000Y-135380000D01*
X159004000Y-135380000D01*
X159294839Y-135322148D01*
X159541401Y-135157401D01*
X164113401Y-130585401D01*
X164278148Y-130338840D01*
X164287746Y-130290586D01*
X164336000Y-130048000D01*
X164336000Y-107215448D01*
X164614086Y-107100545D01*
X165130730Y-106584801D01*
X165410681Y-105910605D01*
X165411318Y-105180597D01*
X165132545Y-104505914D01*
X164616801Y-103989270D01*
X163942605Y-103709319D01*
X163212597Y-103708682D01*
X162537914Y-103987455D01*
X162021270Y-104503199D01*
X161741319Y-105177395D01*
X161740682Y-105907403D01*
X162019455Y-106582086D01*
X162535199Y-107098730D01*
X162816000Y-107215329D01*
X162816000Y-129733198D01*
X158689198Y-133860000D01*
X133410802Y-133860000D01*
X117885401Y-118334599D01*
X117638839Y-118169852D01*
X117348000Y-118112000D01*
X115937440Y-118112000D01*
X115937440Y-116892000D01*
X115893162Y-116656683D01*
X115754090Y-116440559D01*
X115541890Y-116295569D01*
X115290000Y-116244560D01*
X113310000Y-116244560D01*
X113074683Y-116288838D01*
X112858559Y-116427910D01*
X112713569Y-116640110D01*
X112662560Y-116892000D01*
X110555205Y-116892000D01*
X110359246Y-116643149D01*
X109804528Y-116332095D01*
X109678865Y-116301782D01*
X109427000Y-116421260D01*
X109173000Y-116421260D01*
X108921135Y-116301782D01*
X108795472Y-116332095D01*
X108240754Y-116643149D01*
X107847297Y-117142807D01*
X107675000Y-117755000D01*
X60654000Y-117755000D01*
X60654000Y-113258769D01*
X92435000Y-113258769D01*
X92435000Y-115341231D01*
X92558696Y-115963092D01*
X92910951Y-116490280D01*
X93438139Y-116842535D01*
X94060000Y-116966231D01*
X94681861Y-116842535D01*
X95209049Y-116490280D01*
X95561304Y-115963092D01*
X95685000Y-115341231D01*
X95685000Y-114585750D01*
X97435000Y-114585750D01*
X97435000Y-116406310D01*
X97531673Y-116639699D01*
X97710302Y-116818327D01*
X97943691Y-116915000D01*
X98774250Y-116915000D01*
X98933000Y-116756250D01*
X98933000Y-114427000D01*
X99187000Y-114427000D01*
X99187000Y-116756250D01*
X99345750Y-116915000D01*
X100176309Y-116915000D01*
X100409698Y-116818327D01*
X100588327Y-116639699D01*
X100685000Y-116406310D01*
X100685000Y-114935000D01*
X123851000Y-114935000D01*
X123851000Y-115925000D01*
X124023297Y-116537193D01*
X124416754Y-117036851D01*
X124971472Y-117347905D01*
X125097135Y-117378218D01*
X125349000Y-117258740D01*
X125349000Y-114935000D01*
X125603000Y-114935000D01*
X125603000Y-117258740D01*
X125854865Y-117378218D01*
X125980528Y-117347905D01*
X126535246Y-117036851D01*
X126928703Y-116537193D01*
X127101000Y-115925000D01*
X127101000Y-114935000D01*
X125603000Y-114935000D01*
X125349000Y-114935000D01*
X123851000Y-114935000D01*
X100685000Y-114935000D01*
X100685000Y-114585750D01*
X100526250Y-114427000D01*
X99187000Y-114427000D01*
X98933000Y-114427000D01*
X97593750Y-114427000D01*
X97435000Y-114585750D01*
X95685000Y-114585750D01*
X95685000Y-113258769D01*
X95561304Y-112636908D01*
X95265156Y-112193690D01*
X97435000Y-112193690D01*
X97435000Y-114014250D01*
X97593750Y-114173000D01*
X98933000Y-114173000D01*
X98933000Y-111843750D01*
X99187000Y-111843750D01*
X99187000Y-114173000D01*
X100526250Y-114173000D01*
X100685000Y-114014250D01*
X100685000Y-113691000D01*
X123851000Y-113691000D01*
X123851000Y-114681000D01*
X125349000Y-114681000D01*
X125349000Y-112357260D01*
X125603000Y-112357260D01*
X125603000Y-114681000D01*
X127101000Y-114681000D01*
X127101000Y-113691000D01*
X126928703Y-113078807D01*
X126535246Y-112579149D01*
X125980528Y-112268095D01*
X125854865Y-112237782D01*
X125603000Y-112357260D01*
X125349000Y-112357260D01*
X125097135Y-112237782D01*
X124971472Y-112268095D01*
X124416754Y-112579149D01*
X124023297Y-113078807D01*
X123851000Y-113691000D01*
X100685000Y-113691000D01*
X100685000Y-112193690D01*
X100588327Y-111960301D01*
X100409698Y-111781673D01*
X100176309Y-111685000D01*
X99345750Y-111685000D01*
X99187000Y-111843750D01*
X98933000Y-111843750D01*
X98774250Y-111685000D01*
X97943691Y-111685000D01*
X97710302Y-111781673D01*
X97531673Y-111960301D01*
X97435000Y-112193690D01*
X95265156Y-112193690D01*
X95209049Y-112109720D01*
X94820000Y-111849766D01*
X94820000Y-104900000D01*
X108204000Y-104900000D01*
X108494839Y-104842148D01*
X108741401Y-104677401D01*
X110265401Y-103153401D01*
X110430148Y-102906840D01*
X110449381Y-102810148D01*
X110488000Y-102616000D01*
X110488000Y-99282646D01*
X110539800Y-99261243D01*
X110943824Y-98857923D01*
X111162750Y-98330691D01*
X111163248Y-97759813D01*
X110945243Y-97232200D01*
X110541923Y-96828176D01*
X110014691Y-96609250D01*
X109443813Y-96608752D01*
X108916200Y-96826757D01*
X108512176Y-97230077D01*
X108293250Y-97757309D01*
X108292752Y-98328187D01*
X108510757Y-98855800D01*
X108914077Y-99259824D01*
X108968000Y-99282215D01*
X108968000Y-102301198D01*
X107889198Y-103380000D01*
X94488000Y-103380000D01*
X94245414Y-103428254D01*
X94197160Y-103437852D01*
X93950599Y-103602599D01*
X93522599Y-104030599D01*
X93357852Y-104277161D01*
X93300000Y-104568000D01*
X93300000Y-111849766D01*
X92910951Y-112109720D01*
X92558696Y-112636908D01*
X92435000Y-113258769D01*
X60654000Y-113258769D01*
X60654000Y-89584000D01*
X72720560Y-89584000D01*
X72720560Y-91184000D01*
X72764838Y-91419317D01*
X72903910Y-91635441D01*
X73116110Y-91780431D01*
X73368000Y-91831440D01*
X73408000Y-91831440D01*
X73408000Y-100076000D01*
X73465852Y-100366839D01*
X73630599Y-100613401D01*
X74646599Y-101629401D01*
X74893161Y-101794148D01*
X75184000Y-101852000D01*
X97379265Y-101852000D01*
X97762459Y-102425491D01*
X98357776Y-102823269D01*
X99060000Y-102962950D01*
X99762224Y-102823269D01*
X100357541Y-102425491D01*
X100740735Y-101852000D01*
X103124000Y-101852000D01*
X103414839Y-101794148D01*
X103661401Y-101629401D01*
X104677401Y-100613401D01*
X104842148Y-100366839D01*
X104900000Y-100076000D01*
X104900000Y-93786802D01*
X107502802Y-91184000D01*
X111445198Y-91184000D01*
X114556000Y-94294802D01*
X114556000Y-99060000D01*
X114613852Y-99350839D01*
X114778599Y-99597401D01*
X115794599Y-100613401D01*
X116041161Y-100778148D01*
X116332000Y-100836000D01*
X118216552Y-100836000D01*
X118331455Y-101114086D01*
X118847199Y-101630730D01*
X119521395Y-101910681D01*
X120251403Y-101911318D01*
X120926086Y-101632545D01*
X121442730Y-101116801D01*
X121453859Y-101090000D01*
X126589265Y-101090000D01*
X126972459Y-101663491D01*
X127567776Y-102061269D01*
X128270000Y-102200950D01*
X128972224Y-102061269D01*
X129567541Y-101663491D01*
X129965319Y-101068174D01*
X130105000Y-100365950D01*
X130105000Y-100294050D01*
X130097381Y-100255745D01*
X136839861Y-100255745D01*
X136913995Y-100501864D01*
X137451223Y-100694965D01*
X138021454Y-100667778D01*
X138243640Y-100575745D01*
X147507861Y-100575745D01*
X147581995Y-100821864D01*
X148119223Y-101014965D01*
X148689454Y-100987778D01*
X149090005Y-100821864D01*
X149164139Y-100575745D01*
X148336000Y-99747605D01*
X147507861Y-100575745D01*
X138243640Y-100575745D01*
X138422005Y-100501864D01*
X138496139Y-100255745D01*
X137668000Y-99427605D01*
X136839861Y-100255745D01*
X130097381Y-100255745D01*
X129965319Y-99591826D01*
X129590737Y-99031223D01*
X136221035Y-99031223D01*
X136248222Y-99601454D01*
X136414136Y-100002005D01*
X136660255Y-100076139D01*
X137488395Y-99248000D01*
X137847605Y-99248000D01*
X138675745Y-100076139D01*
X138921864Y-100002005D01*
X139114965Y-99464777D01*
X139109552Y-99351223D01*
X146889035Y-99351223D01*
X146916222Y-99921454D01*
X147082136Y-100322005D01*
X147328255Y-100396139D01*
X148156395Y-99568000D01*
X148515605Y-99568000D01*
X149343745Y-100396139D01*
X149589864Y-100322005D01*
X149782965Y-99784777D01*
X149755778Y-99214546D01*
X149589864Y-98813995D01*
X149343745Y-98739861D01*
X148515605Y-99568000D01*
X148156395Y-99568000D01*
X147328255Y-98739861D01*
X147082136Y-98813995D01*
X146889035Y-99351223D01*
X139109552Y-99351223D01*
X139087778Y-98894546D01*
X138949310Y-98560255D01*
X147507861Y-98560255D01*
X148336000Y-99388395D01*
X149164139Y-98560255D01*
X149090005Y-98314136D01*
X148552777Y-98121035D01*
X147982546Y-98148222D01*
X147581995Y-98314136D01*
X147507861Y-98560255D01*
X138949310Y-98560255D01*
X138921864Y-98493995D01*
X138675745Y-98419861D01*
X137847605Y-99248000D01*
X137488395Y-99248000D01*
X136660255Y-98419861D01*
X136414136Y-98493995D01*
X136221035Y-99031223D01*
X129590737Y-99031223D01*
X129567541Y-98996509D01*
X128972224Y-98598731D01*
X128270000Y-98459050D01*
X127567776Y-98598731D01*
X126972459Y-98996509D01*
X126589265Y-99570000D01*
X121664398Y-99570000D01*
X121444545Y-99037914D01*
X120928801Y-98521270D01*
X120254605Y-98241319D01*
X119524597Y-98240682D01*
X118849914Y-98519455D01*
X118333270Y-99035199D01*
X118216671Y-99316000D01*
X116646802Y-99316000D01*
X116076000Y-98745198D01*
X116076000Y-98240255D01*
X136839861Y-98240255D01*
X137668000Y-99068395D01*
X138496139Y-98240255D01*
X138422005Y-97994136D01*
X137884777Y-97801035D01*
X137314546Y-97828222D01*
X136913995Y-97994136D01*
X136839861Y-98240255D01*
X116076000Y-98240255D01*
X116076000Y-93980000D01*
X116018148Y-93689161D01*
X116018148Y-93689160D01*
X115853401Y-93442599D01*
X112297401Y-89886599D01*
X112050839Y-89721852D01*
X111760000Y-89664000D01*
X107188000Y-89664000D01*
X106897161Y-89721852D01*
X106650599Y-89886599D01*
X103602599Y-92934599D01*
X103437852Y-93181161D01*
X103380000Y-93472000D01*
X103380000Y-99761198D01*
X102809198Y-100332000D01*
X100740735Y-100332000D01*
X100357541Y-99758509D01*
X99762224Y-99360731D01*
X99060000Y-99221050D01*
X98357776Y-99360731D01*
X97762459Y-99758509D01*
X97379265Y-100332000D01*
X91747128Y-100332000D01*
X91978730Y-100100801D01*
X92258681Y-99426605D01*
X92259318Y-98696597D01*
X91980545Y-98021914D01*
X91464801Y-97505270D01*
X91184000Y-97388671D01*
X91184000Y-85088000D01*
X93472000Y-85088000D01*
X93762839Y-85030148D01*
X94009401Y-84865401D01*
X96041401Y-82833401D01*
X96206148Y-82586839D01*
X96264000Y-82296000D01*
X96264000Y-76055403D01*
X97224682Y-76055403D01*
X97503455Y-76730086D01*
X98019199Y-77246730D01*
X98693395Y-77526681D01*
X99423403Y-77527318D01*
X99704407Y-77411209D01*
X100874599Y-78581401D01*
X101121160Y-78746148D01*
X101412000Y-78804000D01*
X108524333Y-78804000D01*
X108713302Y-79086811D01*
X109178849Y-79397880D01*
X109728000Y-79507113D01*
X110277151Y-79397880D01*
X110742698Y-79086811D01*
X111053767Y-78621264D01*
X111163000Y-78072113D01*
X111163000Y-78015887D01*
X111053767Y-77466736D01*
X110742698Y-77001189D01*
X110277151Y-76690120D01*
X109728000Y-76580887D01*
X109178849Y-76690120D01*
X108713302Y-77001189D01*
X108524333Y-77284000D01*
X101726802Y-77284000D01*
X100779293Y-76336491D01*
X100894681Y-76058605D01*
X100895318Y-75328597D01*
X100863669Y-75252001D01*
X105339999Y-75252001D01*
X105630838Y-75194149D01*
X105789990Y-75087807D01*
X118099797Y-75087807D01*
X118393508Y-75740776D01*
X118914742Y-76231642D01*
X119476195Y-76464195D01*
X119761000Y-76347432D01*
X119761000Y-74803000D01*
X120015000Y-74803000D01*
X120015000Y-76347432D01*
X120299805Y-76464195D01*
X120861258Y-76231642D01*
X121382492Y-75740776D01*
X121676203Y-75087807D01*
X121559858Y-74803000D01*
X120015000Y-74803000D01*
X119761000Y-74803000D01*
X118216142Y-74803000D01*
X118099797Y-75087807D01*
X105789990Y-75087807D01*
X105877400Y-75029402D01*
X106642609Y-74264193D01*
X118099797Y-74264193D01*
X118216142Y-74549000D01*
X119761000Y-74549000D01*
X119761000Y-73004568D01*
X120015000Y-73004568D01*
X120015000Y-74549000D01*
X121559858Y-74549000D01*
X121676203Y-74264193D01*
X121382492Y-73611224D01*
X120861258Y-73120358D01*
X120299805Y-72887805D01*
X120015000Y-73004568D01*
X119761000Y-73004568D01*
X119476195Y-72887805D01*
X118914742Y-73120358D01*
X118393508Y-73611224D01*
X118099797Y-74264193D01*
X106642609Y-74264193D01*
X108897401Y-72009401D01*
X109062148Y-71762840D01*
X109120000Y-71472000D01*
X109120000Y-59957440D01*
X109260000Y-59957440D01*
X109495317Y-59913162D01*
X109711441Y-59774090D01*
X109856431Y-59561890D01*
X109907440Y-59310000D01*
X109907440Y-57510000D01*
X109863162Y-57274683D01*
X109724090Y-57058559D01*
X109511890Y-56913569D01*
X109260000Y-56862560D01*
X107460000Y-56862560D01*
X107224683Y-56906838D01*
X107008559Y-57045910D01*
X106863569Y-57258110D01*
X106812560Y-57510000D01*
X106812560Y-59310000D01*
X106856838Y-59545317D01*
X106995910Y-59761441D01*
X107208110Y-59906431D01*
X107460000Y-59957440D01*
X107600000Y-59957440D01*
X107600000Y-71157198D01*
X105025197Y-73732001D01*
X100259999Y-73732001D01*
X99969160Y-73789853D01*
X99722598Y-73954600D01*
X99704491Y-73972707D01*
X99426605Y-73857319D01*
X98696597Y-73856682D01*
X98021914Y-74135455D01*
X97505270Y-74651199D01*
X97225319Y-75325395D01*
X97224682Y-76055403D01*
X96264000Y-76055403D01*
X96264000Y-74990802D01*
X99882802Y-71372000D01*
X102108000Y-71372000D01*
X102398839Y-71314148D01*
X102645401Y-71149401D01*
X103153401Y-70641401D01*
X103318147Y-70394840D01*
X103318148Y-70394839D01*
X103376000Y-70104000D01*
X103376000Y-57210802D01*
X105216802Y-55370000D01*
X108727088Y-55370000D01*
X108944519Y-55695409D01*
X109442509Y-56028155D01*
X110029928Y-56145000D01*
X110090072Y-56145000D01*
X110677491Y-56028155D01*
X111175481Y-55695409D01*
X111275010Y-55546453D01*
X111275010Y-56965489D01*
X111142509Y-56991845D01*
X110644519Y-57324591D01*
X110311773Y-57822581D01*
X110194928Y-58410000D01*
X110311773Y-58997419D01*
X110644519Y-59495409D01*
X111000000Y-59732934D01*
X111000000Y-64293354D01*
X110948200Y-64314757D01*
X110544176Y-64718077D01*
X110325250Y-65245309D01*
X110324752Y-65816187D01*
X110542757Y-66343800D01*
X110946077Y-66747824D01*
X111473309Y-66966750D01*
X112044187Y-66967248D01*
X112571800Y-66749243D01*
X112975824Y-66345923D01*
X113194750Y-65818691D01*
X113195248Y-65247813D01*
X112977243Y-64720200D01*
X112573923Y-64316176D01*
X112520000Y-64293785D01*
X112520000Y-59732934D01*
X112875481Y-59495409D01*
X113208227Y-58997419D01*
X113325072Y-58410000D01*
X113208227Y-57822581D01*
X112875481Y-57324591D01*
X112795010Y-57270822D01*
X112795010Y-55996417D01*
X112842509Y-56028155D01*
X113429928Y-56145000D01*
X113490072Y-56145000D01*
X114077491Y-56028155D01*
X114575481Y-55695409D01*
X114908227Y-55197419D01*
X115025072Y-54610000D01*
X114908227Y-54022581D01*
X114575481Y-53524591D01*
X114220000Y-53287066D01*
X114220000Y-45350802D01*
X115122802Y-44448000D01*
X154117198Y-44448000D01*
X154688000Y-45018802D01*
X154688000Y-49760560D01*
X153532000Y-49760560D01*
X153296683Y-49804838D01*
X153080559Y-49943910D01*
X152935569Y-50156110D01*
X152884560Y-50408000D01*
X152884560Y-52208000D01*
X152928838Y-52443317D01*
X153049839Y-52631359D01*
X152085198Y-53596000D01*
X133768802Y-53596000D01*
X131845542Y-51672740D01*
X142780964Y-51672740D01*
X142959760Y-52104417D01*
X143364424Y-52545966D01*
X143907258Y-52799046D01*
X144145000Y-52678997D01*
X144145000Y-51435000D01*
X144399000Y-51435000D01*
X144399000Y-52678997D01*
X144636742Y-52799046D01*
X145179576Y-52545966D01*
X145584240Y-52104417D01*
X145763036Y-51672740D01*
X145642378Y-51435000D01*
X144399000Y-51435000D01*
X144145000Y-51435000D01*
X142901622Y-51435000D01*
X142780964Y-51672740D01*
X131845542Y-51672740D01*
X131381210Y-51208408D01*
X131935491Y-51098155D01*
X132167307Y-50943260D01*
X142780964Y-50943260D01*
X142901622Y-51181000D01*
X144145000Y-51181000D01*
X144145000Y-49937003D01*
X144399000Y-49937003D01*
X144399000Y-51181000D01*
X145642378Y-51181000D01*
X145763036Y-50943260D01*
X145584240Y-50511583D01*
X145179576Y-50070034D01*
X144636742Y-49816954D01*
X144399000Y-49937003D01*
X144145000Y-49937003D01*
X143907258Y-49816954D01*
X143364424Y-50070034D01*
X142959760Y-50511583D01*
X142780964Y-50943260D01*
X132167307Y-50943260D01*
X132433481Y-50765409D01*
X132766227Y-50267419D01*
X132883072Y-49680000D01*
X132766227Y-49092581D01*
X132433481Y-48594591D01*
X131935491Y-48261845D01*
X131348072Y-48145000D01*
X131287928Y-48145000D01*
X130700509Y-48261845D01*
X130202519Y-48594591D01*
X130048000Y-48825845D01*
X129893481Y-48594591D01*
X129395491Y-48261845D01*
X128808072Y-48145000D01*
X128747928Y-48145000D01*
X128160509Y-48261845D01*
X127662519Y-48594591D01*
X127508000Y-48825845D01*
X127353481Y-48594591D01*
X126855491Y-48261845D01*
X126268072Y-48145000D01*
X126207928Y-48145000D01*
X125620509Y-48261845D01*
X125199974Y-48542837D01*
X125062090Y-48328559D01*
X124849890Y-48183569D01*
X124598000Y-48132560D01*
X122798000Y-48132560D01*
X122562683Y-48176838D01*
X122346559Y-48315910D01*
X122201569Y-48528110D01*
X122150560Y-48780000D01*
X122150560Y-50580000D01*
X122194838Y-50815317D01*
X122333910Y-51031441D01*
X122546110Y-51176431D01*
X122798000Y-51227440D01*
X122938000Y-51227440D01*
X122938000Y-57650000D01*
X116492912Y-57650000D01*
X116275481Y-57324591D01*
X115777491Y-56991845D01*
X115190072Y-56875000D01*
X115129928Y-56875000D01*
X114542509Y-56991845D01*
X114044519Y-57324591D01*
X113711773Y-57822581D01*
X113594928Y-58410000D01*
X113711773Y-58997419D01*
X114044519Y-59495409D01*
X114542509Y-59828155D01*
X115129928Y-59945000D01*
X115190072Y-59945000D01*
X115777491Y-59828155D01*
X116275481Y-59495409D01*
X116492912Y-59170000D01*
X129215198Y-59170000D01*
X131000000Y-60954802D01*
X131000000Y-64328333D01*
X130717189Y-64517302D01*
X130406120Y-64982849D01*
X130296887Y-65532000D01*
X130406120Y-66081151D01*
X130717189Y-66546698D01*
X131182736Y-66857767D01*
X131731887Y-66967000D01*
X131788113Y-66967000D01*
X132337264Y-66857767D01*
X132489727Y-66755894D01*
X132558839Y-66742147D01*
X132805401Y-66577401D01*
X132970147Y-66330839D01*
X132979940Y-66281606D01*
X133113880Y-66081151D01*
X133223113Y-65532000D01*
X133113880Y-64982849D01*
X132802811Y-64517302D01*
X132520000Y-64328333D01*
X132520000Y-61400000D01*
X135001198Y-61400000D01*
X136354355Y-62753157D01*
X136306846Y-62992000D01*
X136408467Y-63502882D01*
X136697858Y-63935988D01*
X137130964Y-64225379D01*
X137641846Y-64327000D01*
X137694154Y-64327000D01*
X138205036Y-64225379D01*
X138638142Y-63935988D01*
X138927533Y-63502882D01*
X139029154Y-62992000D01*
X138927533Y-62481118D01*
X138638142Y-62048012D01*
X138205036Y-61758621D01*
X137694154Y-61657000D01*
X137641846Y-61657000D01*
X137446632Y-61695830D01*
X135853401Y-60102599D01*
X135606839Y-59937852D01*
X135316000Y-59880000D01*
X132074802Y-59880000D01*
X130067401Y-57872599D01*
X129820839Y-57707852D01*
X129530000Y-57650000D01*
X124458000Y-57650000D01*
X124458000Y-51227440D01*
X124598000Y-51227440D01*
X124833317Y-51183162D01*
X125049441Y-51044090D01*
X125194431Y-50831890D01*
X125197719Y-50815656D01*
X125620509Y-51098155D01*
X126207928Y-51215000D01*
X126268072Y-51215000D01*
X126626835Y-51143637D01*
X134440599Y-58957401D01*
X134687161Y-59122148D01*
X134978000Y-59180000D01*
X143740560Y-59180000D01*
X143740560Y-59320000D01*
X143784838Y-59555317D01*
X143923910Y-59771441D01*
X144136110Y-59916431D01*
X144388000Y-59967440D01*
X144503000Y-59967440D01*
X144503000Y-61889301D01*
X144156902Y-62234796D01*
X143953232Y-62725287D01*
X143952769Y-63256383D01*
X144155582Y-63747229D01*
X144503000Y-64095253D01*
X144503000Y-72826842D01*
X143184842Y-74145000D01*
X143002000Y-74145000D01*
X142876318Y-74170000D01*
X129941448Y-74170000D01*
X129826545Y-73891914D01*
X129310801Y-73375270D01*
X128636605Y-73095319D01*
X127906597Y-73094682D01*
X127231914Y-73373455D01*
X126715270Y-73889199D01*
X126435319Y-74563395D01*
X126434682Y-75293403D01*
X126713455Y-75968086D01*
X127229199Y-76484730D01*
X127903395Y-76764681D01*
X128633403Y-76765318D01*
X129308086Y-76486545D01*
X129824730Y-75970801D01*
X129941329Y-75690000D01*
X137924000Y-75690000D01*
X137924000Y-76785828D01*
X137130599Y-77579229D01*
X136965852Y-77825791D01*
X136926725Y-78022493D01*
X136653302Y-78205189D01*
X136342233Y-78670736D01*
X136233000Y-79219887D01*
X136233000Y-79276113D01*
X136342233Y-79825264D01*
X136653302Y-80290811D01*
X137118849Y-80601880D01*
X137668000Y-80711113D01*
X138217151Y-80601880D01*
X138682698Y-80290811D01*
X138871667Y-80008000D01*
X142433198Y-80008000D01*
X143004000Y-80578802D01*
X143004000Y-85344000D01*
X143061852Y-85634839D01*
X143226599Y-85881401D01*
X152148000Y-94802802D01*
X152148000Y-100777198D01*
X151577198Y-101348000D01*
X147828000Y-101348000D01*
X147537161Y-101405852D01*
X147290599Y-101570599D01*
X142433198Y-106428000D01*
X137160000Y-106428000D01*
X136917414Y-106476254D01*
X136869160Y-106485852D01*
X136622599Y-106650599D01*
X135098599Y-108174599D01*
X134933852Y-108421161D01*
X134876000Y-108712000D01*
X134876000Y-112969198D01*
X133797198Y-114048000D01*
X132113440Y-114048000D01*
X132113440Y-112828000D01*
X132069162Y-112592683D01*
X131930090Y-112376559D01*
X131717890Y-112231569D01*
X131466000Y-112180560D01*
X129486000Y-112180560D01*
X129250683Y-112224838D01*
X129034559Y-112363910D01*
X128889569Y-112576110D01*
X128838560Y-112828000D01*
X128838560Y-116788000D01*
X128882838Y-117023317D01*
X129021910Y-117239441D01*
X129234110Y-117384431D01*
X129486000Y-117435440D01*
X131466000Y-117435440D01*
X131701317Y-117391162D01*
X131917441Y-117252090D01*
X132062431Y-117039890D01*
X132113440Y-116788000D01*
X132113440Y-115568000D01*
X133797198Y-115568000D01*
X134368000Y-116138802D01*
X134368000Y-120396000D01*
X134425852Y-120686839D01*
X134590599Y-120933401D01*
X135606599Y-121949401D01*
X135853161Y-122114148D01*
X136144000Y-122172000D01*
X143440560Y-122172000D01*
X143440560Y-122612000D01*
X143484838Y-122847317D01*
X143623910Y-123063441D01*
X143836110Y-123208431D01*
X144088000Y-123259440D01*
X146488000Y-123259440D01*
X146723317Y-123215162D01*
X146939441Y-123076090D01*
X147084431Y-122863890D01*
X147115761Y-122709175D01*
X151670430Y-122709175D01*
X151793565Y-122996788D01*
X152475734Y-123256707D01*
X153205443Y-123235786D01*
X153782435Y-122996788D01*
X153905570Y-122709175D01*
X152788000Y-121591605D01*
X151670430Y-122709175D01*
X147115761Y-122709175D01*
X147135440Y-122612000D01*
X147135440Y-121099734D01*
X150943293Y-121099734D01*
X150964214Y-121829443D01*
X151203212Y-122406435D01*
X151490825Y-122529570D01*
X152608395Y-121412000D01*
X152967605Y-121412000D01*
X154085175Y-122529570D01*
X154372788Y-122406435D01*
X154632707Y-121724266D01*
X154611786Y-120994557D01*
X154372788Y-120417565D01*
X154085175Y-120294430D01*
X152967605Y-121412000D01*
X152608395Y-121412000D01*
X151490825Y-120294430D01*
X151203212Y-120417565D01*
X150943293Y-121099734D01*
X147135440Y-121099734D01*
X147135440Y-120212000D01*
X147117156Y-120114825D01*
X151670430Y-120114825D01*
X152788000Y-121232395D01*
X153905570Y-120114825D01*
X153782435Y-119827212D01*
X153100266Y-119567293D01*
X152370557Y-119588214D01*
X151793565Y-119827212D01*
X151670430Y-120114825D01*
X147117156Y-120114825D01*
X147091162Y-119976683D01*
X146952090Y-119760559D01*
X146739890Y-119615569D01*
X146488000Y-119564560D01*
X144088000Y-119564560D01*
X143852683Y-119608838D01*
X143636559Y-119747910D01*
X143491569Y-119960110D01*
X143440560Y-120212000D01*
X143440560Y-120652000D01*
X136458802Y-120652000D01*
X135888000Y-120081198D01*
X135888000Y-115824000D01*
X135830148Y-115533161D01*
X135665401Y-115286599D01*
X135186802Y-114808000D01*
X136173401Y-113821401D01*
X136338147Y-113574840D01*
X136338148Y-113574839D01*
X136396000Y-113284000D01*
X136396000Y-109026802D01*
X137474802Y-107948000D01*
X142748000Y-107948000D01*
X143038839Y-107890148D01*
X143285401Y-107725401D01*
X148142802Y-102868000D01*
X151892000Y-102868000D01*
X152182839Y-102810148D01*
X152429401Y-102645401D01*
X153445401Y-101629401D01*
X153610148Y-101382839D01*
X153668000Y-101092000D01*
X153668000Y-94488000D01*
X153610148Y-94197161D01*
X153445401Y-93950599D01*
X144524000Y-85029198D01*
X144524000Y-80264000D01*
X144466148Y-79973161D01*
X144301401Y-79726599D01*
X144114689Y-79539887D01*
X146901000Y-79539887D01*
X146901000Y-79596113D01*
X147010233Y-80145264D01*
X147321302Y-80610811D01*
X147786849Y-80921880D01*
X148336000Y-81031113D01*
X148885151Y-80921880D01*
X149350698Y-80610811D01*
X149539667Y-80328000D01*
X155453198Y-80328000D01*
X155704000Y-80578802D01*
X155704000Y-81202922D01*
X155520012Y-81325858D01*
X155230621Y-81758964D01*
X155129000Y-82269846D01*
X155129000Y-82322154D01*
X155230621Y-82833036D01*
X155520012Y-83266142D01*
X155953118Y-83555533D01*
X156464000Y-83657154D01*
X156974882Y-83555533D01*
X157407988Y-83266142D01*
X157697379Y-82833036D01*
X157799000Y-82322154D01*
X157799000Y-82269846D01*
X157697379Y-81758964D01*
X157407988Y-81325858D01*
X157224000Y-81202922D01*
X157224000Y-80264000D01*
X157166148Y-79973161D01*
X157001401Y-79726599D01*
X156305401Y-79030599D01*
X156058839Y-78865852D01*
X155768000Y-78808000D01*
X149539667Y-78808000D01*
X149350698Y-78525189D01*
X148885151Y-78214120D01*
X148336000Y-78104887D01*
X147786849Y-78214120D01*
X147321302Y-78525189D01*
X147010233Y-78990736D01*
X146901000Y-79539887D01*
X144114689Y-79539887D01*
X143285401Y-78710599D01*
X143038839Y-78545852D01*
X142748000Y-78488000D01*
X138871667Y-78488000D01*
X138682698Y-78205189D01*
X138665640Y-78193792D01*
X139221401Y-77638031D01*
X139386148Y-77391469D01*
X139444000Y-77100630D01*
X139444000Y-75690000D01*
X142876318Y-75690000D01*
X143002000Y-75715000D01*
X143510000Y-75715000D01*
X143810407Y-75655245D01*
X144065079Y-75485079D01*
X145843079Y-73707079D01*
X146013245Y-73452406D01*
X146073000Y-73152000D01*
X146073000Y-64094699D01*
X146419098Y-63749204D01*
X146622768Y-63258713D01*
X146623231Y-62727617D01*
X146420418Y-62236771D01*
X146073000Y-61888747D01*
X146073000Y-59967440D01*
X146188000Y-59967440D01*
X146423317Y-59923162D01*
X146639441Y-59784090D01*
X146784431Y-59571890D01*
X146835440Y-59320000D01*
X146835440Y-57520000D01*
X146791162Y-57284683D01*
X146652090Y-57068559D01*
X146439890Y-56923569D01*
X146188000Y-56872560D01*
X144388000Y-56872560D01*
X144152683Y-56916838D01*
X143936559Y-57055910D01*
X143791569Y-57268110D01*
X143740560Y-57520000D01*
X143740560Y-57660000D01*
X135292802Y-57660000D01*
X128841210Y-51208408D01*
X129166835Y-51143637D01*
X132916599Y-54893401D01*
X133163161Y-55058148D01*
X133454000Y-55116000D01*
X152400000Y-55116000D01*
X152690839Y-55058148D01*
X152937401Y-54893401D01*
X154688000Y-53142802D01*
X154688000Y-57097066D01*
X154332519Y-57334591D01*
X153999773Y-57832581D01*
X153882928Y-58420000D01*
X153999773Y-59007419D01*
X154332519Y-59505409D01*
X154688000Y-59742934D01*
X154688000Y-71628000D01*
X154745852Y-71918839D01*
X154910599Y-72165401D01*
X155418599Y-72673401D01*
X155665161Y-72838148D01*
X155956000Y-72896000D01*
X157673198Y-72896000D01*
X159260000Y-74482802D01*
X159260000Y-89156000D01*
X157591655Y-89156000D01*
X157221204Y-88784902D01*
X156730713Y-88581232D01*
X156199617Y-88580769D01*
X155708771Y-88783582D01*
X155332902Y-89158796D01*
X155129232Y-89649287D01*
X155128769Y-90180383D01*
X155331582Y-90671229D01*
X155706796Y-91047098D01*
X156197287Y-91250768D01*
X156728383Y-91251231D01*
X157219229Y-91048418D01*
X157592297Y-90676000D01*
X162245198Y-90676000D01*
X162816000Y-91246802D01*
X162816000Y-96196560D01*
X162376000Y-96196560D01*
X162140683Y-96240838D01*
X161924559Y-96379910D01*
X161779569Y-96592110D01*
X161728560Y-96844000D01*
X161728560Y-99244000D01*
X161772838Y-99479317D01*
X161911910Y-99695441D01*
X162124110Y-99840431D01*
X162376000Y-99891440D01*
X164776000Y-99891440D01*
X165011317Y-99847162D01*
X165227441Y-99708090D01*
X165372431Y-99495890D01*
X165423440Y-99244000D01*
X165423440Y-96844000D01*
X165379162Y-96608683D01*
X165240090Y-96392559D01*
X165027890Y-96247569D01*
X164776000Y-96196560D01*
X164336000Y-96196560D01*
X164336000Y-90932000D01*
X164278148Y-90641161D01*
X164113401Y-90394599D01*
X163097401Y-89378599D01*
X162850839Y-89213852D01*
X162560000Y-89156000D01*
X160780000Y-89156000D01*
X160780000Y-74168000D01*
X160722148Y-73877161D01*
X160557401Y-73630599D01*
X158525401Y-71598599D01*
X158278839Y-71433852D01*
X157988000Y-71376000D01*
X156270802Y-71376000D01*
X156208000Y-71313198D01*
X156208000Y-59742934D01*
X156563481Y-59505409D01*
X156896227Y-59007419D01*
X157013072Y-58420000D01*
X156896227Y-57832581D01*
X156563481Y-57334591D01*
X156208000Y-57097066D01*
X156208000Y-44704000D01*
X156150148Y-44413161D01*
X155985401Y-44166599D01*
X154969401Y-43150599D01*
X154722839Y-42985852D01*
X154432000Y-42928000D01*
X114808000Y-42928000D01*
X114517161Y-42985852D01*
X114270599Y-43150599D01*
X113348205Y-44072993D01*
X112483801Y-43208589D01*
X112237239Y-43043842D01*
X111946400Y-42985990D01*
X92777599Y-42985991D01*
X92486760Y-43043843D01*
X92240198Y-43208590D01*
X89877598Y-45571190D01*
X89712851Y-45817752D01*
X89654999Y-46108591D01*
X89654999Y-60950999D01*
X89712851Y-61241838D01*
X89877598Y-61488400D01*
X94744000Y-66354802D01*
X94744000Y-70297198D01*
X91086598Y-73954600D01*
X90921851Y-74201162D01*
X90863999Y-74492001D01*
X90863999Y-76956571D01*
X90424000Y-76869050D01*
X89721776Y-77008731D01*
X89126459Y-77406509D01*
X88728681Y-78001826D01*
X88589000Y-78704050D01*
X88589000Y-78775950D01*
X88728681Y-79478174D01*
X89126459Y-80073491D01*
X89721776Y-80471269D01*
X90424000Y-80610950D01*
X91126224Y-80471269D01*
X91721541Y-80073491D01*
X92119319Y-79478174D01*
X92259000Y-78775950D01*
X92259000Y-78704050D01*
X92138840Y-78099962D01*
X92161400Y-78077402D01*
X92326147Y-77830840D01*
X92383999Y-77540001D01*
X92383999Y-74806803D01*
X96041401Y-71149401D01*
X96206148Y-70902839D01*
X96264000Y-70612000D01*
X96264000Y-66040000D01*
X96206148Y-65749161D01*
X96041401Y-65502599D01*
X95977946Y-65439144D01*
X96010000Y-65278000D01*
X96010000Y-60785329D01*
X97767284Y-60785329D01*
X97910203Y-61130396D01*
X98257337Y-61518764D01*
X98726669Y-61744727D01*
X98933000Y-61622206D01*
X98933000Y-60579000D01*
X99187000Y-60579000D01*
X99187000Y-61622206D01*
X99393331Y-61744727D01*
X99862663Y-61518764D01*
X100209797Y-61130396D01*
X100352716Y-60785329D01*
X100229374Y-60579000D01*
X99187000Y-60579000D01*
X98933000Y-60579000D01*
X97890626Y-60579000D01*
X97767284Y-60785329D01*
X96010000Y-60785329D01*
X96010000Y-60118671D01*
X97767284Y-60118671D01*
X97890626Y-60325000D01*
X98933000Y-60325000D01*
X98933000Y-59281794D01*
X99187000Y-59281794D01*
X99187000Y-60325000D01*
X100229374Y-60325000D01*
X100352716Y-60118671D01*
X100209797Y-59773604D01*
X99862663Y-59385236D01*
X99393331Y-59159273D01*
X99187000Y-59281794D01*
X98933000Y-59281794D01*
X98726669Y-59159273D01*
X98257337Y-59385236D01*
X97910203Y-59773604D01*
X97767284Y-60118671D01*
X96010000Y-60118671D01*
X96010000Y-51002934D01*
X96365481Y-50765409D01*
X96524501Y-50527418D01*
X96882424Y-50917966D01*
X97425258Y-51171046D01*
X97663000Y-51050997D01*
X97663000Y-49807000D01*
X97643000Y-49807000D01*
X97643000Y-49553000D01*
X97663000Y-49553000D01*
X97663000Y-48309003D01*
X97917000Y-48309003D01*
X97917000Y-49553000D01*
X97937000Y-49553000D01*
X97937000Y-49807000D01*
X97917000Y-49807000D01*
X97917000Y-51050997D01*
X98154742Y-51171046D01*
X98697576Y-50917966D01*
X99055499Y-50527418D01*
X99214519Y-50765409D01*
X99712509Y-51098155D01*
X100299928Y-51215000D01*
X100360072Y-51215000D01*
X100947491Y-51098155D01*
X101445481Y-50765409D01*
X101778227Y-50267419D01*
X101895072Y-49680000D01*
X101778227Y-49092581D01*
X101445481Y-48594591D01*
X100947491Y-48261845D01*
X100360072Y-48145000D01*
X100299928Y-48145000D01*
X99712509Y-48261845D01*
X99214519Y-48594591D01*
X99055499Y-48832582D01*
X98697576Y-48442034D01*
X98154742Y-48188954D01*
X97917000Y-48309003D01*
X97663000Y-48309003D01*
X97425258Y-48188954D01*
X96882424Y-48442034D01*
X96524501Y-48832582D01*
X96365481Y-48594591D01*
X95867491Y-48261845D01*
X95280072Y-48145000D01*
X95219928Y-48145000D01*
X94632509Y-48261845D01*
X94211974Y-48542837D01*
X94074090Y-48328559D01*
X93861890Y-48183569D01*
X93610000Y-48132560D01*
X93470000Y-48132560D01*
X93470000Y-47496000D01*
X108905198Y-47496000D01*
X111275010Y-49865812D01*
X111275010Y-53673547D01*
X111175481Y-53524591D01*
X110677491Y-53191845D01*
X110090072Y-53075000D01*
X110029928Y-53075000D01*
X109442509Y-53191845D01*
X108944519Y-53524591D01*
X108727088Y-53850000D01*
X104902000Y-53850000D01*
X104611160Y-53907852D01*
X104364599Y-54072599D01*
X102078599Y-56358599D01*
X101913852Y-56605161D01*
X101856000Y-56896000D01*
X101856000Y-69789198D01*
X101793198Y-69852000D01*
X99568000Y-69852000D01*
X99277161Y-69909852D01*
X99030599Y-70074599D01*
X94966599Y-74138599D01*
X94801852Y-74385161D01*
X94744000Y-74676000D01*
X94744000Y-81981198D01*
X93157198Y-83568000D01*
X90424000Y-83568000D01*
X90133161Y-83625852D01*
X89886599Y-83790599D01*
X89721852Y-84037161D01*
X89664000Y-84328000D01*
X89664000Y-97388552D01*
X89385914Y-97503455D01*
X88869270Y-98019199D01*
X88752671Y-98300000D01*
X84475448Y-98300000D01*
X84360545Y-98021914D01*
X83844801Y-97505270D01*
X83170605Y-97225319D01*
X82440597Y-97224682D01*
X81765914Y-97503455D01*
X81249270Y-98019199D01*
X80969319Y-98693395D01*
X80968682Y-99423403D01*
X81247455Y-100098086D01*
X81480962Y-100332000D01*
X75498802Y-100332000D01*
X74928000Y-99761198D01*
X74928000Y-91831440D01*
X74968000Y-91831440D01*
X75203317Y-91787162D01*
X75419441Y-91648090D01*
X75564431Y-91435890D01*
X75615440Y-91184000D01*
X75615440Y-89584000D01*
X75571162Y-89348683D01*
X75432090Y-89132559D01*
X75219890Y-88987569D01*
X74981799Y-88939354D01*
X74996139Y-88891745D01*
X74168000Y-88063605D01*
X73339861Y-88891745D01*
X73354145Y-88939167D01*
X73132683Y-88980838D01*
X72916559Y-89119910D01*
X72771569Y-89332110D01*
X72720560Y-89584000D01*
X60654000Y-89584000D01*
X60654000Y-88714735D01*
X66880870Y-88714735D01*
X66930383Y-88940164D01*
X67395036Y-89099807D01*
X67885413Y-89069482D01*
X68197617Y-88940164D01*
X68247130Y-88714735D01*
X67564000Y-88031605D01*
X66880870Y-88714735D01*
X60654000Y-88714735D01*
X60654000Y-87683036D01*
X66316193Y-87683036D01*
X66346518Y-88173413D01*
X66475836Y-88485617D01*
X66701265Y-88535130D01*
X67384395Y-87852000D01*
X67370253Y-87837858D01*
X67549858Y-87658253D01*
X67564000Y-87672395D01*
X67578143Y-87658253D01*
X67757748Y-87837858D01*
X67743605Y-87852000D01*
X68426735Y-88535130D01*
X68652164Y-88485617D01*
X68811807Y-88020964D01*
X68789932Y-87667223D01*
X72721035Y-87667223D01*
X72748222Y-88237454D01*
X72914136Y-88638005D01*
X73160255Y-88712139D01*
X73988395Y-87884000D01*
X74347605Y-87884000D01*
X75175745Y-88712139D01*
X75421864Y-88638005D01*
X75614965Y-88100777D01*
X75587778Y-87530546D01*
X75421864Y-87129995D01*
X75175745Y-87055861D01*
X74347605Y-87884000D01*
X73988395Y-87884000D01*
X73160255Y-87055861D01*
X72914136Y-87129995D01*
X72721035Y-87667223D01*
X68789932Y-87667223D01*
X68781482Y-87530587D01*
X68652164Y-87218383D01*
X68426737Y-87168871D01*
X68542430Y-87053178D01*
X68487603Y-86998351D01*
X68615441Y-86916090D01*
X68642659Y-86876255D01*
X73339861Y-86876255D01*
X74168000Y-87704395D01*
X74996139Y-86876255D01*
X74922005Y-86630136D01*
X74384777Y-86437035D01*
X73814546Y-86464222D01*
X73413995Y-86630136D01*
X73339861Y-86876255D01*
X68642659Y-86876255D01*
X68760431Y-86703890D01*
X68811440Y-86452000D01*
X68811440Y-85252000D01*
X68767162Y-85016683D01*
X68628090Y-84800559D01*
X68415890Y-84655569D01*
X68324000Y-84636961D01*
X68324000Y-81086802D01*
X69910802Y-79500000D01*
X81123265Y-79500000D01*
X81506459Y-80073491D01*
X82101776Y-80471269D01*
X82804000Y-80610950D01*
X83506224Y-80471269D01*
X84101541Y-80073491D01*
X84499319Y-79478174D01*
X84639000Y-78775950D01*
X84639000Y-78704050D01*
X84499319Y-78001826D01*
X84101541Y-77406509D01*
X83506224Y-77008731D01*
X82804000Y-76869050D01*
X82101776Y-77008731D01*
X81506459Y-77406509D01*
X81123265Y-77980000D01*
X69596000Y-77980000D01*
X69305161Y-78037852D01*
X69058599Y-78202599D01*
X67026599Y-80234599D01*
X66861852Y-80481161D01*
X66804000Y-80772000D01*
X66804000Y-84634666D01*
X66728683Y-84648838D01*
X66512559Y-84787910D01*
X66367569Y-85000110D01*
X66316560Y-85252000D01*
X66316560Y-86452000D01*
X66360838Y-86687317D01*
X66499910Y-86903441D01*
X66639755Y-86998993D01*
X66585570Y-87053178D01*
X66701263Y-87168871D01*
X66475836Y-87218383D01*
X66316193Y-87683036D01*
X60654000Y-87683036D01*
X60654000Y-43757931D01*
X61713791Y-38430000D01*
X109328275Y-38430000D01*
X109509822Y-39342700D01*
X110026825Y-40116450D01*
X110800575Y-40633453D01*
X111713275Y-40815000D01*
X111806725Y-40815000D01*
X112719425Y-40633453D01*
X113493175Y-40116450D01*
X114010178Y-39342700D01*
X114191725Y-38430000D01*
X114010178Y-37517300D01*
X113493175Y-36743550D01*
X112719425Y-36226547D01*
X111806725Y-36045000D01*
X111713275Y-36045000D01*
X110800575Y-36226547D01*
X110026825Y-36743550D01*
X109509822Y-37517300D01*
X109328275Y-38430000D01*
X61713791Y-38430000D01*
X61888889Y-37549723D01*
X64915552Y-33020000D01*
X94088275Y-33020000D01*
X94269822Y-33932700D01*
X94786825Y-34706450D01*
X95560575Y-35223453D01*
X96473275Y-35405000D01*
X96566725Y-35405000D01*
X97479425Y-35223453D01*
X98253175Y-34706450D01*
X98770178Y-33932700D01*
X98951725Y-33020000D01*
X125076275Y-33020000D01*
X125257822Y-33932700D01*
X125774825Y-34706450D01*
X126548575Y-35223453D01*
X127461275Y-35405000D01*
X127554725Y-35405000D01*
X128467425Y-35223453D01*
X129241175Y-34706450D01*
X129758178Y-33932700D01*
X129939725Y-33020000D01*
X129758178Y-32107300D01*
X129241175Y-31333550D01*
X128467425Y-30816547D01*
X127554725Y-30635000D01*
X127461275Y-30635000D01*
X126548575Y-30816547D01*
X125774825Y-31333550D01*
X125257822Y-32107300D01*
X125076275Y-33020000D01*
X98951725Y-33020000D01*
X98770178Y-32107300D01*
X98253175Y-31333550D01*
X97479425Y-30816547D01*
X96566725Y-30635000D01*
X96473275Y-30635000D01*
X95560575Y-30816547D01*
X94786825Y-31333550D01*
X94269822Y-32107300D01*
X94088275Y-33020000D01*
X64915552Y-33020000D01*
X65365943Y-32345943D01*
X70569722Y-28868890D01*
X76777931Y-27634000D01*
X158426069Y-27634000D01*
X165023083Y-28946227D01*
X165023083Y-28946227D01*
G37*
X165023083Y-28946227D02*
X170556478Y-32643522D01*
X174253772Y-38176918D01*
X175566000Y-44773931D01*
X175566000Y-120834069D01*
X174331110Y-127042278D01*
X170854057Y-132246057D01*
X165650277Y-135723111D01*
X159442069Y-136958000D01*
X76777931Y-136958000D01*
X71602747Y-135928592D01*
X69949271Y-135308538D01*
X66928596Y-133290188D01*
X64321812Y-130683404D01*
X62242504Y-127571500D01*
X61748498Y-126336484D01*
X60654000Y-120834069D01*
X60654000Y-118999000D01*
X107675000Y-118999000D01*
X107675000Y-119989000D01*
X107847297Y-120601193D01*
X108240754Y-121100851D01*
X108795472Y-121411905D01*
X108921135Y-121442218D01*
X109173000Y-121322740D01*
X109173000Y-118999000D01*
X109427000Y-118999000D01*
X109427000Y-121322740D01*
X109678865Y-121442218D01*
X109804528Y-121411905D01*
X110359246Y-121100851D01*
X110752703Y-120601193D01*
X110925000Y-119989000D01*
X110925000Y-118999000D01*
X109427000Y-118999000D01*
X109173000Y-118999000D01*
X107675000Y-118999000D01*
X60654000Y-118999000D01*
X60654000Y-117755000D01*
X107675000Y-117755000D01*
X107675000Y-118745000D01*
X109173000Y-118745000D01*
X109173000Y-116421260D01*
X109427000Y-116421260D01*
X109427000Y-118745000D01*
X110925000Y-118745000D01*
X110925000Y-117755000D01*
X110752703Y-117142807D01*
X110555205Y-116892000D01*
X112662560Y-116892000D01*
X112662560Y-120852000D01*
X112706838Y-121087317D01*
X112845910Y-121303441D01*
X113058110Y-121448431D01*
X113310000Y-121499440D01*
X115290000Y-121499440D01*
X115525317Y-121455162D01*
X115741441Y-121316090D01*
X115886431Y-121103890D01*
X115937440Y-120852000D01*
X115937440Y-119632000D01*
X117033198Y-119632000D01*
X132558599Y-135157401D01*
X132805160Y-135322148D01*
X133096000Y-135380000D01*
X159004000Y-135380000D01*
X159294839Y-135322148D01*
X159541401Y-135157401D01*
X164113401Y-130585401D01*
X164278148Y-130338840D01*
X164287746Y-130290586D01*
X164336000Y-130048000D01*
X164336000Y-107215448D01*
X164614086Y-107100545D01*
X165130730Y-106584801D01*
X165410681Y-105910605D01*
X165411318Y-105180597D01*
X165132545Y-104505914D01*
X164616801Y-103989270D01*
X163942605Y-103709319D01*
X163212597Y-103708682D01*
X162537914Y-103987455D01*
X162021270Y-104503199D01*
X161741319Y-105177395D01*
X161740682Y-105907403D01*
X162019455Y-106582086D01*
X162535199Y-107098730D01*
X162816000Y-107215329D01*
X162816000Y-129733198D01*
X158689198Y-133860000D01*
X133410802Y-133860000D01*
X117885401Y-118334599D01*
X117638839Y-118169852D01*
X117348000Y-118112000D01*
X115937440Y-118112000D01*
X115937440Y-116892000D01*
X115893162Y-116656683D01*
X115754090Y-116440559D01*
X115541890Y-116295569D01*
X115290000Y-116244560D01*
X113310000Y-116244560D01*
X113074683Y-116288838D01*
X112858559Y-116427910D01*
X112713569Y-116640110D01*
X112662560Y-116892000D01*
X110555205Y-116892000D01*
X110359246Y-116643149D01*
X109804528Y-116332095D01*
X109678865Y-116301782D01*
X109427000Y-116421260D01*
X109173000Y-116421260D01*
X108921135Y-116301782D01*
X108795472Y-116332095D01*
X108240754Y-116643149D01*
X107847297Y-117142807D01*
X107675000Y-117755000D01*
X60654000Y-117755000D01*
X60654000Y-113258769D01*
X92435000Y-113258769D01*
X92435000Y-115341231D01*
X92558696Y-115963092D01*
X92910951Y-116490280D01*
X93438139Y-116842535D01*
X94060000Y-116966231D01*
X94681861Y-116842535D01*
X95209049Y-116490280D01*
X95561304Y-115963092D01*
X95685000Y-115341231D01*
X95685000Y-114585750D01*
X97435000Y-114585750D01*
X97435000Y-116406310D01*
X97531673Y-116639699D01*
X97710302Y-116818327D01*
X97943691Y-116915000D01*
X98774250Y-116915000D01*
X98933000Y-116756250D01*
X98933000Y-114427000D01*
X99187000Y-114427000D01*
X99187000Y-116756250D01*
X99345750Y-116915000D01*
X100176309Y-116915000D01*
X100409698Y-116818327D01*
X100588327Y-116639699D01*
X100685000Y-116406310D01*
X100685000Y-114935000D01*
X123851000Y-114935000D01*
X123851000Y-115925000D01*
X124023297Y-116537193D01*
X124416754Y-117036851D01*
X124971472Y-117347905D01*
X125097135Y-117378218D01*
X125349000Y-117258740D01*
X125349000Y-114935000D01*
X125603000Y-114935000D01*
X125603000Y-117258740D01*
X125854865Y-117378218D01*
X125980528Y-117347905D01*
X126535246Y-117036851D01*
X126928703Y-116537193D01*
X127101000Y-115925000D01*
X127101000Y-114935000D01*
X125603000Y-114935000D01*
X125349000Y-114935000D01*
X123851000Y-114935000D01*
X100685000Y-114935000D01*
X100685000Y-114585750D01*
X100526250Y-114427000D01*
X99187000Y-114427000D01*
X98933000Y-114427000D01*
X97593750Y-114427000D01*
X97435000Y-114585750D01*
X95685000Y-114585750D01*
X95685000Y-113258769D01*
X95561304Y-112636908D01*
X95265156Y-112193690D01*
X97435000Y-112193690D01*
X97435000Y-114014250D01*
X97593750Y-114173000D01*
X98933000Y-114173000D01*
X98933000Y-111843750D01*
X99187000Y-111843750D01*
X99187000Y-114173000D01*
X100526250Y-114173000D01*
X100685000Y-114014250D01*
X100685000Y-113691000D01*
X123851000Y-113691000D01*
X123851000Y-114681000D01*
X125349000Y-114681000D01*
X125349000Y-112357260D01*
X125603000Y-112357260D01*
X125603000Y-114681000D01*
X127101000Y-114681000D01*
X127101000Y-113691000D01*
X126928703Y-113078807D01*
X126535246Y-112579149D01*
X125980528Y-112268095D01*
X125854865Y-112237782D01*
X125603000Y-112357260D01*
X125349000Y-112357260D01*
X125097135Y-112237782D01*
X124971472Y-112268095D01*
X124416754Y-112579149D01*
X124023297Y-113078807D01*
X123851000Y-113691000D01*
X100685000Y-113691000D01*
X100685000Y-112193690D01*
X100588327Y-111960301D01*
X100409698Y-111781673D01*
X100176309Y-111685000D01*
X99345750Y-111685000D01*
X99187000Y-111843750D01*
X98933000Y-111843750D01*
X98774250Y-111685000D01*
X97943691Y-111685000D01*
X97710302Y-111781673D01*
X97531673Y-111960301D01*
X97435000Y-112193690D01*
X95265156Y-112193690D01*
X95209049Y-112109720D01*
X94820000Y-111849766D01*
X94820000Y-104900000D01*
X108204000Y-104900000D01*
X108494839Y-104842148D01*
X108741401Y-104677401D01*
X110265401Y-103153401D01*
X110430148Y-102906840D01*
X110449381Y-102810148D01*
X110488000Y-102616000D01*
X110488000Y-99282646D01*
X110539800Y-99261243D01*
X110943824Y-98857923D01*
X111162750Y-98330691D01*
X111163248Y-97759813D01*
X110945243Y-97232200D01*
X110541923Y-96828176D01*
X110014691Y-96609250D01*
X109443813Y-96608752D01*
X108916200Y-96826757D01*
X108512176Y-97230077D01*
X108293250Y-97757309D01*
X108292752Y-98328187D01*
X108510757Y-98855800D01*
X108914077Y-99259824D01*
X108968000Y-99282215D01*
X108968000Y-102301198D01*
X107889198Y-103380000D01*
X94488000Y-103380000D01*
X94245414Y-103428254D01*
X94197160Y-103437852D01*
X93950599Y-103602599D01*
X93522599Y-104030599D01*
X93357852Y-104277161D01*
X93300000Y-104568000D01*
X93300000Y-111849766D01*
X92910951Y-112109720D01*
X92558696Y-112636908D01*
X92435000Y-113258769D01*
X60654000Y-113258769D01*
X60654000Y-89584000D01*
X72720560Y-89584000D01*
X72720560Y-91184000D01*
X72764838Y-91419317D01*
X72903910Y-91635441D01*
X73116110Y-91780431D01*
X73368000Y-91831440D01*
X73408000Y-91831440D01*
X73408000Y-100076000D01*
X73465852Y-100366839D01*
X73630599Y-100613401D01*
X74646599Y-101629401D01*
X74893161Y-101794148D01*
X75184000Y-101852000D01*
X97379265Y-101852000D01*
X97762459Y-102425491D01*
X98357776Y-102823269D01*
X99060000Y-102962950D01*
X99762224Y-102823269D01*
X100357541Y-102425491D01*
X100740735Y-101852000D01*
X103124000Y-101852000D01*
X103414839Y-101794148D01*
X103661401Y-101629401D01*
X104677401Y-100613401D01*
X104842148Y-100366839D01*
X104900000Y-100076000D01*
X104900000Y-93786802D01*
X107502802Y-91184000D01*
X111445198Y-91184000D01*
X114556000Y-94294802D01*
X114556000Y-99060000D01*
X114613852Y-99350839D01*
X114778599Y-99597401D01*
X115794599Y-100613401D01*
X116041161Y-100778148D01*
X116332000Y-100836000D01*
X118216552Y-100836000D01*
X118331455Y-101114086D01*
X118847199Y-101630730D01*
X119521395Y-101910681D01*
X120251403Y-101911318D01*
X120926086Y-101632545D01*
X121442730Y-101116801D01*
X121453859Y-101090000D01*
X126589265Y-101090000D01*
X126972459Y-101663491D01*
X127567776Y-102061269D01*
X128270000Y-102200950D01*
X128972224Y-102061269D01*
X129567541Y-101663491D01*
X129965319Y-101068174D01*
X130105000Y-100365950D01*
X130105000Y-100294050D01*
X130097381Y-100255745D01*
X136839861Y-100255745D01*
X136913995Y-100501864D01*
X137451223Y-100694965D01*
X138021454Y-100667778D01*
X138243640Y-100575745D01*
X147507861Y-100575745D01*
X147581995Y-100821864D01*
X148119223Y-101014965D01*
X148689454Y-100987778D01*
X149090005Y-100821864D01*
X149164139Y-100575745D01*
X148336000Y-99747605D01*
X147507861Y-100575745D01*
X138243640Y-100575745D01*
X138422005Y-100501864D01*
X138496139Y-100255745D01*
X137668000Y-99427605D01*
X136839861Y-100255745D01*
X130097381Y-100255745D01*
X129965319Y-99591826D01*
X129590737Y-99031223D01*
X136221035Y-99031223D01*
X136248222Y-99601454D01*
X136414136Y-100002005D01*
X136660255Y-100076139D01*
X137488395Y-99248000D01*
X137847605Y-99248000D01*
X138675745Y-100076139D01*
X138921864Y-100002005D01*
X139114965Y-99464777D01*
X139109552Y-99351223D01*
X146889035Y-99351223D01*
X146916222Y-99921454D01*
X147082136Y-100322005D01*
X147328255Y-100396139D01*
X148156395Y-99568000D01*
X148515605Y-99568000D01*
X149343745Y-100396139D01*
X149589864Y-100322005D01*
X149782965Y-99784777D01*
X149755778Y-99214546D01*
X149589864Y-98813995D01*
X149343745Y-98739861D01*
X148515605Y-99568000D01*
X148156395Y-99568000D01*
X147328255Y-98739861D01*
X147082136Y-98813995D01*
X146889035Y-99351223D01*
X139109552Y-99351223D01*
X139087778Y-98894546D01*
X138949310Y-98560255D01*
X147507861Y-98560255D01*
X148336000Y-99388395D01*
X149164139Y-98560255D01*
X149090005Y-98314136D01*
X148552777Y-98121035D01*
X147982546Y-98148222D01*
X147581995Y-98314136D01*
X147507861Y-98560255D01*
X138949310Y-98560255D01*
X138921864Y-98493995D01*
X138675745Y-98419861D01*
X137847605Y-99248000D01*
X137488395Y-99248000D01*
X136660255Y-98419861D01*
X136414136Y-98493995D01*
X136221035Y-99031223D01*
X129590737Y-99031223D01*
X129567541Y-98996509D01*
X128972224Y-98598731D01*
X128270000Y-98459050D01*
X127567776Y-98598731D01*
X126972459Y-98996509D01*
X126589265Y-99570000D01*
X121664398Y-99570000D01*
X121444545Y-99037914D01*
X120928801Y-98521270D01*
X120254605Y-98241319D01*
X119524597Y-98240682D01*
X118849914Y-98519455D01*
X118333270Y-99035199D01*
X118216671Y-99316000D01*
X116646802Y-99316000D01*
X116076000Y-98745198D01*
X116076000Y-98240255D01*
X136839861Y-98240255D01*
X137668000Y-99068395D01*
X138496139Y-98240255D01*
X138422005Y-97994136D01*
X137884777Y-97801035D01*
X137314546Y-97828222D01*
X136913995Y-97994136D01*
X136839861Y-98240255D01*
X116076000Y-98240255D01*
X116076000Y-93980000D01*
X116018148Y-93689161D01*
X116018148Y-93689160D01*
X115853401Y-93442599D01*
X112297401Y-89886599D01*
X112050839Y-89721852D01*
X111760000Y-89664000D01*
X107188000Y-89664000D01*
X106897161Y-89721852D01*
X106650599Y-89886599D01*
X103602599Y-92934599D01*
X103437852Y-93181161D01*
X103380000Y-93472000D01*
X103380000Y-99761198D01*
X102809198Y-100332000D01*
X100740735Y-100332000D01*
X100357541Y-99758509D01*
X99762224Y-99360731D01*
X99060000Y-99221050D01*
X98357776Y-99360731D01*
X97762459Y-99758509D01*
X97379265Y-100332000D01*
X91747128Y-100332000D01*
X91978730Y-100100801D01*
X92258681Y-99426605D01*
X92259318Y-98696597D01*
X91980545Y-98021914D01*
X91464801Y-97505270D01*
X91184000Y-97388671D01*
X91184000Y-85088000D01*
X93472000Y-85088000D01*
X93762839Y-85030148D01*
X94009401Y-84865401D01*
X96041401Y-82833401D01*
X96206148Y-82586839D01*
X96264000Y-82296000D01*
X96264000Y-76055403D01*
X97224682Y-76055403D01*
X97503455Y-76730086D01*
X98019199Y-77246730D01*
X98693395Y-77526681D01*
X99423403Y-77527318D01*
X99704407Y-77411209D01*
X100874599Y-78581401D01*
X101121160Y-78746148D01*
X101412000Y-78804000D01*
X108524333Y-78804000D01*
X108713302Y-79086811D01*
X109178849Y-79397880D01*
X109728000Y-79507113D01*
X110277151Y-79397880D01*
X110742698Y-79086811D01*
X111053767Y-78621264D01*
X111163000Y-78072113D01*
X111163000Y-78015887D01*
X111053767Y-77466736D01*
X110742698Y-77001189D01*
X110277151Y-76690120D01*
X109728000Y-76580887D01*
X109178849Y-76690120D01*
X108713302Y-77001189D01*
X108524333Y-77284000D01*
X101726802Y-77284000D01*
X100779293Y-76336491D01*
X100894681Y-76058605D01*
X100895318Y-75328597D01*
X100863669Y-75252001D01*
X105339999Y-75252001D01*
X105630838Y-75194149D01*
X105789990Y-75087807D01*
X118099797Y-75087807D01*
X118393508Y-75740776D01*
X118914742Y-76231642D01*
X119476195Y-76464195D01*
X119761000Y-76347432D01*
X119761000Y-74803000D01*
X120015000Y-74803000D01*
X120015000Y-76347432D01*
X120299805Y-76464195D01*
X120861258Y-76231642D01*
X121382492Y-75740776D01*
X121676203Y-75087807D01*
X121559858Y-74803000D01*
X120015000Y-74803000D01*
X119761000Y-74803000D01*
X118216142Y-74803000D01*
X118099797Y-75087807D01*
X105789990Y-75087807D01*
X105877400Y-75029402D01*
X106642609Y-74264193D01*
X118099797Y-74264193D01*
X118216142Y-74549000D01*
X119761000Y-74549000D01*
X119761000Y-73004568D01*
X120015000Y-73004568D01*
X120015000Y-74549000D01*
X121559858Y-74549000D01*
X121676203Y-74264193D01*
X121382492Y-73611224D01*
X120861258Y-73120358D01*
X120299805Y-72887805D01*
X120015000Y-73004568D01*
X119761000Y-73004568D01*
X119476195Y-72887805D01*
X118914742Y-73120358D01*
X118393508Y-73611224D01*
X118099797Y-74264193D01*
X106642609Y-74264193D01*
X108897401Y-72009401D01*
X109062148Y-71762840D01*
X109120000Y-71472000D01*
X109120000Y-59957440D01*
X109260000Y-59957440D01*
X109495317Y-59913162D01*
X109711441Y-59774090D01*
X109856431Y-59561890D01*
X109907440Y-59310000D01*
X109907440Y-57510000D01*
X109863162Y-57274683D01*
X109724090Y-57058559D01*
X109511890Y-56913569D01*
X109260000Y-56862560D01*
X107460000Y-56862560D01*
X107224683Y-56906838D01*
X107008559Y-57045910D01*
X106863569Y-57258110D01*
X106812560Y-57510000D01*
X106812560Y-59310000D01*
X106856838Y-59545317D01*
X106995910Y-59761441D01*
X107208110Y-59906431D01*
X107460000Y-59957440D01*
X107600000Y-59957440D01*
X107600000Y-71157198D01*
X105025197Y-73732001D01*
X100259999Y-73732001D01*
X99969160Y-73789853D01*
X99722598Y-73954600D01*
X99704491Y-73972707D01*
X99426605Y-73857319D01*
X98696597Y-73856682D01*
X98021914Y-74135455D01*
X97505270Y-74651199D01*
X97225319Y-75325395D01*
X97224682Y-76055403D01*
X96264000Y-76055403D01*
X96264000Y-74990802D01*
X99882802Y-71372000D01*
X102108000Y-71372000D01*
X102398839Y-71314148D01*
X102645401Y-71149401D01*
X103153401Y-70641401D01*
X103318147Y-70394840D01*
X103318148Y-70394839D01*
X103376000Y-70104000D01*
X103376000Y-57210802D01*
X105216802Y-55370000D01*
X108727088Y-55370000D01*
X108944519Y-55695409D01*
X109442509Y-56028155D01*
X110029928Y-56145000D01*
X110090072Y-56145000D01*
X110677491Y-56028155D01*
X111175481Y-55695409D01*
X111275010Y-55546453D01*
X111275010Y-56965489D01*
X111142509Y-56991845D01*
X110644519Y-57324591D01*
X110311773Y-57822581D01*
X110194928Y-58410000D01*
X110311773Y-58997419D01*
X110644519Y-59495409D01*
X111000000Y-59732934D01*
X111000000Y-64293354D01*
X110948200Y-64314757D01*
X110544176Y-64718077D01*
X110325250Y-65245309D01*
X110324752Y-65816187D01*
X110542757Y-66343800D01*
X110946077Y-66747824D01*
X111473309Y-66966750D01*
X112044187Y-66967248D01*
X112571800Y-66749243D01*
X112975824Y-66345923D01*
X113194750Y-65818691D01*
X113195248Y-65247813D01*
X112977243Y-64720200D01*
X112573923Y-64316176D01*
X112520000Y-64293785D01*
X112520000Y-59732934D01*
X112875481Y-59495409D01*
X113208227Y-58997419D01*
X113325072Y-58410000D01*
X113208227Y-57822581D01*
X112875481Y-57324591D01*
X112795010Y-57270822D01*
X112795010Y-55996417D01*
X112842509Y-56028155D01*
X113429928Y-56145000D01*
X113490072Y-56145000D01*
X114077491Y-56028155D01*
X114575481Y-55695409D01*
X114908227Y-55197419D01*
X115025072Y-54610000D01*
X114908227Y-54022581D01*
X114575481Y-53524591D01*
X114220000Y-53287066D01*
X114220000Y-45350802D01*
X115122802Y-44448000D01*
X154117198Y-44448000D01*
X154688000Y-45018802D01*
X154688000Y-49760560D01*
X153532000Y-49760560D01*
X153296683Y-49804838D01*
X153080559Y-49943910D01*
X152935569Y-50156110D01*
X152884560Y-50408000D01*
X152884560Y-52208000D01*
X152928838Y-52443317D01*
X153049839Y-52631359D01*
X152085198Y-53596000D01*
X133768802Y-53596000D01*
X131845542Y-51672740D01*
X142780964Y-51672740D01*
X142959760Y-52104417D01*
X143364424Y-52545966D01*
X143907258Y-52799046D01*
X144145000Y-52678997D01*
X144145000Y-51435000D01*
X144399000Y-51435000D01*
X144399000Y-52678997D01*
X144636742Y-52799046D01*
X145179576Y-52545966D01*
X145584240Y-52104417D01*
X145763036Y-51672740D01*
X145642378Y-51435000D01*
X144399000Y-51435000D01*
X144145000Y-51435000D01*
X142901622Y-51435000D01*
X142780964Y-51672740D01*
X131845542Y-51672740D01*
X131381210Y-51208408D01*
X131935491Y-51098155D01*
X132167307Y-50943260D01*
X142780964Y-50943260D01*
X142901622Y-51181000D01*
X144145000Y-51181000D01*
X144145000Y-49937003D01*
X144399000Y-49937003D01*
X144399000Y-51181000D01*
X145642378Y-51181000D01*
X145763036Y-50943260D01*
X145584240Y-50511583D01*
X145179576Y-50070034D01*
X144636742Y-49816954D01*
X144399000Y-49937003D01*
X144145000Y-49937003D01*
X143907258Y-49816954D01*
X143364424Y-50070034D01*
X142959760Y-50511583D01*
X142780964Y-50943260D01*
X132167307Y-50943260D01*
X132433481Y-50765409D01*
X132766227Y-50267419D01*
X132883072Y-49680000D01*
X132766227Y-49092581D01*
X132433481Y-48594591D01*
X131935491Y-48261845D01*
X131348072Y-48145000D01*
X131287928Y-48145000D01*
X130700509Y-48261845D01*
X130202519Y-48594591D01*
X130048000Y-48825845D01*
X129893481Y-48594591D01*
X129395491Y-48261845D01*
X128808072Y-48145000D01*
X128747928Y-48145000D01*
X128160509Y-48261845D01*
X127662519Y-48594591D01*
X127508000Y-48825845D01*
X127353481Y-48594591D01*
X126855491Y-48261845D01*
X126268072Y-48145000D01*
X126207928Y-48145000D01*
X125620509Y-48261845D01*
X125199974Y-48542837D01*
X125062090Y-48328559D01*
X124849890Y-48183569D01*
X124598000Y-48132560D01*
X122798000Y-48132560D01*
X122562683Y-48176838D01*
X122346559Y-48315910D01*
X122201569Y-48528110D01*
X122150560Y-48780000D01*
X122150560Y-50580000D01*
X122194838Y-50815317D01*
X122333910Y-51031441D01*
X122546110Y-51176431D01*
X122798000Y-51227440D01*
X122938000Y-51227440D01*
X122938000Y-57650000D01*
X116492912Y-57650000D01*
X116275481Y-57324591D01*
X115777491Y-56991845D01*
X115190072Y-56875000D01*
X115129928Y-56875000D01*
X114542509Y-56991845D01*
X114044519Y-57324591D01*
X113711773Y-57822581D01*
X113594928Y-58410000D01*
X113711773Y-58997419D01*
X114044519Y-59495409D01*
X114542509Y-59828155D01*
X115129928Y-59945000D01*
X115190072Y-59945000D01*
X115777491Y-59828155D01*
X116275481Y-59495409D01*
X116492912Y-59170000D01*
X129215198Y-59170000D01*
X131000000Y-60954802D01*
X131000000Y-64328333D01*
X130717189Y-64517302D01*
X130406120Y-64982849D01*
X130296887Y-65532000D01*
X130406120Y-66081151D01*
X130717189Y-66546698D01*
X131182736Y-66857767D01*
X131731887Y-66967000D01*
X131788113Y-66967000D01*
X132337264Y-66857767D01*
X132489727Y-66755894D01*
X132558839Y-66742147D01*
X132805401Y-66577401D01*
X132970147Y-66330839D01*
X132979940Y-66281606D01*
X133113880Y-66081151D01*
X133223113Y-65532000D01*
X133113880Y-64982849D01*
X132802811Y-64517302D01*
X132520000Y-64328333D01*
X132520000Y-61400000D01*
X135001198Y-61400000D01*
X136354355Y-62753157D01*
X136306846Y-62992000D01*
X136408467Y-63502882D01*
X136697858Y-63935988D01*
X137130964Y-64225379D01*
X137641846Y-64327000D01*
X137694154Y-64327000D01*
X138205036Y-64225379D01*
X138638142Y-63935988D01*
X138927533Y-63502882D01*
X139029154Y-62992000D01*
X138927533Y-62481118D01*
X138638142Y-62048012D01*
X138205036Y-61758621D01*
X137694154Y-61657000D01*
X137641846Y-61657000D01*
X137446632Y-61695830D01*
X135853401Y-60102599D01*
X135606839Y-59937852D01*
X135316000Y-59880000D01*
X132074802Y-59880000D01*
X130067401Y-57872599D01*
X129820839Y-57707852D01*
X129530000Y-57650000D01*
X124458000Y-57650000D01*
X124458000Y-51227440D01*
X124598000Y-51227440D01*
X124833317Y-51183162D01*
X125049441Y-51044090D01*
X125194431Y-50831890D01*
X125197719Y-50815656D01*
X125620509Y-51098155D01*
X126207928Y-51215000D01*
X126268072Y-51215000D01*
X126626835Y-51143637D01*
X134440599Y-58957401D01*
X134687161Y-59122148D01*
X134978000Y-59180000D01*
X143740560Y-59180000D01*
X143740560Y-59320000D01*
X143784838Y-59555317D01*
X143923910Y-59771441D01*
X144136110Y-59916431D01*
X144388000Y-59967440D01*
X144503000Y-59967440D01*
X144503000Y-61889301D01*
X144156902Y-62234796D01*
X143953232Y-62725287D01*
X143952769Y-63256383D01*
X144155582Y-63747229D01*
X144503000Y-64095253D01*
X144503000Y-72826842D01*
X143184842Y-74145000D01*
X143002000Y-74145000D01*
X142876318Y-74170000D01*
X129941448Y-74170000D01*
X129826545Y-73891914D01*
X129310801Y-73375270D01*
X128636605Y-73095319D01*
X127906597Y-73094682D01*
X127231914Y-73373455D01*
X126715270Y-73889199D01*
X126435319Y-74563395D01*
X126434682Y-75293403D01*
X126713455Y-75968086D01*
X127229199Y-76484730D01*
X127903395Y-76764681D01*
X128633403Y-76765318D01*
X129308086Y-76486545D01*
X129824730Y-75970801D01*
X129941329Y-75690000D01*
X137924000Y-75690000D01*
X137924000Y-76785828D01*
X137130599Y-77579229D01*
X136965852Y-77825791D01*
X136926725Y-78022493D01*
X136653302Y-78205189D01*
X136342233Y-78670736D01*
X136233000Y-79219887D01*
X136233000Y-79276113D01*
X136342233Y-79825264D01*
X136653302Y-80290811D01*
X137118849Y-80601880D01*
X137668000Y-80711113D01*
X138217151Y-80601880D01*
X138682698Y-80290811D01*
X138871667Y-80008000D01*
X142433198Y-80008000D01*
X143004000Y-80578802D01*
X143004000Y-85344000D01*
X143061852Y-85634839D01*
X143226599Y-85881401D01*
X152148000Y-94802802D01*
X152148000Y-100777198D01*
X151577198Y-101348000D01*
X147828000Y-101348000D01*
X147537161Y-101405852D01*
X147290599Y-101570599D01*
X142433198Y-106428000D01*
X137160000Y-106428000D01*
X136917414Y-106476254D01*
X136869160Y-106485852D01*
X136622599Y-106650599D01*
X135098599Y-108174599D01*
X134933852Y-108421161D01*
X134876000Y-108712000D01*
X134876000Y-112969198D01*
X133797198Y-114048000D01*
X132113440Y-114048000D01*
X132113440Y-112828000D01*
X132069162Y-112592683D01*
X131930090Y-112376559D01*
X131717890Y-112231569D01*
X131466000Y-112180560D01*
X129486000Y-112180560D01*
X129250683Y-112224838D01*
X129034559Y-112363910D01*
X128889569Y-112576110D01*
X128838560Y-112828000D01*
X128838560Y-116788000D01*
X128882838Y-117023317D01*
X129021910Y-117239441D01*
X129234110Y-117384431D01*
X129486000Y-117435440D01*
X131466000Y-117435440D01*
X131701317Y-117391162D01*
X131917441Y-117252090D01*
X132062431Y-117039890D01*
X132113440Y-116788000D01*
X132113440Y-115568000D01*
X133797198Y-115568000D01*
X134368000Y-116138802D01*
X134368000Y-120396000D01*
X134425852Y-120686839D01*
X134590599Y-120933401D01*
X135606599Y-121949401D01*
X135853161Y-122114148D01*
X136144000Y-122172000D01*
X143440560Y-122172000D01*
X143440560Y-122612000D01*
X143484838Y-122847317D01*
X143623910Y-123063441D01*
X143836110Y-123208431D01*
X144088000Y-123259440D01*
X146488000Y-123259440D01*
X146723317Y-123215162D01*
X146939441Y-123076090D01*
X147084431Y-122863890D01*
X147115761Y-122709175D01*
X151670430Y-122709175D01*
X151793565Y-122996788D01*
X152475734Y-123256707D01*
X153205443Y-123235786D01*
X153782435Y-122996788D01*
X153905570Y-122709175D01*
X152788000Y-121591605D01*
X151670430Y-122709175D01*
X147115761Y-122709175D01*
X147135440Y-122612000D01*
X147135440Y-121099734D01*
X150943293Y-121099734D01*
X150964214Y-121829443D01*
X151203212Y-122406435D01*
X151490825Y-122529570D01*
X152608395Y-121412000D01*
X152967605Y-121412000D01*
X154085175Y-122529570D01*
X154372788Y-122406435D01*
X154632707Y-121724266D01*
X154611786Y-120994557D01*
X154372788Y-120417565D01*
X154085175Y-120294430D01*
X152967605Y-121412000D01*
X152608395Y-121412000D01*
X151490825Y-120294430D01*
X151203212Y-120417565D01*
X150943293Y-121099734D01*
X147135440Y-121099734D01*
X147135440Y-120212000D01*
X147117156Y-120114825D01*
X151670430Y-120114825D01*
X152788000Y-121232395D01*
X153905570Y-120114825D01*
X153782435Y-119827212D01*
X153100266Y-119567293D01*
X152370557Y-119588214D01*
X151793565Y-119827212D01*
X151670430Y-120114825D01*
X147117156Y-120114825D01*
X147091162Y-119976683D01*
X146952090Y-119760559D01*
X146739890Y-119615569D01*
X146488000Y-119564560D01*
X144088000Y-119564560D01*
X143852683Y-119608838D01*
X143636559Y-119747910D01*
X143491569Y-119960110D01*
X143440560Y-120212000D01*
X143440560Y-120652000D01*
X136458802Y-120652000D01*
X135888000Y-120081198D01*
X135888000Y-115824000D01*
X135830148Y-115533161D01*
X135665401Y-115286599D01*
X135186802Y-114808000D01*
X136173401Y-113821401D01*
X136338147Y-113574840D01*
X136338148Y-113574839D01*
X136396000Y-113284000D01*
X136396000Y-109026802D01*
X137474802Y-107948000D01*
X142748000Y-107948000D01*
X143038839Y-107890148D01*
X143285401Y-107725401D01*
X148142802Y-102868000D01*
X151892000Y-102868000D01*
X152182839Y-102810148D01*
X152429401Y-102645401D01*
X153445401Y-101629401D01*
X153610148Y-101382839D01*
X153668000Y-101092000D01*
X153668000Y-94488000D01*
X153610148Y-94197161D01*
X153445401Y-93950599D01*
X144524000Y-85029198D01*
X144524000Y-80264000D01*
X144466148Y-79973161D01*
X144301401Y-79726599D01*
X144114689Y-79539887D01*
X146901000Y-79539887D01*
X146901000Y-79596113D01*
X147010233Y-80145264D01*
X147321302Y-80610811D01*
X147786849Y-80921880D01*
X148336000Y-81031113D01*
X148885151Y-80921880D01*
X149350698Y-80610811D01*
X149539667Y-80328000D01*
X155453198Y-80328000D01*
X155704000Y-80578802D01*
X155704000Y-81202922D01*
X155520012Y-81325858D01*
X155230621Y-81758964D01*
X155129000Y-82269846D01*
X155129000Y-82322154D01*
X155230621Y-82833036D01*
X155520012Y-83266142D01*
X155953118Y-83555533D01*
X156464000Y-83657154D01*
X156974882Y-83555533D01*
X157407988Y-83266142D01*
X157697379Y-82833036D01*
X157799000Y-82322154D01*
X157799000Y-82269846D01*
X157697379Y-81758964D01*
X157407988Y-81325858D01*
X157224000Y-81202922D01*
X157224000Y-80264000D01*
X157166148Y-79973161D01*
X157001401Y-79726599D01*
X156305401Y-79030599D01*
X156058839Y-78865852D01*
X155768000Y-78808000D01*
X149539667Y-78808000D01*
X149350698Y-78525189D01*
X148885151Y-78214120D01*
X148336000Y-78104887D01*
X147786849Y-78214120D01*
X147321302Y-78525189D01*
X147010233Y-78990736D01*
X146901000Y-79539887D01*
X144114689Y-79539887D01*
X143285401Y-78710599D01*
X143038839Y-78545852D01*
X142748000Y-78488000D01*
X138871667Y-78488000D01*
X138682698Y-78205189D01*
X138665640Y-78193792D01*
X139221401Y-77638031D01*
X139386148Y-77391469D01*
X139444000Y-77100630D01*
X139444000Y-75690000D01*
X142876318Y-75690000D01*
X143002000Y-75715000D01*
X143510000Y-75715000D01*
X143810407Y-75655245D01*
X144065079Y-75485079D01*
X145843079Y-73707079D01*
X146013245Y-73452406D01*
X146073000Y-73152000D01*
X146073000Y-64094699D01*
X146419098Y-63749204D01*
X146622768Y-63258713D01*
X146623231Y-62727617D01*
X146420418Y-62236771D01*
X146073000Y-61888747D01*
X146073000Y-59967440D01*
X146188000Y-59967440D01*
X146423317Y-59923162D01*
X146639441Y-59784090D01*
X146784431Y-59571890D01*
X146835440Y-59320000D01*
X146835440Y-57520000D01*
X146791162Y-57284683D01*
X146652090Y-57068559D01*
X146439890Y-56923569D01*
X146188000Y-56872560D01*
X144388000Y-56872560D01*
X144152683Y-56916838D01*
X143936559Y-57055910D01*
X143791569Y-57268110D01*
X143740560Y-57520000D01*
X143740560Y-57660000D01*
X135292802Y-57660000D01*
X128841210Y-51208408D01*
X129166835Y-51143637D01*
X132916599Y-54893401D01*
X133163161Y-55058148D01*
X133454000Y-55116000D01*
X152400000Y-55116000D01*
X152690839Y-55058148D01*
X152937401Y-54893401D01*
X154688000Y-53142802D01*
X154688000Y-57097066D01*
X154332519Y-57334591D01*
X153999773Y-57832581D01*
X153882928Y-58420000D01*
X153999773Y-59007419D01*
X154332519Y-59505409D01*
X154688000Y-59742934D01*
X154688000Y-71628000D01*
X154745852Y-71918839D01*
X154910599Y-72165401D01*
X155418599Y-72673401D01*
X155665161Y-72838148D01*
X155956000Y-72896000D01*
X157673198Y-72896000D01*
X159260000Y-74482802D01*
X159260000Y-89156000D01*
X157591655Y-89156000D01*
X157221204Y-88784902D01*
X156730713Y-88581232D01*
X156199617Y-88580769D01*
X155708771Y-88783582D01*
X155332902Y-89158796D01*
X155129232Y-89649287D01*
X155128769Y-90180383D01*
X155331582Y-90671229D01*
X155706796Y-91047098D01*
X156197287Y-91250768D01*
X156728383Y-91251231D01*
X157219229Y-91048418D01*
X157592297Y-90676000D01*
X162245198Y-90676000D01*
X162816000Y-91246802D01*
X162816000Y-96196560D01*
X162376000Y-96196560D01*
X162140683Y-96240838D01*
X161924559Y-96379910D01*
X161779569Y-96592110D01*
X161728560Y-96844000D01*
X161728560Y-99244000D01*
X161772838Y-99479317D01*
X161911910Y-99695441D01*
X162124110Y-99840431D01*
X162376000Y-99891440D01*
X164776000Y-99891440D01*
X165011317Y-99847162D01*
X165227441Y-99708090D01*
X165372431Y-99495890D01*
X165423440Y-99244000D01*
X165423440Y-96844000D01*
X165379162Y-96608683D01*
X165240090Y-96392559D01*
X165027890Y-96247569D01*
X164776000Y-96196560D01*
X164336000Y-96196560D01*
X164336000Y-90932000D01*
X164278148Y-90641161D01*
X164113401Y-90394599D01*
X163097401Y-89378599D01*
X162850839Y-89213852D01*
X162560000Y-89156000D01*
X160780000Y-89156000D01*
X160780000Y-74168000D01*
X160722148Y-73877161D01*
X160557401Y-73630599D01*
X158525401Y-71598599D01*
X158278839Y-71433852D01*
X157988000Y-71376000D01*
X156270802Y-71376000D01*
X156208000Y-71313198D01*
X156208000Y-59742934D01*
X156563481Y-59505409D01*
X156896227Y-59007419D01*
X157013072Y-58420000D01*
X156896227Y-57832581D01*
X156563481Y-57334591D01*
X156208000Y-57097066D01*
X156208000Y-44704000D01*
X156150148Y-44413161D01*
X155985401Y-44166599D01*
X154969401Y-43150599D01*
X154722839Y-42985852D01*
X154432000Y-42928000D01*
X114808000Y-42928000D01*
X114517161Y-42985852D01*
X114270599Y-43150599D01*
X113348205Y-44072993D01*
X112483801Y-43208589D01*
X112237239Y-43043842D01*
X111946400Y-42985990D01*
X92777599Y-42985991D01*
X92486760Y-43043843D01*
X92240198Y-43208590D01*
X89877598Y-45571190D01*
X89712851Y-45817752D01*
X89654999Y-46108591D01*
X89654999Y-60950999D01*
X89712851Y-61241838D01*
X89877598Y-61488400D01*
X94744000Y-66354802D01*
X94744000Y-70297198D01*
X91086598Y-73954600D01*
X90921851Y-74201162D01*
X90863999Y-74492001D01*
X90863999Y-76956571D01*
X90424000Y-76869050D01*
X89721776Y-77008731D01*
X89126459Y-77406509D01*
X88728681Y-78001826D01*
X88589000Y-78704050D01*
X88589000Y-78775950D01*
X88728681Y-79478174D01*
X89126459Y-80073491D01*
X89721776Y-80471269D01*
X90424000Y-80610950D01*
X91126224Y-80471269D01*
X91721541Y-80073491D01*
X92119319Y-79478174D01*
X92259000Y-78775950D01*
X92259000Y-78704050D01*
X92138840Y-78099962D01*
X92161400Y-78077402D01*
X92326147Y-77830840D01*
X92383999Y-77540001D01*
X92383999Y-74806803D01*
X96041401Y-71149401D01*
X96206148Y-70902839D01*
X96264000Y-70612000D01*
X96264000Y-66040000D01*
X96206148Y-65749161D01*
X96041401Y-65502599D01*
X95977946Y-65439144D01*
X96010000Y-65278000D01*
X96010000Y-60785329D01*
X97767284Y-60785329D01*
X97910203Y-61130396D01*
X98257337Y-61518764D01*
X98726669Y-61744727D01*
X98933000Y-61622206D01*
X98933000Y-60579000D01*
X99187000Y-60579000D01*
X99187000Y-61622206D01*
X99393331Y-61744727D01*
X99862663Y-61518764D01*
X100209797Y-61130396D01*
X100352716Y-60785329D01*
X100229374Y-60579000D01*
X99187000Y-60579000D01*
X98933000Y-60579000D01*
X97890626Y-60579000D01*
X97767284Y-60785329D01*
X96010000Y-60785329D01*
X96010000Y-60118671D01*
X97767284Y-60118671D01*
X97890626Y-60325000D01*
X98933000Y-60325000D01*
X98933000Y-59281794D01*
X99187000Y-59281794D01*
X99187000Y-60325000D01*
X100229374Y-60325000D01*
X100352716Y-60118671D01*
X100209797Y-59773604D01*
X99862663Y-59385236D01*
X99393331Y-59159273D01*
X99187000Y-59281794D01*
X98933000Y-59281794D01*
X98726669Y-59159273D01*
X98257337Y-59385236D01*
X97910203Y-59773604D01*
X97767284Y-60118671D01*
X96010000Y-60118671D01*
X96010000Y-51002934D01*
X96365481Y-50765409D01*
X96524501Y-50527418D01*
X96882424Y-50917966D01*
X97425258Y-51171046D01*
X97663000Y-51050997D01*
X97663000Y-49807000D01*
X97643000Y-49807000D01*
X97643000Y-49553000D01*
X97663000Y-49553000D01*
X97663000Y-48309003D01*
X97917000Y-48309003D01*
X97917000Y-49553000D01*
X97937000Y-49553000D01*
X97937000Y-49807000D01*
X97917000Y-49807000D01*
X97917000Y-51050997D01*
X98154742Y-51171046D01*
X98697576Y-50917966D01*
X99055499Y-50527418D01*
X99214519Y-50765409D01*
X99712509Y-51098155D01*
X100299928Y-51215000D01*
X100360072Y-51215000D01*
X100947491Y-51098155D01*
X101445481Y-50765409D01*
X101778227Y-50267419D01*
X101895072Y-49680000D01*
X101778227Y-49092581D01*
X101445481Y-48594591D01*
X100947491Y-48261845D01*
X100360072Y-48145000D01*
X100299928Y-48145000D01*
X99712509Y-48261845D01*
X99214519Y-48594591D01*
X99055499Y-48832582D01*
X98697576Y-48442034D01*
X98154742Y-48188954D01*
X97917000Y-48309003D01*
X97663000Y-48309003D01*
X97425258Y-48188954D01*
X96882424Y-48442034D01*
X96524501Y-48832582D01*
X96365481Y-48594591D01*
X95867491Y-48261845D01*
X95280072Y-48145000D01*
X95219928Y-48145000D01*
X94632509Y-48261845D01*
X94211974Y-48542837D01*
X94074090Y-48328559D01*
X93861890Y-48183569D01*
X93610000Y-48132560D01*
X93470000Y-48132560D01*
X93470000Y-47496000D01*
X108905198Y-47496000D01*
X111275010Y-49865812D01*
X111275010Y-53673547D01*
X111175481Y-53524591D01*
X110677491Y-53191845D01*
X110090072Y-53075000D01*
X110029928Y-53075000D01*
X109442509Y-53191845D01*
X108944519Y-53524591D01*
X108727088Y-53850000D01*
X104902000Y-53850000D01*
X104611160Y-53907852D01*
X104364599Y-54072599D01*
X102078599Y-56358599D01*
X101913852Y-56605161D01*
X101856000Y-56896000D01*
X101856000Y-69789198D01*
X101793198Y-69852000D01*
X99568000Y-69852000D01*
X99277161Y-69909852D01*
X99030599Y-70074599D01*
X94966599Y-74138599D01*
X94801852Y-74385161D01*
X94744000Y-74676000D01*
X94744000Y-81981198D01*
X93157198Y-83568000D01*
X90424000Y-83568000D01*
X90133161Y-83625852D01*
X89886599Y-83790599D01*
X89721852Y-84037161D01*
X89664000Y-84328000D01*
X89664000Y-97388552D01*
X89385914Y-97503455D01*
X88869270Y-98019199D01*
X88752671Y-98300000D01*
X84475448Y-98300000D01*
X84360545Y-98021914D01*
X83844801Y-97505270D01*
X83170605Y-97225319D01*
X82440597Y-97224682D01*
X81765914Y-97503455D01*
X81249270Y-98019199D01*
X80969319Y-98693395D01*
X80968682Y-99423403D01*
X81247455Y-100098086D01*
X81480962Y-100332000D01*
X75498802Y-100332000D01*
X74928000Y-99761198D01*
X74928000Y-91831440D01*
X74968000Y-91831440D01*
X75203317Y-91787162D01*
X75419441Y-91648090D01*
X75564431Y-91435890D01*
X75615440Y-91184000D01*
X75615440Y-89584000D01*
X75571162Y-89348683D01*
X75432090Y-89132559D01*
X75219890Y-88987569D01*
X74981799Y-88939354D01*
X74996139Y-88891745D01*
X74168000Y-88063605D01*
X73339861Y-88891745D01*
X73354145Y-88939167D01*
X73132683Y-88980838D01*
X72916559Y-89119910D01*
X72771569Y-89332110D01*
X72720560Y-89584000D01*
X60654000Y-89584000D01*
X60654000Y-88714735D01*
X66880870Y-88714735D01*
X66930383Y-88940164D01*
X67395036Y-89099807D01*
X67885413Y-89069482D01*
X68197617Y-88940164D01*
X68247130Y-88714735D01*
X67564000Y-88031605D01*
X66880870Y-88714735D01*
X60654000Y-88714735D01*
X60654000Y-87683036D01*
X66316193Y-87683036D01*
X66346518Y-88173413D01*
X66475836Y-88485617D01*
X66701265Y-88535130D01*
X67384395Y-87852000D01*
X67370253Y-87837858D01*
X67549858Y-87658253D01*
X67564000Y-87672395D01*
X67578143Y-87658253D01*
X67757748Y-87837858D01*
X67743605Y-87852000D01*
X68426735Y-88535130D01*
X68652164Y-88485617D01*
X68811807Y-88020964D01*
X68789932Y-87667223D01*
X72721035Y-87667223D01*
X72748222Y-88237454D01*
X72914136Y-88638005D01*
X73160255Y-88712139D01*
X73988395Y-87884000D01*
X74347605Y-87884000D01*
X75175745Y-88712139D01*
X75421864Y-88638005D01*
X75614965Y-88100777D01*
X75587778Y-87530546D01*
X75421864Y-87129995D01*
X75175745Y-87055861D01*
X74347605Y-87884000D01*
X73988395Y-87884000D01*
X73160255Y-87055861D01*
X72914136Y-87129995D01*
X72721035Y-87667223D01*
X68789932Y-87667223D01*
X68781482Y-87530587D01*
X68652164Y-87218383D01*
X68426737Y-87168871D01*
X68542430Y-87053178D01*
X68487603Y-86998351D01*
X68615441Y-86916090D01*
X68642659Y-86876255D01*
X73339861Y-86876255D01*
X74168000Y-87704395D01*
X74996139Y-86876255D01*
X74922005Y-86630136D01*
X74384777Y-86437035D01*
X73814546Y-86464222D01*
X73413995Y-86630136D01*
X73339861Y-86876255D01*
X68642659Y-86876255D01*
X68760431Y-86703890D01*
X68811440Y-86452000D01*
X68811440Y-85252000D01*
X68767162Y-85016683D01*
X68628090Y-84800559D01*
X68415890Y-84655569D01*
X68324000Y-84636961D01*
X68324000Y-81086802D01*
X69910802Y-79500000D01*
X81123265Y-79500000D01*
X81506459Y-80073491D01*
X82101776Y-80471269D01*
X82804000Y-80610950D01*
X83506224Y-80471269D01*
X84101541Y-80073491D01*
X84499319Y-79478174D01*
X84639000Y-78775950D01*
X84639000Y-78704050D01*
X84499319Y-78001826D01*
X84101541Y-77406509D01*
X83506224Y-77008731D01*
X82804000Y-76869050D01*
X82101776Y-77008731D01*
X81506459Y-77406509D01*
X81123265Y-77980000D01*
X69596000Y-77980000D01*
X69305161Y-78037852D01*
X69058599Y-78202599D01*
X67026599Y-80234599D01*
X66861852Y-80481161D01*
X66804000Y-80772000D01*
X66804000Y-84634666D01*
X66728683Y-84648838D01*
X66512559Y-84787910D01*
X66367569Y-85000110D01*
X66316560Y-85252000D01*
X66316560Y-86452000D01*
X66360838Y-86687317D01*
X66499910Y-86903441D01*
X66639755Y-86998993D01*
X66585570Y-87053178D01*
X66701263Y-87168871D01*
X66475836Y-87218383D01*
X66316193Y-87683036D01*
X60654000Y-87683036D01*
X60654000Y-43757931D01*
X61713791Y-38430000D01*
X109328275Y-38430000D01*
X109509822Y-39342700D01*
X110026825Y-40116450D01*
X110800575Y-40633453D01*
X111713275Y-40815000D01*
X111806725Y-40815000D01*
X112719425Y-40633453D01*
X113493175Y-40116450D01*
X114010178Y-39342700D01*
X114191725Y-38430000D01*
X114010178Y-37517300D01*
X113493175Y-36743550D01*
X112719425Y-36226547D01*
X111806725Y-36045000D01*
X111713275Y-36045000D01*
X110800575Y-36226547D01*
X110026825Y-36743550D01*
X109509822Y-37517300D01*
X109328275Y-38430000D01*
X61713791Y-38430000D01*
X61888889Y-37549723D01*
X64915552Y-33020000D01*
X94088275Y-33020000D01*
X94269822Y-33932700D01*
X94786825Y-34706450D01*
X95560575Y-35223453D01*
X96473275Y-35405000D01*
X96566725Y-35405000D01*
X97479425Y-35223453D01*
X98253175Y-34706450D01*
X98770178Y-33932700D01*
X98951725Y-33020000D01*
X125076275Y-33020000D01*
X125257822Y-33932700D01*
X125774825Y-34706450D01*
X126548575Y-35223453D01*
X127461275Y-35405000D01*
X127554725Y-35405000D01*
X128467425Y-35223453D01*
X129241175Y-34706450D01*
X129758178Y-33932700D01*
X129939725Y-33020000D01*
X129758178Y-32107300D01*
X129241175Y-31333550D01*
X128467425Y-30816547D01*
X127554725Y-30635000D01*
X127461275Y-30635000D01*
X126548575Y-30816547D01*
X125774825Y-31333550D01*
X125257822Y-32107300D01*
X125076275Y-33020000D01*
X98951725Y-33020000D01*
X98770178Y-32107300D01*
X98253175Y-31333550D01*
X97479425Y-30816547D01*
X96566725Y-30635000D01*
X96473275Y-30635000D01*
X95560575Y-30816547D01*
X94786825Y-31333550D01*
X94269822Y-32107300D01*
X94088275Y-33020000D01*
X64915552Y-33020000D01*
X65365943Y-32345943D01*
X70569722Y-28868890D01*
X76777931Y-27634000D01*
X158426069Y-27634000D01*
X165023083Y-28946227D01*
M02*
