G04 #@! TF.FileFunction,Soldermask,Top*
%FSLAX46Y46*%
G04 Gerber Fmt 4.6, Leading zero omitted, Abs format (unit mm)*
G04 Created by KiCad (PCBNEW 4.0.5) date 05/30/17 01:02:00*
%MOMM*%
%LPD*%
G01*
G04 APERTURE LIST*
%ADD10C,0.100000*%
%ADD11R,2.800000X2.800000*%
%ADD12C,2.800000*%
%ADD13O,3.900000X3.900000*%
%ADD14R,2.200000X2.200000*%
%ADD15O,2.200000X2.200000*%
%ADD16C,2.000000*%
%ADD17O,2.000000X2.000000*%
%ADD18R,2.000000X2.000000*%
%ADD19R,2.380000X4.360000*%
%ADD20O,2.380000X4.360000*%
%ADD21O,2.800000X2.800000*%
%ADD22C,1.800000*%
%ADD23O,1.800000X1.800000*%
%ADD24R,1.600000X1.600000*%
%ADD25C,1.600000*%
G04 APERTURE END LIST*
D10*
D11*
X145288000Y-121412000D03*
D12*
X152788000Y-121412000D03*
D13*
X111760000Y-38430000D03*
D14*
X108360000Y-58410000D03*
D15*
X110060000Y-54610000D03*
X111760000Y-58410000D03*
X113460000Y-54610000D03*
X115160000Y-58410000D03*
D13*
X127508000Y-33020000D03*
D14*
X123698000Y-49680000D03*
D15*
X126238000Y-49680000D03*
X128778000Y-49680000D03*
X131318000Y-49680000D03*
D16*
X109728000Y-98044000D03*
D17*
X109728000Y-78044000D03*
D18*
X74168000Y-90384000D03*
D16*
X74168000Y-87884000D03*
X137668000Y-99248000D03*
D17*
X137668000Y-79248000D03*
D16*
X111760000Y-65532000D03*
D17*
X131760000Y-65532000D03*
D16*
X148336000Y-99568000D03*
D17*
X148336000Y-79568000D03*
D11*
X163576000Y-98044000D03*
D12*
X163576000Y-105544000D03*
D14*
X145288000Y-58420000D03*
D15*
X155448000Y-58420000D03*
D14*
X154432000Y-51308000D03*
D15*
X144272000Y-51308000D03*
D19*
X99060000Y-114300000D03*
D20*
X94060000Y-114300000D03*
D19*
X114300000Y-118872000D03*
D20*
X109300000Y-118872000D03*
D19*
X130476000Y-114808000D03*
D20*
X125476000Y-114808000D03*
D13*
X96520000Y-33020000D03*
D14*
X92710000Y-49680000D03*
D15*
X95250000Y-49680000D03*
X97790000Y-49680000D03*
X100330000Y-49680000D03*
D12*
X128270000Y-74930000D03*
D21*
X128270000Y-100330000D03*
D12*
X82804000Y-99060000D03*
D21*
X82804000Y-78740000D03*
D12*
X90424000Y-99060000D03*
D21*
X90424000Y-78740000D03*
D22*
X145288000Y-62992000D03*
D23*
X137668000Y-62992000D03*
D22*
X91440000Y-60452000D03*
D23*
X99060000Y-60452000D03*
D22*
X156464000Y-89916000D03*
D23*
X156464000Y-82296000D03*
D12*
X119888000Y-100076000D03*
D21*
X119888000Y-74676000D03*
D12*
X99060000Y-75692000D03*
D21*
X99060000Y-101092000D03*
D24*
X67564000Y-85852000D03*
D25*
X67564000Y-87852000D03*
M02*
