M48
;DRILL file {KiCad 4.0.5} date 05/30/17 12:36:47
;FORMAT={-:-/ absolute / metric / decimal}
FMAT,2
METRIC,TZ
T1C0.600
T2C0.700
T3C0.800
T4C0.900
T5C1.000
T6C1.200
T7C1.320
%
G90
G05
M71
T1
X67.564Y-85.852
X67.564Y-87.852
T2
X91.44Y-60.452
X99.06Y-60.452
X137.668Y-62.992
X145.288Y-62.992
X156.464Y-82.296
X156.464Y-89.916
T3
X74.168Y-87.884
X74.168Y-90.384
X109.728Y-78.044
X109.728Y-98.044
X111.76Y-65.532
X131.76Y-65.532
X137.668Y-79.248
X137.668Y-99.248
X148.336Y-79.568
X148.336Y-99.568
T4
X144.272Y-51.308
X145.288Y-58.42
X154.432Y-51.308
X155.448Y-58.42
T5
X92.71Y-49.68
X95.25Y-49.68
X97.79Y-49.68
X100.33Y-49.68
X108.36Y-58.41
X110.06Y-54.61
X111.76Y-58.41
X113.46Y-54.61
X115.16Y-58.41
X123.698Y-49.68
X126.238Y-49.68
X128.778Y-49.68
X131.318Y-49.68
T6
X82.804Y-78.74
X82.804Y-99.06
X90.424Y-78.74
X90.424Y-99.06
X99.06Y-75.692
X99.06Y-101.092
X119.888Y-74.676
X119.888Y-100.076
X128.27Y-74.93
X128.27Y-100.33
X145.288Y-121.412
X152.788Y-121.412
X163.576Y-98.044
X163.576Y-105.544
T7
X94.06Y-114.3
X99.06Y-114.3
X109.3Y-118.872
X114.3Y-118.872
X125.476Y-114.808
X130.476Y-114.808
T0
M30
