<?xml version="1.0" standalone="no"?>
 <!DOCTYPE svg PUBLIC "-//W3C//DTD SVG 1.1//EN" 
 "http://www.w3.org/Graphics/SVG/1.1/DTD/svg11.dtd"> 
<svg xmlns="http://www.w3.org/2000/svg" version="1.1" 
    width="29.7002cm" height="21.0007cm" viewBox="0 0 116930 82680 ">
<title>SVG Picture created as 18W_AMP-F.Paste.svg date 2017/05/30 12:44:37 </title>
  <desc>Picture generated by PCBNEW </desc>
<g style="fill:#000000; fill-opacity:1;stroke:#000000; stroke-opacity:1;
stroke-linecap:round; stroke-linejoin:round; "
 transform="translate(0 0) scale(1 1)">
</g>
<g style="fill:#000000; fill-opacity:0.0; 
stroke:#000000; stroke-width:-0.000393701; stroke-opacity:1; 
stroke-linecap:round; stroke-linejoin:round;">
</g>
<g style="fill:#000000; fill-opacity:0.0; 
stroke:#000000; stroke-width:39.3701; stroke-opacity:1; 
stroke-linecap:round; stroke-linejoin:round;">
</g>
<g style="fill:#000000; fill-opacity:0.0; 
stroke:#000000; stroke-width:59.0551; stroke-opacity:1; 
stroke-linecap:round; stroke-linejoin:round;">
<rect x="69685.9" y="65357.2" width="42519.7" height="12598.4" rx="0" />
</g>
<g style="fill:#000000; fill-opacity:0.0; 
stroke:#000000; stroke-width:39.3701; stroke-opacity:1; 
stroke-linecap:round; stroke-linejoin:round;">
</g>
<g style="fill:#000000; fill-opacity:0.0; 
stroke:#000000; stroke-width:59.0551; stroke-opacity:1; 
stroke-linecap:round; stroke-linejoin:round;">
<rect x="3937.01" y="3937.01" width="109056" height="74806" rx="0" />
</g>
<g style="fill:#000000; fill-opacity:0.0; 
stroke:#000000; stroke-width:39.3701; stroke-opacity:1; 
stroke-linecap:round; stroke-linejoin:round;">
</g>
<g style="fill:#000000; fill-opacity:0.0; 
stroke:#000000; stroke-width:59.0551; stroke-opacity:1; 
stroke-linecap:round; stroke-linejoin:round;">
<rect x="4724.41" y="4724.41" width="107481" height="73231.2" rx="0" />
</g>
<g style="fill:#000000; fill-opacity:0.0; 
stroke:#000000; stroke-width:39.3701; stroke-opacity:1; 
stroke-linecap:round; stroke-linejoin:round;">
</g>
<g style="fill:#000000; fill-opacity:0.0; 
stroke:#000000; stroke-width:59.0551; stroke-opacity:1; 
stroke-linecap:round; stroke-linejoin:round;">
<path d="M23622 4724
L23622 3937
" />
</g>
<g style="fill:#000000; fill-opacity:0.0; 
stroke:#000000; stroke-width:39.3701; stroke-opacity:1; 
stroke-linecap:round; stroke-linejoin:round;">
</g>
<g style="fill:#000000; fill-opacity:0.0; 
stroke:#000000; stroke-width:59.0551; stroke-opacity:1; 
stroke-linecap:round; stroke-linejoin:round;">
<path d="M43307 4724
L43307 3937
" />
</g>
<g style="fill:#000000; fill-opacity:0.0; 
stroke:#000000; stroke-width:39.3701; stroke-opacity:1; 
stroke-linecap:round; stroke-linejoin:round;">
</g>
<g style="fill:#000000; fill-opacity:0.0; 
stroke:#000000; stroke-width:59.0551; stroke-opacity:1; 
stroke-linecap:round; stroke-linejoin:round;">
<path d="M62992 4724
L62992 3937
" />
</g>
<g style="fill:#000000; fill-opacity:0.0; 
stroke:#000000; stroke-width:39.3701; stroke-opacity:1; 
stroke-linecap:round; stroke-linejoin:round;">
</g>
<g style="fill:#000000; fill-opacity:0.0; 
stroke:#000000; stroke-width:59.0551; stroke-opacity:1; 
stroke-linecap:round; stroke-linejoin:round;">
<path d="M82677 4724
L82677 3937
" />
</g>
<g style="fill:#000000; fill-opacity:0.0; 
stroke:#000000; stroke-width:39.3701; stroke-opacity:1; 
stroke-linecap:round; stroke-linejoin:round;">
</g>
<g style="fill:#000000; fill-opacity:0.0; 
stroke:#000000; stroke-width:59.0551; stroke-opacity:1; 
stroke-linecap:round; stroke-linejoin:round;">
<path d="M102362 4724
L102362 3937
" />
</g>
<g style="fill:#000000; fill-opacity:0.0; 
stroke:#000000; stroke-width:39.3701; stroke-opacity:1; 
stroke-linecap:round; stroke-linejoin:round;">
</g>
<g style="fill:#000000; fill-opacity:0.0; 
stroke:#000000; stroke-width:59.0551; stroke-opacity:1; 
stroke-linecap:round; stroke-linejoin:round;">
<path d="M14169 4562
L13877 4562
" />
<path d="M14023 4562
L14023 4050
L13974 4123
L13925 4172
L13877 4196
" />
</g>
<g style="fill:#000000; fill-opacity:0.0; 
stroke:#000000; stroke-width:39.3701; stroke-opacity:1; 
stroke-linecap:round; stroke-linejoin:round;">
</g>
<g style="fill:#000000; fill-opacity:0.0; 
stroke:#000000; stroke-width:59.0551; stroke-opacity:1; 
stroke-linecap:round; stroke-linejoin:round;">
<path d="M33562 4099
L33586 4074
L33635 4050
L33757 4050
L33805 4074
L33830 4099
L33854 4147
L33854 4196
L33830 4269
L33537 4562
L33854 4562
" />
</g>
<g style="fill:#000000; fill-opacity:0.0; 
stroke:#000000; stroke-width:39.3701; stroke-opacity:1; 
stroke-linecap:round; stroke-linejoin:round;">
</g>
<g style="fill:#000000; fill-opacity:0.0; 
stroke:#000000; stroke-width:59.0551; stroke-opacity:1; 
stroke-linecap:round; stroke-linejoin:round;">
<path d="M53222 4050
L53539 4050
L53368 4245
L53442 4245
L53490 4269
L53515 4294
L53539 4342
L53539 4464
L53515 4513
L53490 4537
L53442 4562
L53295 4562
L53247 4537
L53222 4513
" />
</g>
<g style="fill:#000000; fill-opacity:0.0; 
stroke:#000000; stroke-width:39.3701; stroke-opacity:1; 
stroke-linecap:round; stroke-linejoin:round;">
</g>
<g style="fill:#000000; fill-opacity:0.0; 
stroke:#000000; stroke-width:59.0551; stroke-opacity:1; 
stroke-linecap:round; stroke-linejoin:round;">
<path d="M73175 4221
L73175 4562
" />
<path d="M73053 4026
L72932 4391
L73248 4391
" />
</g>
<g style="fill:#000000; fill-opacity:0.0; 
stroke:#000000; stroke-width:39.3701; stroke-opacity:1; 
stroke-linecap:round; stroke-linejoin:round;">
</g>
<g style="fill:#000000; fill-opacity:0.0; 
stroke:#000000; stroke-width:59.0551; stroke-opacity:1; 
stroke-linecap:round; stroke-linejoin:round;">
<path d="M92885 4050
L92641 4050
L92617 4294
L92641 4269
L92690 4245
L92812 4245
L92860 4269
L92885 4294
L92909 4342
L92909 4464
L92885 4513
L92860 4537
L92812 4562
L92690 4562
L92641 4537
L92617 4513
" />
</g>
<g style="fill:#000000; fill-opacity:0.0; 
stroke:#000000; stroke-width:39.3701; stroke-opacity:1; 
stroke-linecap:round; stroke-linejoin:round;">
</g>
<g style="fill:#000000; fill-opacity:0.0; 
stroke:#000000; stroke-width:59.0551; stroke-opacity:1; 
stroke-linecap:round; stroke-linejoin:round;">
<path d="M112545 4050
L112448 4050
L112399 4074
L112375 4099
L112326 4172
L112302 4269
L112302 4464
L112326 4513
L112350 4537
L112399 4562
L112497 4562
L112545 4537
L112570 4513
L112594 4464
L112594 4342
L112570 4294
L112545 4269
L112497 4245
L112399 4245
L112350 4269
L112326 4294
L112302 4342
" />
</g>
<g style="fill:#000000; fill-opacity:0.0; 
stroke:#000000; stroke-width:39.3701; stroke-opacity:1; 
stroke-linecap:round; stroke-linejoin:round;">
</g>
<g style="fill:#000000; fill-opacity:0.0; 
stroke:#000000; stroke-width:59.0551; stroke-opacity:1; 
stroke-linecap:round; stroke-linejoin:round;">
<path d="M23622 77955
L23622 78742
" />
</g>
<g style="fill:#000000; fill-opacity:0.0; 
stroke:#000000; stroke-width:39.3701; stroke-opacity:1; 
stroke-linecap:round; stroke-linejoin:round;">
</g>
<g style="fill:#000000; fill-opacity:0.0; 
stroke:#000000; stroke-width:59.0551; stroke-opacity:1; 
stroke-linecap:round; stroke-linejoin:round;">
<path d="M43307 77955
L43307 78742
" />
</g>
<g style="fill:#000000; fill-opacity:0.0; 
stroke:#000000; stroke-width:39.3701; stroke-opacity:1; 
stroke-linecap:round; stroke-linejoin:round;">
</g>
<g style="fill:#000000; fill-opacity:0.0; 
stroke:#000000; stroke-width:59.0551; stroke-opacity:1; 
stroke-linecap:round; stroke-linejoin:round;">
<path d="M62992 77955
L62992 78742
" />
</g>
<g style="fill:#000000; fill-opacity:0.0; 
stroke:#000000; stroke-width:39.3701; stroke-opacity:1; 
stroke-linecap:round; stroke-linejoin:round;">
</g>
<g style="fill:#000000; fill-opacity:0.0; 
stroke:#000000; stroke-width:59.0551; stroke-opacity:1; 
stroke-linecap:round; stroke-linejoin:round;">
<path d="M82677 77955
L82677 78742
" />
</g>
<g style="fill:#000000; fill-opacity:0.0; 
stroke:#000000; stroke-width:39.3701; stroke-opacity:1; 
stroke-linecap:round; stroke-linejoin:round;">
</g>
<g style="fill:#000000; fill-opacity:0.0; 
stroke:#000000; stroke-width:59.0551; stroke-opacity:1; 
stroke-linecap:round; stroke-linejoin:round;">
<path d="M102362 77955
L102362 78742
" />
</g>
<g style="fill:#000000; fill-opacity:0.0; 
stroke:#000000; stroke-width:39.3701; stroke-opacity:1; 
stroke-linecap:round; stroke-linejoin:round;">
</g>
<g style="fill:#000000; fill-opacity:0.0; 
stroke:#000000; stroke-width:59.0551; stroke-opacity:1; 
stroke-linecap:round; stroke-linejoin:round;">
<path d="M14169 78580
L13877 78580
" />
<path d="M14023 78580
L14023 78069
L13974 78142
L13925 78190
L13877 78215
" />
</g>
<g style="fill:#000000; fill-opacity:0.0; 
stroke:#000000; stroke-width:39.3701; stroke-opacity:1; 
stroke-linecap:round; stroke-linejoin:round;">
</g>
<g style="fill:#000000; fill-opacity:0.0; 
stroke:#000000; stroke-width:59.0551; stroke-opacity:1; 
stroke-linecap:round; stroke-linejoin:round;">
<path d="M33562 78117
L33586 78093
L33635 78069
L33757 78069
L33805 78093
L33830 78117
L33854 78166
L33854 78215
L33830 78288
L33537 78580
L33854 78580
" />
</g>
<g style="fill:#000000; fill-opacity:0.0; 
stroke:#000000; stroke-width:39.3701; stroke-opacity:1; 
stroke-linecap:round; stroke-linejoin:round;">
</g>
<g style="fill:#000000; fill-opacity:0.0; 
stroke:#000000; stroke-width:59.0551; stroke-opacity:1; 
stroke-linecap:round; stroke-linejoin:round;">
<path d="M53222 78069
L53539 78069
L53368 78263
L53442 78263
L53490 78288
L53515 78312
L53539 78361
L53539 78483
L53515 78532
L53490 78556
L53442 78580
L53295 78580
L53247 78556
L53222 78532
" />
</g>
<g style="fill:#000000; fill-opacity:0.0; 
stroke:#000000; stroke-width:39.3701; stroke-opacity:1; 
stroke-linecap:round; stroke-linejoin:round;">
</g>
<g style="fill:#000000; fill-opacity:0.0; 
stroke:#000000; stroke-width:59.0551; stroke-opacity:1; 
stroke-linecap:round; stroke-linejoin:round;">
<path d="M73175 78239
L73175 78580
" />
<path d="M73053 78044
L72932 78410
L73248 78410
" />
</g>
<g style="fill:#000000; fill-opacity:0.0; 
stroke:#000000; stroke-width:39.3701; stroke-opacity:1; 
stroke-linecap:round; stroke-linejoin:round;">
</g>
<g style="fill:#000000; fill-opacity:0.0; 
stroke:#000000; stroke-width:59.0551; stroke-opacity:1; 
stroke-linecap:round; stroke-linejoin:round;">
<path d="M92885 78069
L92641 78069
L92617 78312
L92641 78288
L92690 78263
L92812 78263
L92860 78288
L92885 78312
L92909 78361
L92909 78483
L92885 78532
L92860 78556
L92812 78580
L92690 78580
L92641 78556
L92617 78532
" />
</g>
<g style="fill:#000000; fill-opacity:0.0; 
stroke:#000000; stroke-width:39.3701; stroke-opacity:1; 
stroke-linecap:round; stroke-linejoin:round;">
</g>
<g style="fill:#000000; fill-opacity:0.0; 
stroke:#000000; stroke-width:59.0551; stroke-opacity:1; 
stroke-linecap:round; stroke-linejoin:round;">
<path d="M112545 78069
L112448 78069
L112399 78093
L112375 78117
L112326 78190
L112302 78288
L112302 78483
L112326 78532
L112350 78556
L112399 78580
L112497 78580
L112545 78556
L112570 78532
L112594 78483
L112594 78361
L112570 78312
L112545 78288
L112497 78263
L112399 78263
L112350 78288
L112326 78312
L112302 78361
" />
</g>
<g style="fill:#000000; fill-opacity:0.0; 
stroke:#000000; stroke-width:39.3701; stroke-opacity:1; 
stroke-linecap:round; stroke-linejoin:round;">
</g>
<g style="fill:#000000; fill-opacity:0.0; 
stroke:#000000; stroke-width:59.0551; stroke-opacity:1; 
stroke-linecap:round; stroke-linejoin:round;">
<path d="M3937 23622
L4724 23622
" />
</g>
<g style="fill:#000000; fill-opacity:0.0; 
stroke:#000000; stroke-width:39.3701; stroke-opacity:1; 
stroke-linecap:round; stroke-linejoin:round;">
</g>
<g style="fill:#000000; fill-opacity:0.0; 
stroke:#000000; stroke-width:59.0551; stroke-opacity:1; 
stroke-linecap:round; stroke-linejoin:round;">
<path d="M3937 43307
L4724 43307
" />
</g>
<g style="fill:#000000; fill-opacity:0.0; 
stroke:#000000; stroke-width:39.3701; stroke-opacity:1; 
stroke-linecap:round; stroke-linejoin:round;">
</g>
<g style="fill:#000000; fill-opacity:0.0; 
stroke:#000000; stroke-width:59.0551; stroke-opacity:1; 
stroke-linecap:round; stroke-linejoin:round;">
<path d="M3937 62992
L4724 62992
" />
</g>
<g style="fill:#000000; fill-opacity:0.0; 
stroke:#000000; stroke-width:39.3701; stroke-opacity:1; 
stroke-linecap:round; stroke-linejoin:round;">
</g>
<g style="fill:#000000; fill-opacity:0.0; 
stroke:#000000; stroke-width:59.0551; stroke-opacity:1; 
stroke-linecap:round; stroke-linejoin:round;">
<path d="M4208 13864
L4452 13864
" />
<path d="M4160 14011
L4330 13499
L4501 14011
" />
</g>
<g style="fill:#000000; fill-opacity:0.0; 
stroke:#000000; stroke-width:39.3701; stroke-opacity:1; 
stroke-linecap:round; stroke-linejoin:round;">
</g>
<g style="fill:#000000; fill-opacity:0.0; 
stroke:#000000; stroke-width:59.0551; stroke-opacity:1; 
stroke-linecap:round; stroke-linejoin:round;">
<path d="M4367 33428
L4440 33452
L4464 33476
L4489 33525
L4489 33598
L4464 33647
L4440 33671
L4391 33696
L4196 33696
L4196 33184
L4367 33184
L4416 33208
L4440 33233
L4464 33281
L4464 33330
L4440 33379
L4416 33403
L4367 33428
L4196 33428
" />
</g>
<g style="fill:#000000; fill-opacity:0.0; 
stroke:#000000; stroke-width:39.3701; stroke-opacity:1; 
stroke-linecap:round; stroke-linejoin:round;">
</g>
<g style="fill:#000000; fill-opacity:0.0; 
stroke:#000000; stroke-width:59.0551; stroke-opacity:1; 
stroke-linecap:round; stroke-linejoin:round;">
<path d="M4489 53332
L4464 53356
L4391 53381
L4342 53381
L4269 53356
L4221 53308
L4196 53259
L4172 53161
L4172 53088
L4196 52991
L4221 52942
L4269 52893
L4342 52869
L4391 52869
L4464 52893
L4489 52918
" />
</g>
<g style="fill:#000000; fill-opacity:0.0; 
stroke:#000000; stroke-width:39.3701; stroke-opacity:1; 
stroke-linecap:round; stroke-linejoin:round;">
</g>
<g style="fill:#000000; fill-opacity:0.0; 
stroke:#000000; stroke-width:59.0551; stroke-opacity:1; 
stroke-linecap:round; stroke-linejoin:round;">
<path d="M4196 73066
L4196 72554
L4318 72554
L4391 72578
L4440 72627
L4464 72676
L4489 72773
L4489 72846
L4464 72944
L4440 72993
L4391 73041
L4318 73066
L4196 73066
" />
</g>
<g style="fill:#000000; fill-opacity:0.0; 
stroke:#000000; stroke-width:39.3701; stroke-opacity:1; 
stroke-linecap:round; stroke-linejoin:round;">
</g>
<g style="fill:#000000; fill-opacity:0.0; 
stroke:#000000; stroke-width:59.0551; stroke-opacity:1; 
stroke-linecap:round; stroke-linejoin:round;">
<path d="M112992 23622
L112205 23622
" />
</g>
<g style="fill:#000000; fill-opacity:0.0; 
stroke:#000000; stroke-width:39.3701; stroke-opacity:1; 
stroke-linecap:round; stroke-linejoin:round;">
</g>
<g style="fill:#000000; fill-opacity:0.0; 
stroke:#000000; stroke-width:59.0551; stroke-opacity:1; 
stroke-linecap:round; stroke-linejoin:round;">
<path d="M112992 43307
L112205 43307
" />
</g>
<g style="fill:#000000; fill-opacity:0.0; 
stroke:#000000; stroke-width:39.3701; stroke-opacity:1; 
stroke-linecap:round; stroke-linejoin:round;">
</g>
<g style="fill:#000000; fill-opacity:0.0; 
stroke:#000000; stroke-width:59.0551; stroke-opacity:1; 
stroke-linecap:round; stroke-linejoin:round;">
<path d="M112992 62992
L112205 62992
" />
</g>
<g style="fill:#000000; fill-opacity:0.0; 
stroke:#000000; stroke-width:39.3701; stroke-opacity:1; 
stroke-linecap:round; stroke-linejoin:round;">
</g>
<g style="fill:#000000; fill-opacity:0.0; 
stroke:#000000; stroke-width:59.0551; stroke-opacity:1; 
stroke-linecap:round; stroke-linejoin:round;">
<path d="M112477 13864
L112721 13864
" />
<path d="M112428 14011
L112599 13499
L112769 14011
" />
</g>
<g style="fill:#000000; fill-opacity:0.0; 
stroke:#000000; stroke-width:39.3701; stroke-opacity:1; 
stroke-linecap:round; stroke-linejoin:round;">
</g>
<g style="fill:#000000; fill-opacity:0.0; 
stroke:#000000; stroke-width:59.0551; stroke-opacity:1; 
stroke-linecap:round; stroke-linejoin:round;">
<path d="M112635 33428
L112708 33452
L112733 33476
L112757 33525
L112757 33598
L112733 33647
L112708 33671
L112660 33696
L112465 33696
L112465 33184
L112635 33184
L112684 33208
L112708 33233
L112733 33281
L112733 33330
L112708 33379
L112684 33403
L112635 33428
L112465 33428
" />
</g>
<g style="fill:#000000; fill-opacity:0.0; 
stroke:#000000; stroke-width:39.3701; stroke-opacity:1; 
stroke-linecap:round; stroke-linejoin:round;">
</g>
<g style="fill:#000000; fill-opacity:0.0; 
stroke:#000000; stroke-width:59.0551; stroke-opacity:1; 
stroke-linecap:round; stroke-linejoin:round;">
<path d="M112757 53332
L112733 53356
L112660 53381
L112611 53381
L112538 53356
L112489 53308
L112465 53259
L112440 53161
L112440 53088
L112465 52991
L112489 52942
L112538 52893
L112611 52869
L112660 52869
L112733 52893
L112757 52918
" />
</g>
<g style="fill:#000000; fill-opacity:0.0; 
stroke:#000000; stroke-width:39.3701; stroke-opacity:1; 
stroke-linecap:round; stroke-linejoin:round;">
</g>
<g style="fill:#000000; fill-opacity:0.0; 
stroke:#000000; stroke-width:59.0551; stroke-opacity:1; 
stroke-linecap:round; stroke-linejoin:round;">
<path d="M112465 73066
L112465 72554
L112587 72554
L112660 72578
L112708 72627
L112733 72676
L112757 72773
L112757 72846
L112733 72944
L112708 72993
L112660 73041
L112587 73066
L112465 73066
" />
</g>
<g style="fill:#000000; fill-opacity:0.0; 
stroke:#000000; stroke-width:39.3701; stroke-opacity:1; 
stroke-linecap:round; stroke-linejoin:round;">
</g>
<g style="fill:#000000; fill-opacity:0.0; 
stroke:#000000; stroke-width:59.0551; stroke-opacity:1; 
stroke-linecap:round; stroke-linejoin:round;">
<path d="M78881 76293
L78881 75703
L79022 75703
L79106 75731
L79162 75787
L79190 75843
L79219 75956
L79219 76040
L79190 76153
L79162 76209
L79106 76265
L79022 76293
L78881 76293
" />
<path d="M79725 76293
L79725 75984
L79697 75928
L79640 75899
L79528 75899
L79472 75928
" />
<path d="M79725 76265
L79669 76293
L79528 76293
L79472 76265
L79444 76209
L79444 76153
L79472 76096
L79528 76068
L79669 76068
L79725 76040
" />
<path d="M79922 75899
L80147 75899
" />
<path d="M80006 75703
L80006 76209
L80034 76265
L80090 76293
L80147 76293
" />
<path d="M80568 76265
L80512 76293
L80400 76293
L80343 76265
L80315 76209
L80315 75984
L80343 75928
L80400 75899
L80512 75899
L80568 75928
L80597 75984
L80597 76040
L80315 76096
" />
<path d="M80850 76237
L80878 76265
L80850 76293
L80822 76265
L80850 76237
L80850 76293
" />
<path d="M80850 75928
L80878 75956
L80850 75984
L80822 75956
L80850 75928
L80850 75984
" />
<path d="M81553 75759
L81581 75731
L81637 75703
L81778 75703
L81834 75731
L81862 75759
L81890 75815
L81890 75871
L81862 75956
L81525 76293
L81890 76293
" />
<path d="M82256 75703
L82312 75703
L82368 75731
L82396 75759
L82424 75815
L82453 75928
L82453 76068
L82424 76181
L82396 76237
L82368 76265
L82312 76293
L82256 76293
L82199 76265
L82171 76237
L82143 76181
L82115 76068
L82115 75928
L82143 75815
L82171 75759
L82199 75731
L82256 75703
" />
<path d="M83015 76293
L82678 76293
" />
<path d="M82846 76293
L82846 75703
L82790 75787
L82734 75843
L82678 75871
" />
<path d="M83212 75703
L83606 75703
L83352 76293
" />
<path d="M83831 76068
L84280 76068
" />
<path d="M84674 75703
L84730 75703
L84787 75731
L84815 75759
L84843 75815
L84871 75928
L84871 76068
L84843 76181
L84815 76237
L84787 76265
L84730 76293
L84674 76293
L84618 76265
L84590 76237
L84562 76181
L84534 76068
L84534 75928
L84562 75815
L84590 75759
L84618 75731
L84674 75703
" />
<path d="M85405 75703
L85124 75703
L85096 75984
L85124 75956
L85180 75928
L85321 75928
L85377 75956
L85405 75984
L85433 76040
L85433 76181
L85405 76237
L85377 76265
L85321 76293
L85180 76293
L85124 76265
L85096 76237
" />
<path d="M85687 76068
L86136 76068
" />
<path d="M86727 76293
L86390 76293
" />
<path d="M86558 76293
L86558 75703
L86502 75787
L86446 75843
L86390 75871
" />
<path d="M87008 76293
L87121 76293
L87177 76265
L87205 76237
L87261 76153
L87289 76040
L87289 75815
L87261 75759
L87233 75731
L87177 75703
L87064 75703
L87008 75731
L86980 75759
L86952 75815
L86952 75956
L86980 76012
L87008 76040
L87064 76068
L87177 76068
L87233 76040
L87261 76012
L87289 75956
" />
</g>
<g style="fill:#000000; fill-opacity:0.0; 
stroke:#000000; stroke-width:39.3701; stroke-opacity:1; 
stroke-linecap:round; stroke-linejoin:round;">
</g>
<g style="fill:#000000; fill-opacity:0.0; 
stroke:#000000; stroke-width:59.0551; stroke-opacity:1; 
stroke-linecap:round; stroke-linejoin:round;">
<path d="M69685 76577
L112205 76577
" />
</g>
<g style="fill:#000000; fill-opacity:0.0; 
stroke:#000000; stroke-width:39.3701; stroke-opacity:1; 
stroke-linecap:round; stroke-linejoin:round;">
</g>
<g style="fill:#000000; fill-opacity:0.0; 
stroke:#000000; stroke-width:59.0551; stroke-opacity:1; 
stroke-linecap:round; stroke-linejoin:round;">
<path d="M70220 77395
L70220 76805
" />
<path d="M70557 77395
L70304 77058
" />
<path d="M70557 76805
L70220 77142
" />
<path d="M70810 77395
L70810 77002
" />
<path d="M70810 76805
L70782 76833
L70810 76861
L70838 76833
L70810 76805
L70810 76861
" />
<path d="M71429 77339
L71401 77367
L71316 77395
L71260 77395
L71176 77367
L71120 77311
L71091 77255
L71063 77142
L71063 77058
L71091 76946
L71120 76889
L71176 76833
L71260 76805
L71316 76805
L71401 76833
L71429 76861
" />
<path d="M71935 77395
L71935 77086
L71907 77030
L71851 77002
L71738 77002
L71682 77030
" />
<path d="M71935 77367
L71879 77395
L71738 77395
L71682 77367
L71654 77311
L71654 77255
L71682 77199
L71738 77171
L71879 77171
L71935 77142
" />
<path d="M72469 77395
L72469 76805
" />
<path d="M72469 77367
L72413 77395
L72301 77395
L72244 77367
L72216 77339
L72188 77283
L72188 77114
L72216 77058
L72244 77030
L72301 77002
L72413 77002
L72469 77030
" />
<path d="M73201 77086
L73397 77086
" />
<path d="M73482 77395
L73201 77395
L73201 76805
L73482 76805
" />
<path d="M73735 77339
L73763 77367
L73735 77395
L73707 77367
L73735 77339
L73735 77395
" />
<path d="M74016 77395
L74016 76805
L74157 76805
L74241 76833
L74297 76889
L74325 76946
L74354 77058
L74354 77142
L74325 77255
L74297 77311
L74241 77367
L74157 77395
L74016 77395
" />
<path d="M74607 77339
L74635 77367
L74607 77395
L74579 77367
L74607 77339
L74607 77395
" />
<path d="M74860 77227
L75141 77227
" />
<path d="M74804 77395
L75000 76805
L75197 77395
" />
<path d="M75394 77339
L75422 77367
L75394 77395
L75366 77367
L75394 77339
L75394 77395
" />
<path d="M76575 77395
L76575 76805
" />
<path d="M76631 77171
L76800 77395
" />
<path d="M76800 77002
L76575 77227
" />
<path d="M77053 77395
L77053 77002
" />
<path d="M77053 76805
L77025 76833
L77053 76861
L77081 76833
L77053 76805
L77053 76861
" />
<path d="M77588 77367
L77531 77395
L77419 77395
L77363 77367
L77334 77339
L77306 77283
L77306 77114
L77334 77058
L77363 77030
L77419 77002
L77531 77002
L77588 77030
" />
<path d="M78094 77395
L78094 77086
L78066 77030
L78009 77002
L77897 77002
L77841 77030
" />
<path d="M78094 77367
L78037 77395
L77897 77395
L77841 77367
L77813 77311
L77813 77255
L77841 77199
L77897 77171
L78037 77171
L78094 77142
" />
<path d="M78628 77395
L78628 76805
" />
<path d="M78628 77367
L78572 77395
L78459 77395
L78403 77367
L78375 77339
L78347 77283
L78347 77114
L78375 77058
L78403 77030
L78459 77002
L78572 77002
L78628 77030
" />
<path d="M79612 77002
L79612 77395
" />
<path d="M79472 76777
L79331 77199
L79697 77199
" />
<path d="M79922 77339
L79950 77367
L79922 77395
L79894 77367
L79922 77339
L79922 77395
" />
<path d="M80315 76805
L80372 76805
L80428 76833
L80456 76861
L80484 76917
L80512 77030
L80512 77171
L80484 77283
L80456 77339
L80428 77367
L80372 77395
L80315 77395
L80259 77367
L80231 77339
L80203 77283
L80175 77171
L80175 77030
L80203 76917
L80231 76861
L80259 76833
L80315 76805
" />
<path d="M80765 77339
L80793 77367
L80765 77395
L80737 77367
L80765 77339
L80765 77395
" />
<path d="M81328 76805
L81046 76805
L81018 77086
L81046 77058
L81103 77030
L81243 77030
L81300 77058
L81328 77086
L81356 77142
L81356 77283
L81328 77339
L81300 77367
L81243 77395
L81103 77395
L81046 77367
L81018 77339
" />
</g>
<g style="fill:#000000; fill-opacity:0.0; 
stroke:#000000; stroke-width:39.3701; stroke-opacity:1; 
stroke-linecap:round; stroke-linejoin:round;">
</g>
<g style="fill:#000000; fill-opacity:0.0; 
stroke:#000000; stroke-width:59.0551; stroke-opacity:1; 
stroke-linecap:round; stroke-linejoin:round;">
<path d="M69685 75396
L112205 75396
" />
</g>
<g style="fill:#000000; fill-opacity:0.0; 
stroke:#000000; stroke-width:39.3701; stroke-opacity:1; 
stroke-linecap:round; stroke-linejoin:round;">
</g>
<g style="fill:#000000; fill-opacity:0.0; 
stroke:#000000; stroke-width:118.11; stroke-opacity:1; 
stroke-linecap:round; stroke-linejoin:round;">
<path d="M104022 76293
L103825 76012
" />
<path d="M103684 76293
L103684 75703
L103909 75703
L103965 75731
L103994 75759
L104022 75815
L104022 75899
L103994 75956
L103965 75984
L103909 76012
L103684 76012
" />
<path d="M104500 76265
L104444 76293
L104331 76293
L104275 76265
L104247 76209
L104247 75984
L104275 75928
L104331 75899
L104444 75899
L104500 75928
L104528 75984
L104528 76040
L104247 76096
" />
<path d="M104725 75899
L104865 76293
L105006 75899
" />
<path d="M105231 76237
L105259 76265
L105231 76293
L105203 76265
L105231 76237
L105231 76293
" />
<path d="M105231 75928
L105259 75956
L105231 75984
L105203 75956
L105231 75928
L105231 75984
" />
<path d="M106271 76293
L105934 76293
" />
<path d="M106103 76293
L106103 75703
L106046 75787
L105990 75843
L105934 75871
" />
<path d="M106525 76237
L106553 76265
L106525 76293
L106496 76265
L106525 76237
L106525 76293
" />
<path d="M106918 75703
L106974 75703
L107031 75731
L107059 75759
L107087 75815
L107115 75928
L107115 76068
L107087 76181
L107059 76237
L107031 76265
L106974 76293
L106918 76293
L106862 76265
L106834 76237
L106806 76181
L106778 76068
L106778 75928
L106806 75815
L106834 75759
L106862 75731
L106918 75703
" />
</g>
<g style="fill:#000000; fill-opacity:0.0; 
stroke:#000000; stroke-width:39.3701; stroke-opacity:1; 
stroke-linecap:round; stroke-linejoin:round;">
</g>
<g style="fill:#000000; fill-opacity:0.0; 
stroke:#000000; stroke-width:59.0551; stroke-opacity:1; 
stroke-linecap:round; stroke-linejoin:round;">
<path d="M70192 76265
L70276 76293
L70417 76293
L70473 76265
L70501 76237
L70529 76181
L70529 76124
L70501 76068
L70473 76040
L70417 76012
L70304 75984
L70248 75956
L70220 75928
L70192 75871
L70192 75815
L70220 75759
L70248 75731
L70304 75703
L70445 75703
L70529 75731
" />
<path d="M70782 76293
L70782 75899
" />
<path d="M70782 75703
L70754 75731
L70782 75759
L70810 75731
L70782 75703
L70782 75759
" />
<path d="M71007 75899
L71316 75899
L71007 76293
L71316 76293
" />
<path d="M71766 76265
L71710 76293
L71598 76293
L71541 76265
L71513 76209
L71513 75984
L71541 75928
L71598 75899
L71710 75899
L71766 75928
L71795 75984
L71795 76040
L71513 76096
" />
<path d="M72048 76237
L72076 76265
L72048 76293
L72019 76265
L72048 76237
L72048 76293
" />
<path d="M72048 75928
L72076 75956
L72048 75984
L72019 75956
L72048 75928
L72048 75984
" />
<path d="M72751 76124
L73032 76124
" />
<path d="M72694 76293
L72891 75703
L73088 76293
" />
<path d="M73538 75899
L73538 76293
" />
<path d="M73397 75674
L73257 76096
L73622 76096
" />
</g>
<g style="fill:#000000; fill-opacity:0.0; 
stroke:#000000; stroke-width:39.3701; stroke-opacity:1; 
stroke-linecap:round; stroke-linejoin:round;">
</g>
<g style="fill:#000000; fill-opacity:0.0; 
stroke:#000000; stroke-width:59.0551; stroke-opacity:1; 
stroke-linecap:round; stroke-linejoin:round;">
<path d="M103684 77395
L103684 76805
" />
<path d="M104219 77395
L104219 76805
" />
<path d="M104219 77367
L104162 77395
L104050 77395
L103994 77367
L103965 77339
L103937 77283
L103937 77114
L103965 77058
L103994 77030
L104050 77002
L104162 77002
L104219 77030
" />
<path d="M104500 77339
L104528 77367
L104500 77395
L104472 77367
L104500 77339
L104500 77395
" />
<path d="M104500 77030
L104528 77058
L104500 77086
L104472 77058
L104500 77030
L104500 77086
" />
<path d="M105540 77395
L105203 77395
" />
<path d="M105372 77395
L105372 76805
L105315 76889
L105259 76946
L105203 76974
" />
<path d="M106215 76777
L105709 77536
" />
<path d="M106721 77395
L106384 77395
" />
<path d="M106553 77395
L106553 76805
L106496 76889
L106440 76946
L106384 76974
" />
</g>
<g style="fill:#000000; fill-opacity:0.0; 
stroke:#000000; stroke-width:39.3701; stroke-opacity:1; 
stroke-linecap:round; stroke-linejoin:round;">
</g>
<g style="fill:#000000; fill-opacity:0.0; 
stroke:#000000; stroke-width:59.0551; stroke-opacity:1; 
stroke-linecap:round; stroke-linejoin:round;">
<path d="M69685 73821
L112205 73821
" />
</g>
<g style="fill:#000000; fill-opacity:0.0; 
stroke:#000000; stroke-width:39.3701; stroke-opacity:1; 
stroke-linecap:round; stroke-linejoin:round;">
</g>
<g style="fill:#000000; fill-opacity:0.0; 
stroke:#000000; stroke-width:157.48; stroke-opacity:1; 
stroke-linecap:round; stroke-linejoin:round;">
<path d="M70257 74099
L70707 74099
" />
<path d="M70384 74886
L70482 74099
" />
<path d="M70871 74886
L70937 74361
" />
<path d="M70970 74099
L70927 74136
L70960 74174
L71002 74136
L70970 74099
L70960 74174
" />
<path d="M71199 74361
L71499 74361
" />
<path d="M71345 74099
L71260 74774
L71288 74849
L71359 74886
L71434 74886
" />
<path d="M71809 74886
L71738 74849
L71710 74774
L71795 74099
" />
<path d="M72413 74849
L72334 74886
L72184 74886
L72113 74849
L72085 74774
L72123 74474
L72169 74399
L72249 74361
L72399 74361
L72469 74399
L72498 74474
L72488 74549
L72104 74624
" />
<path d="M72793 74811
L72826 74849
L72783 74886
L72751 74849
L72793 74811
L72783 74886
" />
<path d="M72844 74399
L72877 74436
L72835 74474
L72802 74436
L72844 74399
L72835 74474
" />
<path d="M74171 74886
L73721 74886
" />
<path d="M73946 74886
L74044 74099
L73955 74211
L73871 74286
L73791 74324
" />
<path d="M74677 74436
L74607 74399
L74574 74361
L74546 74286
L74550 74249
L74597 74174
L74639 74136
L74719 74099
L74869 74099
L74939 74136
L74972 74174
L75000 74249
L74996 74286
L74949 74361
L74907 74399
L74827 74436
L74677 74436
L74597 74474
L74555 74511
L74508 74586
L74489 74736
L74518 74811
L74550 74849
L74621 74886
L74771 74886
L74850 74849
L74893 74811
L74939 74736
L74958 74586
L74930 74511
L74897 74474
L74827 74436
" />
<path d="M75282 74099
L75371 74886
L75591 74324
L75671 74886
L75956 74099
" />
<path d="M76749 74661
L77124 74661
" />
<path d="M76645 74886
L77006 74099
L77170 74886
" />
<path d="M77836 74361
L77770 74886
" />
<path d="M77498 74361
L77447 74774
L77475 74849
L77545 74886
L77658 74886
L77738 74849
L77780 74811
" />
<path d="M78483 74886
L78581 74099
" />
<path d="M78487 74849
L78408 74886
L78258 74886
L78187 74849
L78155 74811
L78127 74736
L78155 74511
L78202 74436
L78244 74399
L78323 74361
L78473 74361
L78544 74399
" />
<path d="M78858 74886
L78923 74361
" />
<path d="M78956 74099
L78914 74136
L78947 74174
L78989 74136
L78956 74099
L78947 74174
" />
<path d="M79345 74886
L79275 74849
L79242 74811
L79214 74736
L79242 74511
L79289 74436
L79331 74399
L79411 74361
L79523 74361
L79594 74399
L79626 74436
L79654 74511
L79626 74736
L79579 74811
L79537 74849
L79458 74886
L79345 74886
" />
<path d="M80536 74661
L80911 74661
" />
<path d="M80433 74886
L80793 74099
L80957 74886
" />
<path d="M81220 74886
L81286 74361
" />
<path d="M81276 74436
L81318 74399
L81398 74361
L81510 74361
L81581 74399
L81609 74474
L81557 74886
" />
<path d="M81609 74474
L81656 74399
L81735 74361
L81848 74361
L81918 74399
L81946 74474
L81895 74886
" />
<path d="M82335 74361
L82237 75149
" />
<path d="M82331 74399
L82410 74361
L82560 74361
L82631 74399
L82663 74436
L82692 74511
L82663 74736
L82617 74811
L82574 74849
L82495 74886
L82345 74886
L82274 74849
" />
<path d="M83095 74886
L83024 74849
L82996 74774
L83081 74099
" />
<path d="M83395 74886
L83460 74361
" />
<path d="M83493 74099
L83451 74136
L83484 74174
L83526 74136
L83493 74099
L83484 74174
" />
<path d="M83723 74361
L84023 74361
" />
<path d="M83770 74886
L83854 74211
L83901 74136
L83980 74099
L84055 74099
" />
<path d="M84220 74886
L84285 74361
" />
<path d="M84318 74099
L84276 74136
L84309 74174
L84351 74136
L84318 74099
L84309 74174
" />
<path d="M84899 74849
L84819 74886
L84669 74886
L84599 74849
L84571 74774
L84609 74474
L84655 74399
L84735 74361
L84885 74361
L84955 74399
L84983 74474
L84974 74549
L84590 74624
" />
<path d="M85269 74886
L85335 74361
" />
<path d="M85316 74511
L85363 74436
L85405 74399
L85485 74361
L85560 74361
" />
</g>
<g style="fill:#000000; fill-opacity:0.0; 
stroke:#000000; stroke-width:39.3701; stroke-opacity:1; 
stroke-linecap:round; stroke-linejoin:round;">
</g>
<g style="fill:#000000; fill-opacity:0.0; 
stroke:#000000; stroke-width:59.0551; stroke-opacity:1; 
stroke-linecap:round; stroke-linejoin:round;">
<path d="M70417 73070
L70220 73070
" />
<path d="M70220 73380
L70220 72789
L70501 72789
" />
<path d="M70726 73380
L70726 72986
" />
<path d="M70726 72789
L70698 72817
L70726 72845
L70754 72817
L70726 72789
L70726 72845
" />
<path d="M71091 73380
L71035 73352
L71007 73295
L71007 72789
" />
<path d="M71541 73352
L71485 73380
L71373 73380
L71316 73352
L71288 73295
L71288 73070
L71316 73014
L71373 72986
L71485 72986
L71541 73014
L71570 73070
L71570 73127
L71288 73183
" />
<path d="M71823 73323
L71851 73352
L71823 73380
L71795 73352
L71823 73323
L71823 73380
" />
<path d="M71823 73014
L71851 73042
L71823 73070
L71795 73042
L71823 73014
L71823 73070
" />
<path d="M72863 73380
L72526 73380
" />
<path d="M72694 73380
L72694 72789
L72638 72874
L72582 72930
L72526 72958
" />
<path d="M73201 73042
L73144 73014
L73116 72986
L73088 72930
L73088 72902
L73116 72845
L73144 72817
L73201 72789
L73313 72789
L73369 72817
L73397 72845
L73426 72902
L73426 72930
L73397 72986
L73369 73014
L73313 73042
L73201 73042
L73144 73070
L73116 73099
L73088 73155
L73088 73267
L73116 73323
L73144 73352
L73201 73380
L73313 73380
L73369 73352
L73397 73323
L73426 73267
L73426 73155
L73397 73099
L73369 73070
L73313 73042
" />
<path d="M73622 72789
L73763 73380
L73876 72958
L73988 73380
L74129 72789
" />
<path d="M74213 73436
L74663 73436
" />
<path d="M74775 73211
L75057 73211
" />
<path d="M74719 73380
L74916 72789
L75113 73380
" />
<path d="M75310 73380
L75310 72789
L75507 73211
L75703 72789
L75703 73380
" />
<path d="M75985 73380
L75985 72789
L76210 72789
L76266 72817
L76294 72845
L76322 72902
L76322 72986
L76294 73042
L76266 73070
L76210 73099
L75985 73099
" />
<path d="M76575 73323
L76603 73352
L76575 73380
L76547 73352
L76575 73323
L76575 73380
" />
<path d="M76856 73380
L76856 72789
" />
<path d="M76913 73155
L77081 73380
" />
<path d="M77081 72986
L76856 73211
" />
<path d="M77334 73380
L77334 72986
" />
<path d="M77334 72789
L77306 72817
L77334 72845
L77363 72817
L77334 72789
L77334 72845
" />
<path d="M77869 73352
L77813 73380
L77700 73380
L77644 73352
L77616 73323
L77588 73267
L77588 73099
L77616 73042
L77644 73014
L77700 72986
L77813 72986
L77869 73014
" />
<path d="M78375 73380
L78375 73070
L78347 73014
L78291 72986
L78178 72986
L78122 73014
" />
<path d="M78375 73352
L78319 73380
L78178 73380
L78122 73352
L78094 73295
L78094 73239
L78122 73183
L78178 73155
L78319 73155
L78375 73127
" />
<path d="M78909 73380
L78909 72789
" />
<path d="M78909 73352
L78853 73380
L78741 73380
L78684 73352
L78656 73323
L78628 73267
L78628 73099
L78656 73042
L78684 73014
L78741 72986
L78853 72986
L78909 73014
" />
<path d="M79050 73436
L79500 73436
" />
<path d="M79640 72986
L79640 73577
" />
<path d="M79640 73014
L79697 72986
L79809 72986
L79865 73014
L79894 73042
L79922 73099
L79922 73267
L79894 73323
L79865 73352
L79809 73380
L79697 73380
L79640 73352
" />
<path d="M80428 73352
L80372 73380
L80259 73380
L80203 73352
L80175 73323
L80147 73267
L80147 73099
L80175 73042
L80203 73014
L80259 72986
L80372 72986
L80428 73014
" />
<path d="M80681 73380
L80681 72789
" />
<path d="M80681 73014
L80737 72986
L80850 72986
L80906 73014
L80934 73042
L80962 73099
L80962 73267
L80934 73323
L80906 73352
L80850 73380
L80737 73380
L80681 73352
" />
</g>
<g style="fill:#000000; fill-opacity:0.0; 
stroke:#000000; stroke-width:39.3701; stroke-opacity:1; 
stroke-linecap:round; stroke-linejoin:round;">
</g>
<g style="fill:#000000; fill-opacity:0.0; 
stroke:#000000; stroke-width:59.0551; stroke-opacity:1; 
stroke-linecap:round; stroke-linejoin:round;">
<path d="M69685 71459
L112205 71459
" />
</g>
<g style="fill:#000000; fill-opacity:0.0; 
stroke:#000000; stroke-width:39.3701; stroke-opacity:1; 
stroke-linecap:round; stroke-linejoin:round;">
</g>
<g style="fill:#000000; fill-opacity:0.0; 
stroke:#000000; stroke-width:59.0551; stroke-opacity:1; 
stroke-linecap:round; stroke-linejoin:round;">
<path d="M70192 72289
L70276 72317
L70417 72317
L70473 72289
L70501 72260
L70529 72204
L70529 72148
L70501 72092
L70473 72064
L70417 72036
L70304 72007
L70248 71979
L70220 71951
L70192 71895
L70192 71839
L70220 71782
L70248 71754
L70304 71726
L70445 71726
L70529 71754
" />
<path d="M70782 72317
L70782 71726
" />
<path d="M71035 72317
L71035 72007
L71007 71951
L70951 71923
L70867 71923
L70810 71951
L70782 71979
" />
<path d="M71541 72289
L71485 72317
L71373 72317
L71316 72289
L71288 72232
L71288 72007
L71316 71951
L71373 71923
L71485 71923
L71541 71951
L71570 72007
L71570 72064
L71288 72120
" />
<path d="M72048 72289
L71991 72317
L71879 72317
L71823 72289
L71795 72232
L71795 72007
L71823 71951
L71879 71923
L71991 71923
L72048 71951
L72076 72007
L72076 72064
L71795 72120
" />
<path d="M72244 71923
L72469 71923
" />
<path d="M72329 71726
L72329 72232
L72357 72289
L72413 72317
L72469 72317
" />
<path d="M72666 72260
L72694 72289
L72666 72317
L72638 72289
L72666 72260
L72666 72317
" />
<path d="M72666 71951
L72694 71979
L72666 72007
L72638 71979
L72666 71951
L72666 72007
" />
</g>
<g style="fill:#000000; fill-opacity:0.0; 
stroke:#000000; stroke-width:39.3701; stroke-opacity:1; 
stroke-linecap:round; stroke-linejoin:round;">
</g>
<g style="fill:#000000; fill-opacity:0.0; 
stroke:#000000; stroke-width:118.11; stroke-opacity:1; 
stroke-linecap:round; stroke-linejoin:round;">
<path d="M70135 70545
L70332 71136
L70529 70545
" />
<path d="M70951 71108
L70895 71136
L70782 71136
L70726 71108
L70698 71051
L70698 70826
L70726 70770
L70782 70742
L70895 70742
L70951 70770
L70979 70826
L70979 70883
L70698 70939
" />
<path d="M71232 70742
L71232 71136
" />
<path d="M71232 70798
L71260 70770
L71316 70742
L71401 70742
L71457 70770
L71485 70826
L71485 71136
" />
<path d="M71682 70742
L71907 70742
" />
<path d="M71766 70545
L71766 71051
L71795 71108
L71851 71136
L71907 71136
" />
<path d="M72076 71108
L72132 71136
L72244 71136
L72301 71108
L72329 71051
L72329 71023
L72301 70967
L72244 70939
L72160 70939
L72104 70911
L72076 70854
L72076 70826
L72104 70770
L72160 70742
L72244 70742
L72301 70770
" />
<path d="M72582 70742
L72582 71332
" />
<path d="M72582 70770
L72638 70742
L72751 70742
L72807 70770
L72835 70798
L72863 70854
L72863 71023
L72835 71079
L72807 71108
L72751 71136
L72638 71136
L72582 71108
" />
<path d="M73116 71136
L73116 70742
" />
<path d="M73116 70545
L73088 70573
L73116 70601
L73144 70573
L73116 70545
L73116 70601
" />
<path d="M73482 71136
L73426 71108
L73397 71051
L73397 70545
" />
<path d="M73679 71108
L73735 71136
L73847 71136
L73904 71108
L73932 71051
L73932 71023
L73904 70967
L73847 70939
L73763 70939
L73707 70911
L73679 70854
L73679 70826
L73707 70770
L73763 70742
L73847 70742
L73904 70770
" />
<path d="M74607 70967
L74888 70967
" />
<path d="M74550 71136
L74747 70545
L74944 71136
" />
<path d="M75394 70742
L75394 71136
" />
<path d="M75141 70742
L75141 71051
L75169 71108
L75225 71136
L75310 71136
L75366 71108
L75394 71079
" />
<path d="M75928 70742
L75928 71220
L75900 71276
L75872 71304
L75816 71332
L75732 71332
L75675 71304
" />
<path d="M75928 71108
L75872 71136
L75760 71136
L75703 71108
L75675 71079
L75647 71023
L75647 70854
L75675 70798
L75703 70770
L75760 70742
L75872 70742
L75928 70770
" />
<path d="M76181 71108
L76238 71136
L76350 71136
L76406 71108
L76435 71051
L76435 71023
L76406 70967
L76350 70939
L76266 70939
L76210 70911
L76181 70854
L76181 70826
L76210 70770
L76266 70742
L76350 70742
L76406 70770
" />
<path d="M76603 70742
L76828 70742
" />
<path d="M76688 70545
L76688 71051
L76716 71108
L76772 71136
L76828 71136
" />
<path d="M77025 71136
L77025 70545
" />
<path d="M77081 70911
L77250 71136
" />
<path d="M77250 70742
L77025 70967
" />
<path d="M77588 71136
L77531 71108
L77503 71079
L77475 71023
L77475 70854
L77503 70798
L77531 70770
L77588 70742
L77672 70742
L77728 70770
L77756 70798
L77784 70854
L77784 71023
L77756 71079
L77728 71108
L77672 71136
L77588 71136
" />
<path d="M78122 71136
L78066 71108
L78037 71051
L78037 70545
" />
<path d="M78600 71136
L78600 70826
L78572 70770
L78516 70742
L78403 70742
L78347 70770
" />
<path d="M78600 71108
L78544 71136
L78403 71136
L78347 71108
L78319 71051
L78319 70995
L78347 70939
L78403 70911
L78544 70911
L78600 70883
" />
</g>
<g style="fill:#000000; fill-opacity:0.0; 
stroke:#000000; stroke-width:39.3701; stroke-opacity:1; 
stroke-linecap:round; stroke-linejoin:round;">
</g>
<g style="fill:#000000; fill-opacity:0.0; 
stroke:#000000; stroke-width:59.0551; stroke-opacity:1; 
stroke-linecap:round; stroke-linejoin:round;">
<path d="M70220 69955
L70220 69364
" />
<path d="M70557 69955
L70304 69617
" />
<path d="M70557 69364
L70220 69701
" />
<path d="M70810 69955
L70810 69561
" />
<path d="M70810 69673
L70838 69617
L70867 69589
L70923 69561
L70979 69561
" />
<path d="M71176 69955
L71176 69561
" />
<path d="M71176 69364
L71148 69392
L71176 69420
L71204 69392
L71176 69364
L71176 69420
" />
<path d="M71429 69926
L71485 69955
L71598 69955
L71654 69926
L71682 69870
L71682 69842
L71654 69786
L71598 69758
L71513 69758
L71457 69730
L71429 69673
L71429 69645
L71457 69589
L71513 69561
L71598 69561
L71654 69589
" />
<path d="M71851 69561
L72076 69561
" />
<path d="M71935 69364
L71935 69870
L71963 69926
L72019 69955
L72076 69955
" />
<path d="M72526 69955
L72526 69645
L72498 69589
L72441 69561
L72329 69561
L72273 69589
" />
<path d="M72526 69926
L72469 69955
L72329 69955
L72273 69926
L72244 69870
L72244 69814
L72273 69758
L72329 69730
L72469 69730
L72526 69701
" />
<path d="M72807 69561
L72807 70151
" />
<path d="M72807 69589
L72863 69561
L72976 69561
L73032 69589
L73060 69617
L73088 69673
L73088 69842
L73060 69898
L73032 69926
L72976 69955
L72863 69955
L72807 69926
" />
<path d="M73313 69926
L73369 69955
L73482 69955
L73538 69926
L73566 69870
L73566 69842
L73538 69786
L73482 69758
L73397 69758
L73341 69730
L73313 69673
L73313 69645
L73341 69589
L73397 69561
L73482 69561
L73538 69589
" />
<path d="M74269 69955
L74269 69364
" />
<path d="M74607 69955
L74354 69617
" />
<path d="M74607 69364
L74269 69701
" />
<path d="M75113 69955
L75113 69645
L75085 69589
L75028 69561
L74916 69561
L74860 69589
" />
<path d="M75113 69926
L75057 69955
L74916 69955
L74860 69926
L74832 69870
L74832 69814
L74860 69758
L74916 69730
L75057 69730
L75113 69701
" />
<path d="M75478 69955
L75422 69926
L75394 69870
L75394 69364
" />
<path d="M75703 69561
L75703 69955
" />
<path d="M75703 69617
L75732 69589
L75788 69561
L75872 69561
L75928 69589
L75956 69645
L75956 69955
" />
<path d="M76238 69955
L76238 69561
" />
<path d="M76238 69364
L76210 69392
L76238 69420
L76266 69392
L76238 69364
L76238 69420
" />
<path d="M76519 69561
L76519 69955
" />
<path d="M76519 69617
L76547 69589
L76603 69561
L76688 69561
L76744 69589
L76772 69645
L76772 69955
" />
<path d="M76631 69983
L76688 70011
L76716 70067
L76688 70123
L76631 70151
L76547 70151
" />
<path d="M77025 69926
L77081 69955
L77194 69955
L77250 69926
L77278 69870
L77278 69842
L77250 69786
L77194 69758
L77109 69758
L77053 69730
L77025 69673
L77025 69645
L77053 69589
L77109 69561
L77194 69561
L77250 69589
" />
<path d="M77025 69336
L77138 69420
L77250 69336
" />
</g>
<g style="fill:#000000; fill-opacity:0.0; 
stroke:#000000; stroke-width:39.3701; stroke-opacity:1; 
stroke-linecap:round; stroke-linejoin:round;">
</g>
<g style="fill:#000000; fill-opacity:0.0; 
stroke:#000000; stroke-width:59.0551; stroke-opacity:1; 
stroke-linecap:round; stroke-linejoin:round;">
<path d="M70220 68773
L70220 68183
" />
<path d="M70557 68773
L70304 68436
" />
<path d="M70557 68183
L70220 68520
" />
<path d="M71063 68380
L71063 68773
" />
<path d="M70810 68380
L70810 68689
L70838 68745
L70895 68773
L70979 68773
L71035 68745
L71063 68717
" />
<path d="M71345 68773
L71345 68380
" />
<path d="M71345 68492
L71373 68436
L71401 68408
L71457 68380
L71513 68380
" />
<path d="M71682 68745
L71738 68773
L71851 68773
L71907 68745
L71935 68689
L71935 68661
L71907 68605
L71851 68577
L71766 68577
L71710 68548
L71682 68492
L71682 68464
L71710 68408
L71766 68380
L71851 68380
L71907 68408
" />
<path d="M72441 68773
L72441 68464
L72413 68408
L72357 68380
L72244 68380
L72188 68408
" />
<path d="M72441 68745
L72385 68773
L72244 68773
L72188 68745
L72160 68689
L72160 68633
L72188 68577
L72244 68548
L72385 68548
L72441 68520
" />
<path d="M73426 68773
L73426 68183
" />
<path d="M73426 68745
L73369 68773
L73257 68773
L73201 68745
L73172 68717
L73144 68661
L73144 68492
L73172 68436
L73201 68408
L73257 68380
L73369 68380
L73426 68408
" />
<path d="M73960 68773
L73960 68464
L73932 68408
L73876 68380
L73763 68380
L73707 68408
" />
<path d="M73960 68745
L73904 68773
L73763 68773
L73707 68745
L73679 68689
L73679 68633
L73707 68577
L73763 68548
L73904 68548
L73960 68520
" />
<path d="M74241 68773
L74241 68380
" />
<path d="M74241 68492
L74269 68436
L74297 68408
L74354 68380
L74410 68380
" />
<path d="M74607 68773
L74607 68183
" />
<path d="M74607 68408
L74663 68380
L74775 68380
L74832 68408
L74860 68436
L74888 68492
L74888 68661
L74860 68717
L74832 68745
L74775 68773
L74663 68773
L74607 68745
" />
<path d="M75113 68745
L75169 68773
L75282 68773
L75338 68745
L75366 68689
L75366 68661
L75338 68605
L75282 68577
L75197 68577
L75141 68548
L75113 68492
L75113 68464
L75141 68408
L75197 68380
L75282 68380
L75338 68408
" />
<path d="M76322 68773
L76322 68183
" />
<path d="M76322 68745
L76266 68773
L76153 68773
L76097 68745
L76069 68717
L76041 68661
L76041 68492
L76069 68436
L76097 68408
L76153 68380
L76266 68380
L76322 68408
" />
<path d="M76856 68773
L76856 68464
L76828 68408
L76772 68380
L76660 68380
L76603 68408
" />
<path d="M76856 68745
L76800 68773
L76660 68773
L76603 68745
L76575 68689
L76575 68633
L76603 68577
L76660 68548
L76800 68548
L76856 68520
" />
<path d="M77053 68380
L77278 68380
" />
<path d="M77138 68183
L77138 68689
L77166 68745
L77222 68773
L77278 68773
" />
<path d="M77559 68773
L77503 68745
L77475 68717
L77447 68661
L77447 68492
L77475 68436
L77503 68408
L77559 68380
L77644 68380
L77700 68408
L77728 68436
L77756 68492
L77756 68661
L77728 68717
L77700 68745
L77644 68773
L77559 68773
" />
<path d="M78009 68773
L78009 68380
" />
<path d="M78009 68492
L78037 68436
L78066 68408
L78122 68380
L78178 68380
" />
<path d="M78375 68773
L78375 68380
" />
<path d="M78375 68183
L78347 68211
L78375 68239
L78403 68211
L78375 68183
L78375 68239
" />
<path d="M78600 68380
L78909 68380
L78600 68773
L78909 68773
" />
<path d="M79359 68745
L79303 68773
L79190 68773
L79134 68745
L79106 68689
L79106 68464
L79134 68408
L79190 68380
L79303 68380
L79359 68408
L79387 68464
L79387 68520
L79106 68577
" />
<path d="M79106 68211
L79387 68211
" />
<path d="M79556 68380
L79781 68380
" />
<path d="M79640 68183
L79640 68689
L79669 68745
L79725 68773
L79781 68773
" />
<path d="M80231 68773
L80231 68464
L80203 68408
L80147 68380
L80034 68380
L79978 68408
" />
<path d="M80231 68745
L80175 68773
L80034 68773
L79978 68745
L79950 68689
L79950 68633
L79978 68577
L80034 68548
L80175 68548
L80231 68520
" />
<path d="M80512 68380
L80512 68886
L80484 68942
L80428 68970
L80400 68970
" />
<path d="M80512 68183
L80484 68211
L80512 68239
L80540 68211
L80512 68183
L80512 68239
" />
<path d="M81046 68773
L81046 68464
L81018 68408
L80962 68380
L80850 68380
L80793 68408
" />
<path d="M81046 68745
L80990 68773
L80850 68773
L80793 68745
L80765 68689
L80765 68633
L80793 68577
L80850 68548
L80990 68548
L81046 68520
" />
<path d="M80765 68211
L81046 68211
" />
<path d="M81778 68380
L81778 68970
" />
<path d="M81778 68408
L81834 68380
L81946 68380
L82003 68408
L82031 68436
L82059 68492
L82059 68661
L82031 68717
L82003 68745
L81946 68773
L81834 68773
L81778 68745
" />
<path d="M82312 68773
L82312 68380
" />
<path d="M82312 68492
L82340 68436
L82368 68408
L82424 68380
L82481 68380
" />
<path d="M82762 68773
L82706 68745
L82678 68717
L82649 68661
L82649 68492
L82678 68436
L82706 68408
L82762 68380
L82846 68380
L82903 68408
L82931 68436
L82959 68492
L82959 68661
L82931 68717
L82903 68745
L82846 68773
L82762 68773
" />
<path d="M83212 68380
L83212 68886
L83184 68942
L83127 68970
L83099 68970
" />
<path d="M83212 68183
L83184 68211
L83212 68239
L83240 68211
L83212 68183
L83212 68239
" />
<path d="M83718 68745
L83662 68773
L83549 68773
L83493 68745
L83465 68689
L83465 68464
L83493 68408
L83549 68380
L83662 68380
L83718 68408
L83746 68464
L83746 68520
L83465 68577
" />
<path d="M83999 68773
L83999 68183
" />
<path d="M84055 68548
L84224 68773
" />
<path d="M84224 68380
L83999 68605
" />
<path d="M84393 68380
L84618 68380
" />
<path d="M84477 68183
L84477 68689
L84505 68745
L84562 68773
L84618 68773
" />
<path d="M85040 68745
L84983 68773
L84871 68773
L84815 68745
L84787 68689
L84787 68464
L84815 68408
L84871 68380
L84983 68380
L85040 68408
L85068 68464
L85068 68520
L84787 68577
" />
<path d="M84787 68211
L85068 68211
" />
<path d="M85293 68745
L85349 68773
L85462 68773
L85518 68745
L85546 68689
L85546 68661
L85518 68605
L85462 68577
L85377 68577
L85321 68548
L85293 68492
L85293 68464
L85321 68408
L85377 68380
L85462 68380
L85518 68408
" />
<path d="M85293 68155
L85405 68239
L85518 68155
" />
<path d="M86052 68773
L86052 68464
L86024 68408
L85968 68380
L85855 68380
L85799 68408
" />
<path d="M86052 68745
L85996 68773
L85855 68773
L85799 68745
L85771 68689
L85771 68633
L85799 68577
L85855 68548
L85996 68548
L86052 68520
" />
<path d="M86333 68380
L86333 68773
" />
<path d="M86333 68436
L86361 68408
L86418 68380
L86502 68380
L86558 68408
L86586 68464
L86586 68773
" />
<path d="M87121 68773
L87121 68464
L87093 68408
L87036 68380
L86924 68380
L86868 68408
" />
<path d="M87121 68745
L87064 68773
L86924 68773
L86868 68745
L86840 68689
L86840 68633
L86868 68577
L86924 68548
L87064 68548
L87121 68520
" />
<path d="M86840 68211
L87121 68211
" />
</g>
<g style="fill:#000000; fill-opacity:0.0; 
stroke:#000000; stroke-width:39.3701; stroke-opacity:1; 
stroke-linecap:round; stroke-linejoin:round;">
</g>
<g style="fill:#000000; fill-opacity:0.0; 
stroke:#000000; stroke-width:59.0551; stroke-opacity:1; 
stroke-linecap:round; stroke-linejoin:round;">
<path d="M77559 75396
L77559 76577
" />
</g>
<g style="fill:#000000; fill-opacity:0.0; 
stroke:#000000; stroke-width:39.3701; stroke-opacity:1; 
stroke-linecap:round; stroke-linejoin:round;">
</g>
<g style="fill:#000000; fill-opacity:0.0; 
stroke:#000000; stroke-width:59.0551; stroke-opacity:1; 
stroke-linecap:round; stroke-linejoin:round;">
<path d="M102756 75396
L102756 77955
" />
</g>
<g style="fill:#C2C200; fill-opacity:0.0; 
stroke:#C2C200; stroke-width:59.0551; stroke-opacity:1; 
stroke-linecap:round; stroke-linejoin:round;">
<path d="M30200 10600 A6600 6600 0.0 0 0 23600 17200 " />
<path d="M23600 47600 A6600 6600 0.0 0 0 30200 54200 " />
<path d="M62800 54200 A6600 6600 0.0 0 0 69400 47600 " />
<path d="M69400 17600 A7000 7000 0.0 0 0 62400 10600 " />
<path d="M62800 54200
L30200 54200
" />
<path d="M23600 47800
L23600 47800
" />
<path d="M23600 17200
L23600 47600
" />
<path d="M62400 10600
L30200 10600
" />
<path d="M69400 47600
L69400 17600
" />
</g>
<g style="fill:#840000; fill-opacity:0.0; 
stroke:#840000; stroke-width:59.0551; stroke-opacity:1; 
stroke-linecap:round; stroke-linejoin:round;">
</g>
<g style="fill:#840000; fill-opacity:0.0; 
stroke:#840000; stroke-width:0; stroke-opacity:1; 
stroke-linecap:round; stroke-linejoin:round;">
</g>
<g style="fill:#840000; fill-opacity:1.0; 
stroke:#840000; stroke-width:0; stroke-opacity:1; 
stroke-linecap:round; stroke-linejoin:round;">
<polyline style="fill-rule:evenodd;"
points="39389,44220
39389,45779
38610,45779
38610,44220
39389,44220
" /> 
</g>
<g style="fill:#840000; fill-opacity:1.0; 
stroke:#840000; stroke-width:779.528; stroke-opacity:1; 
stroke-linecap:round; stroke-linejoin:round;">
</g>
<g style="fill:#840000; fill-opacity:0.0; 
stroke:#840000; stroke-width:779.528; stroke-opacity:1; 
stroke-linecap:round; stroke-linejoin:round;">
<path d="M37031 45389
L37031 44610
" />
</g>
<g style="fill:#840000; fill-opacity:0.0; 
stroke:#840000; stroke-width:0; stroke-opacity:1; 
stroke-linecap:round; stroke-linejoin:round;">
</g>
<g style="fill:#840000; fill-opacity:1.0; 
stroke:#840000; stroke-width:0; stroke-opacity:1; 
stroke-linecap:round; stroke-linejoin:round;">
<polyline style="fill-rule:evenodd;"
points="45389,46020
45389,47579
44610,47579
44610,46020
45389,46020
" /> 
</g>
<g style="fill:#840000; fill-opacity:1.0; 
stroke:#840000; stroke-width:779.528; stroke-opacity:1; 
stroke-linecap:round; stroke-linejoin:round;">
</g>
<g style="fill:#840000; fill-opacity:0.0; 
stroke:#840000; stroke-width:779.528; stroke-opacity:1; 
stroke-linecap:round; stroke-linejoin:round;">
<path d="M43031 47189
L43031 46410
" />
</g>
<g style="fill:#840000; fill-opacity:0.0; 
stroke:#840000; stroke-width:0; stroke-opacity:1; 
stroke-linecap:round; stroke-linejoin:round;">
</g>
<g style="fill:#840000; fill-opacity:1.0; 
stroke:#840000; stroke-width:0; stroke-opacity:1; 
stroke-linecap:round; stroke-linejoin:round;">
<polyline style="fill-rule:evenodd;"
points="51758,44420
51758,45979
50978,45979
50978,44420
51758,44420
" /> 
</g>
<g style="fill:#840000; fill-opacity:1.0; 
stroke:#840000; stroke-width:779.528; stroke-opacity:1; 
stroke-linecap:round; stroke-linejoin:round;">
</g>
<g style="fill:#840000; fill-opacity:0.0; 
stroke:#840000; stroke-width:779.528; stroke-opacity:1; 
stroke-linecap:round; stroke-linejoin:round;">
<path d="M49400 45589
L49400 44810
" />
</g> 
</svg>
